<svg height="512" viewBox="0 0 512 512" width="512" xmlns="http://www.w3.org/2000/svg"><rect fill="#a5c3dc" height="384" rx="16" width="208" x="268" y="88"/><path d="m444 120h32v32h-32z" fill="#d7e6f0"/><rect fill="#353744" height="432" rx="16" width="240" x="204" y="40"/><rect fill="#55525b" height="432" rx="16" width="176" x="204" y="40"/><rect fill="#f5871e" height="304" rx="16" width="240" x="140" y="168"/><rect fill="#fabe19" height="304" rx="16" width="176" x="140" y="168"/><path d="m316 200h64v32h-64z" fill="#d7e6f0"/><path d="m316 408h64v32h-64z" fill="#d7e6f0"/><g fill="#55525b"><rect height="32" rx="8" transform="matrix(0 1 -1 0 636 -188)" width="208" x="308" y="208"/><rect height="32" rx="8" transform="matrix(0 1 -1 0 812 -12)" width="80" x="372" y="384"/><circle cx="412" cy="88" r="16"/></g><circle cx="148" cy="320" fill="#f04b37" r="112"/><path d="m170.627 320 36.686-36.687a16 16 0 0 0 -22.626-22.626l-36.687 36.686-36.687-36.686a16 16 0 0 0 -22.626 22.626l36.686 36.687-36.686 36.687a16 16 0 1 0 22.626 22.626l36.687-36.686 36.687 36.686a16 16 0 0 0 22.626-22.626z" fill="#d7e6f0"/></svg>