<svg xmlns="http://www.w3.org/2000/svg" viewBox="0 0 500 500"><defs><style>.cls-1{fill:none;}.cls-2{fill:#26457d;}.cls-3{fill:#e4fbef;}.cls-4{fill:#d3effb;}.cls-5{fill:#f1d59d;}.cls-6{fill:#df75a5;}.cls-7{fill:#dd5790;}.cls-8{fill:#ffe07d;}.cls-9{fill:#ffc250;}.cls-10{fill:#ffd064;}</style></defs><title>tidak lulus sd</title><g id="Layer_2" data-name="Layer 2"><g id="Layer_1-2" data-name="Layer 1"><rect class="cls-1" width="500" height="500"/><path class="cls-2" d="M60.45,405.92l-8.63,16.89A18.86,18.86,0,0,0,77.2,448.19l16.89-8.64Z"/><path class="cls-3" d="M340,82.31l77.61,77.62-20.69,20.69L319.32,103Z"/><path class="cls-4" d="M403.4,145.7l14.23,14.22-20.7,20.7L382.7,166.39Z"/><path class="cls-5" d="M120.12,379.89,81.31,341.08,60.45,405.92l16.82,16.82,16.82,16.81,64.84-20.85Z"/><path class="cls-6" d="M417.66,160,340,82.35l24.58-24.58a27.45,27.45,0,0,1,38.82,0l38.81,38.81a27.46,27.46,0,0,1,0,38.81Z"/><path class="cls-7" d="M442.24,96.58,428,82.35a27.46,27.46,0,0,1,0,38.81l-24.58,24.58L417.66,160l24.58-24.58A27.46,27.46,0,0,0,442.24,96.58Z"/><path class="cls-8" d="M319.33,103.05l-238,238L77.82,362a7.31,7.31,0,0,0,8.42,8.42l10.83-1.8a7.25,7.25,0,0,1,6.38,2L345.21,128.92Z"/><path class="cls-9" d="M371.08,154.8,129.33,396.56a7.26,7.26,0,0,1,2,6.37l-1.81,10.84a7.32,7.32,0,0,0,8.43,8.42l20.94-3.49,238-238Z"/><path class="cls-10" d="M345.21,128.92,103.45,370.68a7.28,7.28,0,0,1,2,6.38l-1.81,10.84a7.32,7.32,0,0,0,8.42,8.42L123,394.51a7.31,7.31,0,0,1,6.38,2L371.08,154.8Z"/><path d="M446.51,92.31,407.7,53.5a33.49,33.49,0,0,0-47.36,0l-169,169a6,6,0,1,0,8.54,8.55L319.34,111.6l17.32,17.32L102.43,363.16a13.36,13.36,0,0,0-6.35-.49l-10.84,1.81a1.21,1.21,0,0,1-1.1-.35,1.23,1.23,0,0,1-.36-1.12L87,344l93-93a6,6,0,1,0-8.55-8.55L77,336.81a6,6,0,0,0-1.47,2.42h0L54.85,403.6l-8.41,16.46A24.9,24.9,0,0,0,80,453.57l16.46-8.41,64.37-20.7h0A6,6,0,0,0,163.2,423L310.13,276.05a6,6,0,1,0-8.55-8.55L156,413.06l-19,3.17a1.26,1.26,0,0,1-1.12-.36,1.22,1.22,0,0,1-.35-1.11l1.81-10.84a13.44,13.44,0,0,0-.49-6.34L371.08,163.34l17.33,17.33-66.9,66.9a6,6,0,0,0,8.55,8.55L446.51,139.67a33.52,33.52,0,0,0,0-47.36ZM87.23,376.4l10.84-1.8a1.28,1.28,0,0,1,1.47,1.46L97.73,386.9a13.36,13.36,0,0,0,15.38,15.38l10.83-1.81a1.28,1.28,0,0,1,1.47,1.47l-1.8,10.83a13.37,13.37,0,0,0,2.45,10.15l-30.3,9.75L67.34,404.25,77.08,374a13.34,13.34,0,0,0,10.15,2.45ZM74.45,442.8A12.82,12.82,0,0,1,57.2,425.56l4.85-9.49L83.94,438ZM128.3,389a13.31,13.31,0,0,0-6.34-.48l-10.85,1.81a1.28,1.28,0,0,1-1.46-1.47l1.81-10.84a13.43,13.43,0,0,0-.48-6.34L345.21,137.47l17.33,17.33Zm199.58-286L340,90.9,409.11,160,397,172.12ZM438,131.12l-20.3,20.31L348.58,82.35,368.89,62a21.43,21.43,0,0,1,30.26,0L438,100.86A21.41,21.41,0,0,1,438,131.12Z"/></g></g></svg>