<svg width="500" height="500" viewBox="0 0 500 500" fill="none" xmlns="http://www.w3.org/2000/svg">
<path d="M252.2 105.51C256.922 107.744 261.767 109.71 266.71 111.4C266.785 111.551 266.905 111.674 267.055 111.751C267.204 111.828 267.374 111.856 267.54 111.83C267.667 111.971 267.821 112.084 267.993 112.163C268.164 112.242 268.351 112.285 268.54 112.29L273.98 114.48C278.77 116.6 283.6 118.6 288.55 120.36C289.906 121.181 291.38 121.788 292.92 122.16C294.434 123.027 296.041 123.721 297.71 124.23C301.88 125.92 305.97 127.86 310.28 129.23C312.647 130.459 315.108 131.499 317.64 132.34C319.986 133.438 322.39 134.41 324.84 135.25C329.75 137.52 334.78 139.43 339.84 141.46C343.57 143.03 347.29 144.76 351.23 146.02C351.44 146.41 351.83 146.43 352.23 146.5C352.633 146.841 353.142 147.031 353.67 147.04L362.05 150.54L364.25 151.33C364.08 152.57 362.89 152.49 362.11 152.81C358.11 154.5 353.96 155.97 350.03 157.9C348.858 158.158 347.734 158.601 346.7 159.21C343.583 160.29 340.525 161.535 337.54 162.94C333.27 164.48 329.08 166.21 324.93 168.06C319.93 169.93 315.12 171.79 310.34 174.06L303.13 176.94C300.94 177.693 298.804 178.599 296.74 179.65C296.563 179.62 296.382 179.643 296.218 179.716C296.054 179.789 295.916 179.909 295.82 180.06C293.082 180.874 290.422 181.928 287.87 183.21C285.613 183.95 283.41 184.849 281.28 185.9C273.93 188.7 266.66 191.7 259.41 194.8C256.919 195.621 254.498 196.641 252.17 197.85C251.061 198.45 249.821 198.765 248.56 198.765C247.299 198.765 246.059 198.45 244.95 197.85C242.747 196.689 240.445 195.728 238.07 194.98C233.16 192.75 228.13 190.75 223.16 188.89C221.689 188.034 220.098 187.404 218.44 187.02C217.076 186.117 215.577 185.435 214 185C209.78 183.3 205.67 181.27 201.32 180C201.22 179.854 201.08 179.74 200.917 179.671C200.754 179.602 200.575 179.581 200.4 179.61C198.341 178.567 196.201 177.694 194 177L186.8 174.11L171.8 167.89L157.66 162.15L155.06 160.98C154.34 160.66 153.95 160.77 153.99 161.68C153.99 162.98 153.99 164.29 154.07 165.61V172.86C153.74 178.41 153.74 178.41 157.45 179.7H157.62C157.779 179.87 157.971 180.005 158.184 180.098C158.398 180.191 158.627 180.239 158.86 180.24C159.21 180.57 159.55 180.92 159.92 181.24C161.516 182.428 162.803 183.982 163.673 185.771C164.543 187.559 164.971 189.531 164.92 191.52C164.92 195.88 162.8 199.16 159.63 201.9C157.9 202.33 157.5 203.27 158.22 204.9C158.74 206.318 159.181 207.763 159.54 209.23C159.81 211.689 160.272 214.123 160.92 216.51L161.71 223.78L162.43 233.94C162.276 235.403 162.323 236.88 162.57 238.33C162.32 240.92 162.32 240.92 159.57 240.93C158.903 240.917 158.235 240.94 157.57 241H143.07C140.58 241.35 141.82 239.34 141.36 238.36C141.662 235.939 141.759 233.497 141.65 231.06C141.911 229.835 141.999 228.579 141.91 227.33C142.191 226.769 142.249 226.122 142.07 225.52C142.349 224.967 142.43 224.335 142.3 223.73L143.07 216.45C143.363 215.762 143.497 215.017 143.46 214.27C144.46 211.27 144.46 207.97 145.74 205.01C146.38 203.52 146.41 202.43 144.62 201.78C144.038 201.464 143.52 201.044 143.09 200.54C139.36 196.81 138.53 192.36 139.55 187.39C141.02 184.26 142.85 181.46 146.12 179.93C147.37 179.33 149.34 179.41 149.85 178.21C150.36 177.01 150.01 175.21 150.02 173.76C150.033 173.458 150.006 173.155 149.94 172.86C150.09 170.436 150.09 168.004 149.94 165.58C149.94 164.04 150.01 162.5 150.02 160.94C150.02 158.55 149.89 158.46 147.39 158.31C146.761 157.558 145.872 157.069 144.9 156.94L142.59 156.04C142.489 155.874 142.336 155.747 142.155 155.678C141.974 155.609 141.775 155.603 141.59 155.66C139.86 154.757 138.057 154.001 136.2 153.4C135.598 153.201 135.015 152.946 134.46 152.64C133.9 152.27 132.85 152.46 132.88 151.4C133.88 151.163 134.833 150.76 135.7 150.21L143.05 147.21L157.63 141.21C158.68 140.8 159.75 140.44 160.81 139.97L172.22 135.18C174.671 134.357 177.071 133.392 179.41 132.29C181.946 131.458 184.408 130.414 186.77 129.17C192.67 127.12 198.42 124.7 204.17 122.17C205.709 121.79 207.183 121.179 208.54 120.36C213.54 118.61 218.32 116.64 223.09 114.49L228.55 112.3C229.22 112.09 229.99 112.05 230.45 111.38C235.37 109.709 240.192 107.76 244.89 105.54C247.304 105.081 249.782 105.071 252.2 105.51Z" fill="#327A6D" stroke="black" stroke-width="10" stroke-miterlimit="10"/>
<path d="M266.76 212.92C260.98 214.78 255.46 217.03 251.26 221.7C250.02 223.06 249.58 224.86 248.38 226.38C247.13 222.27 244.38 219.66 241.07 217.6C237.755 215.513 234.149 213.929 230.37 212.9C227.997 212.14 225.57 211.559 223.11 211.16C220.3 210.97 217.58 209.92 214.72 210.16C213.168 209.84 211.578 209.749 210 209.89C206.727 209.593 203.428 209.727 200.19 210.29C198.098 210.345 196.016 210.616 193.98 211.1C191.487 211.358 189.04 211.943 186.7 212.84C186.282 212.902 185.868 212.988 185.46 213.1C180.625 214.604 176.105 216.976 172.12 220.1L172.03 216.45V180.1L172.13 174.3L179.35 177.03C181.725 178.197 184.177 179.2 186.69 180.03L187.78 180.44C189.773 181.476 191.855 182.333 194 183C196.355 184.174 198.791 185.176 201.29 186C206.01 188.24 210.89 190.11 215.78 191.95C218.127 193.111 220.561 194.088 223.06 194.87C225.04 195.966 227.119 196.874 229.27 197.58C232.02 198.83 234.85 199.8 237.64 200.88C238.571 201.533 239.644 201.958 240.77 202.12C243.12 203.318 245.537 204.38 248.01 205.3C248.205 205.394 248.419 205.443 248.635 205.443C248.851 205.443 249.065 205.394 249.26 205.3C251.42 204.3 253.77 203.67 255.83 202.43C257.123 202.132 258.357 201.618 259.48 200.91C265.13 198.66 270.78 196.45 276.41 194.18C282.62 191.69 288.78 189.11 294.96 186.56C295.29 186.44 295.68 186.41 295.86 186.03C298.21 185.268 300.514 184.37 302.76 183.34C305 182.542 307.188 181.604 309.31 180.53L310.4 180.12C312.929 179.307 315.392 178.304 317.77 177.12L324.94 174.39L325.08 175.8V216.47L325 220.1C324.47 220.1 324.23 219.56 323.86 219.28C319.892 216.227 315.327 214.043 310.46 212.87C308.116 211.97 305.666 211.379 303.17 211.11C301.132 210.638 299.051 210.373 296.96 210.32C293.725 209.761 290.43 209.629 287.16 209.93C285.583 209.781 283.992 209.869 282.44 210.19C279.57 209.95 276.86 210.97 274.05 211.19C271.581 211.589 269.145 212.167 266.76 212.92V212.92Z" fill="#327A6D" stroke="black" stroke-width="10" stroke-miterlimit="10"/>
<path d="M252.2 105.51C256.922 107.744 261.767 109.71 266.71 111.4C266.785 111.551 266.905 111.674 267.055 111.751C267.204 111.828 267.374 111.856 267.54 111.83C267.667 111.971 267.821 112.084 267.993 112.163C268.164 112.242 268.351 112.285 268.54 112.29L273.98 114.48C278.77 116.6 283.6 118.6 288.55 120.36C289.906 121.181 291.38 121.788 292.92 122.16C294.434 123.027 296.041 123.721 297.71 124.23C301.88 125.92 305.97 127.86 310.28 129.23C312.647 130.459 315.108 131.499 317.64 132.34C319.986 133.438 322.39 134.41 324.84 135.25C329.75 137.52 334.78 139.43 339.84 141.46C343.57 143.03 347.29 144.76 351.23 146.02C351.44 146.41 351.83 146.43 352.23 146.5C352.633 146.841 353.142 147.031 353.67 147.04L362.05 150.54L364.25 151.33C364.08 152.57 362.89 152.49 362.11 152.81C358.11 154.5 353.96 155.97 350.03 157.9C348.858 158.158 347.734 158.601 346.7 159.21C343.583 160.29 340.525 161.535 337.54 162.94C333.27 164.48 329.08 166.21 324.93 168.06C319.93 169.93 315.12 171.79 310.34 174.06L303.13 176.94C300.94 177.693 298.804 178.599 296.74 179.65C296.563 179.62 296.382 179.643 296.218 179.716C296.054 179.789 295.916 179.909 295.82 180.06C293.082 180.874 290.422 181.928 287.87 183.21C285.613 183.95 283.41 184.849 281.28 185.9C273.93 188.7 266.66 191.7 259.41 194.8C256.919 195.621 254.498 196.641 252.17 197.85C251.061 198.45 249.821 198.765 248.56 198.765C247.299 198.765 246.059 198.45 244.95 197.85C242.747 196.689 240.445 195.728 238.07 194.98C233.16 192.75 228.13 190.75 223.16 188.89C221.689 188.034 220.098 187.404 218.44 187.02C217.076 186.117 215.577 185.435 214 185C209.78 183.3 205.67 181.27 201.32 180C201.22 179.854 201.08 179.74 200.917 179.671C200.754 179.602 200.575 179.581 200.4 179.61C198.341 178.567 196.201 177.694 194 177L186.8 174.11L171.8 167.89L157.66 162.15L155.06 160.98C154.34 160.66 153.95 160.77 153.99 161.68C153.99 162.98 153.99 164.29 154.07 165.61V172.86C153.74 178.41 153.74 178.41 157.45 179.7H157.62C157.779 179.87 157.971 180.005 158.184 180.098C158.398 180.191 158.627 180.239 158.86 180.24C159.21 180.57 159.55 180.92 159.92 181.24C161.516 182.428 162.803 183.982 163.673 185.771C164.543 187.559 164.971 189.531 164.92 191.52C164.92 195.88 162.8 199.16 159.63 201.9C157.9 202.33 157.5 203.27 158.22 204.9C158.74 206.318 159.181 207.763 159.54 209.23C159.81 211.689 160.272 214.123 160.92 216.51L161.71 223.78L162.43 233.94C162.276 235.403 162.323 236.88 162.57 238.33C162.32 240.92 162.32 240.92 159.57 240.93C158.903 240.917 158.235 240.94 157.57 241H143.07C140.58 241.35 141.82 239.34 141.36 238.36C141.662 235.939 141.759 233.497 141.65 231.06C141.911 229.835 141.999 228.579 141.91 227.33C142.191 226.769 142.249 226.122 142.07 225.52C142.349 224.967 142.43 224.335 142.3 223.73L143.07 216.45C143.363 215.762 143.497 215.017 143.46 214.27C144.46 211.27 144.46 207.97 145.74 205.01C146.38 203.52 146.41 202.43 144.62 201.78C144.038 201.464 143.52 201.044 143.09 200.54C139.36 196.81 138.53 192.36 139.55 187.39C141.02 184.26 142.85 181.46 146.12 179.93C147.37 179.33 149.34 179.41 149.85 178.21C150.36 177.01 150.01 175.21 150.02 173.76C150.033 173.458 150.006 173.155 149.94 172.86C150.09 170.436 150.09 168.004 149.94 165.58C149.94 164.04 150.01 162.5 150.02 160.94C150.02 158.55 149.89 158.46 147.39 158.31C146.761 157.558 145.872 157.069 144.9 156.94L142.59 156.04C142.489 155.874 142.336 155.747 142.155 155.678C141.974 155.609 141.775 155.603 141.59 155.66C139.86 154.757 138.057 154.001 136.2 153.4C135.598 153.201 135.015 152.946 134.46 152.64C133.9 152.27 132.85 152.46 132.88 151.4C133.88 151.163 134.833 150.76 135.7 150.21L143.05 147.21L157.63 141.21C158.68 140.8 159.75 140.44 160.81 139.97L172.22 135.18C174.671 134.357 177.071 133.392 179.41 132.29C181.946 131.458 184.408 130.414 186.77 129.17C192.67 127.12 198.42 124.7 204.17 122.17C205.709 121.79 207.183 121.179 208.54 120.36C213.54 118.61 218.32 116.64 223.09 114.49L228.55 112.3C229.22 112.09 229.99 112.05 230.45 111.38C235.37 109.709 240.192 107.76 244.89 105.54C247.304 105.081 249.782 105.071 252.2 105.51Z" fill="#327A6D"/>
<path d="M266.76 212.92C260.98 214.78 255.46 217.03 251.26 221.7C250.02 223.06 249.58 224.86 248.38 226.38C247.13 222.27 244.38 219.66 241.07 217.6C237.755 215.513 234.149 213.929 230.37 212.9C227.997 212.14 225.57 211.559 223.11 211.16C220.3 210.97 217.58 209.92 214.72 210.16C213.168 209.84 211.578 209.749 210 209.89C206.727 209.593 203.428 209.727 200.19 210.29C198.098 210.345 196.016 210.616 193.98 211.1C191.487 211.358 189.04 211.943 186.7 212.84C186.282 212.902 185.868 212.988 185.46 213.1C180.625 214.604 176.105 216.976 172.12 220.1L172.03 216.45V180.1L172.13 174.3L179.35 177.03C181.725 178.197 184.177 179.2 186.69 180.03L187.78 180.44C189.773 181.476 191.855 182.333 194 183C196.355 184.174 198.791 185.176 201.29 186C206.01 188.24 210.89 190.11 215.78 191.95C218.127 193.111 220.561 194.088 223.06 194.87C225.04 195.966 227.119 196.874 229.27 197.58C232.02 198.83 234.85 199.8 237.64 200.88C238.571 201.533 239.644 201.958 240.77 202.12C243.12 203.318 245.537 204.38 248.01 205.3C248.205 205.394 248.419 205.443 248.635 205.443C248.851 205.443 249.065 205.394 249.26 205.3C251.42 204.3 253.77 203.67 255.83 202.43C257.123 202.132 258.357 201.618 259.48 200.91C265.13 198.66 270.78 196.45 276.41 194.18C282.62 191.69 288.78 189.11 294.96 186.56C295.29 186.44 295.68 186.41 295.86 186.03C298.21 185.268 300.514 184.37 302.76 183.34C305 182.542 307.188 181.604 309.31 180.53L310.4 180.12C312.929 179.307 315.392 178.304 317.77 177.12L324.94 174.39L325.08 175.8V216.47L325 220.1C324.47 220.1 324.23 219.56 323.86 219.28C319.892 216.227 315.327 214.043 310.46 212.87C308.116 211.97 305.666 211.379 303.17 211.11C301.132 210.638 299.051 210.373 296.96 210.32C293.725 209.761 290.43 209.629 287.16 209.93C285.583 209.781 283.992 209.869 282.44 210.19C279.57 209.95 276.86 210.97 274.05 211.19C271.581 211.589 269.145 212.167 266.76 212.92V212.92Z" fill="#327A6D"/>
<path d="M127.578 362V256.531H162.102C174.852 256.531 185.891 258.688 195.219 263C204.547 267.312 211.766 273.406 216.875 281.281C221.984 289.156 224.539 298.484 224.539 309.266C224.539 320 221.984 329.328 216.875 337.25C211.766 345.125 204.547 351.219 195.219 355.531C185.891 359.844 174.852 362 162.102 362H127.578ZM149.234 343.086H162.875C171.312 343.086 178.461 341.773 184.32 339.148C190.227 336.477 194.703 332.633 197.75 327.617C200.844 322.555 202.391 316.438 202.391 309.266C202.391 302.047 200.844 295.93 197.75 290.914C194.703 285.898 190.227 282.078 184.32 279.453C178.461 276.781 171.312 275.445 162.875 275.445H149.234V343.086ZM259.766 256.531H238.109V362H259.766V256.531ZM335.562 362H312.641L270.594 256.531H293.305L324.102 337.25L354.758 256.531H377.539L335.562 362Z" fill="#F8A23D"/>
<path d="M127.578 362H122.578V367H127.578V362ZM127.578 256.531V251.531H122.578V256.531H127.578ZM216.875 337.25L221.07 339.971L221.077 339.96L216.875 337.25ZM149.234 343.086H144.234V348.086H149.234V343.086ZM184.32 339.148L186.365 343.711L186.373 343.708L186.381 343.704L184.32 339.148ZM197.75 327.617L193.484 325.01L193.477 325.021L197.75 327.617ZM197.75 290.914L193.477 293.51L193.486 293.525L193.494 293.539L197.75 290.914ZM184.32 279.453L182.246 284.002L182.268 284.012L182.29 284.022L184.32 279.453ZM149.234 275.445V270.445H144.234V275.445H149.234ZM132.578 362V256.531H122.578V362H132.578ZM127.578 261.531H162.102V251.531H127.578V261.531ZM162.102 261.531C174.297 261.531 184.589 263.594 193.121 267.538L197.317 258.462C187.193 253.781 175.406 251.531 162.102 251.531V261.531ZM193.121 267.538C201.677 271.494 208.133 276.993 212.681 284.003L221.069 278.56C215.399 269.819 207.417 263.131 197.317 258.462L193.121 267.538ZM212.681 284.003C217.189 290.952 219.539 299.303 219.539 309.266H229.539C229.539 297.666 226.779 287.36 221.069 278.56L212.681 284.003ZM219.539 309.266C219.539 319.176 217.192 327.534 212.673 334.54L221.077 339.96C226.777 331.122 229.539 320.824 229.539 309.266H219.539ZM212.681 334.529C208.133 341.538 201.677 347.037 193.121 350.993L197.317 360.07C207.417 355.4 215.399 348.712 221.069 339.971L212.681 334.529ZM193.121 350.993C184.589 354.937 174.297 357 162.102 357V367C175.406 367 187.193 364.75 197.317 360.07L193.121 350.993ZM162.102 357H127.578V367H162.102V357ZM149.234 348.086H162.875V338.086H149.234V348.086ZM162.875 348.086C171.806 348.086 179.694 346.7 186.365 343.711L182.276 334.585C177.228 336.847 170.819 338.086 162.875 338.086V348.086ZM186.381 343.704C193.105 340.662 198.399 336.179 202.023 330.213L193.477 325.021C191.007 329.086 187.348 332.291 182.259 334.593L186.381 343.704ZM202.016 330.224C205.681 324.227 207.391 317.165 207.391 309.266H197.391C197.391 315.71 196.006 320.882 193.484 325.01L202.016 330.224ZM207.391 309.266C207.391 301.328 205.685 294.254 202.006 288.289L193.494 293.539C196.002 297.605 197.391 302.765 197.391 309.266H207.391ZM202.023 288.318C198.394 282.344 193.09 277.879 186.351 274.884L182.29 284.022C187.363 286.277 191.012 289.453 193.477 293.51L202.023 288.318ZM186.395 274.904C179.715 271.858 171.816 270.445 162.875 270.445V280.445C170.809 280.445 177.207 281.705 182.246 284.002L186.395 274.904ZM162.875 270.445H149.234V280.445H162.875V270.445ZM144.234 275.445V343.086H154.234V275.445H144.234ZM259.766 256.531H264.766V251.531H259.766V256.531ZM238.109 256.531V251.531H233.109V256.531H238.109ZM238.109 362H233.109V367H238.109V362ZM259.766 362V367H264.766V362H259.766ZM259.766 251.531H238.109V261.531H259.766V251.531ZM233.109 256.531V362H243.109V256.531H233.109ZM238.109 367H259.766V357H238.109V367ZM264.766 362V256.531H254.766V362H264.766ZM335.562 362V367H338.954L340.208 363.849L335.562 362ZM312.641 362L307.996 363.852L309.251 367H312.641V362ZM270.594 256.531V251.531H263.218L265.949 258.383L270.594 256.531ZM293.305 256.531L297.976 254.749L296.749 251.531H293.305V256.531ZM324.102 337.25L319.43 339.032L324.112 351.304L328.776 339.025L324.102 337.25ZM354.758 256.531V251.531H351.308L350.084 254.756L354.758 256.531ZM377.539 256.531L382.185 258.38L384.911 251.531H377.539V256.531ZM335.562 357H312.641V367H335.562V357ZM317.285 360.148L275.238 254.68L265.949 258.383L307.996 363.852L317.285 360.148ZM270.594 261.531H293.305V251.531H270.594V261.531ZM288.633 258.314L319.43 339.032L328.773 335.468L297.976 254.749L288.633 258.314ZM328.776 339.025L359.432 258.306L350.084 254.756L319.427 335.475L328.776 339.025ZM354.758 261.531H377.539V251.531H354.758V261.531ZM372.893 254.682L330.917 360.151L340.208 363.849L382.185 258.38L372.893 254.682Z" fill="black"/>
</svg>
