<svg width="500" height="500" viewBox="0 0 500 500" fill="none" xmlns="http://www.w3.org/2000/svg">
<path d="M145 432.88H129C122.468 432.88 116.203 430.285 111.584 425.666C106.965 421.047 104.37 414.782 104.37 408.25V91.7501C104.37 85.2178 106.965 78.9531 111.584 74.3341C116.203 69.7151 122.468 67.1201 129 67.1201H145V432.88Z" fill="#003819"/>
<path d="M130 67.1201H145V432.88H130V67.1201Z" fill="#019544"/>
<path d="M385.36 432.88H145V67.1201H385.36C388.084 67.1201 390.696 68.2021 392.622 70.1281C394.548 72.0541 395.63 74.6663 395.63 77.3901V422.61C395.63 425.334 394.548 427.946 392.622 429.872C390.696 431.798 388.084 432.88 385.36 432.88V432.88Z" fill="#6ED5A1"/>
<path d="M395.63 77.3901V422.61C395.631 423.958 395.367 425.294 394.852 426.54C394.337 427.785 393.581 428.918 392.629 429.871C391.676 430.825 390.544 431.582 389.299 432.098C388.053 432.614 386.718 432.88 385.37 432.88H370.64C371.988 432.88 373.323 432.614 374.569 432.098C375.814 431.582 376.946 430.825 377.899 429.871C378.851 428.918 379.607 427.785 380.122 426.54C380.637 425.294 380.901 423.958 380.9 422.61V77.3901C380.901 76.0419 380.637 74.7067 380.122 73.4607C379.607 72.2148 378.851 71.0825 377.899 70.1287C376.946 69.1749 375.814 68.4183 374.569 67.9021C373.323 67.3858 371.988 67.1201 370.64 67.1201H385.37C386.718 67.1201 388.053 67.3858 389.299 67.9021C390.544 68.4183 391.676 69.1749 392.629 70.1287C393.581 71.0825 394.337 72.2148 394.852 73.4607C395.367 74.7067 395.631 76.0419 395.63 77.3901V77.3901Z" fill="#46CC8D"/>
<path d="M368.31 128V372C368.307 373.444 367.809 374.843 366.899 375.964C365.989 377.085 364.722 377.86 363.31 378.16C356.872 379.551 350.906 382.591 345.997 386.983C341.089 391.374 337.406 396.966 335.31 403.21C334.883 404.458 334.073 405.54 332.996 406.301C331.919 407.062 330.629 407.464 329.31 407.45H211.23C209.919 407.455 208.64 407.049 207.572 406.288C206.505 405.527 205.703 404.451 205.28 403.21C203.184 396.966 199.501 391.374 194.592 386.983C189.683 382.591 183.718 379.551 177.28 378.16C175.867 377.86 174.6 377.085 173.691 375.964C172.781 374.843 172.283 373.444 172.28 372V128C172.283 126.556 172.781 125.157 173.691 124.036C174.6 122.915 175.867 122.14 177.28 121.84C183.712 120.454 189.674 117.421 194.582 113.039C199.49 108.656 203.176 103.075 205.28 96.84C205.703 95.5993 206.505 94.5226 207.572 93.7619C208.64 93.0012 209.919 92.5948 211.23 92.6H329.4C330.719 92.5858 332.009 92.9879 333.086 93.7491C334.163 94.5104 334.973 95.5919 335.4 96.84C337.503 103.075 341.189 108.656 346.097 113.039C351.006 117.421 356.968 120.454 363.4 121.84C364.812 122.14 366.079 122.915 366.989 124.036C367.899 125.157 368.397 126.556 368.4 128H368.31Z" fill="#003819"/>
<path d="M368.31 128V372C368.307 373.444 367.809 374.843 366.899 375.964C365.989 377.085 364.722 377.86 363.31 378.16C356.875 379.558 350.913 382.601 346.006 386.991C341.098 391.382 337.413 396.97 335.31 403.21C334.89 404.452 334.088 405.531 333.02 406.292C331.952 407.053 330.671 407.458 329.36 407.45H314.36C317.04 407.45 320.22 405.9 320.31 403.21C320.88 386.75 335.13 368.59 348.31 365.75C349.721 365.448 350.987 364.673 351.897 363.552C352.807 362.432 353.305 361.033 353.31 359.59V139.88C353.307 138.436 352.809 137.037 351.899 135.916C350.989 134.795 349.722 134.02 348.31 133.72C335.17 130.89 317.86 111.99 320.31 96.7199C320.74 94.0799 317.04 92.4899 314.36 92.4899H329.36C330.67 92.481 331.95 92.8847 333.018 93.644C334.086 94.4032 334.888 95.4794 335.31 96.7199C337.411 102.961 341.096 108.55 346.004 112.941C350.911 117.331 356.874 120.374 363.31 121.77C364.734 122.072 366.01 122.857 366.921 123.993C367.833 125.128 368.323 126.544 368.31 128V128Z" fill="#019544"/>
<path d="M320.94 67.1201H305.94V134.59C305.939 134.943 306.023 135.292 306.185 135.606C306.347 135.92 306.581 136.191 306.869 136.395C307.157 136.6 307.49 136.733 307.84 136.782C308.19 136.832 308.546 136.797 308.88 136.68L320.23 132.76C320.697 132.6 321.203 132.6 321.67 132.76L333 136.68C333.333 136.795 333.688 136.828 334.037 136.778C334.385 136.727 334.717 136.594 335.003 136.39C335.29 136.185 335.524 135.915 335.685 135.602C335.846 135.289 335.93 134.942 335.93 134.59V67.1201H320.94Z" fill="#FECE85"/>
<path d="M336 67.1201V134.59C335.998 134.943 335.913 135.29 335.75 135.603C335.588 135.916 335.354 136.185 335.066 136.39C334.779 136.594 334.447 136.727 334.098 136.777C333.749 136.828 333.393 136.794 333.06 136.68L321.7 132.76C321.468 132.68 321.225 132.639 320.98 132.64V67.1201H336Z" fill="#FEC165"/>
<path d="M395.63 99.4501C397.094 99.4501 398.498 98.8685 399.533 97.8333C400.569 96.7981 401.15 95.3941 401.15 93.9301V77.3901C401.147 73.2031 399.483 69.1884 396.522 66.2278C393.562 63.2672 389.547 61.6027 385.36 61.6001H129C121.006 61.608 113.342 64.7871 107.69 70.4396C102.037 76.0921 98.858 83.7563 98.8501 91.7501V408.25C98.858 416.244 102.037 423.908 107.69 429.561C113.342 435.213 121.006 438.392 129 438.4H385.36C389.547 438.397 393.562 436.733 396.522 433.772C399.483 430.812 401.147 426.797 401.15 422.61V119.48C401.215 118.718 401.121 117.952 400.874 117.228C400.627 116.504 400.233 115.84 399.716 115.277C399.199 114.714 398.57 114.264 397.871 113.957C397.171 113.649 396.415 113.491 395.65 113.491C394.886 113.491 394.129 113.649 393.43 113.957C392.73 114.264 392.101 114.714 391.584 115.277C391.067 115.84 390.673 116.504 390.426 117.228C390.179 117.952 390.085 118.718 390.15 119.48V422.61C390.15 423.87 389.65 425.078 388.759 425.969C387.868 426.86 386.66 427.36 385.4 427.36H150.52V72.6401H300.41V87.0001H211.23C208.755 86.9833 206.337 87.7473 204.321 89.1835C202.305 90.6198 200.793 92.6551 200 95.0001C198.204 100.326 195.059 105.096 190.873 108.846C186.686 112.596 181.601 115.198 176.11 116.4C173.47 116.988 171.109 118.457 169.416 120.565C167.722 122.674 166.796 125.296 166.79 128V372C166.807 374.703 167.743 377.32 169.444 379.421C171.145 381.522 173.51 382.981 176.15 383.56C181.637 384.773 186.718 387.384 190.897 391.141C195.076 394.898 198.212 399.672 200 405C200.791 407.339 202.297 409.369 204.305 410.805C206.313 412.241 208.722 413.008 211.19 413H329.39C331.859 413.01 334.268 412.243 336.277 410.807C338.285 409.371 339.791 407.339 340.58 405C342.378 399.674 345.522 394.904 349.708 391.152C353.894 387.401 358.98 384.796 364.47 383.59C367.116 383.012 369.486 381.548 371.188 379.441C372.89 377.334 373.822 374.709 373.83 372V128C373.815 125.297 372.88 122.679 371.179 120.578C369.477 118.476 367.111 117.017 364.47 116.44C359.392 115.326 354.655 113.012 350.653 109.693C346.652 106.373 343.503 102.145 341.47 97.3601V72.6401H385.36C386.62 72.6401 387.828 73.1405 388.719 74.0313C389.61 74.9221 390.11 76.1303 390.11 77.3901V93.9301C390.11 95.3941 390.692 96.7981 391.727 97.8333C392.762 98.8685 394.166 99.4501 395.63 99.4501V99.4501ZM139.47 427.36H129C123.933 427.355 119.076 425.34 115.493 421.757C111.91 418.174 109.895 413.317 109.89 408.25V91.7501C109.895 86.6834 111.91 81.8258 115.493 78.2431C119.076 74.6605 123.933 72.6454 129 72.6401H139.47V427.36ZM362.14 127.19C362.319 127.222 362.482 127.316 362.601 127.454C362.719 127.593 362.786 127.768 362.79 127.95V372C362.786 372.182 362.719 372.358 362.601 372.496C362.482 372.635 362.319 372.728 362.14 372.76C354.785 374.381 347.974 377.875 342.367 382.904C336.761 387.932 332.549 394.324 330.14 401.46C330.084 401.604 329.984 401.726 329.855 401.81C329.726 401.895 329.574 401.936 329.42 401.93H211.23C211.077 401.936 210.927 401.894 210.799 401.809C210.672 401.725 210.574 401.603 210.52 401.46C208.111 394.324 203.899 387.932 198.293 382.904C192.686 377.875 185.875 374.381 178.52 372.76C178.342 372.728 178.18 372.634 178.063 372.495C177.947 372.356 177.882 372.181 177.88 372V128C177.882 127.819 177.947 127.644 178.063 127.505C178.18 127.366 178.342 127.273 178.52 127.24C185.874 125.62 192.684 122.128 198.291 117.101C203.897 112.074 208.11 105.684 210.52 98.5501C210.574 98.4073 210.672 98.2852 210.799 98.2009C210.927 98.1165 211.077 98.0743 211.23 98.0801H300.41V134.64C300.409 135.873 300.703 137.088 301.268 138.185C301.832 139.281 302.651 140.226 303.655 140.941C304.659 141.657 305.82 142.122 307.04 142.297C308.26 142.473 309.505 142.354 310.67 141.95L320.94 138.41L331.21 141.95C332.375 142.354 333.62 142.473 334.84 142.297C336.061 142.122 337.221 141.657 338.226 140.941C339.23 140.226 340.048 139.281 340.613 138.185C341.177 137.088 341.471 135.873 341.47 134.64V116.25C347.233 121.714 354.381 125.498 362.14 127.19V127.19ZM330.43 130L323.43 127.59C321.809 127.039 320.051 127.039 318.43 127.59L311.43 130V72.6401H330.43V130Z" fill="black"/>
</svg>
