<svg xmlns="http://www.w3.org/2000/svg" viewBox="0 0 500 500"><defs><style>.cls-1{fill:none;}.cls-2{fill:#fdbd37;}.cls-3{fill:#fa9a39;}.cls-4{fill:#fed6a6;}.cls-5{fill:#efc79c;}.cls-6{fill:#ffe3c2;}.cls-7{fill:#f7d6b5;}.cls-8{fill:#ff94a6;}.cls-9{fill:#f4849c;}.cls-10{fill:#4c7ba5;}.cls-11{fill:#375779;}.cls-12{fill:#8b5f46;}.cls-13{fill:#844535;}.cls-14{fill:#b2b9bf;}.cls-15{fill:#a3acb2;}.cls-16{fill:#545464;}.cls-17{fill:#394856;}</style></defs><title>mengurus rumah tangga</title><g id="Layer_2" data-name="Layer 2"><g id="Layer_1-2" data-name="Layer 1"><rect class="cls-1" width="500" height="500"/><path class="cls-2" d="M102.31,111.89V303H284.63V111.89a67,67,0,0,0-73-66.67l-12.77,1.16a58.16,58.16,0,0,1-10.72,0l-12.77-1.16A67,67,0,0,0,102.31,111.89Z"/><path class="cls-3" d="M211.6,45.22l-12.77,1.16a58.16,58.16,0,0,1-10.72,0l-2.66-.24a67,67,0,0,1,54.31,65.75V303h44.87V111.89A67,67,0,0,0,211.6,45.22Z"/><path class="cls-4" d="M304.72,289.46A245.49,245.49,0,0,0,238,266.92a18.73,18.73,0,0,1-15.31-18.42V212.69H164.2V248.5a18.73,18.73,0,0,1-15.3,18.42,245.67,245.67,0,0,0-66.69,22.54,45.26,45.26,0,0,0-24.76,40.35v98.52h272V329.81A45.25,45.25,0,0,0,304.72,289.46Z"/><path class="cls-5" d="M304.72,289.46A245.49,245.49,0,0,0,238,266.92a18.73,18.73,0,0,1-15.31-18.42V212.69H177.67v53A18.71,18.71,0,0,0,193,284.09a245.51,245.51,0,0,1,66.68,22.55A45.24,45.24,0,0,1,284.42,347v81.34h45.07V329.81A45.25,45.25,0,0,0,304.72,289.46Z"/><path class="cls-4" d="M129.29,130H118.65a16.34,16.34,0,0,0-16.34,16.35v7.74a16.34,16.34,0,0,0,16.34,16.35h10.64Z"/><path class="cls-4" d="M257.65,130h10.63a16.34,16.34,0,0,1,16.35,16.35v7.74a16.34,16.34,0,0,1-16.35,16.35H257.65Z"/><path class="cls-6" d="M193.47,89.22c-29.48,29.48-68.95,32.47-68.95,32.47l.22,57.82c0,45.69,48,67.21,68.73,67.65,20.76-.44,68.73-22,68.73-67.65l.22-57.82S223,118.7,193.47,89.22Z"/><path class="cls-7" d="M217.32,107.09l-.19,72.42c0,32.73-24.6,53.05-46.2,62.11,8.56,3.59,16.64,5.42,22.54,5.54,20.76-.44,68.73-22,68.73-67.65l.22-57.82A122,122,0,0,1,217.32,107.09Z"/><path class="cls-8" d="M304.72,289.46a246.38,246.38,0,0,0-45.06-17.54c-8.47,13.59-35.43,23.53-67.39,23.53-31.51,0-58.16-9.66-67-22.95a245.17,245.17,0,0,0-43,17,45.25,45.25,0,0,0-24.77,40.35v98.52h272V329.81A45.25,45.25,0,0,0,304.72,289.46Z"/><path class="cls-9" d="M304.72,289.46a246.38,246.38,0,0,0-45.06-17.54c-5.44,8.74-18.54,16-35.69,20a245.8,245.8,0,0,1,35.69,14.71A45.25,45.25,0,0,1,284.42,347v81.34h45.07V329.81A45.25,45.25,0,0,0,304.72,289.46Z"/><path class="cls-10" d="M142,268.3q-11.46,2.46-22.72,6v90.85H142Z"/><path class="cls-10" d="M263.75,273.11Q252.5,269.75,241,267.5V369h22.72Z"/><path class="cls-11" d="M287.58,428.33V362.44a9.26,9.26,0,0,0-4.74-8.11c-6.95-3.89-19.08-12-19.08-21.4v-1.68a7.57,7.57,0,0,0-7.58-7.57H126.85a7.57,7.57,0,0,0-7.58,7.57v1.68c0,9.39-12.13,17.51-19.08,21.4a9.26,9.26,0,0,0-4.74,8.11v65.89Z"/><path class="cls-12" d="M470,455.07H30.05a6.18,6.18,0,0,1-6.17-6.18V419a6.18,6.18,0,0,1,6.17-6.18H470a6.18,6.18,0,0,1,6.17,6.18v29.94A6.18,6.18,0,0,1,470,455.07Z"/><path class="cls-13" d="M470,412.77h-38.9v42.3H470a6.18,6.18,0,0,0,6.17-6.18V419A6.18,6.18,0,0,0,470,412.77Z"/><path class="cls-14" d="M426.84,314.78H352.73a29.82,29.82,0,0,0-29.82,29.82v47.1a22.89,22.89,0,0,0,22.89,22.89h88a22.89,22.89,0,0,0,22.89-22.89V344.6A29.82,29.82,0,0,0,426.84,314.78Z"/><path class="cls-15" d="M426.84,314.78H397.39A14.21,14.21,0,0,1,411.6,329v78.32a7.28,7.28,0,0,1-7.28,7.28h29.46a22.89,22.89,0,0,0,22.89-22.89V344.6A29.82,29.82,0,0,0,426.84,314.78Z"/><path class="cls-16" d="M426.84,314.78H352.73a29.82,29.82,0,0,0-29.82,29.82H456.67A29.82,29.82,0,0,0,426.84,314.78Z"/><path class="cls-17" d="M441.78,318.79c-.38-.22-.76-.43-1.16-.64a29.68,29.68,0,0,0-13.78-3.37H397.39A14.21,14.21,0,0,1,411.6,329V344.6h45.07a30,30,0,0,0-.94-7.45,28.45,28.45,0,0,0-.87-2.8,29.22,29.22,0,0,0-3.28-6.42,30.21,30.21,0,0,0-7.72-7.82C443.18,319.64,442.49,319.2,441.78,318.79Z"/><path d="M194.52,186.16h5.06a6.83,6.83,0,1,0,0-13.65h-.65v-11a6.83,6.83,0,0,0-13.65,0v15.37A9.25,9.25,0,0,0,194.52,186.16Z"/><path d="M222.22,205.17a6.83,6.83,0,1,0-11.54-7.3c-3.07,4.85-9.82,8-17.21,8s-14.14-3.14-17.21-8a6.83,6.83,0,0,0-11.54,7.3c5.6,8.85,16.62,14.34,28.75,14.34S216.62,214,222.22,205.17Z"/><path d="M228.65,161.08a6.82,6.82,0,0,0,6.83-6.82v-7a6.83,6.83,0,1,0-13.65,0v7A6.82,6.82,0,0,0,228.65,161.08Z"/><path d="M165.11,147.26a6.83,6.83,0,1,0-13.65,0v7a6.83,6.83,0,0,0,13.65,0Z"/><path d="M470,405.94H459.87a29.75,29.75,0,0,0,3.62-14.25V375.84h4.66a14.59,14.59,0,0,0,14.57-14.57v-8.93a14.59,14.59,0,0,0-14.57-14.57h-5.29a36.71,36.71,0,0,0-36-29.82H396.62V304.2h4.89a6.83,6.83,0,0,0,0-13.65H378.08a6.83,6.83,0,1,0,0,13.65H383V308H352.73a36.45,36.45,0,0,0-19.12,5.39,53.06,53.06,0,0,0-25.8-30c-24.14-12.61-64.22-22.39-68.53-23.18a11.88,11.88,0,0,1-9.72-11.7v-6a94.54,94.54,0,0,0,10.2-6.79C253.11,225.53,269,207.49,269,179.54v-2.28a23,23,0,0,0,8.77-2v73.37a6.83,6.83,0,0,0,13.65,0V111.89A73.78,73.78,0,0,0,211,38.42a188.79,188.79,0,0,1-35,0,73.79,73.79,0,0,0-80.48,73.47V248.62a6.83,6.83,0,0,0,13.65,0v-73.4a23,23,0,0,0,8.78,2v2.25c0,28,15.91,46,29.25,56.21a93.68,93.68,0,0,0,10.21,6.79v6a11.88,11.88,0,0,1-9.72,11.7c-3.48.65-43.25,10.27-68.54,23.18a51.9,51.9,0,0,0-28.5,46.43V406H30.05a13,13,0,0,0-13,13v29.95a13,13,0,0,0,13,13H470a13,13,0,0,0,13-13V418.94A13,13,0,0,0,470,405.94Zm-6.46-54.52h4.66a.92.92,0,0,1,.92.92v8.93a.92.92,0,0,1-.92.92h-4.66Zm-133.76,0h20.72a6.83,6.83,0,0,0,0-13.65H330.77a23,23,0,0,1,22-16.17h74.11a23,23,0,0,1,22,16.17H382.2a6.83,6.83,0,0,0,0,13.65h67.65v40.27a16,16,0,0,1-8.64,14.25H338.37a16,16,0,0,1-8.64-14.25Zm-59.15-68.95a237.76,237.76,0,0,1,31.05,13.08,38.66,38.66,0,0,1,20.62,28.71,36.6,36.6,0,0,0-5.53,13.51h-5.29a14.59,14.59,0,0,0-14.57,14.57v8.93a14.59,14.59,0,0,0,14.57,14.57h4.65v15.85a29.75,29.75,0,0,0,3.63,14.25h-25.3v-43.5a16.14,16.14,0,0,0-8.24-14.08c-9.47-5.28-15.59-11.34-15.59-15.43Zm45.5,68.95v10.77h-4.65a.92.92,0,0,1-.92-.92v-8.93a.92.92,0,0,1,.92-.92Zm-68.23-75.48q4.58,1.06,9.08,2.31v38.62l-9.08,0Zm30-121.85a9.54,9.54,0,0,1-8.72,9.5l.1-26.71a9.53,9.53,0,0,1,8.62,9.48Zm-168.67,0v-7.73a9.53,9.53,0,0,1,8.62-9.48l.1,26.71A9.55,9.55,0,0,1,109.13,154.09Zm8.56-32.38v1.49a23.22,23.22,0,0,0-8.57,2V111.89A60.14,60.14,0,0,1,174.72,52a203.36,203.36,0,0,0,37.5,0,60.14,60.14,0,0,1,65.58,59.88v13.34a23.12,23.12,0,0,0-8.56-2v-1.49a6.84,6.84,0,0,0-6.3-6.83c-.37,0-37.41-3.25-64.65-30.49a6.83,6.83,0,0,0-9.65,0c-27.23,27.24-64.28,30.46-64.64,30.49A6.83,6.83,0,0,0,117.69,121.71Zm37.77,103.17c-10.9-8.33-23.89-23-23.89-45.39l-.2-51.83c12-2,39-8.59,62.1-29.07,23.11,20.48,50.05,27.06,62.1,29.07l-.2,51.85c0,22.41-13,37-23.89,45.37-13.47,10.29-29.11,15.21-38,15.45C184.56,240.09,168.93,235.17,155.46,224.88Zm-6.64,49,1.31-.24A25.55,25.55,0,0,0,171,249c8.48,3.24,16.38,4.86,22.3,5h.3c5.92-.12,13.82-1.74,22.29-5a25.57,25.57,0,0,0,18.29,24v8.71c-11.72,4.47-26.41,6.9-41.93,6.9-16,0-31.58-2.71-43.45-7.49Zm0,21.81c12.62,4.28,27.67,6.59,43.45,6.59a139.22,139.22,0,0,0,41.93-6.1v20.68H148.82V295.68ZM126.1,279.36c3-.88,6-1.7,9.07-2.47v40l-9.07,0Zm0,53.57v-1.68a.75.75,0,0,1,.75-.75H256.18a.76.76,0,0,1,.75.66v1.77c0,12.18,12.28,21.6,22.58,27.35a2.47,2.47,0,0,1,1.25,2.16V406H102.27V362.44a2.47,2.47,0,0,1,1.25-2.16C113.82,354.53,126.1,345.11,126.1,332.93Zm-61.83-3.12a38.24,38.24,0,0,1,21-34.26,237.38,237.38,0,0,1,27.15-11.72v49.1c0,4.09-6.12,10.15-15.59,15.43a16.14,16.14,0,0,0-8.24,14.08v43.5H64.27Zm405,118.43H30.7V419.6H469.3Z"/></g></g></svg>