<svg xmlns="http://www.w3.org/2000/svg" viewBox="0 0 500 500"><defs><style>.cls-1{fill:none;}.cls-2{fill:#ea9d2d;}.cls-3{fill:#f6bb92;}.cls-4{fill:#e6af89;}.cls-5{fill:#cbcbcb;}.cls-6{fill:#683b0d;}.cls-7{fill:#c38325;}.cls-8{fill:#eaeae8;}</style></defs><title>umur_dewas</title><g id="Layer_2" data-name="Layer 2"><g id="Layer_1-2" data-name="Layer 1"><rect class="cls-1" width="500" height="500"/><g id="filled_outline" data-name="filled outline"><path class="cls-2" d="M278.28,310.44l120.84,60.42a49.12,49.12,0,0,1,26.69,37.22l3,21.93H62.28l3-21.93A49.12,49.12,0,0,1,92,370.86l120.84-60.42Z"/><path class="cls-2" d="M92,370.86l9.58-4.78V430H62.28l3-21.93A49.11,49.11,0,0,1,92,370.86Z"/><path class="cls-2" d="M428.82,430H389.55V366.08l9.58,4.78a49.13,49.13,0,0,1,26.67,37.22Z"/><path class="cls-2" d="M329.17,335.88l-83.62,67.95-83.62-67.95,28.16-14.08,22.73-11.36h65.46L304.8,323.7Z"/><path class="cls-3" d="M291.37,317l-13.09-6.54V284.26H212.82v26.18L199.73,317l45.82,19.64Z"/><path class="cls-3" d="M278.28,284.26v9.52l-.21.14a58,58,0,0,1-65.25-.14v-9.52Z"/><path class="cls-4" d="M278.28,284.26v9.52l-.21.14a58,58,0,0,1-65.25-.14v-9.52Z"/><path class="cls-5" d="M101.55,366.08V430H62.28l3-21.93A49.11,49.11,0,0,1,92,370.86Z"/><path class="cls-5" d="M428.82,430H389.55V366.08l9.58,4.78a49.13,49.13,0,0,1,26.67,37.22Z"/><path class="cls-3" d="M245.55,297.35a58,58,0,0,1-53.86-36.47,162.1,162.1,0,0,1-11.6-60.21V148.55a65.46,65.46,0,0,1,130.91,0v52.12a162.15,162.15,0,0,1-11.59,60.22,58,58,0,0,1-53.86,36.46Z"/><path class="cls-6" d="M284.82,181.28H265.19a6.55,6.55,0,1,1,0-13.09h19.63a6.55,6.55,0,1,1,0,13.09Z"/><circle class="cls-6" cx="273.37" cy="194.26" r="8.18"/><path class="cls-6" d="M225.91,181.28H206.28a6.55,6.55,0,1,1,0-13.09h19.63a6.55,6.55,0,1,1,0,13.09Z"/><circle class="cls-6" cx="217.73" cy="194.26" r="8.18"/><path class="cls-4" d="M252.1,233.64H239a6.54,6.54,0,0,1-6.54-6.54V215.76a6.55,6.55,0,1,1,13.09,0v4.79h6.55a6.55,6.55,0,0,1,0,13.09Z"/><path class="cls-3" d="M182.55,173h-11.5a17.14,17.14,0,0,0-17.14,17.14v11.54a17.14,17.14,0,0,0,17.14,17.14h12.32Z"/><path class="cls-3" d="M308.55,173h11.5a17.15,17.15,0,0,1,17.14,17.14v11.54a17.14,17.14,0,0,1-17.14,17.14H307.73Z"/><path class="cls-6" d="M239,227.1h13.1a26.18,26.18,0,0,1,26.18,26.18H212.82A26.18,26.18,0,0,1,239,227.1Z"/><path class="cls-6" d="M311,181.28l-.81-3.29a61.05,61.05,0,0,0-25.37-36l-.16.06A183.8,183.8,0,0,1,217,155.22l-28,.09a35.36,35.36,0,0,1-31.73-19.49l-.64-1.27a34.76,34.76,0,0,1,2.86-35.88L160,98a67.38,67.38,0,0,1,54.72-28h22.69a67.06,67.06,0,0,1,47.39,19.64h2.65A27.35,27.35,0,0,1,312,104.76l.24.5a71.33,71.33,0,0,1,5.43,49.29Z"/><path class="cls-5" d="M219.37,351.46l26.18,19.64,26.18-19.64-26.18-14.84Z"/><path class="cls-7" d="M329.17,335.88l-83.62,67.95-83.62-67.95,28.16-14.08,55.46,49.3,59.25-47.4Z"/><path class="cls-8" d="M206.28,305.64l39.27,31-52.36,41-6.55-54.11Z"/><path class="cls-8" d="M284.82,305.64l-39.27,31,52.36,41,6.55-54.11Z"/><path d="M265.19,181.28h19.63a6.55,6.55,0,1,0,0-13.09H265.19a6.55,6.55,0,1,0,0,13.09Z"/><circle cx="273.37" cy="194.26" r="8.18"/><path d="M225.91,181.28a6.55,6.55,0,1,0,0-13.09H206.28a6.55,6.55,0,1,0,0,13.09Z"/><circle cx="217.73" cy="194.26" r="8.18"/><path d="M62.28,436.55H428.82a6.55,6.55,0,0,0,6.49-7.43l-3-21.93A55.61,55.61,0,0,0,402.05,365L308.2,318.08l-19-17.27a6.55,6.55,0,0,0-4.41-1.71v-8.46a64.47,64.47,0,0,0,20.67-27.33,168.12,168.12,0,0,0,10.25-38h4.31a23.68,23.68,0,0,0,23.68-23.69V190.12a23.71,23.71,0,0,0-22.28-23.64c.83-3.29,1.71-6.82,2.59-10.34a77.93,77.93,0,0,0-5.92-53.81l-.24-.5a33.72,33.72,0,0,0-30.32-18.74h-.1a73,73,0,0,0-50-19.63H214.7a74.07,74.07,0,0,0-60,30.75l-.46.64a41.16,41.16,0,0,0-3.4,42.64l.64,1.27A41.67,41.67,0,0,0,173.55,159v7.47h-2.5a23.7,23.7,0,0,0-23.68,23.68v11.54a23.68,23.68,0,0,0,23.68,23.68h4.31a168.06,168.06,0,0,0,10.25,38,64.47,64.47,0,0,0,20.67,27.33v8.46a6.54,6.54,0,0,0-4.41,1.71l-19,17.27L89,365a55.62,55.62,0,0,0-30.23,42.18l-3,21.92a6.54,6.54,0,0,0,5.59,7.38,6.8,6.8,0,0,0,.9.06ZM317.55,200.67V182.08l.64-2.55h1.86a10.59,10.59,0,0,1,10.59,10.59v11.54a10.59,10.59,0,0,1-10.59,10.59h-2.9C317.41,208.41,317.55,204.55,317.55,200.67Zm78.55,176,.1,0A42.54,42.54,0,0,1,419.32,409l2,14.49H396.1Zm-86.26-43.12,7.33,3.66-8.62,7Zm-12.28-7.44-4.75,39.23-36.67-28.72,28.38-22.39Zm-25.8-18.49-26.21,20.67-26.18-20.65V298.4a65.17,65.17,0,0,0,52.36,0V307C271.73,307.2,271.74,307.4,271.76,307.61Zm-26.21,37.32,11.23,8.8-11,8.81-10.63-9.45ZM241.2,376a6.55,6.55,0,0,0,8.44.22L267.37,362l9.8,7.67-31.62,25.69L213.93,369.7l10.74-8.41ZM171.05,212.26a10.6,10.6,0,0,1-10.59-10.6V190.12a10.6,10.6,0,0,1,10.59-10.6h2.5v21.15q0,5.82.4,11.59Zm-7.87-79.37-.63-1.28a28.09,28.09,0,0,1,2.31-29.11l.48-.66a60.92,60.92,0,0,1,49.35-25.3h22.74a60.07,60.07,0,0,1,42.76,17.72,6.56,6.56,0,0,0,4.63,1.92h2.73a20.68,20.68,0,0,1,18.61,11.51l.25.49A64.87,64.87,0,0,1,311.34,153l-1.61,6.44a67.54,67.54,0,0,0-21.28-22.84,6.55,6.55,0,0,0-6.07-.63l-.15.06A176.54,176.54,0,0,1,217,148.67l-28,.1h-.11a28.64,28.64,0,0,1-25.74-15.88Zm34.59,125.56a154.74,154.74,0,0,1-11.13-57.78V161.79c.76,0,1.51.07,2.28.07h.16l28-.1a189.57,189.57,0,0,0,66.87-12.37,54.36,54.36,0,0,1,19.92,30.19l.63,2.5v18.59a154.74,154.74,0,0,1-11.13,57.78,51.46,51.46,0,0,1-95.56,0Zm8.81,55.77L235,336.6l-36.67,28.73-4.75-39.23Zm-25.32,19.32,1.29,10.66-8.62-7Zm-20.18,10.09,23.73,19.28,1.87,15.52a6.56,6.56,0,0,0,10.54,4.37l6.14-4.82,38.06,30.93a6.55,6.55,0,0,0,8.25,0L287.73,378l6.14,4.82a6.56,6.56,0,0,0,10.54-4.37l1.88-15.52L330,343.63l53.06,26.53a7.3,7.3,0,0,0-.08.94v52.36H108.09V371.1a5.86,5.86,0,0,0-.07-.94ZM71.78,409A42.5,42.5,0,0,1,94.9,376.72l.1-.06v46.8H69.78Z"/><path d="M278.28,259.83a6.54,6.54,0,0,0,6.54-6.55,32.76,32.76,0,0,0-32.72-32.73h-6.55v-4.79a6.55,6.55,0,1,0-13.09,0v5.45a32.78,32.78,0,0,0-26.18,32.07,6.54,6.54,0,0,0,6.54,6.55ZM239,233.64h13.1a19.68,19.68,0,0,1,18.51,13.09H220.49A19.68,19.68,0,0,1,239,233.64Z"/></g></g></g></svg>