<svg xmlns="http://www.w3.org/2000/svg" viewBox="0 0 500 500"><defs><style>.cls-1{fill:none;}.cls-2{fill:#c47220;}.cls-3{fill:#ffc431;}.cls-4{fill:#d1e4ff;}.cls-5{fill:#bed3f7;}.cls-6{fill:#ffceb6;}.cls-7{fill:#548aff;}.cls-8{fill:#7dafff;}</style></defs><title>mahasiswa</title><g id="Layer_2" data-name="Layer 2"><g id="Layer_1-2" data-name="Layer 1"><rect class="cls-1" width="500" height="500"/><path class="cls-2" d="M212,204.45h0a75.89,75.89,0,0,0,30.37-60.73v-16a75.07,75.07,0,0,0-75.07-75.07h0a75.08,75.08,0,0,0-67.14,41.5h0a34.8,34.8,0,0,1-31.12,19.23H37.45v40.36a50.73,50.73,0,0,0,50.73,50.73H212Z"/><path class="cls-3" d="M440.06,386.92v14.9H343.85a53.12,53.12,0,0,1-41.48-19.94l-38.85-48.56-37.18-46.47a51.47,51.47,0,0,1,.89,9.51v.49A51.85,51.85,0,0,1,212,333.5V455H60.22v-19.2A294.6,294.6,0,0,0,39.16,326.39a130,130,0,0,1-9.3-48.3,73.64,73.64,0,0,1,73.63-73.64H222.05A38,38,0,0,1,252.69,220l56.22,77,32.18,44.08,45.55,15.19h22.77a30.64,30.64,0,0,1,30.65,30.64Z"/><path class="cls-4" d="M250,401.82h83.5a22.78,22.78,0,0,1,22.78,22.78v22.77H250Z"/><path class="cls-5" d="M455,447.37H356.28V424.6a22.77,22.77,0,0,1,22.77-22.78H455v45.55Z"/><rect class="cls-5" x="189.27" y="401.82" width="60.73" height="45.55"/><path class="cls-6" d="M440.06,386.92v14.9H343.85a53.12,53.12,0,0,1-41.48-19.94l-38.85-48.56L308.91,297l32.18,44.08,45.55,15.19h22.77a30.64,30.64,0,0,1,30.65,30.64Z"/><path class="cls-6" d="M189.27,166.5v49.34a34.16,34.16,0,1,1-68.32,0V166.5Z"/><polygon class="cls-7" points="318.32 379.05 318.32 401.82 295.55 394.23 243.67 325.07 227.23 303.14 250 287.95 266.44 309.88 318.32 379.05"/><polygon class="cls-8" points="266.44 309.88 243.67 325.07 227.23 303.14 250 287.95 266.44 309.88"/><path class="cls-6" d="M227.23,401.82H135.67a60.73,60.73,0,0,1-48.13-23.7L65.93,350h0l56-40h0l21.76,31.08L212,356.28l25.18-12.59a24.51,24.51,0,0,1,11-2.6h0a24.56,24.56,0,0,1,24.56,24.57h0v21a15.18,15.18,0,0,1-15.18,15.18H204.45"/><path class="cls-6" d="M212,136.13v38a45.55,45.55,0,0,1-45.54,45.55h0A45.55,45.55,0,0,1,121,174.09V143.72l1.89-.31a95.86,95.86,0,0,0,66.43-45.23h0Z"/><circle cx="158.91" cy="151.32" r="7.59"/><path d="M189.27,196.86V181.68H169.64a18.22,18.22,0,0,1-13-5.37L146,187.05a33.27,33.27,0,0,0,23.69,9.81Z"/><circle cx="189.27" cy="151.32" r="7.59"/><path d="M462.55,439.78v-38a7.59,7.59,0,0,0-7.59-7.59h-7.31v-7.3a38.29,38.29,0,0,0-38.24-38.25H387.87l-42.08-14-87-119.11a45.74,45.74,0,0,0-28.59-17.93A84,84,0,0,0,250,143.72v-16a82.66,82.66,0,0,0-156.59-37,27.06,27.06,0,0,1-24.33,15H37.45a7.59,7.59,0,0,0-7.59,7.59v40.36a58.4,58.4,0,0,0,34.5,53.22,81.29,81.29,0,0,0-42.09,71.15,136.88,136.88,0,0,0,9.84,51.12A285.57,285.57,0,0,1,52.63,435.76V455H67.81v-19.2A300.6,300.6,0,0,0,54.76,348l26.76,34.79a68.74,68.74,0,0,0,54.15,26.66h46v30.37H166.5V455H477.73V439.78ZM338.69,348.29l45.55,15.19a7.78,7.78,0,0,0,2.4.39h22.77a23.08,23.08,0,0,1,23.06,23.06v7.3H379.05a30.31,30.31,0,0,0-22.77,10.31,30.34,30.34,0,0,0-22.78-10.31h-7.59V379.05a7.6,7.6,0,0,0-1.52-4.56L286.82,324.4l20.63-16.51L335,345.57A7.58,7.58,0,0,0,338.69,348.29Zm10,91.49H257.59V409.41H333.5a15.2,15.2,0,0,1,15.18,15.19Zm-118.45-120,10.88,14.52a31.43,31.43,0,0,0-7.28,2.59L219.64,344v-7.47A59.23,59.23,0,0,0,230.23,319.79ZM238.11,305l10.13-6.74,7.32,9.76-10.12,6.75Zm23.62,31.5-7.17-9.57,10.12-6.75,46.05,61.4v9.71l-10.53-3.51L280,360.86a32.21,32.21,0,0,0-18.27-24.36Zm18.63,50.14,5.7,7.59h-7A22.55,22.55,0,0,0,280.36,386.64ZM128.54,174.09v-24a103.3,103.3,0,0,0,60.31-37.83l15.6,26v35.85a38,38,0,0,1-75.91,0Zm0,37.95h.82a53.07,53.07,0,0,0,50.48,13.49,26.56,26.56,0,0,1-51.3-9.69ZM88.18,196.86A43.19,43.19,0,0,1,45,153.72V121h24A42.13,42.13,0,0,0,107,97.52,67.48,67.48,0,0,1,234.82,127.7v16a68.68,68.68,0,0,1-17.4,45.52,52.91,52.91,0,0,0,2.22-15.15v-38a7.58,7.58,0,0,0-1.09-3.9l-22.77-38a7.59,7.59,0,0,0-13,0,88.11,88.11,0,0,1-61.17,41.65l-1.89.32a7.58,7.58,0,0,0-6.34,7.48v53.14ZM103.5,212h9.86v3.8a41.75,41.75,0,0,0,83.46,1.85,54.11,54.11,0,0,0,6.82-5.65H222a30.48,30.48,0,0,1,24.52,12.46l51.93,71.12-20.78,16.62L256.07,283.4a7.58,7.58,0,0,0-10.28-1.76l-11.4,7.6a59.46,59.46,0,0,0-2.62-11.66l-4.93-14.8-14.41,4.8,4.94,14.8a44.32,44.32,0,0,1,2.27,14v.48a44,44,0,0,1-13,31.28,7.59,7.59,0,0,0-2.23,5.37v13.31l-56.2-12.49L96.81,260.83l-12.44,8.71,27.06,38.66L67.48,339.59,51.15,318.36A66.05,66.05,0,0,1,103.5,212Zm-10,161.45L76.74,351.64l43.4-31,17.37,24.81a7.57,7.57,0,0,0,4.57,3.05l68.32,15.19a7.64,7.64,0,0,0,5-.63l25.18-12.58a17,17,0,0,1,24.56,15.18v21a7.59,7.59,0,0,1-7.59,7.59H135.67A53.48,53.48,0,0,1,93.55,373.49Zm103.31,35.92h45.55v30.37H196.86Zm167,30.37V424.6a15.2,15.2,0,0,1,15.18-15.19h68.32v30.37Z"/></g></g></svg>