<svg xmlns="http://www.w3.org/2000/svg" viewBox="0 0 500 500"><defs><style>.cls-1{fill:none;}.cls-2{fill:#707487;}.cls-3{fill:#5b5d6e;}.cls-4{fill:#f0a479;}.cls-5{fill:#e59770;}.cls-6{fill:#c08200;}.cls-7{fill:#b27200;}.cls-8{fill:#d8dce5;}.cls-9{fill:#275050;}.cls-10{fill:#253a3a;}</style></defs><title>psn</title><g id="Layer_2" data-name="Layer 2"><g id="Layer_1-2" data-name="Layer 1"><rect class="cls-1" width="500" height="500"/><path class="cls-2" d="M231.1,29.81a76.45,76.45,0,0,0-76.45,76.45v30.92a24.39,24.39,0,0,1,19.47-6.37V127a5.21,5.21,0,0,1,5.58-5.19c29.56,2.12,59.65-7.27,82.39-22.13a5.21,5.21,0,0,1,6.66.82c19.45,20.9,19.33,20.09,19.33,22.82v7.48a23.13,23.13,0,0,1,19.47,5.69V106.27A76.45,76.45,0,0,0,231.1,29.81Z"/><path class="cls-3" d="M172.54,106.27a76.45,76.45,0,0,1,67.51-75.92,77.78,77.78,0,0,0-9-.54,76.45,76.45,0,0,0-76.45,76.45v30.92a24.49,24.49,0,0,1,17.89-6.51v-24.4Z"/><path class="cls-4" d="M288,128v42c0,.46,0,.91,0,1.36,14.88,2.26,26.53-8.49,26.53-21.7S302.81,125.81,288,128Z"/><path class="cls-5" d="M306,132.46A23.41,23.41,0,0,0,288,128v42c0,.46,0,.91,0,1.36A23.41,23.41,0,0,0,306,167V132.46Z"/><path class="cls-4" d="M174.29,170.12V128c-13-1.73-26.56,8.23-26.56,21.74,0,13.22,11.65,24,26.59,21.76C174.31,171,174.29,170.58,174.29,170.12Z"/><path class="cls-5" d="M174.29,167.2a21.86,21.86,0,0,1-8.67-17.47A21.22,21.22,0,0,1,174.29,133v-5c-13-1.73-26.56,8.23-26.56,21.74,0,13.22,11.65,24,26.59,21.76,0-.46,0-.91,0-1.37Z"/><path class="cls-4" d="M231.91,223.47a59,59,0,0,1-32.08-9.06v31.32l31.95,39.43,31.94-39.43V213.56A55.79,55.79,0,0,1,231.91,223.47Z"/><path class="cls-5" d="M218.07,222a57,57,0,0,1-18.24-7.55v31.32l18.24,22.52V222Z"/><path class="cls-6" d="M348.23,275.78l-84.51-32.73-31.94,39.43-31.95-39.43-84.42,32.73s-31.26,12.85-31.26,48.48V464.05a10.42,10.42,0,0,0,10.42,10.42h274.5a10.42,10.42,0,0,0,10.42-10.42V324.26C379.49,288.63,348.23,275.78,348.23,275.78Z"/><path class="cls-7" d="M102,464.05V314.42a51.56,51.56,0,0,1,19.35-40.94l-5.92,2.3s-31.26,12.85-31.26,48.48V464.05a10.42,10.42,0,0,0,10.42,10.42H112.4A10.43,10.43,0,0,1,102,464.05Z"/><path class="cls-4" d="M268.75,97.81a5.21,5.21,0,0,0-6.66-.81c-22.75,14.86-52.83,24.25-82.39,22.13a5.21,5.21,0,0,0-5.58,5.19V170c0,29.36,23,56.17,57.79,56.17A56.24,56.24,0,0,0,288.08,170V120.63C288.08,117.9,288.2,118.71,268.75,97.81Z"/><path class="cls-5" d="M192,170V119.36a120.66,120.66,0,0,1-12.32-.23,5.21,5.21,0,0,0-5.58,5.19V170c0,29.36,23,56.17,57.79,56.17a56,56,0,0,0,8.14-.6A56.24,56.24,0,0,1,192,170Z"/><path class="cls-8" d="M270.35,302.74l23.89-47.87-30.52-11.82-31.94,39.43,31.14,22.12A5,5,0,0,0,270.35,302.74Z"/><path class="cls-8" d="M193.25,302.74l-23.89-47.87,30.51-11.82,31.95,39.43L200.67,304.6A5,5,0,0,1,193.25,302.74Z"/><path class="cls-9" d="M264.27,435.78,243.76,314.42H219.83l-20.5,121.36a5.26,5.26,0,0,0,1.22,4.23h0l28.31,31.2a4,4,0,0,0,5.88,0L263.05,440h0A5.33,5.33,0,0,0,264.27,435.78Z"/><polygon class="cls-9" points="231.82 282.51 231.82 282.48 231.8 282.5 231.78 282.48 231.78 282.51 209.13 298.6 219.83 314.71 231.78 314.71 231.82 314.71 243.76 314.71 254.47 298.6 231.82 282.51"/><path class="cls-10" d="M218.44,440a5.33,5.33,0,0,1-1.22-4.23l20.51-121.36h-17.9l-20.5,121.36a5.26,5.26,0,0,0,1.22,4.23l28.31,31.2a4,4,0,0,0,5.88,0l6-6.62Z"/><path class="cls-10" d="M240.75,288.85l-8.93-6.34v0h0v0L209.12,298.6l10.71,16.11h17.9l-9.28-14a2.66,2.66,0,0,1,.68-3.65Z"/><path d="M379.71,375.91a6.7,6.7,0,0,0,6.71-6.71V323.81c0-39.67-34-54.09-35.42-54.69l-.12-.05L270.65,238V219.19a62.9,62.9,0,0,0,23.8-41.36,29.05,29.05,0,0,0,17.06-7,28.5,28.5,0,0,0,3-40.2V105.82a83.16,83.16,0,1,0-166.32,0v25.51a27,27,0,0,0-6.92,18,28.4,28.4,0,0,0,9.89,21.58,29,29,0,0,0,17.06,7,62.17,62.17,0,0,0,25.15,42.35V238L113.2,269.07l-.12.05c-1.45.6-35.42,15-35.42,54.69V463.6a17.16,17.16,0,0,0,17.13,17.13h63.93a6.71,6.71,0,0,0,0-13.42H144.28V335.17a6.71,6.71,0,0,0-13.42,0V467.31H94.79a3.72,3.72,0,0,1-3.71-3.71V323.81c0-30.21,25.5-41.59,27.06-42.26l48.17-18.67,21.16,42.41h0A11.73,11.73,0,0,0,198,311.8c4.3,0,6.58-2,9.61-4.17l5.41,8.14L192.94,434.28l0,.2a12,12,0,0,0,2.9,9.66l21.06,23.17H190a6.71,6.71,0,1,0,0,13.42H369.3a17.14,17.14,0,0,0,17.12-17.13V400.52a6.71,6.71,0,0,0-13.42,0V463.6a3.71,3.71,0,0,1-3.7,3.71H333.23V335.17a6.71,6.71,0,1,0-13.42,0V467.31H247.17l21.07-23.17a12.06,12.06,0,0,0,2.9-9.65l0-.21L251,315.77l5.41-8.14c3,2.12,5.29,4.17,9.61,4.17a11.74,11.74,0,0,0,10.51-6.51h0l21.16-42.41,48.2,18.67c1.75.75,27.07,12.15,27.07,42.26V369.2A6.7,6.7,0,0,0,379.71,375.91ZM302.76,160.7a15.7,15.7,0,0,1-7.75,3.56V134.31a15.12,15.12,0,0,1,7.75,26.39ZM161.58,105.82a69.74,69.74,0,0,1,139.48,0V122a30.4,30.4,0,0,0-6.05-1.17c0-6.47.06-5.22-21.13-28a11.94,11.94,0,0,0-15.24-1.86c-23.38,15.28-51.89,22.95-78.21,21.06A11.94,11.94,0,0,0,168,121a33,33,0,0,0-6.41,1.44v-16.6Zm-6.92,43.47c0-7.18,6-13,13-14.64v29.61A15.15,15.15,0,0,1,154.66,149.29Zm26.39,20.26V125.48c29,1.69,59.34-6.91,83.87-22.62,9.71,10.43,15,15.9,16.67,18v48.71A49.54,49.54,0,0,1,232.13,219C201.54,219,181.05,195.27,181.05,169.55Zm51.08,62.87a62.9,62.9,0,0,0,25.1-5.23v13L232,271.35l-25.26-31.18V227.61A68,68,0,0,0,232.13,232.42ZM178.87,258l19-7.38,24.38,30.08-23.7,16.83ZM232,464,206.3,435.73,225.72,321h12.59l19.42,114.75Zm8.36-156.47H223.65l-5.11-7.7L232,290.28l13.48,9.57Zm25.06-10L241.71,280.7l24.37-30.07L285.16,258Z"/></g></g></svg>