<svg xmlns="http://www.w3.org/2000/svg" viewBox="0 0 500 500"><defs><style>.cls-1{fill:none;}.cls-2{fill:#525252;}.cls-3{fill:#fac7b7;}.cls-4{fill:#ffe7de;}.cls-5{fill:#aa7a63;}</style></defs><title>laki-laki</title><g id="Layer_2" data-name="Layer 2"><g id="Layer_1-2" data-name="Layer 1"><rect class="cls-1" width="500" height="500"/><g id="User_Male" data-name="User Male"><g id="Filled"><path class="cls-2" d="M190.54,133l21.18,14.12a59.86,59.86,0,0,0,66.42,0L299.32,133s26.12,4.36,34,24.16C338,106,297.72,60.47,244.93,60.47h0c-52.79,0-93.1,45.51-88.41,96.67C164.42,137.34,190.54,133,190.54,133Z"/><path class="cls-3" d="M244.93,362.62h0a54.38,54.38,0,0,0,54.33-52.2l-2.1-.38a12.09,12.09,0,0,1-9.93-11.9V259.89h-84.6v38.25A12.09,12.09,0,0,1,192.7,310l-2.1.38A54.38,54.38,0,0,0,244.93,362.62Z"/><path class="cls-4" d="M329,181.33l2.93-14.3a91.73,91.73,0,0,0,1.46-9.89c-7.9-19.8-34-24.16-34-24.16L278.14,147.1a59.86,59.86,0,0,1-66.42,0L190.54,133s-26.12,4.36-34,24.16A91.73,91.73,0,0,0,158,167l2.93,14.3a14.59,14.59,0,0,0-14.17,18.15l3.44,13.78a21.67,21.67,0,0,0,21,16.41,77.19,77.19,0,0,0,73.73,54.39h0a77.18,77.18,0,0,0,73.73-54.39,21.67,21.67,0,0,0,21-16.41l3.44-13.78A14.59,14.59,0,0,0,329,181.33Z"/><path class="cls-5" d="M375.52,324.28l-76.26-13.86a54.38,54.38,0,0,1-54.33,52.2h0a54.38,54.38,0,0,1-54.33-52.2l-76.26,13.86a54.4,54.4,0,0,0-44.66,53.51v63.39h350.5V377.79A54.4,54.4,0,0,0,375.52,324.28Z"/></g><g id="Outline"><path d="M376.6,318.34l-78.36-14.25a6,6,0,0,1-5-5.95V274.61a83.19,83.19,0,0,0,29.85-39.26,27.66,27.66,0,0,0,22.41-20.62L349,201a20.65,20.65,0,0,0-12.89-24.4l1.7-8.31a98.19,98.19,0,0,0,1.54-10.39v0q.41-4.4.41-8.78a93.57,93.57,0,0,0-7.3-36.32A95,95,0,0,0,209.17,61.37a6,6,0,1,0,4.56,11.2A82.83,82.83,0,0,1,327.07,139.1c-11.57-9.42-25.91-11.94-26.76-12.08l-2.36-.39-23.16,15.44a53.85,53.85,0,0,1-59.72,0l-23.16-15.44-2.36.39c-.85.14-15.2,2.66-26.77,12.09a82,82,0,0,1,15.8-39.27,6,6,0,1,0-9.5-7.48,2.48,2.48,0,0,0-.19.26A94.63,94.63,0,0,0,155.06,119a93.55,93.55,0,0,0-5,30.08,96.84,96.84,0,0,0,2,19.21l1.7,8.31a20.72,20.72,0,0,0-13.51,19.36,20.41,20.41,0,0,0,.63,5l3.44,13.77a27.66,27.66,0,0,0,22.41,20.63,83.21,83.21,0,0,0,29.86,39.26v23.53a6,6,0,0,1-5,5.95l-78.36,14.25a60.39,60.39,0,0,0-49.62,59.45v57.35a6,6,0,1,0,12.08,0V377.79a48.34,48.34,0,0,1,39.7-47.56l69.8-12.69a60.25,60.25,0,0,0,7.65,21.38,6,6,0,0,0,8.24,2.15l0,0a6,6,0,0,0,2.13-8.27h0a48.39,48.39,0,0,1-6.2-17.72,18.11,18.11,0,0,0,11.6-16.91V281.78a83,83,0,0,0,72.52,0v16.36a18.13,18.13,0,0,0,11.61,16.92A48.16,48.16,0,0,1,245,356.58h0a51.22,51.22,0,0,1-7.21-.53A6,6,0,1,0,235.93,368a61.63,61.63,0,0,0,9,.66,60.32,60.32,0,0,0,59.7-51.12l69.81,12.69a48.33,48.33,0,0,1,39.7,47.56v57.35a6,6,0,0,0,12.08,0V377.79A60.39,60.39,0,0,0,376.6,318.34ZM245,278h0A70.76,70.76,0,0,1,177,227.89l-1.31-4.23-4.47,0A15.6,15.6,0,0,1,156,211.79L152.6,198a8.56,8.56,0,0,1,8.31-10.64h7.41l-4.42-21.55c-.52-2.56-.92-5.14-1.21-7.72,5.78-12.35,20.94-17.23,26.64-18.66l19,12.69a65.94,65.94,0,0,0,73.14,0l19-12.69c5.71,1.43,20.85,6.32,26.63,18.65q-.42,3.89-1.2,7.73l-4.41,21.51v0H329a8.5,8.5,0,0,1,6.1,2.55,8.67,8.67,0,0,1,2.48,6,9.38,9.38,0,0,1-.27,2.11l-3.44,13.77a15.61,15.61,0,0,1-15.16,11.84h-4.43l-1.34,4.26A70.78,70.78,0,0,1,245,278Z"/><path d="M118,386.79a6,6,0,0,0-6,6v42.31a6,6,0,0,0,12.09,0V392.83A6,6,0,0,0,118,386.79Z"/><path d="M371.84,386.79a6,6,0,0,0-6,6v42.31a6,6,0,0,0,12.09,0V392.83A6,6,0,0,0,371.84,386.79Z"/><path d="M217.88,348.3a6,6,0,0,0-6.87,9.95h0l.1.06a6,6,0,1,0,7-9.84l-.25-.17Z"/><path d="M190.6,85.06a6.06,6.06,0,0,0,3.64-1.22l.06,0a6,6,0,1,0-3.7,1.27Z"/></g></g></g></g></svg>