<svg height="485pt" viewBox="0 -90 485.41089 485" width="485pt" xmlns="http://www.w3.org/2000/svg"><path d="m426.691406 98.925781v125.28125c0 4.417969-3.582031 8-8 8h-72v-51.679687l3.917969 2.878906c3.085937 2.246094 6.9375 3.171875 10.707031 2.570312 3.765625-.601562 7.140625-2.675781 9.375-5.769531v20h32v-32h-29.761718c-.878907-3.238281-2.859376-6.066406-5.597657-8l-93.839843-66.238281 73.199218-53.761719zm0 0" fill="#5aaae7"/><path d="m211.890625 93.96875-93.839844 66.238281c-2.742187 1.933594-4.722656 4.761719-5.601562 8h-21.757813v64h-24c-4.417968 0-8-3.582031-8-8v-125.28125l80-58.71875zm0 0" fill="#00ccb3"/><path d="m146.691406 46.046875-72 52.878906-16 11.761719v-11.761719l80-58.71875zm0 0" fill="#00b39d"/><path d="m162.691406 112.207031c0 13.253907-10.746094 24-24 24-13.257812 0-24-10.746093-24-24 0-13.253906 10.742188-24 24-24 13.253906 0 24 10.746094 24 24zm0 0" fill="#ffd422"/><path d="m114.371094 179.808594c2.714844 3.953125 7.203125 6.316406 12 6.320312 3.015625-.007812 5.953125-.957031 8.398437-2.722656l3.921875-2.878906v51.679687h-48v-64h21.757813c-1.007813 3.964844-.3125 8.171875 1.921875 11.601563zm0 0" fill="#8b5e3c"/><path d="m236.050781 76.925781-24.160156 17.042969-73.199219-53.761719-80 58.71875-27.921875 20.480469c-2.445312 1.765625-5.382812 2.714844-8.398437 2.722656-4.796875-.003906-9.285156-2.367187-12-6.320312-4.253906-6.457032-2.628906-15.125 3.679687-19.601563l124.640625-88zm0 0" fill="#3d9ae2"/><path d="m90.691406 168.207031h16v64h-16zm0 0" fill="#754c29"/><path d="m90.691406 168.207031h48v8h-48zm0 0" fill="#754c29"/><path d="m322.691406 162.925781 24 17.601563v51.679687h-24zm0 0" fill="#8b5e3c"/><path d="m402.691406 168.207031v32h-32v-20c.144532-.09375.257813-.234375.320313-.398437 2.273437-3.414063 2.972656-7.636719 1.917969-11.601563zm0 0" fill="#e6e7e8"/><path d="m370.691406 112.207031c0 13.253907-10.746094 24-24 24-13.257812 0-24-10.746093-24-24 0-13.253906 10.742188-24 24-24 13.253906 0 24 10.746094 24 24zm0 0" fill="#ffd422"/><path d="m477.410156 107.886719c-.007812 5.394531-3.046875 10.328125-7.863281 12.761719-4.8125 2.433593-10.589844 1.953124-14.9375-1.242188l-27.917969-20.480469-80-58.71875-73.199218 53.761719-24.160157-17.042969 97.359375-68.71875 124.640625 88c3.789063 2.683594 6.054688 7.035157 6.078125 11.679688zm0 0" fill="#009986"/><path d="m354.691406 46.046875-72 52.878906-16 11.761719v-11.761719l80-58.71875zm0 0" fill="#3d9ae2"/><path d="m370.691406 168.207031h16v32h-16zm0 0" fill="#d1d3d4"/><path d="m162.691406 162.925781v69.28125h-24v-51.679687zm0 0" fill="#00ccb3"/><path d="m322.691406 162.925781v125.28125c0 4.417969-3.582031 8-8 8h-144c-4.417968 0-8-3.582031-8-8v-125.28125l80-58.71875zm0 0" fill="#ffc477"/><path d="m346.691406 180.527344-24-17.601563-80-58.71875-80 58.71875-24 17.601563-3.921875 2.878906c-2.445312 1.765625-5.382812 2.714844-8.398437 2.722656-4.457032.050782-8.675782-1.988281-11.410156-5.503906-2.734376-3.519531-3.664063-8.113281-2.511719-12.417969.878906-3.238281 2.859375-6.066406 5.601562-8l93.839844-66.238281 24.160156-17.042969 6.640625-4.71875 6.640625 4.71875 24.160157 17.042969 93.839843 66.238281c2.738281 1.933594 4.71875 4.761719 5.597657 8 1.054687 3.964844.355468 8.1875-1.917969 11.601563-.0625.164062-.175781.304687-.320313.398437-2.234375 3.09375-5.609375 5.167969-9.375 5.769531-3.769531.601563-7.621094-.324218-10.707031-2.570312zm0 0" fill="#ff6243"/><path d="m250.691406 110.046875-72 52.878906-16 11.761719v-11.761719l80-58.71875zm0 0" fill="#ffb655"/><path d="m266.691406 232.207031h32v32h-32zm0 0" fill="#e6e7e8"/><path d="m266.691406 176.207031c0 13.253907-10.746094 24-24 24-13.257812 0-24-10.746093-24-24 0-13.253906 10.742188-24 24-24 13.253906 0 24 10.746094 24 24zm0 0" fill="#ffd422"/><path d="m194.691406 232.207031h48v64h-48zm0 0" fill="#8b5e3c"/><path d="m194.691406 232.207031h16v64h-16zm0 0" fill="#754c29"/><path d="m194.691406 232.207031h48v8h-48zm0 0" fill="#754c29"/><path d="m266.691406 232.207031h16v32h-16zm0 0" fill="#d1d3d4"/><path d="m298.691406 224.207031h-32c-4.417968 0-8 3.582031-8 8v32c0 4.417969 3.582032 8 8 8h32c4.417969 0 8-3.582031 8-8v-32c0-4.417969-3.582031-8-8-8zm-8 32h-16v-16h16zm0 0"/><path d="m274.691406 176.207031c0-17.671875-14.328125-32-32-32-17.675781 0-32 14.328125-32 32s14.324219 32 32 32c17.671875 0 32-14.328125 32-32zm-32 16c-8.835937 0-16-7.164062-16-16 0-8.835937 7.164063-16 16-16 8.835938 0 16 7.164063 16 16 0 8.835938-7.164062 16-16 16zm0 0"/><path d="m475.945312 89.671875-124.640624-88c-2.765626-1.957031-6.464844-1.957031-9.230469 0l-92.71875 65.441406-2.050781-1.441406c-2.765626-1.957031-6.464844-1.957031-9.230469 0l-2.046875 1.441406-92.722656-65.441406c-2.765626-1.957031-6.464844-1.957031-9.230469 0l-124.648438 88c-9.882812 7-12.386719 20.601563-5.648437 30.664063 3.425781 5.003906 8.726562 8.414062 14.699218 9.453124 5.976563 1.039063 12.117188-.378906 17.03125-3.933593l15.183594-11.136719v109.488281c0 8.835938 7.164063 16 16 16h88v48c0 8.835938 7.164063 16 16 16h144c8.835938 0 16-7.164062 16-16v-48h88c8.835938 0 16-7.164062 16-16v-109.488281l15.199219 11.152344c3.792969 2.789062 8.375 4.289062 13.078125 4.289062 7.535156.003906 14.574219-3.753906 18.761719-10.015625 6.632812-10.050781 4.070312-23.550781-5.785157-30.472656zm-113.253906 77.039063c2.078125 1.457031 3.078125 4.023437 2.527344 6.503906-.550781 2.480468-2.539062 4.382812-5.039062 4.824218-1.6875.28125-3.414063-.121093-4.800782-1.121093l-107.953125-79.199219c-2.8125-2.0625-6.640625-2.0625-9.457031 0l-107.949219 79.199219c-1.386719 1-3.117187 1.402343-4.800781 1.121093-2.5-.4375-4.488281-2.339843-5.042969-4.816406-.550781-2.476562.441407-5.042968 2.515625-6.503906l120-84.71875zm-32-54.503907c0-8.835937 7.164063-16 16-16 8.835938 0 16 7.164063 16 16 0 8.835938-7.164062 16-16 16-8.835937 0-16-7.164062-16-16zm64 64v16h-16v-9.976562c1.050782-1.886719 1.816406-3.914063 2.277344-6.023438zm-256-48c-8.835937 0-16-7.164062-16-16 0-8.835937 7.164063-16 16-16 8.835938 0 16 7.164063 16 16 0 8.835938-7.164062 16-16 16zm-112.585937-15.296875c-1.085938.789063-2.394531 1.214844-3.734375 1.21875-2.097656-.003906-4.0625-1.015625-5.28125-2.722656-1.886719-2.847656-1.179688-6.675781 1.601562-8.664062l120-84.742188 83.460938 58.910156-10.183594 7.203125-68.542969-50.347656c-2.816406-2.066406-6.652343-2.066406-9.472656 0zm40.585937-9.933594 72-52.847656 59.496094 43.679688-27.609375 19.496094c0-.378907.113281-.738282.113281-1.113282.0625-16.433594-12.328125-30.242187-28.671875-31.953125-16.34375-1.707031-31.328125 9.238281-34.664062 25.332031-3.335938 16.089844 6.058593 32.089844 21.734375 37.019532l-15.6875 11.074218c-2.472656 1.746094-4.5625 3.976563-6.152344 6.550782h-16.558594c-4.417968 0-8 3.582031-8 8v56h-16zm32 121.230469v-48h5.71875c.582032 2.859375 1.714844 5.574219 3.335938 8 4.992187 7.550781 14.085937 11.289063 22.945312 9.441407v30.558593zm48 0v-39.679687l8-5.863282v45.542969zm56 64v-48h32v48zm112 0h-64v-56c0-4.417969-3.582031-8-8-8h-48c-4.417968 0-8 3.582031-8 8v56h-16v-121.28125l72-52.796875 72 52.796875zm16-64v-45.542969l8 5.863282v39.679687zm88 0h-64v-30.542969c2.628906.582032 5.347656.636719 8 .152344v6.390625c0 4.417969 3.582032 8 8 8h32c4.417969 0 8-3.582031 8-8v-32c0-4.417969-3.582031-8-8-8h-24.59375c-1.585937-2.582031-3.683594-4.8125-6.160156-6.558593l-15.648438-11.039063c15.609376-4.957031 24.941407-20.917969 21.601563-36.953125s-18.265625-26.941406-34.558594-25.253906c-16.289062 1.6875-28.660156 15.425781-28.640625 31.804687 0 .375.09375.726563.109375 1.105469l-27.605469-19.503906 59.496094-43.679688 72 52.847656zm49.695313-112.886719c-.988281 1.453126-2.523438 2.441407-4.257813 2.734376-1.679687.304687-3.414062-.089844-4.796875-1.09375l-107.921875-79.203126c-2.816406-2.066406-6.652344-2.066406-9.472656 0l-68.535156 50.335938-10.183594-7.199219 83.472656-58.894531 120 84.710938c2.8125 1.929687 3.570313 5.753906 1.703125 8.609374zm0 0"/></svg>