<svg width="500" height="500" viewBox="0 0 500 500" fill="none" xmlns="http://www.w3.org/2000/svg">
<path d="M252.2 105.51C256.922 107.744 261.767 109.71 266.71 111.4C266.785 111.551 266.905 111.674 267.055 111.751C267.204 111.828 267.374 111.856 267.54 111.83C267.667 111.971 267.821 112.084 267.993 112.163C268.164 112.242 268.351 112.285 268.54 112.29L273.98 114.48C278.77 116.6 283.6 118.6 288.55 120.36C289.906 121.181 291.38 121.788 292.92 122.16C294.434 123.027 296.041 123.721 297.71 124.23C301.88 125.92 305.97 127.86 310.28 129.23C312.647 130.459 315.108 131.499 317.64 132.34C319.986 133.438 322.39 134.41 324.84 135.25C329.75 137.52 334.78 139.43 339.84 141.46C343.57 143.03 347.29 144.76 351.23 146.02C351.44 146.41 351.83 146.43 352.23 146.5C352.633 146.841 353.142 147.031 353.67 147.04L362.05 150.54L364.25 151.33C364.08 152.57 362.89 152.49 362.11 152.81C358.11 154.5 353.96 155.97 350.03 157.9C348.858 158.158 347.734 158.601 346.7 159.21C343.583 160.29 340.525 161.535 337.54 162.94C333.27 164.48 329.08 166.21 324.93 168.06C319.93 169.93 315.12 171.79 310.34 174.06L303.13 176.94C300.94 177.693 298.804 178.599 296.74 179.65C296.563 179.62 296.382 179.643 296.218 179.716C296.054 179.789 295.916 179.909 295.82 180.06C293.082 180.874 290.422 181.928 287.87 183.21C285.613 183.95 283.41 184.849 281.28 185.9C273.93 188.7 266.66 191.7 259.41 194.8C256.919 195.621 254.498 196.641 252.17 197.85C251.061 198.45 249.821 198.765 248.56 198.765C247.299 198.765 246.059 198.45 244.95 197.85C242.748 196.689 240.445 195.728 238.07 194.98C233.16 192.75 228.13 190.75 223.16 188.89C221.689 188.034 220.098 187.404 218.44 187.02C217.076 186.117 215.577 185.435 214 185C209.78 183.3 205.67 181.27 201.32 180C201.22 179.854 201.08 179.74 200.917 179.671C200.754 179.602 200.575 179.581 200.4 179.61C198.341 178.567 196.201 177.694 194 177L186.8 174.11L171.8 167.89L157.66 162.15L155.06 160.98C154.34 160.66 153.95 160.77 153.99 161.68C153.99 162.98 153.99 164.29 154.07 165.61V172.86C153.74 178.41 153.74 178.41 157.45 179.7H157.62C157.779 179.87 157.971 180.005 158.184 180.098C158.398 180.191 158.627 180.239 158.86 180.24C159.21 180.57 159.55 180.92 159.92 181.24C161.516 182.428 162.803 183.982 163.673 185.771C164.543 187.559 164.971 189.531 164.92 191.52C164.92 195.88 162.8 199.16 159.63 201.9C157.9 202.33 157.5 203.27 158.22 204.9C158.74 206.318 159.181 207.763 159.54 209.23C159.81 211.689 160.272 214.123 160.92 216.51L161.71 223.78L162.43 233.94C162.276 235.403 162.323 236.88 162.57 238.33C162.32 240.92 162.32 240.92 159.57 240.93C158.903 240.917 158.235 240.94 157.57 241H143.07C140.58 241.35 141.82 239.34 141.36 238.36C141.662 235.939 141.759 233.497 141.65 231.06C141.911 229.835 141.999 228.579 141.91 227.33C142.191 226.769 142.249 226.122 142.07 225.52C142.349 224.967 142.43 224.335 142.3 223.73L143.07 216.45C143.363 215.762 143.497 215.017 143.46 214.27C144.46 211.27 144.46 207.97 145.74 205.01C146.38 203.52 146.41 202.43 144.62 201.78C144.038 201.464 143.52 201.044 143.09 200.54C139.36 196.81 138.53 192.36 139.55 187.39C141.02 184.26 142.85 181.46 146.12 179.93C147.37 179.33 149.34 179.41 149.85 178.21C150.36 177.01 150.01 175.21 150.02 173.76C150.033 173.458 150.006 173.155 149.94 172.86C150.09 170.436 150.09 168.004 149.94 165.58C149.94 164.04 150.01 162.5 150.02 160.94C150.02 158.55 149.89 158.46 147.39 158.31C146.761 157.558 145.872 157.069 144.9 156.94L142.59 156.04C142.489 155.874 142.336 155.747 142.155 155.678C141.974 155.609 141.775 155.603 141.59 155.66C139.86 154.757 138.057 154.001 136.2 153.4C135.598 153.201 135.015 152.946 134.46 152.64C133.9 152.27 132.85 152.46 132.88 151.4C133.88 151.163 134.833 150.76 135.7 150.21L143.05 147.21L157.63 141.21C158.68 140.8 159.75 140.44 160.81 139.97L172.22 135.18C174.671 134.357 177.071 133.392 179.41 132.29C181.946 131.458 184.408 130.414 186.77 129.17C192.67 127.12 198.42 124.7 204.17 122.17C205.709 121.79 207.183 121.179 208.54 120.36C213.54 118.61 218.32 116.64 223.09 114.49L228.55 112.3C229.22 112.09 229.99 112.05 230.45 111.38C235.37 109.709 240.192 107.76 244.89 105.54C247.304 105.081 249.782 105.071 252.2 105.51Z" fill="#327A6D" stroke="black" stroke-width="10" stroke-miterlimit="10"/>
<path d="M266.76 212.92C260.98 214.78 255.46 217.03 251.26 221.7C250.02 223.06 249.58 224.86 248.38 226.38C247.13 222.27 244.38 219.66 241.07 217.6C237.755 215.513 234.149 213.929 230.37 212.9C227.997 212.14 225.57 211.559 223.11 211.16C220.3 210.97 217.58 209.92 214.72 210.16C213.168 209.84 211.578 209.749 210 209.89C206.727 209.593 203.428 209.727 200.19 210.29C198.098 210.345 196.016 210.616 193.98 211.1C191.487 211.358 189.04 211.943 186.7 212.84C186.282 212.902 185.868 212.988 185.46 213.1C180.625 214.604 176.105 216.976 172.12 220.1L172.03 216.45V180.1L172.13 174.3L179.35 177.03C181.725 178.197 184.177 179.2 186.69 180.03L187.78 180.44C189.773 181.476 191.855 182.333 194 183C196.355 184.174 198.791 185.176 201.29 186C206.01 188.24 210.89 190.11 215.78 191.95C218.127 193.111 220.561 194.088 223.06 194.87C225.04 195.966 227.119 196.874 229.27 197.58C232.02 198.83 234.85 199.8 237.64 200.88C238.571 201.533 239.644 201.958 240.77 202.12C243.12 203.318 245.537 204.38 248.01 205.3C248.205 205.394 248.419 205.443 248.635 205.443C248.851 205.443 249.065 205.394 249.26 205.3C251.42 204.3 253.77 203.67 255.83 202.43C257.123 202.132 258.357 201.618 259.48 200.91C265.13 198.66 270.78 196.45 276.41 194.18C282.62 191.69 288.78 189.11 294.96 186.56C295.29 186.44 295.68 186.41 295.86 186.03C298.21 185.268 300.514 184.37 302.76 183.34C305 182.542 307.188 181.604 309.31 180.53L310.4 180.12C312.929 179.307 315.392 178.304 317.77 177.12L324.94 174.39L325.08 175.8V216.47L325 220.1C324.47 220.1 324.23 219.56 323.86 219.28C319.893 216.227 315.327 214.043 310.46 212.87C308.116 211.97 305.666 211.379 303.17 211.11C301.132 210.638 299.051 210.373 296.96 210.32C293.725 209.761 290.43 209.629 287.16 209.93C285.583 209.781 283.992 209.869 282.44 210.19C279.57 209.95 276.86 210.97 274.05 211.19C271.581 211.589 269.145 212.167 266.76 212.92V212.92Z" fill="#327A6D" stroke="black" stroke-width="10" stroke-miterlimit="10"/>
<path d="M252.2 105.51C256.922 107.744 261.767 109.71 266.71 111.4C266.785 111.551 266.905 111.674 267.055 111.751C267.204 111.828 267.374 111.856 267.54 111.83C267.667 111.971 267.821 112.084 267.993 112.163C268.164 112.242 268.351 112.285 268.54 112.29L273.98 114.48C278.77 116.6 283.6 118.6 288.55 120.36C289.906 121.181 291.38 121.788 292.92 122.16C294.434 123.027 296.041 123.721 297.71 124.23C301.88 125.92 305.97 127.86 310.28 129.23C312.647 130.459 315.108 131.499 317.64 132.34C319.986 133.438 322.39 134.41 324.84 135.25C329.75 137.52 334.78 139.43 339.84 141.46C343.57 143.03 347.29 144.76 351.23 146.02C351.44 146.41 351.83 146.43 352.23 146.5C352.633 146.841 353.142 147.031 353.67 147.04L362.05 150.54L364.25 151.33C364.08 152.57 362.89 152.49 362.11 152.81C358.11 154.5 353.96 155.97 350.03 157.9C348.858 158.158 347.734 158.601 346.7 159.21C343.583 160.29 340.525 161.535 337.54 162.94C333.27 164.48 329.08 166.21 324.93 168.06C319.93 169.93 315.12 171.79 310.34 174.06L303.13 176.94C300.94 177.693 298.804 178.599 296.74 179.65C296.563 179.62 296.382 179.643 296.218 179.716C296.054 179.789 295.916 179.909 295.82 180.06C293.082 180.874 290.422 181.928 287.87 183.21C285.613 183.95 283.41 184.849 281.28 185.9C273.93 188.7 266.66 191.7 259.41 194.8C256.919 195.621 254.498 196.641 252.17 197.85C251.061 198.45 249.821 198.765 248.56 198.765C247.299 198.765 246.059 198.45 244.95 197.85C242.748 196.689 240.445 195.728 238.07 194.98C233.16 192.75 228.13 190.75 223.16 188.89C221.689 188.034 220.098 187.404 218.44 187.02C217.076 186.117 215.577 185.435 214 185C209.78 183.3 205.67 181.27 201.32 180C201.22 179.854 201.08 179.74 200.917 179.671C200.754 179.602 200.575 179.581 200.4 179.61C198.341 178.567 196.201 177.694 194 177L186.8 174.11L171.8 167.89L157.66 162.15L155.06 160.98C154.34 160.66 153.95 160.77 153.99 161.68C153.99 162.98 153.99 164.29 154.07 165.61V172.86C153.74 178.41 153.74 178.41 157.45 179.7H157.62C157.779 179.87 157.971 180.005 158.184 180.098C158.398 180.191 158.627 180.239 158.86 180.24C159.21 180.57 159.55 180.92 159.92 181.24C161.516 182.428 162.803 183.982 163.673 185.771C164.543 187.559 164.971 189.531 164.92 191.52C164.92 195.88 162.8 199.16 159.63 201.9C157.9 202.33 157.5 203.27 158.22 204.9C158.74 206.318 159.181 207.763 159.54 209.23C159.81 211.689 160.272 214.123 160.92 216.51L161.71 223.78L162.43 233.94C162.276 235.403 162.323 236.88 162.57 238.33C162.32 240.92 162.32 240.92 159.57 240.93C158.903 240.917 158.235 240.94 157.57 241H143.07C140.58 241.35 141.82 239.34 141.36 238.36C141.662 235.939 141.759 233.497 141.65 231.06C141.911 229.835 141.999 228.579 141.91 227.33C142.191 226.769 142.249 226.122 142.07 225.52C142.349 224.967 142.43 224.335 142.3 223.73L143.07 216.45C143.363 215.762 143.497 215.017 143.46 214.27C144.46 211.27 144.46 207.97 145.74 205.01C146.38 203.52 146.41 202.43 144.62 201.78C144.038 201.464 143.52 201.044 143.09 200.54C139.36 196.81 138.53 192.36 139.55 187.39C141.02 184.26 142.85 181.46 146.12 179.93C147.37 179.33 149.34 179.41 149.85 178.21C150.36 177.01 150.01 175.21 150.02 173.76C150.033 173.458 150.006 173.155 149.94 172.86C150.09 170.436 150.09 168.004 149.94 165.58C149.94 164.04 150.01 162.5 150.02 160.94C150.02 158.55 149.89 158.46 147.39 158.31C146.761 157.558 145.872 157.069 144.9 156.94L142.59 156.04C142.489 155.874 142.336 155.747 142.155 155.678C141.974 155.609 141.775 155.603 141.59 155.66C139.86 154.757 138.057 154.001 136.2 153.4C135.598 153.201 135.015 152.946 134.46 152.64C133.9 152.27 132.85 152.46 132.88 151.4C133.88 151.163 134.833 150.76 135.7 150.21L143.05 147.21L157.63 141.21C158.68 140.8 159.75 140.44 160.81 139.97L172.22 135.18C174.671 134.357 177.071 133.392 179.41 132.29C181.946 131.458 184.408 130.414 186.77 129.17C192.67 127.12 198.42 124.7 204.17 122.17C205.709 121.79 207.183 121.179 208.54 120.36C213.54 118.61 218.32 116.64 223.09 114.49L228.55 112.3C229.22 112.09 229.99 112.05 230.45 111.38C235.37 109.709 240.192 107.76 244.89 105.54C247.304 105.081 249.782 105.071 252.2 105.51Z" fill="#327A6D"/>
<path d="M266.76 212.92C260.98 214.78 255.46 217.03 251.26 221.7C250.02 223.06 249.58 224.86 248.38 226.38C247.13 222.27 244.38 219.66 241.07 217.6C237.755 215.513 234.149 213.929 230.37 212.9C227.997 212.14 225.57 211.559 223.11 211.16C220.3 210.97 217.58 209.92 214.72 210.16C213.168 209.84 211.578 209.749 210 209.89C206.727 209.593 203.428 209.727 200.19 210.29C198.098 210.345 196.016 210.616 193.98 211.1C191.487 211.358 189.04 211.943 186.7 212.84C186.282 212.902 185.868 212.988 185.46 213.1C180.625 214.604 176.105 216.976 172.12 220.1L172.03 216.45V180.1L172.13 174.3L179.35 177.03C181.725 178.197 184.177 179.2 186.69 180.03L187.78 180.44C189.773 181.476 191.855 182.333 194 183C196.355 184.174 198.791 185.176 201.29 186C206.01 188.24 210.89 190.11 215.78 191.95C218.127 193.111 220.561 194.088 223.06 194.87C225.04 195.966 227.119 196.874 229.27 197.58C232.02 198.83 234.85 199.8 237.64 200.88C238.571 201.533 239.644 201.958 240.77 202.12C243.12 203.318 245.537 204.38 248.01 205.3C248.205 205.394 248.419 205.443 248.635 205.443C248.851 205.443 249.065 205.394 249.26 205.3C251.42 204.3 253.77 203.67 255.83 202.43C257.123 202.132 258.357 201.618 259.48 200.91C265.13 198.66 270.78 196.45 276.41 194.18C282.62 191.69 288.78 189.11 294.96 186.56C295.29 186.44 295.68 186.41 295.86 186.03C298.21 185.268 300.514 184.37 302.76 183.34C305 182.542 307.188 181.604 309.31 180.53L310.4 180.12C312.929 179.307 315.392 178.304 317.77 177.12L324.94 174.39L325.08 175.8V216.47L325 220.1C324.47 220.1 324.23 219.56 323.86 219.28C319.893 216.227 315.327 214.043 310.46 212.87C308.116 211.97 305.666 211.379 303.17 211.11C301.132 210.638 299.051 210.373 296.96 210.32C293.725 209.761 290.43 209.629 287.16 209.93C285.583 209.781 283.992 209.869 282.44 210.19C279.57 209.95 276.86 210.97 274.05 211.19C271.581 211.589 269.145 212.167 266.76 212.92V212.92Z" fill="#327A6D"/>
<path d="M166.656 350.609L176.922 334.086C180.156 336.711 183.273 338.867 186.273 340.555C189.32 342.195 192.32 343.414 195.273 344.211C198.227 344.961 201.25 345.336 204.344 345.336C208 345.336 211.164 344.82 213.836 343.789C216.508 342.758 218.57 341.281 220.023 339.359C221.523 337.438 222.273 335.211 222.273 332.68C222.273 329.727 221.336 327.242 219.461 325.227C217.586 323.211 215.125 321.453 212.078 319.953C209.078 318.406 205.82 316.93 202.305 315.523C198.883 314.117 195.438 312.594 191.969 310.953C188.547 309.266 185.383 307.273 182.477 304.977C179.617 302.68 177.297 299.891 175.516 296.609C173.781 293.281 172.914 289.25 172.914 284.516C172.914 278.328 174.461 272.984 177.555 268.484C180.695 263.984 184.984 260.516 190.422 258.078C195.859 255.641 202.07 254.422 209.055 254.422C213.977 254.422 219.086 255.078 224.383 256.391C229.727 257.703 235.047 259.695 240.344 262.367L231.836 279.875C228.508 277.859 224.922 276.266 221.078 275.094C217.234 273.922 213.625 273.336 210.25 273.336C207.203 273.336 204.531 273.805 202.234 274.742C199.984 275.68 198.227 276.992 196.961 278.68C195.695 280.32 195.062 282.266 195.062 284.516C195.062 287.188 195.977 289.508 197.805 291.477C199.633 293.398 202 295.109 204.906 296.609C207.859 298.109 211.023 299.609 214.398 301.109C217.867 302.609 221.359 304.25 224.875 306.031C228.438 307.812 231.672 309.922 234.578 312.359C237.531 314.75 239.898 317.633 241.68 321.008C243.508 324.336 244.422 328.344 244.422 333.031C244.422 339.219 242.781 344.656 239.5 349.344C236.219 353.984 231.648 357.617 225.789 360.242C219.93 362.82 213.109 364.109 205.328 364.109C198.203 364.109 191.383 362.961 184.867 360.664C178.352 358.367 172.281 355.016 166.656 350.609ZM255.672 352.859L263.969 336.828C267.719 339.594 271.398 341.68 275.008 343.086C278.664 344.492 282.203 345.195 285.625 345.195C288.953 345.195 291.883 344.562 294.414 343.297C296.992 342.031 299.008 340.273 300.461 338.023C301.914 335.773 302.641 333.195 302.641 330.289C302.641 325.461 300.648 321.711 296.664 319.039C292.68 316.32 287.125 314.961 280 314.961H275.5V299.914H280C283.844 299.914 287.266 299.305 290.266 298.086C293.312 296.82 295.703 295.109 297.438 292.953C299.172 290.75 300.039 288.242 300.039 285.43C300.039 283.086 299.406 281 298.141 279.172C296.922 277.344 295.234 275.914 293.078 274.883C290.969 273.852 288.531 273.336 285.766 273.336C282.906 273.336 279.906 273.945 276.766 275.164C273.672 276.383 270.414 278.234 266.992 280.719L257.5 265.672C261.625 262.062 266.289 259.297 271.492 257.375C276.695 255.406 282.133 254.422 287.805 254.422C294.133 254.422 299.734 255.57 304.609 257.867C309.531 260.164 313.398 263.328 316.211 267.359C319.07 271.391 320.5 276.031 320.5 281.281C320.5 287 318.836 292.109 315.508 296.609C312.18 301.109 307.797 304.555 302.359 306.945C309.438 308.914 314.992 312.195 319.023 316.789C323.102 321.383 325.141 326.961 325.141 333.523C325.141 339.383 323.5 344.633 320.219 349.273C316.984 353.867 312.555 357.5 306.93 360.172C301.305 362.797 294.906 364.109 287.734 364.109C281.828 364.109 276.133 363.148 270.648 361.227C265.164 359.258 260.172 356.469 255.672 352.859Z" fill="#F8A23D"/>
<path d="M166.656 350.609L162.409 347.971L160.043 351.78L163.573 354.546L166.656 350.609ZM176.922 334.086L180.073 330.204L175.668 326.629L172.675 331.447L176.922 334.086ZM186.273 340.555L183.822 344.913L183.862 344.935L183.903 344.957L186.273 340.555ZM195.273 344.211L193.971 349.038L194.007 349.048L194.043 349.057L195.273 344.211ZM220.023 339.359L216.082 336.283L216.058 336.313L216.035 336.344L220.023 339.359ZM212.078 319.953L209.787 324.397L209.828 324.418L209.87 324.439L212.078 319.953ZM202.305 315.523L200.404 320.148L200.426 320.157L200.448 320.166L202.305 315.523ZM191.969 310.953L189.757 315.437L189.794 315.456L189.831 315.473L191.969 310.953ZM182.477 304.977L179.345 308.875L179.361 308.887L179.376 308.899L182.477 304.977ZM175.516 296.609L171.082 298.92L171.101 298.958L171.121 298.995L175.516 296.609ZM177.555 268.484L173.455 265.623L173.444 265.637L173.434 265.652L177.555 268.484ZM224.383 256.391L223.18 261.244L223.19 261.246L224.383 256.391ZM240.344 262.367L244.841 264.553L246.994 260.122L242.596 257.903L240.344 262.367ZM231.836 279.875L229.246 284.152L233.936 286.993L236.333 282.06L231.836 279.875ZM202.234 274.742L200.345 270.113L200.328 270.12L200.311 270.127L202.234 274.742ZM196.961 278.68L200.92 281.734L200.941 281.707L200.961 281.68L196.961 278.68ZM197.805 291.477L194.141 294.879L194.161 294.901L194.182 294.923L197.805 291.477ZM204.906 296.609L202.613 301.052L202.627 301.06L202.642 301.067L204.906 296.609ZM214.398 301.109L212.368 305.678L212.391 305.689L212.414 305.699L214.398 301.109ZM224.875 306.031L222.615 310.491L222.627 310.497L222.639 310.503L224.875 306.031ZM234.578 312.359L231.365 316.19L231.398 316.218L231.432 316.246L234.578 312.359ZM241.68 321.008L237.258 323.342L237.277 323.378L237.297 323.415L241.68 321.008ZM239.5 349.344L243.583 352.23L243.589 352.221L243.596 352.211L239.5 349.344ZM225.789 360.242L227.803 364.819L227.818 364.812L227.833 364.805L225.789 360.242ZM170.903 353.248L181.169 336.725L172.675 331.447L162.409 347.971L170.903 353.248ZM173.771 337.968C177.181 340.736 180.531 343.061 183.822 344.913L188.725 336.197C186.016 334.673 183.132 332.686 180.073 330.204L173.771 337.968ZM183.903 344.957C187.245 346.757 190.602 348.129 193.971 349.038L196.576 339.384C194.039 338.699 191.396 337.634 188.644 336.152L183.903 344.957ZM194.043 349.057C197.404 349.911 200.841 350.336 204.344 350.336V340.336C201.659 340.336 199.049 340.011 196.504 339.365L194.043 349.057ZM204.344 350.336C208.453 350.336 212.256 349.759 215.636 348.454L212.036 339.124C210.073 339.882 207.547 340.336 204.344 340.336V350.336ZM215.636 348.454C219.011 347.151 221.899 345.169 224.012 342.375L216.035 336.344C215.242 337.393 214.004 338.365 212.036 339.124L215.636 348.454ZM223.965 342.436C226.179 339.6 227.273 336.28 227.273 332.68H217.273C217.273 334.142 216.868 335.275 216.082 336.283L223.965 342.436ZM227.273 332.68C227.273 328.564 225.924 324.833 223.122 321.821L215.8 328.632C216.748 329.651 217.273 330.89 217.273 332.68H227.273ZM223.122 321.821C220.748 319.269 217.756 317.175 214.287 315.467L209.87 324.439C212.494 325.731 214.424 327.152 215.8 328.632L223.122 321.821ZM214.37 315.509C211.212 313.881 207.808 312.339 204.162 310.881L200.448 320.166C203.833 321.52 206.944 322.931 209.787 324.397L214.37 315.509ZM204.205 310.899C200.866 309.527 197.5 308.038 194.107 306.433L189.831 315.473C193.375 317.149 196.899 318.708 200.404 320.148L204.205 310.899ZM194.18 306.469C191.064 304.932 188.199 303.126 185.577 301.054L179.376 308.899C182.566 311.421 186.03 313.599 189.757 315.437L194.18 306.469ZM185.608 301.078C183.275 299.205 181.38 296.933 179.91 294.224L171.121 298.995C173.213 302.848 175.959 306.155 179.345 308.875L185.608 301.078ZM179.95 294.299C178.672 291.846 177.914 288.651 177.914 284.516H167.914C167.914 289.849 168.891 294.716 171.082 298.92L179.95 294.299ZM177.914 284.516C177.914 279.2 179.228 274.876 181.675 271.317L173.434 265.652C169.693 271.093 167.914 277.456 167.914 284.516H177.914ZM181.655 271.346C184.233 267.652 187.783 264.741 192.467 262.641L188.377 253.516C182.186 256.291 177.158 260.317 173.455 265.623L181.655 271.346ZM192.467 262.641C197.16 260.537 202.655 259.422 209.055 259.422V249.422C201.485 249.422 194.559 250.744 188.377 253.516L192.467 262.641ZM209.055 259.422C213.53 259.422 218.235 260.018 223.18 261.244L225.585 251.537C219.937 250.138 214.423 249.422 209.055 249.422V259.422ZM223.19 261.246C228.14 262.462 233.106 264.316 238.092 266.831L242.596 257.903C236.988 255.074 231.313 252.944 225.575 251.535L223.19 261.246ZM235.847 260.182L227.339 277.69L236.333 282.06L244.841 264.553L235.847 260.182ZM234.426 275.598C230.732 273.361 226.764 271.6 222.536 270.311L219.62 279.876C223.08 280.931 226.284 282.358 229.246 284.152L234.426 275.598ZM222.536 270.311C218.307 269.022 214.203 268.336 210.25 268.336V278.336C213.047 278.336 216.162 278.822 219.62 279.876L222.536 270.311ZM210.25 268.336C206.699 268.336 203.362 268.882 200.345 270.113L204.124 279.371C205.701 278.728 207.708 278.336 210.25 278.336V268.336ZM200.311 270.127C197.367 271.353 194.841 273.173 192.961 275.68L200.961 281.68C201.612 280.811 202.602 280.006 204.157 279.358L200.311 270.127ZM193.002 275.626C191.002 278.218 190.062 281.261 190.062 284.516H200.062C200.062 283.27 200.388 282.423 200.92 281.734L193.002 275.626ZM190.062 284.516C190.062 288.457 191.459 291.991 194.141 294.879L201.469 288.074C200.494 287.025 200.062 285.918 200.062 284.516H190.062ZM194.182 294.923C196.472 297.33 199.322 299.354 202.613 301.052L207.199 292.166C204.678 290.865 202.793 289.467 201.427 288.03L194.182 294.923ZM202.642 301.067C205.68 302.61 208.923 304.147 212.368 305.678L216.429 296.54C213.124 295.071 210.039 293.608 207.171 292.151L202.642 301.067ZM212.414 305.699C215.786 307.157 219.186 308.754 222.615 310.491L227.135 301.571C223.533 299.746 219.949 298.062 216.383 296.52L212.414 305.699ZM222.639 310.503C225.869 312.119 228.773 314.016 231.365 316.19L237.791 308.528C234.571 305.827 231.006 303.506 227.111 301.559L222.639 310.503ZM231.432 316.246C233.857 318.208 235.791 320.562 237.258 323.342L246.102 318.674C244.006 314.703 241.206 311.292 237.724 308.473L231.432 316.246ZM237.297 323.415C238.636 325.852 239.422 328.99 239.422 333.031H249.422C249.422 327.697 248.38 322.82 246.062 318.601L237.297 323.415ZM239.422 333.031C239.422 338.281 238.048 342.699 235.404 346.476L243.596 352.211C247.514 346.614 249.422 340.157 249.422 333.031H239.422ZM235.417 346.457C232.718 350.275 228.895 353.372 223.745 355.679L227.833 364.805C234.402 361.863 239.72 357.693 243.583 352.23L235.417 346.457ZM223.775 355.666C218.672 357.911 212.562 359.109 205.328 359.109V369.109C213.657 369.109 221.187 367.73 227.803 364.819L223.775 355.666ZM205.328 359.109C198.751 359.109 192.494 358.051 186.53 355.948L183.205 365.38C190.271 367.871 197.655 369.109 205.328 369.109V359.109ZM186.53 355.948C180.544 353.839 174.951 350.756 169.74 346.673L163.573 354.546C169.611 359.276 176.159 362.896 183.205 365.38L186.53 355.948ZM255.672 352.859L251.231 350.561L249.349 354.198L252.543 356.76L255.672 352.859ZM263.969 336.828L266.936 332.804L262.221 329.327L259.528 334.53L263.969 336.828ZM275.008 343.086L273.193 347.745L273.203 347.749L273.213 347.753L275.008 343.086ZM294.414 343.297L292.211 338.809L292.194 338.817L292.178 338.825L294.414 343.297ZM296.664 319.039L293.846 323.169L293.863 323.181L293.879 323.192L296.664 319.039ZM275.5 314.961H270.5V319.961H275.5V314.961ZM275.5 299.914V294.914H270.5V299.914H275.5ZM290.266 298.086L292.148 302.718L292.166 302.711L292.184 302.703L290.266 298.086ZM297.438 292.953L301.334 296.087L301.35 296.067L301.366 296.046L297.438 292.953ZM298.141 279.172L293.98 281.945L294.005 281.982L294.03 282.018L298.141 279.172ZM293.078 274.883L290.882 279.375L290.901 279.384L290.921 279.393L293.078 274.883ZM276.766 275.164L274.957 270.503L274.945 270.507L274.933 270.512L276.766 275.164ZM266.992 280.719L262.763 283.386L265.611 287.9L269.93 284.765L266.992 280.719ZM257.5 265.672L254.207 261.909L250.99 264.724L253.271 268.34L257.5 265.672ZM271.492 257.375L273.225 262.065L273.243 262.058L273.262 262.051L271.492 257.375ZM304.609 257.867L302.478 262.39L302.487 262.394L302.495 262.398L304.609 257.867ZM316.211 267.359L312.11 270.22L312.121 270.236L312.133 270.252L316.211 267.359ZM302.359 306.945L300.347 302.368L287.52 308.008L301.02 311.762L302.359 306.945ZM319.023 316.789L315.265 320.087L315.275 320.098L315.284 320.109L319.023 316.789ZM320.219 349.273L316.136 346.387L316.13 346.395L320.219 349.273ZM306.93 360.172L309.044 364.703L309.06 364.696L309.075 364.688L306.93 360.172ZM270.648 361.227L268.959 365.933L268.977 365.939L268.995 365.945L270.648 361.227ZM260.112 355.158L268.409 339.126L259.528 334.53L251.231 350.561L260.112 355.158ZM261.001 340.852C265.036 343.828 269.1 346.15 273.193 347.745L276.823 338.427C273.697 337.209 270.401 335.359 266.936 332.804L261.001 340.852ZM273.213 347.753C277.36 349.348 281.507 350.195 285.625 350.195V340.195C282.899 340.195 279.968 339.637 276.803 338.419L273.213 347.753ZM285.625 350.195C289.593 350.195 293.312 349.438 296.65 347.769L292.178 338.825C290.453 339.687 288.313 340.195 285.625 340.195V350.195ZM296.617 347.785C299.949 346.15 302.68 343.803 304.661 340.736L296.261 335.311C295.335 336.743 294.036 337.913 292.211 338.809L296.617 347.785ZM304.661 340.736C306.681 337.609 307.641 334.072 307.641 330.289H297.641C297.641 332.318 297.147 333.938 296.261 335.311L304.661 340.736ZM307.641 330.289C307.641 323.807 304.828 318.494 299.449 314.886L293.879 323.192C296.468 324.928 297.641 327.115 297.641 330.289H307.641ZM299.482 314.909C294.358 311.413 287.677 309.961 280 309.961V319.961C286.573 319.961 291.001 321.228 293.846 323.169L299.482 314.909ZM280 309.961H275.5V319.961H280V309.961ZM280.5 314.961V299.914H270.5V314.961H280.5ZM275.5 304.914H280V294.914H275.5V304.914ZM280 304.914C284.371 304.914 288.449 304.221 292.148 302.718L288.384 293.454C286.082 294.389 283.317 294.914 280 294.914V304.914ZM292.184 302.703C295.855 301.178 298.982 299.01 301.334 296.087L293.541 289.819C292.424 291.209 290.77 292.462 288.348 293.468L292.184 302.703ZM301.366 296.046C303.797 292.958 305.039 289.36 305.039 285.43H295.039C295.039 287.124 294.547 288.542 293.509 289.86L301.366 296.046ZM305.039 285.43C305.039 282.127 304.128 279.037 302.252 276.326L294.03 282.018C294.684 282.963 295.039 284.045 295.039 285.43H305.039ZM302.301 276.398C300.54 273.756 298.13 271.756 295.235 270.372L290.921 279.393C292.339 280.072 293.304 280.931 293.98 281.945L302.301 276.398ZM295.274 270.391C292.37 268.971 289.158 268.336 285.766 268.336V278.336C287.905 278.336 289.568 278.732 290.882 279.375L295.274 270.391ZM285.766 268.336C282.188 268.336 278.573 269.099 274.957 270.503L278.574 279.825C281.239 278.791 283.625 278.336 285.766 278.336V268.336ZM274.933 270.512C271.358 271.921 267.73 274.004 264.055 276.673L269.93 284.765C273.098 282.465 275.986 280.845 278.598 279.816L274.933 270.512ZM271.221 278.051L261.729 263.004L253.271 268.34L262.763 283.386L271.221 278.051ZM260.793 269.435C264.453 266.232 268.587 263.778 273.225 262.065L269.76 252.685C263.991 254.815 258.797 257.893 254.207 261.909L260.793 269.435ZM273.262 262.051C277.888 260.301 282.725 259.422 287.805 259.422V249.422C281.54 249.422 275.502 250.512 269.723 252.699L273.262 262.051ZM287.805 259.422C293.523 259.422 298.376 260.458 302.478 262.39L306.74 253.344C301.093 250.683 294.742 249.422 287.805 249.422V259.422ZM302.495 262.398C306.705 264.363 309.853 266.985 312.11 270.22L320.312 264.498C316.944 259.671 312.357 255.965 306.724 253.336L302.495 262.398ZM312.133 270.252C314.354 273.384 315.5 276.999 315.5 281.281H325.5C325.5 275.063 323.787 269.397 320.289 264.467L312.133 270.252ZM315.5 281.281C315.5 285.955 314.165 290.017 311.488 293.636L319.528 299.583C323.507 294.202 325.5 288.045 325.5 281.281H315.5ZM311.488 293.636C308.71 297.393 305.038 300.306 300.347 302.368L304.372 311.522C310.556 308.803 315.65 304.826 319.528 299.583L311.488 293.636ZM301.02 311.762C307.353 313.524 311.995 316.36 315.265 320.087L322.782 313.491C317.989 308.03 311.522 304.304 303.699 302.128L301.02 311.762ZM315.284 320.109C318.492 323.721 320.141 328.093 320.141 333.523H330.141C330.141 325.828 327.711 319.044 322.763 313.47L315.284 320.109ZM320.141 333.523C320.141 338.383 318.801 342.618 316.136 346.387L324.301 352.16C328.199 346.648 330.141 340.383 330.141 333.523H320.141ZM316.13 346.395C313.444 350.21 309.718 353.312 304.784 355.655L309.075 364.688C315.392 361.688 320.525 357.524 324.307 352.152L316.13 346.395ZM304.815 355.641C299.948 357.912 294.289 359.109 287.734 359.109V369.109C295.524 369.109 302.662 367.681 309.044 364.703L304.815 355.641ZM287.734 359.109C282.382 359.109 277.246 358.24 272.302 356.508L268.995 365.945C275.019 368.056 281.274 369.109 287.734 369.109V359.109ZM272.338 356.521C267.369 354.737 262.864 352.218 258.8 348.959L252.543 356.76C257.48 360.719 262.959 363.779 268.959 365.933L272.338 356.521Z" fill="black"/>
</svg>
