<svg xmlns="http://www.w3.org/2000/svg" viewBox="0 0 500 500"><defs><style>.cls-1{fill:none;}.cls-2{fill:#fdfdfd;}.cls-3{fill:#61292a;}.cls-4{fill:#d7271f;}</style></defs><title>logosd</title><g id="Layer_2" data-name="Layer 2"><g id="Layer_1-2" data-name="Layer 1"><rect class="cls-1" width="500" height="500"/><path class="cls-2" d="M75.18,249.79q0-101.92,0-203.83c0-1.61.36-2,2-2q172.89.06,345.78,0c1.61,0,2,.36,2,2q-.06,204,0,408.08c0,1.61-.36,2-2,2Q250,456,77.11,456c-1.61,0-2-.36-2-2Q75.22,351.91,75.18,249.79ZM251.74,439.16a3.1,3.1,0,0,0,2.55-1.06,18.26,18.26,0,0,1,4.88-3.07c12-5.54,24.36-10.1,36.56-15.07a361.22,361.22,0,0,0,44.69-21.49c5.38-3.11,10.34-6.88,15.44-10.43,8.44-5.85,15.27-13.27,21.36-21.37,5-6.68,7.79-14.56,10.29-22.49,5.05-16,6.26-32.64,7.95-49.17.8-7.81.81-15.71.94-23.57.45-26.52.22-53.06,2.18-79.54,1.12-15,3-29.88,6.72-44.46,2.47-9.59,5.05-19.15,10-27.87a20.21,20.21,0,0,0,1.32-2.92c.51-1.36.16-2.26-1.39-2.68-7.33-2-14.31-4.93-21.27-7.83A213.1,213.1,0,0,1,355.35,85,208,208,0,0,1,329,63.47a2.63,2.63,0,0,0-3.4-.49,194.39,194.39,0,0,1-31,10.36,247.8,247.8,0,0,1-33.32,5.79c-3.82.41-7.66,1.12-11.53.74-8.18-.8-16.34-1.69-24.45-3.08a210.71,210.71,0,0,1-48-13.94,2.42,2.42,0,0,0-3,.53A157.67,157.67,0,0,1,161.11,75c-6.53,5-12.89,10.14-20,14.38-5.5,3.32-10.92,6.77-16.66,9.69a262.29,262.29,0,0,1-36.76,15.18c-1.48.5-1.51,1-.88,2.29a145.5,145.5,0,0,1,6.38,15.19c7,19.09,9.35,39.1,11.69,59.09,1.15,9.79,1.35,19.68,1.52,29.55.32,19.38.5,38.76,1,58.13.5,19.81,1.56,39.59,6.43,58.92,2.36,9.41,5.21,18.61,10.75,26.82a88.15,88.15,0,0,0,19.43,21.2,186.3,186.3,0,0,0,19.57,13.45,312,312,0,0,0,39,19c11.22,4.58,22.46,9.11,33.64,13.79,4.58,1.92,9.36,3.56,13.13,7.05C250,439.28,250.71,439.07,251.74,439.16Z"/><path class="cls-3" d="M251.74,439.16c-1-.09-1.77.12-2.37-.44-3.77-3.49-8.55-5.13-13.13-7.05-11.18-4.68-22.42-9.21-33.64-13.79a312,312,0,0,1-39-19,186.3,186.3,0,0,1-19.57-13.45,88.15,88.15,0,0,1-19.43-21.2c-5.54-8.21-8.39-17.41-10.75-26.82-4.87-19.33-5.93-39.11-6.43-58.92-.49-19.37-.67-38.75-1-58.13-.17-9.87-.37-19.76-1.52-29.55-2.34-20-4.72-40-11.69-59.09a145.5,145.5,0,0,0-6.38-15.19c-.63-1.26-.6-1.79.88-2.29A262.29,262.29,0,0,0,124.5,99c5.74-2.92,11.16-6.37,16.66-9.69,7.06-4.24,13.42-9.42,20-14.38a157.67,157.67,0,0,0,13.16-11.58,2.42,2.42,0,0,1,3-.53,210.71,210.71,0,0,0,48,13.94c8.11,1.39,16.27,2.28,24.45,3.08,3.87.38,7.71-.33,11.53-.74a247.8,247.8,0,0,0,33.32-5.79,194.39,194.39,0,0,0,31-10.36,2.63,2.63,0,0,1,3.4.49A208,208,0,0,0,355.35,85,213.1,213.1,0,0,0,394,106.14c7,2.9,13.94,5.88,21.27,7.83,1.55.42,1.9,1.32,1.39,2.68a20.21,20.21,0,0,1-1.32,2.92c-4.94,8.72-7.52,18.28-10,27.87-3.75,14.58-5.6,29.47-6.72,44.46-2,26.48-1.73,53-2.18,79.54-.13,7.86-.14,15.76-.94,23.57-1.69,16.53-2.9,33.17-7.95,49.17-2.5,7.93-5.25,15.81-10.29,22.49-6.09,8.1-12.92,15.52-21.36,21.37-5.1,3.55-10.06,7.32-15.44,10.43A361.22,361.22,0,0,1,295.73,420c-12.2,5-24.59,9.53-36.56,15.07a18.26,18.26,0,0,0-4.88,3.07A3.1,3.1,0,0,1,251.74,439.16ZM218,174.48a.91.91,0,0,0,.09.17s.08,0,.12,0l-.24-.1c.16-1.28-.65-1.29-1.55-1.28A1.57,1.57,0,0,0,218,174.48Zm35.08,67.77a10.46,10.46,0,0,0,.22-4.65c-.2-1.15-.62-2.38-2.31-2.26s-1.94,1.37-2,2.53a40.75,40.75,0,0,0,.12,4.68c-.13,2,.92,4.06-.84,6.07-2.94,3.38-6.24,6-10.58,7.26a4.5,4.5,0,0,0-2.5,1.79c-1.51,2-1.25,4.15-1.24,6.32,0,1.54-.2,2.24-2.06,1.68a26.34,26.34,0,0,0-12.44-1.05c-2.88.52-5.95.69-8.45,2.08a4.37,4.37,0,0,1-4.42.27c-2.3-.91-4.69-1.77-7.27-1.46a2.17,2.17,0,0,0-2.57-.41c-.78.53.11,1.4.25,2.13,0,.07,0,.14.05.21.59,2.21.49,2.37-1.75,2.19-2.49-.21-5-.53-7.46-.72-2.28-.17-3.18,1.15-2.16,3.16,1.2,2.35,2.46,4.67,3.75,7,.7,1.26.67,1.91-1,2-2.71.16-5.4.52-8.11.72-1,.08-1.8.23-2.25,1.26a2.12,2.12,0,0,0,.62,2.5c1.81,2,3.59,4,5.41,6,1.1,1.21.68,1.77-.72,2.15-2.61.71-5.21,1.49-7.82,2.21-.85.24-1.61.44-1.82,1.51a2.14,2.14,0,0,0,.94,2.38c2,1.58,4,3.28,6,4.86,1.26,1,1.4,1.62-.19,2.39-2.3,1.12-4.55,2.37-6.81,3.61-2.08,1.14-2.09,2.85,0,4s4.51,2.47,6.82,3.59c1.56.75,1.49,1.38.2,2.36-2,1.52-3.87,3.17-5.82,4.73a2.44,2.44,0,0,0-1.18,2.52c.22,1.24,1.14,1.36,2,1.61,2.46.74,4.93,1.46,7.42,2.08,1.6.41,2.17.94.84,2.37-1.8,1.91-3.57,3.85-5.25,5.86s-.93,3.4,1.45,3.68c2.77.33,5.54.59,8.32.8,1.42.11,1.76.59,1,1.87-1.29,2.3-2.5,4.65-3.76,7a2.11,2.11,0,0,0-.09,2.55c.68,1,1.52.89,2.45.8,2.42-.24,4.85-.38,7.25-.75,2-.31,2.2.56,1.71,2.13-.74,2.39-1.43,4.79-2.22,7.15a2,2,0,0,0,.42,2.32,2,2,0,0,0,2.33.4c2.73-.84,5.48-1.57,8.22-2.38,1.22-.35,1.73-.07,1.55,1.31-.34,2.62-.55,5.25-.86,7.88a2,2,0,0,0,.74,2.25,2.09,2.09,0,0,0,2.54,0c2.23-1.27,4.54-2.4,6.77-3.69,1.36-.79,2-.7,2.17,1,.2,2.56.44,5.12.76,7.68s2.15,3.15,4.07,1.62c2.12-1.7,4.2-3.44,6.27-5.19,1-.86,1.52-.74,1.89.6.74,2.68,1.57,5.33,2.45,8,.66,1.95,2.25,2.21,3.63.65,1.89-2.12,3.86-4.18,5.64-6.38,1.07-1.31,1.51-.75,2.06.32.82,1.59,1.6,3.2,2.54,4.71.74,1.19,1,3.64,2.38,3.19,1.06-.34.38-2.81.14-4.34a10.93,10.93,0,0,0,.13-1.27q0-21.88,0-43.77c0-.38.19-.84-.32-1.24a3.46,3.46,0,0,0-.5.6,38.74,38.74,0,0,1-11.39,13.36,44.94,44.94,0,0,1-16.61,7.58c-1.72.37-2.56-.26-2.84-1.94-1.05-6.39-2.23-12.71-1.55-19.31a33.9,33.9,0,0,1,6-16.18,48.92,48.92,0,0,1,4.62-5.6c-3.15-.51-5.86-.77-8.48-1.41-10.9-2.67-18-10.13-23.88-19.13-.62-.95-.33-1.46.58-2a50.89,50.89,0,0,1,8-4.05c6.63-2.78,13.42-4.72,20.77-3.85A39.66,39.66,0,0,1,235,289.1c1.57.62,1.85.29,1.5-1.31a27.66,27.66,0,0,1-.8-5.7c0-6.78,1-13.21,4.9-19.09a65.75,65.75,0,0,1,9.29-11.7c.79-.76,1.47-1.4,2.47-.29a86,86,0,0,1,8.48,10.7c5.26,8.19,6.38,17.26,4.93,26.74-.32,2.11-.09,2.34,1.85,1.7,13.84-4.58,26.39-1.2,38.3,6.19a1.5,1.5,0,0,1,.57,2.45,41.75,41.75,0,0,1-6.48,8.49c-6.23,5.94-13.41,10.08-22.18,11-.46.05-1.11-.17-1.28.48s.33.91.69,1.24a33.47,33.47,0,0,1,3.39,3.23c8.23,10.64,9.94,22.74,7.87,35.67-.21,1.35-.83,1.58-2.07,1.34-13.82-2.7-23.79-10.76-31.27-22.33-.39-.59-.32-1.55-1.43-1.68,0,12.25,0,24.41,0,36.56,0,2.79.09,5.57.13,8.36a24.76,24.76,0,0,0,0,6c1.24-2.27,2.23-4,3.12-5.75.52-1,.91-1.21,1.87-.35a56,56,0,0,1,5.59,6.43,2.17,2.17,0,0,0,2.35,1c1.05-.22,1.28-.87,1.53-1.77.68-2.48,1.54-4.9,2.21-7.38.44-1.62.93-2,2.36-.75a39.19,39.19,0,0,0,6.71,5.26c1.78,1,3,.29,3.24-1.69.29-2.63.57-5.26.8-7.9.12-1.48.63-1.91,2-1.12,2.3,1.3,4.66,2.49,7,3.76a1.92,1.92,0,0,0,2.35.08,2.11,2.11,0,0,0,.83-2.24c-.31-2.62-.53-5.26-.84-7.88-.16-1.38.27-1.86,1.66-1.44,2.73.82,5.48,1.6,8.23,2.38,1.95.55,3.22-.65,2.68-2.6-.73-2.61-1.48-5.22-2.34-7.79-.47-1.41-.1-1.83,1.33-1.66,2.7.32,5.4.6,8.11.81,2.15.16,3.11-1.34,2.1-3.23-1.21-2.27-2.44-4.53-3.71-6.76-.8-1.41-.75-2.17,1.16-2.27,2.71-.14,5.42-.42,8.11-.74,2.27-.27,2.9-1.8,1.5-3.56-1.68-2.13-3.42-4.22-5.17-6.29-.87-1-.67-1.59.61-2,2.48-.69,4.94-1.44,7.4-2.19.87-.26,1.81-.39,2-1.59a2.39,2.39,0,0,0-1.14-2.54c-2-1.54-3.86-3.18-5.83-4.72-1.26-1-1.34-1.65.2-2.41,2.24-1.1,4.43-2.3,6.64-3.49.87-.47,1.7-.9,1.65-2.21s-.83-1.53-1.65-2c-2.27-1.2-4.51-2.47-6.81-3.61-1.37-.68-1.27-1.3-.21-2.15,2.12-1.7,4.2-3.45,6.34-5.12a2.09,2.09,0,0,0,.79-2.26c-.16-.92-.79-1.25-1.61-1.48-2.47-.71-4.91-1.53-7.39-2.2-1.59-.43-2.07-1-.8-2.4,1.72-1.92,3.3-3.95,4.93-5.94a2,2,0,0,0,.52-2.31,2.14,2.14,0,0,0-2.17-1.32c-2.71-.21-5.41-.57-8.12-.73-1.65-.1-1.79-.77-1.1-2,1.28-2.31,2.56-4.63,3.81-7,1-1.86.06-3.35-2.06-3.21-1.85.13-3.7.37-5.55.59-4.21.49-4.21.5-3.3-3.51a1.52,1.52,0,0,1,.06-.2c.29-1-.17-1.33-1.1-1.13-.55.12-1.09.32-1.64.48-2.86.36-5.78.51-8.28,2.26a2.47,2.47,0,0,1-2.45.07c-7.21-3-14.56-3.75-22.08-1.39-1.44.45-1.82,0-1.78-1.33s0-2.86,0-4.29a4.54,4.54,0,0,0-3-4.19,36.27,36.27,0,0,1-6.15-2.94c-3.52-2.41-7.56-4.73-6.22-10.2A2.72,2.72,0,0,0,253.11,242.25Zm33.26,107.33c.24-12.13-4.38-22.05-13.55-29.92-.81-.7-1.9-1.24-1.39-2.79s1.69-1.29,2.77-1.31c12.2-.29,21.17-6.31,28.21-15.81.82-1.11.77-1.74-.5-2.5a49.71,49.71,0,0,0-6.59-3.05c-10-4.18-20.1-4.54-30.14,0a2.08,2.08,0,0,1-2.53-.13c-1-.83-.76-1.76-.51-2.72,2.69-10.32,1.6-20-4.57-29-1.7-2.47-3.47-4.88-5.37-7.21-.78-.94-1.35-.9-2.22,0a41.3,41.3,0,0,0-10.56,18.1,24.92,24.92,0,0,0,.77,16.58c.33.81,1.2,1.88.15,2.75a3,3,0,0,1-3.66.47A32.19,32.19,0,0,0,221,289.49c-7.58.11-14.31,3-20.94,6.28-1.26.62-.75,1.34-.16,2,3,3.49,5.8,7.21,9.5,10.08,6.25,4.83,13.48,6.3,21.17,6.16,1,0,1.72.1,2.14,1.23a1.88,1.88,0,0,1-.71,2.38c-11.77,10.54-13.87,23.64-10.08,38.29.22.87.5,1.32,1.62,1a39.42,39.42,0,0,0,17.94-10.76c4.58-4.57,7.32-10.33,9.25-16.46.28-.89.61-1.55,1.71-1.54a1.76,1.76,0,0,1,2,1.23,43.07,43.07,0,0,0,7.33,12.41,41.89,41.89,0,0,0,22,14.76c1.7.46,2.41.15,2.41-1.66S286.29,351.37,286.37,349.58ZM255,134.6c0,10.8,0,21.59,0,32.38,0,1.74.4,2.36,2.24,2.32q8.15-.18,16.29,0c1.83.05,2.61-.6,2.77-2.35a7.72,7.72,0,0,1,2.23-5.18,17.44,17.44,0,0,1,11.5-5,2.61,2.61,0,0,0,2.4-1.52c.79-1.52,1.65-3,2.46-4.52,1.22-2.27,1.87-4.78,3-7.1a30,30,0,0,0,2.65-14.48,27.88,27.88,0,0,0-2.92-11c-1.89-3.78-3.68-7.58-6.36-10.84-3.92-4.77-8.62-7.91-15.26-7.57-6.13.31-12.29.13-18.43,0-1.9,0-2.56.4-2.54,2.45C255.05,113,255,123.81,255,134.6Zm-65.11.27c-6.93,0-13.87,0-20.8,0-1.42,0-2,.33-2,1.9q.09,16.83,0,33.66c0,1.51.47,2,2,1.94,5.5-.07,11,0,16.51,0,4.51,0,4.51,0,4.48-4.39,0-.35,0-.71,0-1.07.08-5.15,2-7.27,7.07-7.84a4,4,0,0,0,2.67-1.11c2.3-2.39,4.9-4.15,8.46-3.6.72.11,1.38,0,1.28-1-.21-1.94,1-1.84,2.29-1.69,1.06.12,2.13.22,3.2.29,3.49.23,7,.51,10.47.62,1,0,2.31-.16,2.73-1.32s-.57-1.83-1.28-2.51a20.52,20.52,0,0,0-5.63-3.86,16.53,16.53,0,0,1-8.4-8.45,2.51,2.51,0,0,0-2.66-1.59C203.46,134.9,196.67,134.87,189.88,134.87ZM216,155.78l-.15.26c.66.37,1.3.79,2,1.11,4.65,2.13,7.25,5.37,6.83,10.85-.26,3.39.09,3.41,3.44,3.45a6.48,6.48,0,0,1,1.71.06c5.88,1.81,13.7-3.78,16.15-8.81,2-4.21,1.67-8.64,1.54-13a15.56,15.56,0,0,0-7.63-13.32q-4.87-3.1-9.65-6.35a12,12,0,0,1-5.07-6.68A8.27,8.27,0,0,1,232.92,113a103.49,103.49,0,0,1,11.93.82c1.63.21,2.36-.25,2.3-2-.12-3.14,0-6.29,0-9.43s-.19-3.22-3.31-3.24c-4.08,0-8.15-.06-12.22,0-6,0-10.7,3-14.31,7.32-4.37,5.26-5.61,11.62-4.28,18.34,1.39,7,3.39,13.69,10.69,17.16a20.76,20.76,0,0,1,6.92,5.31c2.81,3.32,1.88,7-2.15,8.53a10.78,10.78,0,0,1-4.82.74C221.08,156.26,218.54,156,216,155.78Zm118.57-2.34c0-5.43-.07-10.86,0-16.28,0-1.77-.49-2.35-2.29-2.33-8.56.08-17.13.11-25.7,0-2,0-2.7.65-3,2.51C302.5,143.21,301,149,297.49,154c-1,1.41-.59,1.91,1.07,2.11a9.66,9.66,0,0,1,7,4.72,29,29,0,0,1,3.83,9.47,2.2,2.2,0,0,0,2.6,2.06c6.78-.07,13.56-.08,20.35,0,1.69,0,2.23-.51,2.21-2.2C334.5,164.58,334.56,159,334.56,153.44ZM183.29,131.06c8.43,0,16.86,0,25.29,0,1.42,0,2-.35,1.57-1.83a29.05,29.05,0,0,1-.43-16.06c.4-1.58-.34-1.66-1.51-1.66H167.92a2,2,0,0,0-2.11,1.08c-2.88,5.55-6.34,10.78-9.09,16.41-.78,1.58-.57,2.08,1.28,2.06C166.43,131,174.86,131.06,183.29,131.06ZM152,311.88c.06-1.21.07-2.43.2-3.64.17-1.65-.42-1.69-1.67-1A34.53,34.53,0,0,1,128,311.32c-1.56-.23-1.95.17-1.47,1.66,2.27,7,5.06,13.84,9.92,19.54,3.07,3.62,5.38,7.47,5.91,12.33s3.47,8.12,7.2,10.86c.48.36,1.11,1.27,1.73.18,2.29-4,6-6.89,8.7-10.58a5.14,5.14,0,0,0,1.1-4c-.67-4.4-1.61-8.67-4.23-12.44A25.79,25.79,0,0,1,152,311.88ZM343.2,341.46c-.22,2.43.95,3.74,2,5.06,2.52,3.08,5.64,5.68,7.61,9.22.36.65.81.7,1.41.33,4.09-2.55,7.25-5.7,7.66-10.88A18.76,18.76,0,0,1,366.7,334c5.08-5.79,8.3-12.68,11-19.8.33-.88,1.25-2.12.49-2.76s-2.14,0-3.24.22a2.3,2.3,0,0,0-.56.29,54.85,54.85,0,0,1-9.52,3.18,2.49,2.49,0,0,1-2.84-.83c-2.47-2.82-5.82-4.53-8.69-6.86-.92-.75-1.24-.32-1.22.67,0,.57,0,1.14,0,1.71a29,29,0,0,1-5.46,20.2C344.22,333.56,343.72,337.8,343.2,341.46ZM295,221.43c0,3.29,0,6.58,0,9.87,0,1.07.19,1.62,1.47,1.26,1.44-.41,2.95-.56,4.41-.92,4.19-1,8.41-1.67,12.71-.79a1.33,1.33,0,0,0,1.56-.62c1.37-1.71,2.84-1.52,4.08.34a9,9,0,0,1,.68,1.09c.65,1.43,1.49,1.38,2.67.55a58.25,58.25,0,0,1,6.31-4.05c2-1,2.19-2.37,1.68-4.36a57.82,57.82,0,0,0-11.69-22.42,3.76,3.76,0,0,0-3.12-1.54c-2.21,0-4.43,0-6.64,0-1.27,0-1.64.45-1.39,1.68.8,3.81.56,7.68.6,11.54a2.12,2.12,0,0,1-1.22,2.24c-1,.51-1.59.05-2.29-.49-1.87-1.43-3.73-2.88-5.64-4.25a3,3,0,0,0-3.16-.67c-1.39.6-1,1.76-1,2.76C294.93,215.57,295,218.5,295,221.43Zm-84.7,0v8.79c0,2.6,0,2.64,2.53,2,5.43-1.33,10.85-2.62,16.48-1.33.67.15.77-.28,1.07-.72,1.08-1.55,2.23-1.53,3.32,0a11.41,11.41,0,0,1,1,1.61c.59,1.19,1.28,1.23,2.36.51,2.44-1.59,4.91-3.16,7.47-4.55,1.52-.82,1.65-1.77,1.32-3.32-1.67-7.87-5.8-14.42-10.41-20.83-2.1-2.92-4.38-4.45-8-3.82a11.24,11.24,0,0,1-2.78,0c-1.54-.15-2.06.43-1.75,2a50.21,50.21,0,0,1,.66,10.68c0,1.16,0,2.2-1.34,2.82s-2.16,0-3.08-.74c-1.82-1.38-3.65-2.75-5.45-4.15a2.27,2.27,0,0,0-2.54-.54c-1,.46-.91,1.33-.92,2.17Zm114.87-90.41h19.27c1.14,0,2.18,0,1.29-1.61-2.75-4.92-5.46-9.86-8.23-14.77-1.29-2.31-3-3.31-6-3.24-9.85.26-19.71.1-29.56.1-2.93,0-2.93,0-1.71,2.59a37.58,37.58,0,0,1,4,14.76c.07,1.88.83,2.21,2.48,2.19C312.83,131,319,131.06,325.12,131.06ZM215.94,387.15a7.84,7.84,0,0,0-.63-.75c-4.52-4.25-9.13-8.26-15.95-8a5.61,5.61,0,0,1-5.21-3.19c-.87-1.55-1.6-3.18-2.42-4.75-.47-.91-1-1.88-2.24-1.62-3.59.75-6.37-.73-8.88-3.06-.4-.37-.87-.68-1.27-.13-2.33,3.26-6.16,4.57-9.06,7.08a9.17,9.17,0,0,0-2.54,3.13c-.35.76-.39,1.45.72,1.48,4.09.11,6.43,2.62,8.22,5.93a4.19,4.19,0,0,0,3.71,2.45,14,14,0,0,1,9.82,4.58,29.2,29.2,0,0,0,7.28,5.58,2.1,2.1,0,0,0,2.35-.06c4.93-2.82,9.55-6.24,15.1-7.88C215.3,387.84,215.81,387.78,215.94,387.15Zm99-18.34a2.11,2.11,0,0,0-2.34,1.47c-.65,1.34-1.26,2.71-1.94,4a6.83,6.83,0,0,1-6.22,4.17A17.31,17.31,0,0,0,292,383.73a26.17,26.17,0,0,1-2.75,2.39c-1.13.89-1.16,1.46.31,2a58.43,58.43,0,0,1,14.73,7.64,2.09,2.09,0,0,0,2.52.15,29,29,0,0,0,7.26-5.6,14.94,14.94,0,0,1,9.65-4.5,4.5,4.5,0,0,0,3.87-2.55c1.83-3.4,4.31-5.81,8.48-5.93,1.13,0,1.37-.47.51-1.59a20.29,20.29,0,0,0-4.23-4.2c-2.54-1.8-5.48-3.11-7.38-5.75-.47-.65-.94-.42-1.38.08C321.27,368.46,318.47,369.66,315,368.81ZM285,230.94c2,1,3.76,1,5.34,1.55s1.87.17,1.86-1.36c-.06-6.5,0-13,0-19.51,0-.79.07-1.57-.91-2a2.1,2.1,0,0,0-2.34.47c-1.81,1.52-3.65,3-5.49,4.46-.7.55-1.29,1.29-2.44.69a2.4,2.4,0,0,1-1.35-2.42,55,55,0,0,1,.73-11.53c.23-1.25-.15-1.52-1.25-1.51-2.5,0-5,0-7.5,0a2.13,2.13,0,0,0-2,1.06,134.38,134.38,0,0,0-12.49,23.74c-.58,1.38-.12,2.23,1.22,2.89,2.24,1.09,4.42,2.31,6.6,3.53,2.46,1.38,2.44,1.41,4-1,1-1.48,2.73-1.66,3.31-.17s1.31.92,2.18.8c1.26-.18.82-1.08.82-1.81,0-3,0-6,0-9,0-1.12.27-1.73,1.55-1.7,3,.05,6,0,9,0,1.23,0,1.63.49,1.6,1.67-.06,2.5-.09,5,0,7.5C287.54,229,287.49,230.45,285,230.94Zm-84.81.29c1.83.42,3.69.74,5.47,1.29,1.51.47,1.7-.17,1.7-1.42,0-6.5,0-13,0-19.49,0-.82-.08-1.55-1-2a1.91,1.91,0,0,0-2.16.38c-2,1.56-4.07,3.08-6.11,4.62-.72.56-1.31,1.19-2.44.59a2.33,2.33,0,0,1-1.23-2.46,66.58,66.58,0,0,1,.58-11.11c.12-.7.56-1.77-.73-1.8a40.47,40.47,0,0,0-8.32.19c-1.71.32-2.17,2.66-3.23,4.07a18.6,18.6,0,0,0-1.4,1.56,100.43,100.43,0,0,0-9,19.33,1.59,1.59,0,0,0,.88,2.24c2.19,1.2,4.34,2.48,6.5,3.73,2.79,1.63,2.79,1.63,4.62-1.06,1-1.43,2.8-1.53,3.31,0s1.15.86,1.95.77c1-.12,1-.71.94-1.52-.07-3,0-6-.07-9,0-1.42.32-2.1,1.89-2,2.86.09,5.72.07,8.57,0,1.3,0,1.79.47,1.76,1.76-.06,2.42-.1,4.86,0,7.28C202.71,229,202.58,230.62,200.18,231.23Zm92,18.68v-9.65c0-4.28,0-4.36-4.15-5.4-4.86-1.21-9.75-2.22-14.8-1-1.35.32-2,.89-1.88,2.32.09,1.64,0,3.28,0,4.93,0,3.13,0,3.13,3.18,3.48l.85.12c1.37.19,2.5.75,2.78,2.24a3,3,0,0,1-1.47,3.3,2.07,2.07,0,0,0-1.1,1.65c-.44,2.65-.77,5.31-3.66,6.77-1.13.58-.56,2.09-.47,3.19.06.66.6.63,1.15.53a36.63,36.63,0,0,1,17.76,1.21c1.54.48,1.83,0,1.81-1.46C292.12,258.05,292.16,254,292.16,249.91Zm-84.82-.13v-12c0-.84.16-1.75-1-2.05-5.32-1.37-10.62-3-16.21-2.18-3.68.51-3.67.6-3.67,4.24v2.35c0,3.91,0,3.91,3.73,4.49.21,0,.42.07.63.12,1.17.24,2.2.65,2.44,2a3,3,0,0,1-1.27,3.37,2.46,2.46,0,0,0-1.16,1.87c-.58,2.62-.9,5.32-3.83,6.74-1.12.54-.54,2.09-.42,3.18.07.62.73.52,1.24.42a37.58,37.58,0,0,1,17.56,1.18c1.54.44,2,0,2-1.56C207.28,257.92,207.34,253.85,207.34,249.78ZM295,249.6c0,4,.06,8,0,12,0,1.73.45,2.05,2.11,1.61,5.56-1.46,11.19-2.28,16.94-1.22.64.12,1.58.5,1.72-.59s.52-2.25-.54-2.76c-2.76-1.31-3.09-3.91-3.63-6.37a2.87,2.87,0,0,0-1.32-2.21,2.86,2.86,0,0,1-1.23-3.18,2.63,2.63,0,0,1,2.42-2.09,15.28,15.28,0,0,1,2.77-.26c1.19,0,1.66-.37,1.62-1.6-.06-2.14-.11-4.29,0-6.42.1-1.7-.56-2.38-2.2-2.73-6.14-1.31-11.88.65-17.7,2-1.06.24-1,1.08-1,1.87Q295,243.6,295,249.6Zm-84.64,0c0,4,.06,8,0,12,0,1.63.27,2.14,2,1.62A36.84,36.84,0,0,1,229.26,262c.55.09,1.45.55,1.59-.41s.65-2.43-.46-2.95c-2.7-1.26-3.07-3.72-3.58-6.12-.21-1-.34-1.85-1.39-2.44a2.84,2.84,0,0,1-1.23-3.18,2.54,2.54,0,0,1,2.39-2.1,10.69,10.69,0,0,1,2.75-.26c1.41.12,1.69-.5,1.65-1.74a55.93,55.93,0,0,1,0-6.21c.13-1.78-.51-2.5-2.27-2.84-6.05-1.15-11.75.45-17.48,1.95-1.1.28-.9,1.13-.9,1.88C210.33,241.57,210.34,245.57,210.34,249.56Zm94.56-72.22c-.06-1.1-.18-2.45-.21-3.81a2.3,2.3,0,0,0-2-2.42,6.11,6.11,0,0,0-3.57-.11,15.09,15.09,0,0,1-7.59.76c-2-.35-4.06-.78-6.09-1.17-3.29-.62-5.07.63-5.49,4a15.52,15.52,0,0,0,.79,6.95c1.06,3.15,1.78,6.47,3.76,9.23,1.1,1.53,3.18,2.51,2.38,5-.1.29.28.78.51,1.13,1.79,2.76,3.62,5.48,5.38,8.26.72,1.14,1.24,1.11,1.95,0,1.3-2,2.68-4,4.17-5.89s3.76-4.18,2-7.27c-.1-.17.23-.63.42-.92C304.11,187,304.73,182.35,304.9,177.34ZM350.65,291c.31,4.5.71,8.51,2.59,12.2a7.36,7.36,0,0,0,3.05,3.24,12.48,12.48,0,0,1,4.1,3c2.68,3.44,5.75,3.19,9.23,1.73,3.09-1.29,6.42-2.24,8.55-5,3.16-4.12,3.41-9.17,4-14.16-3.36,2.24-6.62,4.46-9.08,7.65-.51.66-1,1.23-1.93.72a1.57,1.57,0,0,1-.86-1.94c.72-3.68-1-6.49-3.25-9.14-.57-.68-1.2-1-2-.35-2.3,1.85-4.47,3.8-5.23,6.83-.22.87-.13,2-1.39,2.13s-1.91-.55-2.49-1.56A14,14,0,0,0,350.65,291Zm31.08-27.11a35.26,35.26,0,0,0-8.65,7.16c-.47.58-.83,1.44-1.86,1a1.65,1.65,0,0,1-1-2.06c.65-3.59-1.08-6.33-3.27-8.9-.57-.67-1.14-.83-1.82-.24-2.28,2-4.62,3.89-5.15,7.11-.13.75-.33,1.38-1.18,1.59a1.61,1.61,0,0,1-1.79-.72c-1.51-1.68-2.56-3.78-4.52-5.05-.35-.23-.7-.67-1.1-.31-.2.17-.16.66-.14,1a34.51,34.51,0,0,0,1.64,8.6,7.84,7.84,0,0,0,3.27,4.39,24.64,24.64,0,0,1,5.57,4.26c1.82,2,3.65,2.2,6.05,1.31,3.41-1.26,7.07-2.21,9.58-4.92C381,274.18,381.07,269,381.73,263.92Zm-30.42-28.39a40.62,40.62,0,0,0,.26,4.27c.6,3.59,1,7.36,4.4,9.61a20.9,20.9,0,0,1,4.67,3.66c1.87,2.28,3.89,2.31,6.42,1.53,5.6-1.72,10.52-4.11,12-10.51q.64-2.82,1.21-5.65c.09-.45.48-1-.15-1.33-.43-.21-.8.19-1.13.44-2.42,1.85-5.08,3.42-6.93,5.95-.52.7-1,1.36-2.11.77-.88-.49-.89-1.09-.73-2,.61-3.33-1-5.94-2.95-8.37-.47-.57-1-.81-1.65-.29-2.1,1.63-4.11,3.35-4.9,6-.28.94-.33,2-1.72,2.08s-1.8-.78-2.32-1.77A10.84,10.84,0,0,0,351.31,235.53ZM377.94,211c-3.18,1.4-5.13,3.84-7.06,6.29a1.28,1.28,0,0,1-1.62.6,1.44,1.44,0,0,1-1.11-1.59,9.8,9.8,0,0,0-.13-3c-.56-2-1.52-4.36-3.49-4.78-1.64-.34-2.75,1.91-3.77,3.33a8.15,8.15,0,0,0-1,2.12c-.31.93-.26,2.09-1.63,2.18s-1.84-.74-2.47-1.66c-.9-1.32-1.81-2.7-3.67-3.12a23.62,23.62,0,0,0,.92,6c.45,1.87,1.16,3.8,2.82,4.91a63.57,63.57,0,0,1,7,5.16,1.64,1.64,0,0,0,1.59.37C374,225.61,377.9,221.14,377.94,211Zm-162.2-37.88c-.09-.77-.62-.73-1-.87-2.23-.89-4.36.25-6.54.39-1.2.08-3.5-.49-2.18,2.25.06.13-.24.48-.42.68-.6.67-.39,1.31.3,1.55,2.87,1,1.81,3.2,1.4,5-.61,2.62-.75,2.59,1.84,2,.34-.07.77,0,1-.24.76-.62,1.22-.23,1.47.44.31.87-.36,1.66-1,1.49-1.67-.42-3.25.24-4.89.08a1.77,1.77,0,0,1-1.43-1.1,1.08,1.08,0,0,1,.39-1.51c1.2-.78,1.48-2,1.77-3.26.36-1.56.24-2-1.58-1.55-2.46.66-5.07,1.08-6.51-2a1.13,1.13,0,0,0-.84-.57c-.54,0-.53.56-.66.94-.54,1.51,0,3,.27,4.44.88,5.46,3.19,10,8.63,12.28a6.41,6.41,0,0,0,5.77-.11,11.49,11.49,0,0,0,5.5-5.73,21.79,21.79,0,0,0,2.14-7.93c0-1,.46-3.06-.67-3.38-1.33-.39-2.69-1.28-4.26-.89a4,4,0,0,0,1.85,1c.44.17,1,.3,1,.95s-.59.78-1,1a6.07,6.07,0,0,1-4.4-.05c-1-.35-1-.89-.19-1.5.38-.29.78-.55,1.33-.94-1-.22-2.24,0-2.14-1.29s1.11-1.54,2.2-1.56S214.76,173.15,215.74,173.15Zm35.43-48.84c0-1.57-.08-3.14,0-4.71.08-1.37-.38-1.78-1.79-1.85-5.06-.23-10.12-.53-15.15-1-2.29-.23-4,.43-5,2.36a4.67,4.67,0,0,0,.75,5.57c2.39,2.72,5.5,4.47,8.66,6.13a3.51,3.51,0,0,0,1.45.28c3.14,0,6.27,0,9.41,0,1.19,0,1.69-.45,1.66-1.64C251.14,127.73,251.16,126,251.17,124.31Zm98.9,62.54c.45,4.27.88,8.11,4.69,10.55a27.24,27.24,0,0,1,4.75,3.23,1.63,1.63,0,0,0,1.57.37c7.45-1.25,11.59-6.49,11.16-14.36a19.72,19.72,0,0,0-5.24,5c-.53.65-1,1.21-1.95.76a1.55,1.55,0,0,1-1-1.84c.29-2.23-.73-4-2.08-5.65-.72-.87-1.27-.85-2.11-.13-1.61,1.38-2.45,3.28-3.52,5-.94,1.52-2,1.58-3,.11A7.72,7.72,0,0,0,350.07,186.85Zm20.3-24.19a24.15,24.15,0,0,0-4.66,4.5c-.48.58-.82,1.4-1.87,1a1.76,1.76,0,0,1-1.22-2.16,6.54,6.54,0,0,0-2.05-5c-.41-.46-.88-.89-1.43-.29-1.31,1.44-3.25,2.42-3.59,4.59-.13.89-.63,1.17-1.38,1.35s-1.29-.25-1.69-.93a5.77,5.77,0,0,0-2.72-2.62c-.15,5.72,4,11.44,9.24,13a2.4,2.4,0,0,0,1,0C367.07,174.71,370.41,170.51,370.37,162.66Zm-124,82.65c-.06-1.35-.19-2.71-.17-4.06a44.91,44.91,0,0,0-.76-8.11c-.24-1.42-.72-2.26-2.32-1.07a24.05,24.05,0,0,1-4.05,2.36c-1.79.86-2.41,2.08-1.62,4a5.61,5.61,0,0,1,.41,1.66c.11,1.32,2,2.3,1.17,3.53-.68,1-2.13,1.61-3.28,2.33-.68.43-1.16.85-.62,1.7a7.76,7.76,0,0,1,1.18,4.48c0,.91.31,1,1.18.77a17.56,17.56,0,0,0,8.18-5.62A2.23,2.23,0,0,0,246.33,245.31ZM261,243.05c1-.54,2.08,0,2.57-.92a13.31,13.31,0,0,0,1.71-6.54c0-1.62-1.93-1.88-3-2.71a14.21,14.21,0,0,0-2.37-1.43c-2.12-1-2.29-.83-2.89,1.45-1.06,4.06-.36,8.26-1.18,12.32a1.72,1.72,0,0,0,.41,1.38c2.44,3.36,5.89,5.15,9.81,6.64.08-2.17,0-4.13,1.26-5.77a.75.75,0,0,0-.12-1.14C265.15,245.28,263.58,243.38,261,243.05Zm-84.27-.13c1.78-.49,2.5-1.79,3.09-5.17.3-1.72.44-3.21-1.53-4.13a29.1,29.1,0,0,1-3.64-2.23c-1.24-.83-1.85-.84-2.29.9-1.08,4.29-.82,8.67-1.3,13a1.81,1.81,0,0,0,.42,1.39,18.71,18.71,0,0,0,8.1,6.14c1.06.4,1.37.1,1.39-1,0-1.53-.14-3.17,1.4-4.27.59-.41.52-1-.22-1.31C180.13,245.45,178.57,244,176.72,242.92Zm148.93-.07c-1.76,1.16-3.23,2.17-4.74,3.11-.71.44-1.08.88-.52,1.7a6.63,6.63,0,0,1,1,4.29c-.08,1.1.21,1.34,1.32.9a19.62,19.62,0,0,0,7.82-5.79c.36-.43.84-.88.74-1.5-.73-4.29-.12-8.71-1.25-13-.29-1.09-.63-1.53-1.72-.75s-2.27,1.48-3.41,2.21c-3,1.91-3.15,2.18-1.95,5.51C323.44,240.83,323.35,242.72,325.65,242.85ZM168.28,350.11c0-3-1.63-4.62-3.25-6.25-.49-.5-.89-.26-1.16.29-1.53,3.13-4.25,5.28-6.47,7.85-1.77,2.05-3.6,4-4.65,6.61a5,5,0,0,0,.63,5.06c.63.87,1.16,1.27,1.71-.15a12.43,12.43,0,0,1,4.94-5.76c1.71-1.14,3.57-2.07,5.27-3.23S168.44,352,168.28,350.11Zm183.85,10.76a13.92,13.92,0,0,0-3-6.19c-2.18-2.53-4.34-5.1-6.65-7.53-1-1.07-.91-3.58-2.59-3.28-1.2.21-2.11,2.13-3.15,3.28a2.78,2.78,0,0,0-.26.34c-.8,1.32-.34,3.87.72,5.07a25.23,25.23,0,0,0,5.44,4.1c2.51,1.66,4.91,3.43,6.26,6.27.26.55.28,1.48,1,1.5s1.05-.87,1.38-1.47A20.19,20.19,0,0,0,352.13,360.87Zm-25.71,0c-.06,2.31.5,3.86,2,5,1.1.79,2.25,1.5,3.34,2.3,2.5,1.83,5.31,3.27,7.11,6,.52.78.49,2.46,1.54,2.24,1.3-.26,1.5-1.93,1.93-3.12a2.17,2.17,0,0,0-.06-1.23,11.74,11.74,0,0,0-5.58-6.95c-2.67-1.62-5.48-3.1-7.16-5.93-.35-.58-.27-1.7-1.09-1.65s-1.31,1-1.64,1.81A8.13,8.13,0,0,0,326.42,360.87Zm-148.66.73a4.46,4.46,0,0,0-1.4-3.87c-.43-.45-.91-.79-1.21.19-.92,3-3.46,4.42-5.82,6-2.57,1.73-5,3.57-6.43,6.44s-1.4,3.24.68,5.53c.68.75,1,.81,1.47-.23,1.29-3.21,3.84-5.25,6.65-7.05,1.38-.88,2.74-1.8,4.05-2.78A4.36,4.36,0,0,0,177.76,361.6Zm-4.81-6a4.61,4.61,0,0,0-1.33-3.74c-.3-.31-.81-.91-1.1,0-1.29,3.94-4.85,5.47-8,7.35a12.13,12.13,0,0,0-5,5.33,4.76,4.76,0,0,0,.65,5.22c.52.68,1.08,1,1.5-.12a10.1,10.1,0,0,1,3.48-4.43c2.08-1.65,4.32-3,6.48-4.51C171.46,359.48,173.08,358.09,173,355.63Zm158.46-.94c-.27,4.52,2.72,5.84,5.38,7.31,3.25,1.8,6.18,3.9,7.66,7.44.68,1.62,1.19,1,1.81.06,1.49-2.18,1.16-4.66-.91-7.2-2.21-2.73-5.29-4.33-8.17-6.17a9.06,9.06,0,0,1-2.94-3c-.35-.55-.28-1.63-1.2-1.49s-1.15,1-1.41,1.77A4.48,4.48,0,0,0,331.41,354.69ZM134.83,283.47c-1.05-6.29-7.92-14.51-13.88-16.63-1-.35-.87.19-.79.84C121.17,275.55,126.61,281.41,134.83,283.47Zm-14.25.74a20.55,20.55,0,0,0,3,8.78c2.6,4,6.84,5.66,11,7.37a1.34,1.34,0,0,0,1,.1c.38-.21.14-.63,0-1C132.92,292.3,127.93,287.34,120.58,284.21Zm27.68-20.82c-6,4.28-10.91,15-9.3,19.76C146.67,278.89,149.9,272.36,148.26,263.39Zm1.79,17c-5.14,6-9.66,11.7-9.8,19.6,0,.34-.18.76.27.92s.65-.17.91-.4a9.44,9.44,0,0,1,1.14-1C149.56,295.17,151.11,288.63,150.05,280.37Zm98.25,125a56.12,56.12,0,0,0-8-.94,15.5,15.5,0,0,0-12.36,4.8c-.43.42-1.28.73-1,1.48.23.55,1,.41,1.56.47C235.74,411.84,242.18,409.88,248.3,405.33Zm7.57,0c6.42,4.23,12.79,6.68,20.11,5.76.48-.06,1.14,0,1.34-.47.26-.65-.46-1-.83-1.35C270.72,403.29,263.64,403.93,255.87,405.36Zm-11.08-8.16c-6.49-2-23.07.75-27.88,4.58C223.89,403.82,237.5,401,244.79,397.2Zm14.57-.06c10.16,4.85,23.19,6.55,27.87,4.47C278.56,396.81,269.23,395.78,259.36,397.14ZM373.82,209.82a10.09,10.09,0,0,0-.84-1.56c-4.31-5.57-11.36-6.73-17.29-1.76-2.19,1.83-1.9,3.13.64,4.76.87.55,1.56.71,2.19-.46a18.6,18.6,0,0,1,4.84-5.09,1.56,1.56,0,0,1,2.42.08,17.14,17.14,0,0,1,4.39,6c.17.46.23,1,.8,1.19C371.37,213.1,373.82,210.48,373.82,209.82ZM148.41,247l-.59-.32c-1.76,1.84-3.63,3.59-5.27,5.54a19.5,19.5,0,0,0-4.45,10.94c-.09.91.35,1.22,1.15.63a49.44,49.44,0,0,0,5.28-4C148.19,256.32,148.29,251.65,148.41,247Zm-9.63-1c8.23-3.35,12.49-9.66,11.37-17.05C144.67,233.62,139.59,238.25,138.78,246.05Zm-17.91,2.44c.53,8,4.13,12.13,12.09,15C132.33,257.32,126.55,250.81,120.87,248.49ZM261.65,394c6.24,1,22.69-1.16,27.16-3.47C282.05,388,273.49,389.08,261.65,394ZM152.23,212.71c-5.62,4.5-10.11,9.19-11.55,16.31C148.3,226.57,152.14,221.23,152.23,212.71Zm-18,33.14c-.73-7-4.26-12-9.05-16.26-.39-.35-.77-.72-1.3-.33a1,1,0,0,0-.11,1.35,5.23,5.23,0,0,1,.58,2.46C124.75,239.37,128.83,242.86,134.18,245.85Zm67.93-51c.07.66,0,1,.15,1.2,2,3.19,4,6.4,6.13,9.53.77,1.14,1.18,0,1.51-.49,2-3,3.92-6,5.87-9A1.75,1.75,0,0,0,216,194C211.74,197.61,207.18,198.17,202.11,194.87Zm-49.42.88A28.49,28.49,0,0,0,141.3,211.7C148.34,210.2,153.72,202.61,152.69,195.75Zm-17.59,32.9c-.76-7.1-4.47-12.28-9.78-16.69C123.92,218.65,128,225.63,135.1,228.65Zm-8.24-35.28c-1,7.65,3.08,15.29,9.11,17.17C135.52,203.51,132.07,198.16,126.86,193.37Zm158.58,31.08c0-4.32,0-4.34-4.22-4.32-4.55,0-3.94-.54-4,4s0,4.57,3.11,5.42c2.9.79,5.08-.85,5.08-3.83Zm-85.17.06a16.81,16.81,0,0,1,0-2.13c.24-1.83-.57-2.42-2.3-2.27-1.42.11-2.85,0-4.27,0-.62,0-1.22.11-1.22.86,0,2.35,0,4.7,0,7a1,1,0,0,0,.42.69,6.61,6.61,0,0,0,6.31.21c1.69-.74.83-2.2,1-3.36A6.36,6.36,0,0,0,200.27,224.51Zm15.25,165.94C220.7,393,236,394.92,243.3,394,234,391.14,225.44,387.38,215.52,390.45ZM129.8,176.82c-1.66,6,2.14,13.27,8.36,16C137.82,186.16,134.51,181.2,129.8,176.82Zm230.25,2.86c-3,.13-5.68,1.07-7.56,3.66-1.24,1.72.49,2.23,1.27,3,1,1.06,1.17-.34,1.65-.77,1.41-1.28,2.85-2.53,4.22-3.85,1.07-1,1.91-.82,2.89.18a14.12,14.12,0,0,1,3.46,4.83c.41,1.11.8,1.08,1.65.41,1.38-1.08,1.64-2.18.46-3.57A10.85,10.85,0,0,0,360.05,179.68ZM199.31,198.15c-2.13,4.22-2,8.55-2.07,13.37,2.58-1.91,4.78-3.54,7-5.15.72-.53.47-1,.11-1.63A33.52,33.52,0,0,0,199.31,198.15ZM136.5,146.77c-1.1,6.11,1.19,11.58,5.88,14.63.43.28.94.6,1.37.37s.11-.89.1-1.36c-.1-3.1-1.75-5.64-3.13-8.25A20.9,20.9,0,0,0,136.5,146.77Zm168.86,64.79c.18-4.32.11-8.13-1.16-11.83-.15-.46-.21-1.07-.78-1.19-.73-.16-.91.58-1.21,1-1.35,1.91-2.33,4.08-4,5.74-.5.5-.42.78.11,1.16C300.55,208.05,302.77,209.68,305.36,211.56Zm67.7,84.2a22.91,22.91,0,0,1,4-3.29c.79-.53.69-1.21.38-2.06-.7-1.94-2.47-2.86-3.74-4.25-1.53-1.68-3.25-1.68-5.18-.83-.92.4-1.08.73-.34,1.49A17.71,17.71,0,0,1,373.06,295.76Zm-90.5-84.2c2.45-2,4.42-3.57,6.43-5.14.66-.51.66-1,.22-1.62q-1.84-2.75-3.62-5.55c-.86-1.37-1.35-.88-1.76.29C282.52,203.23,282.58,207.07,282.56,211.56Zm80.71,75.76c.1-1.39-3.23-3.78-4.17-3.33-2.13,1-4.15,2.19-5.38,4.35a1.33,1.33,0,0,0,.39,2c1.31.88,1.94,2.68,3.79,2.77.18,0,.4-.39.54-.63a17.92,17.92,0,0,1,4.2-4.81A3.2,3.2,0,0,1,363.27,287.32ZM140.18,176.76c.39-4.29-2.77-11.71-6.07-14.31-.74-.58-.91-.31-1.06.46C132.05,168.25,135,174,140.18,176.76Zm232.71,90.16c1.34-.41,1.9-1.52,2.86-2.11,1.77-1.09,2.07-2.27.68-3.76a34,34,0,0,0-4-3.75,4.16,4.16,0,0,0-4.55-.4c-.82.33-.85.7-.31,1.22A19.43,19.43,0,0,1,372.89,266.92ZM359.8,156.22c-3.85-.05-6.19,1.07-8,3.39-1.1,1.43.34,1.83,1,2.54s1.24.28,1.61-.41c.94-1.76,2.81-2.54,4.12-3.93.83-.89,1.79-.61,2.61.2a13.6,13.6,0,0,1,3.38,4.63c.45,1.16.86,1,1.66.33,1.19-1,1.3-1.89.3-3.06A9.85,9.85,0,0,0,359.8,156.22ZM220.29,208.14c-.38-2.67-.27-5.47-1.24-8.12-.21-.59-.24-1.42-1-1.49s-.92.77-1.26,1.28c-1,1.42-1.8,2.91-2.84,4.25s-1.25,2.39.51,3.36c1.11.61,2,1.56,3.08,2.27.74.5,1.43,1.72,2.26,1.28S220.05,209.16,220.29,208.14Zm-71.64-44.49c1.27-.43,2.18-.79,3.12-1,4.34-1.09,6.56-4.23,7.93-8.18.18-.53.66-1.79-.6-1.24C154.45,155.25,150.72,158.35,148.65,163.65ZM364.2,258a2.82,2.82,0,0,1-3.1-1.08c-.57-.67-1.24-1.32-2.19-.73-1.73,1.07-3.64,2-4.7,3.86-.34.62-.86,1.2,0,1.86,1.28,1,2.28,2.48,4,3,.07,0,.23-.17.29-.28C359.84,262,362.09,260.11,364.2,258ZM154.38,182.8c-4.91,2.68-8.55,6.11-10.22,11.54C150.51,192.74,154.25,188.52,154.38,182.8ZM146,178c6.63-1.13,11.19-5.52,11-10.44C152.1,169.69,148.23,172.76,146,178Zm226,61.31c.47.05,4-3.08,4-3.4,0-.06-.1-.1-.13-.17a13.23,13.23,0,0,0-6-6.34,2.58,2.58,0,0,0-3.1.73c-.55.62.64,1.23,1.11,1.78a16.61,16.61,0,0,1,3.66,6.42C371.6,238.76,371.56,239.26,372,239.35Zm-8.3-8.34a5.45,5.45,0,0,1-2.66-1.69c-.5-.43-1-.9-1.7-.5-1.78,1-3.77,1.73-4.94,3.58-.37.59-1,1.26-.27,1.88,1.16,1,1.9,2.53,3.6,2.79.14,0,.39-.2.49-.37C359.54,234.45,361.6,232.89,363.71,231ZM251.17,161.64l-.62-.09a25.61,25.61,0,0,1-4.42,7.4c-.9,1-3,1.88-2.47,3,.41,1,2.6.3,4,.31,3.82,0,3.5.53,3.52-3.57Zm33,235.64c8.62,3.69,12,3.93,15.66,1.23A119.83,119.83,0,0,0,284.21,397.28Zm28.14-149.51c2,.33,2.18,1.28,2,2.58a7.46,7.46,0,0,0,1,4.54,1.54,1.54,0,0,0,1.54,1c.59-.05,1.15-.15,1.31-.86.43-1.88,1.07-3.86-.14-5.6S315.09,247,312.35,247.77ZM204.43,398.6c5.49,2.61,5.62,2.6,15.78-1.35A101.92,101.92,0,0,0,204.43,398.6Zm23.25-150.9c1.84.3,2.14,1.4,1.91,3a6.47,6.47,0,0,0,.95,4.3c.53.88,1.75,1.49,2.17.39.76-2,1.23-4.27-.08-6.38S229.57,247.27,227.68,247.7Zm47.05,0c-3.9-.57-5.75.79-5.78,3.87a15.56,15.56,0,0,0,.37,3c.11.62.21,1.31,1.1,1.33a1.6,1.6,0,0,0,1.48-1,7.16,7.16,0,0,0,.88-4.33C272.55,249.09,272.85,248.12,274.73,247.7Zm-85.15,0c-3.78-.49-5.36.71-5.38,3.89a23.13,23.13,0,0,0,.2,2.76c.08.65.22,1.32,1,1.45s1.29-.35,1.67-1a6.88,6.88,0,0,0,.83-4.33C187.71,249,188,248.1,189.58,247.71Zm29.67,146.86c-6-2.66-10.46-2.25-13.95,1.19Zm31.37-249.73c.89-2.05.51-3.74.53-5.37,0-5.07,0-5.07-5-4.6-.4,0-1-.12-1,.43-.05.26.23.65.45.88A18.53,18.53,0,0,1,250.62,144.84Zm35,249.81,13.45,1.07C294.81,391.43,290.22,393,285.64,394.65ZM234.37,238.57a6,6,0,0,0-.54,3.49c0,.45-.31,1.31.67,1.13.62-.11,1.22-.53,1-1.34C235.21,240.86,234.83,239.9,234.37,238.57Zm33.53-.19c-.4,1.35-.78,2.41-1,3.51a1,1,0,0,0,1,1.29c.78,0,.49-.73.51-1.16A8.28,8.28,0,0,0,267.9,238.38Z"/><path class="cls-4" d="M199.3,265.51c2.58-.31,5,.55,7.27,1.46a4.37,4.37,0,0,0,4.42-.27c2.5-1.39,5.57-1.56,8.45-2.08a26.34,26.34,0,0,1,12.44,1.05c1.86.56,2.08-.14,2.06-1.68,0-2.17-.27-4.36,1.24-6.32a4.5,4.5,0,0,1,2.5-1.79c4.34-1.23,7.64-3.88,10.58-7.26,1.76-2,.71-4,.84-6.07,2-3.08,2-3.08,4-.3a2.72,2.72,0,0,1,0,.85c-1.34,5.47,2.7,7.79,6.22,10.2a36.27,36.27,0,0,0,6.15,2.94,4.54,4.54,0,0,1,3,4.19c0,1.43,0,2.86,0,4.29s.34,1.78,1.78,1.33c7.52-2.36,14.87-1.61,22.08,1.39a2.47,2.47,0,0,0,2.45-.07c2.5-1.75,5.42-1.9,8.28-2.26-.55,1.85-1.11,3.69-1.64,5.54-.68,2.36-.61,2.44,1.75,2.19l8.53-.89c.48-.05,1.08-.33,1.4.14s-.15,1-.38,1.37c-1.4,2.66-2.77,5.33-4.26,7.93-.78,1.34-.6,1.92,1,2.05,2.92.23,5.84.52,8.75.81.69.07,1.63-.22,2,.47s-.47,1.25-.91,1.74c-1.95,2.17-4,4.27-5.83,6.53-1,1.22-.92,1.72.61,2.14,3,.83,6,1.73,9,2.63.45.13,1.11,0,1.24.65s-.51.95-.94,1.3a74.46,74.46,0,0,1-7.28,5.6c-1.43.9-1.16,1.48.21,2.14,2.82,1.37,5.61,2.82,8.41,4.24,1.28.65,1.44,1.25,0,2-2.81,1.38-5.57,2.88-8.39,4.24-1.41.69-1.6,1.32-.2,2.17a71.92,71.92,0,0,1,7.29,5.6c.42.35,1.08.62.89,1.32-.16.55-.78.54-1.25.67-3,.88-6,1.82-9.05,2.61-1.47.39-1.51.84-.62,2,1.92,2.49,4.2,4.64,6.24,7,.91,1.05.92,1.7-.75,1.81-3,.2-6,.53-9,.8-2.29.2-2.35.31-1.23,2.4,1.38,2.59,2.74,5.18,4.14,7.75.63,1.16.34,1.52-.95,1.39-3.13-.33-6.26-.57-9.39-.9-1.29-.14-1.7.16-1.25,1.51.93,2.78,1.72,5.6,2.57,8.4.43,1.41.4,2.26-1.5,1.66-2.79-.88-5.63-1.61-8.43-2.45-2.09-.63-2.24-.54-2,1.57.3,2.84.56,5.69.87,8.53.17,1.51-.18,2-1.71,1.18-2.54-1.44-5.17-2.74-7.71-4.2-1.35-.77-2-.82-2.06,1-.15,2.85-.5,5.69-.83,8.53-.26,2.15-.7,2.34-2.48,1-2-1.52-3.88-3.16-5.8-4.76-2.5-2.09-2.44-2.08-3.42,1.08a72,72,0,0,1-2.95,9c-3-3.24-5.24-6.76-8.59-9.44l-3.42,5.94c0-2.79-.12-5.57-.13-8.36,0-12.15,0-24.31,0-36.56,1.11.13,1,1.09,1.43,1.68,7.48,11.57,17.45,19.63,31.27,22.33,1.24.24,1.86,0,2.07-1.34,2.07-12.93.36-25-7.87-35.67A33.47,33.47,0,0,0,277.2,320c-.36-.33-.85-.68-.69-1.24s.82-.43,1.28-.48c8.77-.88,15.95-5,22.18-11a41.75,41.75,0,0,0,6.48-8.49,1.5,1.5,0,0,0-.57-2.45c-11.91-7.39-24.46-10.77-38.3-6.19-1.94.64-2.17.41-1.85-1.7,1.45-9.48.33-18.55-4.93-26.74a86,86,0,0,0-8.48-10.7c-1-1.11-1.68-.47-2.47.29a65.75,65.75,0,0,0-9.29,11.7c-3.86,5.88-4.95,12.31-4.9,19.09a27.66,27.66,0,0,0,.8,5.7c.35,1.6.07,1.93-1.5,1.31a39.66,39.66,0,0,0-9.94-2.34c-7.35-.87-14.14,1.07-20.77,3.85a50.89,50.89,0,0,0-8,4.05c-.91.59-1.2,1.1-.58,2,5.86,9,13,16.46,23.88,19.13,2.62.64,5.33.9,8.48,1.41a48.92,48.92,0,0,0-4.62,5.6,33.9,33.9,0,0,0-6,16.18c-.68,6.6.5,12.92,1.55,19.31.28,1.68,1.12,2.31,2.84,1.94a44.94,44.94,0,0,0,16.61-7.58,38.74,38.74,0,0,0,11.39-13.36,3.46,3.46,0,0,1,.5-.6c.51.4.32.86.32,1.24q0,21.88,0,43.77a10.93,10.93,0,0,1-.13,1.27c-1.56-2.88-3.17-5.74-4.67-8.65-.64-1.24-1.2-1.27-2-.18-1.79,2.6-4.2,4.64-6.19,7.07-.33.4-.57,1.14-1.21,1s-.66-.86-.83-1.42c-.88-2.93-1.83-5.85-2.64-8.81-.36-1.32-.81-1.27-1.71-.5-2.35,2-4.73,3.92-7.11,5.86-.43.35-.82.95-1.46.64s-.46-1-.51-1.53c-.27-2.77-.54-5.55-.76-8.33-.18-2.34-.41-2.49-2.56-1.35-2.59,1.37-5.18,2.73-7.75,4.14-1.24.69-1.7.35-1.58-1,.26-2.84.53-5.69.76-8.54.19-2.38.14-2.36-2.06-1.69-2.93.9-5.89,1.7-8.84,2.55-.84.24-1.52.22-1.18-.93a61.79,61.79,0,0,1,2.81-8.74c.24-.52.72-1,.47-1.53-.33-.71-1.09-.53-1.7-.47-3.07.25-6.13.5-9.18.83-1.49.17-1.9-.17-1.12-1.58,1.45-2.62,2.79-5.31,4.28-7.91.76-1.34.6-1.88-1-2-2.92-.2-5.83-.53-8.75-.83-.54-.05-1.27.21-1.56-.4s.4-1.15.77-1.62c1.84-2.28,3.69-4.55,5.6-6.77,1-1.11.83-1.63-.62-2-2.9-.77-5.77-1.64-8.64-2.5-.58-.17-1.42-.09-1.58-.86s.61-1.08,1.09-1.46c2.24-1.75,4.48-3.51,6.79-5.18,1.38-1,1.51-1.7-.16-2.5-2.51-1.2-5-2.48-7.44-3.77-.65-.34-1.75-.41-1.66-1.39s1.1-1,1.78-1.35c2.47-1.27,4.94-2.55,7.45-3.75,1.37-.66,1.55-1.26.24-2.22-2.4-1.78-4.75-3.63-7.11-5.47-.43-.34-1.1-.65-1-1.27.08-.83,1-.74,1.52-.91,2.87-.87,5.76-1.69,8.65-2.48,1.42-.38,1.77-.9.68-2.15-2-2.31-3.91-4.74-5.89-7.08-.95-1.13-.69-1.52.71-1.64,3.13-.25,6.26-.61,9.39-.88,1.34-.12,1.56-.6.88-1.79-1.52-2.67-2.9-5.41-4.38-8.1-.77-1.39-.43-1.74,1.1-1.55,3.12.39,6.26.65,9.39,1,1.23.12,2.22-.3,1.36-1.63C200.25,269.49,200,267.44,199.3,265.51Z"/><path class="cls-2" d="M286.37,349.58c-.08,1.79-.24,3.57-.24,5.36s-.71,2.12-2.41,1.66a41.89,41.89,0,0,1-22-14.76,43.07,43.07,0,0,1-7.33-12.41,1.76,1.76,0,0,0-2-1.23c-1.1,0-1.43.65-1.71,1.54-1.93,6.13-4.67,11.89-9.25,16.46A39.42,39.42,0,0,1,223.51,357c-1.12.29-1.4-.16-1.62-1-3.79-14.65-1.69-27.75,10.08-38.29a1.88,1.88,0,0,0,.71-2.38c-.42-1.13-1.13-1.25-2.14-1.23-7.69.14-14.92-1.33-21.17-6.16-3.7-2.87-6.48-6.59-9.5-10.08-.59-.68-1.1-1.4.16-2,6.63-3.27,13.36-6.17,20.94-6.28a32.19,32.19,0,0,1,15.71,3.57,3,3,0,0,0,3.66-.47c1-.87.18-1.94-.15-2.75a24.92,24.92,0,0,1-.77-16.58A41.3,41.3,0,0,1,250,255.16c.87-.86,1.44-.9,2.22,0,1.9,2.33,3.67,4.74,5.37,7.21,6.17,8.95,7.26,18.65,4.57,29-.25,1-.52,1.89.51,2.72a2.08,2.08,0,0,0,2.53.13c10-4.57,20.1-4.21,30.14,0a49.71,49.71,0,0,1,6.59,3.05c1.27.76,1.32,1.39.5,2.5-7,9.5-16,15.52-28.21,15.81-1.08,0-2.26-.28-2.77,1.31s.58,2.09,1.39,2.79C282,327.53,286.61,337.45,286.37,349.58ZM242.58,313.7c.1,1,.18,2,.3,3,.17,1.45.72,2.17,2.41,1.64a9,9,0,0,0,4.81-3c1-1.36,1.53-1.07,2.49,0a9.92,9.92,0,0,0,5.93,3.16c1,.18,1.58-.06,1.73-1.22.3-2.35.5-4.62-1.07-6.69-.64-.83-.94-1.65.65-2.16,1.8-.59,3-2.13,4-3.68.78-1.11.5-1.76-.58-2.4a11.38,11.38,0,0,0-6.51-1.76c-1.11.06-1.72-.21-1.75-1.49-.07-2.42-1.42-4.27-2.9-6-.81-1-1.51-1.16-2.43-.12-1.4,1.56-2.71,3.16-3,5.32-.16,1.42-.61,2.11-2.26,2a12.94,12.94,0,0,0-5.71,1.54c-1.46.64-1.77,1.34-.79,2.74a8.78,8.78,0,0,0,3.3,2.92c1.75.88,2.77,1.8,1.6,3.88A6.63,6.63,0,0,0,242.58,313.7Z"/><path class="cls-4" d="M255,134.6c0-10.79.06-21.58-.05-32.38,0-2,.64-2.48,2.54-2.45,6.14.11,12.3.29,18.43,0,6.64-.34,11.34,2.8,15.26,7.57,2.68,3.26,4.47,7.06,6.36,10.84a27.88,27.88,0,0,1,2.92,11,30,30,0,0,1-2.65,14.48c-1.09,2.32-1.74,4.83-3,7.1-.81,1.51-1.67,3-2.46,4.52a2.61,2.61,0,0,1-2.4,1.52,17.44,17.44,0,0,0-11.5,5,7.72,7.72,0,0,0-2.23,5.18c-.16,1.75-.94,2.4-2.77,2.35q-8.14-.18-16.29,0c-1.84,0-2.25-.58-2.24-2.32C255,156.19,255,145.4,255,134.6Zm12.73-.88q0,9,0,18c0,3.36,1.84,4.45,4.81,2.84a45.06,45.06,0,0,0,6.13-4.26c6.19-4.9,9-14.28,7.25-21.83-1.92-8.51-8-12.8-15.74-15.24-2-.61-2.44-.21-2.45,1.82Q267.7,124.39,267.72,133.72Z"/><path class="cls-2" d="M189.88,134.87c6.79,0,13.58,0,20.36,0a2.51,2.51,0,0,1,2.66,1.59,16.53,16.53,0,0,0,8.4,8.45,20.52,20.52,0,0,1,5.63,3.86c.71.68,1.69,1.39,1.28,2.51s-1.71,1.35-2.73,1.32c-3.49-.11-7-.39-10.47-.62-1.07-.07-2.14-.17-3.2-.29-1.31-.15-2.5-.25-2.29,1.69.1.91-.56,1.06-1.28,1-3.56-.55-6.16,1.21-8.46,3.6a4,4,0,0,1-2.67,1.11c-5.1.57-7,2.69-7.07,7.84,0,.36,0,.72,0,1.07,0,4.39,0,4.39-4.48,4.39-5.51,0-11,0-16.51,0-1.49,0-2-.43-2-1.94q.07-16.83,0-33.66c0-1.57.58-1.91,2-1.9C176,134.9,183,134.87,189.88,134.87Z"/><path class="cls-4" d="M216,155.78c2.55.23,5.09.48,7.64.69a10.78,10.78,0,0,0,4.82-.74c4-1.54,5-5.21,2.15-8.53a20.76,20.76,0,0,0-6.92-5.31c-7.3-3.47-9.3-10.13-10.69-17.16-1.33-6.72-.09-13.08,4.28-18.34,3.61-4.35,8.33-7.28,14.31-7.32,4.07,0,8.14,0,12.22,0,3.12,0,3.31.24,3.31,3.24s-.08,6.29,0,9.43c.06,1.8-.67,2.26-2.3,2a103.49,103.49,0,0,0-11.93-.82,8.27,8.27,0,0,0-7.77,10.32,12,12,0,0,0,5.07,6.68q4.78,3.24,9.65,6.35a15.56,15.56,0,0,1,7.63,13.32c.13,4.39.51,8.82-1.54,13-2.45,5-10.27,10.62-16.15,8.81a6.48,6.48,0,0,0-1.71-.06c-3.35,0-3.7-.06-3.44-3.45.42-5.48-2.18-8.72-6.83-10.85-.69-.32-1.33-.74-2-1.11Z"/><path class="cls-2" d="M334.56,153.44c0,5.57-.06,11.14,0,16.71,0,1.69-.52,2.22-2.21,2.2-6.79-.09-13.57-.08-20.35,0a2.2,2.2,0,0,1-2.6-2.06,29,29,0,0,0-3.83-9.47,9.66,9.66,0,0,0-7-4.72c-1.66-.2-2.06-.7-1.07-2.11,3.51-5,5-10.77,6.07-16.66.34-1.86,1-2.54,3-2.51,8.57.13,17.14.1,25.7,0,1.8,0,2.32.56,2.29,2.33C334.49,142.58,334.56,148,334.56,153.44Z"/><path class="cls-2" d="M199.3,265.51c.69,1.93.95,4,2.1,5.78.86,1.33-.13,1.75-1.36,1.63-3.13-.31-6.27-.57-9.39-1-1.53-.19-1.87.16-1.1,1.55,1.48,2.69,2.86,5.43,4.38,8.1.68,1.19.46,1.67-.88,1.79-3.13.27-6.26.63-9.39.88-1.4.12-1.66.51-.71,1.64,2,2.34,3.87,4.77,5.89,7.08,1.09,1.25.74,1.77-.68,2.15-2.89.79-5.78,1.61-8.65,2.48-.55.17-1.44.08-1.52.91-.07.62.6.93,1,1.27,2.36,1.84,4.71,3.69,7.11,5.47,1.31,1,1.13,1.56-.24,2.22-2.51,1.2-5,2.48-7.45,3.75-.68.34-1.7.49-1.78,1.35s1,1,1.66,1.39c2.46,1.29,4.93,2.57,7.44,3.77,1.67.8,1.54,1.5.16,2.5-2.31,1.67-4.55,3.43-6.79,5.18-.48.38-1.23.71-1.09,1.46s1,.69,1.58.86c2.87.86,5.74,1.73,8.64,2.5,1.45.38,1.58.9.62,2-1.91,2.22-3.76,4.49-5.6,6.77-.37.47-1.12.89-.77,1.62s1,.35,1.56.4c2.92.3,5.83.63,8.75.83,1.62.12,1.78.66,1,2-1.49,2.6-2.83,5.29-4.28,7.91-.78,1.41-.37,1.75,1.12,1.58,3-.33,6.11-.58,9.18-.83.61-.06,1.37-.24,1.7.47.25.54-.23,1-.47,1.53a61.79,61.79,0,0,0-2.81,8.74c-.34,1.15.34,1.17,1.18.93,2.95-.85,5.91-1.65,8.84-2.55,2.2-.67,2.25-.69,2.06,1.69-.23,2.85-.5,5.7-.76,8.54-.12,1.37.34,1.71,1.58,1,2.57-1.41,5.16-2.77,7.75-4.14,2.15-1.14,2.38-1,2.56,1.35.22,2.78.49,5.56.76,8.33.05.54-.12,1.24.51,1.53s1-.29,1.46-.64c2.38-1.94,4.76-3.88,7.11-5.86.9-.77,1.35-.82,1.71.5.81,3,1.76,5.88,2.64,8.81.17.56.26,1.26.83,1.42s.88-.56,1.21-1c2-2.43,4.4-4.47,6.19-7.07.75-1.09,1.31-1.06,2,.18,1.5,2.91,3.11,5.77,4.67,8.65.24,1.53.92,4-.14,4.34-1.34.45-1.64-2-2.38-3.19-.94-1.51-1.72-3.12-2.54-4.71-.55-1.07-1-1.63-2.06-.32-1.78,2.2-3.75,4.26-5.64,6.38-1.38,1.56-3,1.3-3.63-.65-.88-2.64-1.71-5.29-2.45-8-.37-1.34-.88-1.46-1.89-.6-2.07,1.75-4.15,3.49-6.27,5.19-1.92,1.53-3.77.8-4.07-1.62s-.56-5.12-.76-7.68c-.13-1.74-.81-1.83-2.17-1-2.23,1.29-4.54,2.42-6.77,3.69a2.09,2.09,0,0,1-2.54,0,2,2,0,0,1-.74-2.25c.31-2.63.52-5.26.86-7.88.18-1.38-.33-1.66-1.55-1.31-2.74.81-5.49,1.54-8.22,2.38a2,2,0,0,1-2.33-.4,2,2,0,0,1-.42-2.32c.79-2.36,1.48-4.76,2.22-7.15.49-1.57.32-2.44-1.71-2.13-2.4.37-4.83.51-7.25.75-.93.09-1.77.18-2.45-.8a2.11,2.11,0,0,1,.09-2.55c1.26-2.32,2.47-4.67,3.76-7,.72-1.28.38-1.76-1-1.87-2.78-.21-5.55-.47-8.32-.8-2.38-.28-3-1.82-1.45-3.68s3.45-3.95,5.25-5.86c1.33-1.43.76-2-.84-2.37-2.49-.62-5-1.34-7.42-2.08-.85-.25-1.77-.37-2-1.61a2.44,2.44,0,0,1,1.18-2.52c2-1.56,3.84-3.21,5.82-4.73,1.29-1,1.36-1.61-.2-2.36-2.31-1.12-4.58-2.34-6.82-3.59s-2.09-2.88,0-4c2.26-1.24,4.51-2.49,6.81-3.61,1.59-.77,1.45-1.42.19-2.39-2-1.58-4-3.28-6-4.86a2.14,2.14,0,0,1-.94-2.38c.21-1.07,1-1.27,1.82-1.51,2.61-.72,5.21-1.5,7.82-2.21,1.4-.38,1.82-.94.72-2.15-1.82-2-3.6-4-5.41-6a2.12,2.12,0,0,1-.62-2.5c.45-1,1.26-1.18,2.25-1.26,2.71-.2,5.4-.56,8.11-.72,1.69-.11,1.72-.76,1-2-1.29-2.31-2.55-4.63-3.75-7-1-2-.12-3.33,2.16-3.16,2.49.19,5,.51,7.46.72,2.24.18,2.34,0,1.75-2.19,0-.07,0-.14-.05-.21-.14-.73-1-1.6-.25-2.13A2.17,2.17,0,0,1,199.3,265.51Z"/><path class="cls-2" d="M253.82,381.11l3.42-5.94c3.35,2.68,5.58,6.2,8.59,9.44a72,72,0,0,0,2.95-9c1-3.16.92-3.17,3.42-1.08,1.92,1.6,3.81,3.24,5.8,4.76,1.78,1.37,2.22,1.18,2.48-1,.33-2.84.68-5.68.83-8.53.1-1.85.71-1.8,2.06-1,2.54,1.46,5.17,2.76,7.71,4.2,1.53.86,1.88.33,1.71-1.18-.31-2.84-.57-5.69-.87-8.53-.23-2.11-.08-2.2,2-1.57,2.8.84,5.64,1.57,8.43,2.45,1.9.6,1.93-.25,1.5-1.66-.85-2.8-1.64-5.62-2.57-8.4-.45-1.35,0-1.65,1.25-1.51,3.13.33,6.26.57,9.39.9,1.29.13,1.58-.23.95-1.39-1.4-2.57-2.76-5.16-4.14-7.75-1.12-2.09-1.06-2.2,1.23-2.4,3-.27,6-.6,9-.8,1.67-.11,1.66-.76.75-1.81-2-2.37-4.32-4.52-6.24-7-.89-1.16-.85-1.61.62-2,3-.79,6-1.73,9.05-2.61.47-.13,1.09-.12,1.25-.67.19-.7-.47-1-.89-1.32a71.92,71.92,0,0,0-7.29-5.6c-1.4-.85-1.21-1.48.2-2.17,2.82-1.36,5.58-2.86,8.39-4.24,1.46-.71,1.3-1.31,0-2-2.8-1.42-5.59-2.87-8.41-4.24-1.37-.66-1.64-1.24-.21-2.14a74.46,74.46,0,0,0,7.28-5.6c.43-.35,1.08-.62.94-1.3s-.79-.52-1.24-.65c-3-.9-6-1.8-9-2.63-1.53-.42-1.61-.92-.61-2.14,1.86-2.26,3.88-4.36,5.83-6.53.44-.49,1.3-1,.91-1.74s-1.29-.4-2-.47c-2.91-.29-5.83-.58-8.75-.81-1.58-.13-1.76-.71-1-2.05,1.49-2.6,2.86-5.27,4.26-7.93.23-.42.69-.9.38-1.37s-.92-.19-1.4-.14l-8.53.89c-2.36.25-2.43.17-1.75-2.19.53-1.85,1.09-3.69,1.64-5.54.55-.16,1.09-.36,1.64-.48.93-.2,1.39.11,1.1,1.13a1.52,1.52,0,0,0-.06.2c-.91,4-.91,4,3.3,3.51,1.85-.22,3.7-.46,5.55-.59,2.12-.14,3.06,1.35,2.06,3.21-1.25,2.32-2.53,4.64-3.81,7-.69,1.26-.55,1.93,1.1,2,2.71.16,5.41.52,8.12.73a2.14,2.14,0,0,1,2.17,1.32,2,2,0,0,1-.52,2.31c-1.63,2-3.21,4-4.93,5.94-1.27,1.42-.79,2,.8,2.4,2.48.67,4.92,1.49,7.39,2.2.82.23,1.45.56,1.61,1.48a2.09,2.09,0,0,1-.79,2.26c-2.14,1.67-4.22,3.42-6.34,5.12-1.06.85-1.16,1.47.21,2.15,2.3,1.14,4.54,2.41,6.81,3.61.82.44,1.61.76,1.65,2s-.78,1.74-1.65,2.21c-2.21,1.19-4.4,2.39-6.64,3.49-1.54.76-1.46,1.44-.2,2.41,2,1.54,3.86,3.18,5.83,4.72a2.39,2.39,0,0,1,1.14,2.54c-.23,1.2-1.17,1.33-2,1.59-2.46.75-4.92,1.5-7.4,2.19-1.28.36-1.48.92-.61,2,1.75,2.07,3.49,4.16,5.17,6.29,1.4,1.76.77,3.29-1.5,3.56-2.69.32-5.4.6-8.11.74-1.91.1-2,.86-1.16,2.27,1.27,2.23,2.5,4.49,3.71,6.76,1,1.89,0,3.39-2.1,3.23-2.71-.21-5.41-.49-8.11-.81-1.43-.17-1.8.25-1.33,1.66.86,2.57,1.61,5.18,2.34,7.79.54,2-.73,3.15-2.68,2.6-2.75-.78-5.5-1.56-8.23-2.38-1.39-.42-1.82.06-1.66,1.44.31,2.62.53,5.26.84,7.88a2.11,2.11,0,0,1-.83,2.24,1.92,1.92,0,0,1-2.35-.08c-2.32-1.27-4.68-2.46-7-3.76-1.4-.79-1.91-.36-2,1.12-.23,2.64-.51,5.27-.8,7.9-.21,2-1.46,2.66-3.24,1.69a39.19,39.19,0,0,1-6.71-5.26c-1.43-1.24-1.92-.87-2.36.75-.67,2.48-1.53,4.9-2.21,7.38-.25.9-.48,1.55-1.53,1.77a2.17,2.17,0,0,1-2.35-1,56,56,0,0,0-5.59-6.43c-1-.86-1.35-.69-1.87.35-.89,1.77-1.88,3.48-3.12,5.75A24.76,24.76,0,0,1,253.82,381.11Z"/><path class="cls-2" d="M183.29,131.06c-8.43,0-16.86,0-25.29,0-1.85,0-2.06-.48-1.28-2.06,2.75-5.63,6.21-10.86,9.09-16.41a2,2,0,0,1,2.11-1.08h40.29c1.17,0,1.91.08,1.51,1.66a29.05,29.05,0,0,0,.43,16.06c.46,1.48-.15,1.83-1.57,1.83C200.15,131,191.72,131.06,183.29,131.06Z"/><path class="cls-2" d="M152,311.88a25.79,25.79,0,0,0,4.83,17c2.62,3.77,3.56,8,4.23,12.44a5.14,5.14,0,0,1-1.1,4c-2.71,3.69-6.41,6.55-8.7,10.58-.62,1.09-1.25.18-1.73-.18-3.73-2.74-6.67-6.09-7.2-10.86s-2.84-8.71-5.91-12.33c-4.86-5.7-7.65-12.5-9.92-19.54-.48-1.49-.09-1.89,1.47-1.66a34.53,34.53,0,0,0,22.56-4.07c1.25-.7,1.84-.66,1.67,1C152.06,309.45,152.05,310.67,152,311.88Z"/><path class="cls-2" d="M343.2,341.46c.52-3.66,1-7.9,3.54-11.45a29,29,0,0,0,5.46-20.2c-.06-.57,0-1.14,0-1.71,0-1,.3-1.42,1.22-.67,2.87,2.33,6.22,4,8.69,6.86a2.49,2.49,0,0,0,2.84.83,54.85,54.85,0,0,0,9.52-3.18,2.3,2.3,0,0,1,.56-.29c1.1-.2,2.44-.9,3.24-.22s-.16,1.88-.49,2.76c-2.74,7.12-6,14-11,19.8a18.76,18.76,0,0,0-4.78,11.2c-.41,5.18-3.57,8.33-7.66,10.88-.6.37-1.05.32-1.41-.33-2-3.54-5.09-6.14-7.61-9.22C344.15,345.2,343,343.89,343.2,341.46Z"/><path class="cls-2" d="M295,221.43c0-2.93,0-5.86,0-8.79,0-1-.4-2.16,1-2.76a3,3,0,0,1,3.16.67c1.91,1.37,3.77,2.82,5.64,4.25.7.54,1.29,1,2.29.49a2.12,2.12,0,0,0,1.22-2.24c0-3.86.2-7.73-.6-11.54-.25-1.23.12-1.71,1.39-1.68,2.21,0,4.43,0,6.64,0a3.76,3.76,0,0,1,3.12,1.54,57.82,57.82,0,0,1,11.69,22.42c.51,2,.35,3.32-1.68,4.36a58.25,58.25,0,0,0-6.31,4.05c-1.18.83-2,.88-2.67-.55a9,9,0,0,0-.68-1.09c-1.24-1.86-2.71-2-4.08-.34a1.33,1.33,0,0,1-1.56.62c-4.3-.88-8.52-.24-12.71.79-1.46.36-3,.51-4.41.92-1.28.36-1.47-.19-1.47-1.26C295,228,295,224.72,295,221.43Zm11.93-1c2,0,4,0,6,0,.83,0,1.39-.19,1.34-1.19s-.61-1-1.31-1H301.35c-.82,0-1.38.18-1.34,1.18s.61,1,1.31,1Z"/><path class="cls-2" d="M210.25,221.47V212c0-.84-.13-1.71.92-2.17a2.27,2.27,0,0,1,2.54.54c1.8,1.4,3.63,2.77,5.45,4.15.92.69,1.74,1.35,3.08.74s1.33-1.66,1.34-2.82a50.21,50.21,0,0,0-.66-10.68c-.31-1.53.21-2.11,1.75-2a11.24,11.24,0,0,0,2.78,0c3.61-.63,5.89.9,8,3.82,4.61,6.41,8.74,13,10.41,20.83.33,1.55.2,2.5-1.32,3.32-2.56,1.39-5,3-7.47,4.55-1.08.72-1.77.68-2.36-.51a11.41,11.41,0,0,0-1-1.61c-1.09-1.51-2.24-1.53-3.32,0-.3.44-.4.87-1.07.72-5.63-1.29-11,0-16.48,1.33-2.51.61-2.53.57-2.53-2Zm12.06-1h5.79c.76,0,1.45-.06,1.44-1.1s-.72-1.07-1.46-1.07H216.29c-.78,0-1.45.06-1.43,1.1s.68,1.09,1.45,1.09Z"/><path class="cls-2" d="M325.12,131.06c-6.15,0-12.29,0-18.43,0-1.65,0-2.41-.31-2.48-2.19a37.58,37.58,0,0,0-4-14.76c-1.22-2.58-1.22-2.59,1.71-2.59,9.85,0,19.71.16,29.56-.1,2.92-.07,4.67.93,6,3.24,2.77,4.91,5.48,9.85,8.23,14.77.89,1.6-.15,1.61-1.29,1.61Z"/><path class="cls-2" d="M215.94,387.15c-.13.63-.64.69-1,.8-5.55,1.64-10.17,5.06-15.1,7.88a2.1,2.1,0,0,1-2.35.06,29.2,29.2,0,0,1-7.28-5.58,14,14,0,0,0-9.82-4.58,4.19,4.19,0,0,1-3.71-2.45c-1.79-3.31-4.13-5.82-8.22-5.93-1.11,0-1.07-.72-.72-1.48a9.17,9.17,0,0,1,2.54-3.13c2.9-2.51,6.73-3.82,9.06-7.08.4-.55.87-.24,1.27.13,2.51,2.33,5.29,3.81,8.88,3.06,1.23-.26,1.77.71,2.24,1.62.82,1.57,1.55,3.2,2.42,4.75a5.61,5.61,0,0,0,5.21,3.19c6.82-.27,11.43,3.74,15.95,8A7.84,7.84,0,0,1,215.94,387.15Z"/><path class="cls-2" d="M315,368.81c3.52.85,6.32-.35,8.63-3,.44-.5.91-.73,1.38-.08,1.9,2.64,4.84,3.95,7.38,5.75a20.29,20.29,0,0,1,4.23,4.2c.86,1.12.62,1.56-.51,1.59-4.17.12-6.65,2.53-8.48,5.93a4.5,4.5,0,0,1-3.87,2.55,14.94,14.94,0,0,0-9.65,4.5,29,29,0,0,1-7.26,5.6,2.09,2.09,0,0,1-2.52-.15,58.43,58.43,0,0,0-14.73-7.64c-1.47-.5-1.44-1.07-.31-2a26.17,26.17,0,0,0,2.75-2.39,17.31,17.31,0,0,1,12.46-5.24,6.83,6.83,0,0,0,6.22-4.17c.68-1.33,1.29-2.7,1.94-4A2.11,2.11,0,0,1,315,368.81Z"/><path class="cls-2" d="M285,230.94c2.5-.49,2.55-2,2.49-3.63-.1-2.5-.07-5,0-7.5,0-1.18-.37-1.69-1.6-1.67-3,0-6,.05-9,0-1.28,0-1.56.58-1.55,1.7.05,3,0,6,0,9,0,.73.44,1.63-.82,1.81-.87.12-1.63.61-2.18-.8S270,228.55,269,230c-1.61,2.43-1.59,2.4-4,1-2.18-1.22-4.36-2.44-6.6-3.53-1.34-.66-1.8-1.51-1.22-2.89a134.38,134.38,0,0,1,12.49-23.74,2.13,2.13,0,0,1,2-1.06c2.5,0,5,0,7.5,0,1.1,0,1.48.26,1.25,1.51a55,55,0,0,0-.73,11.53,2.4,2.4,0,0,0,1.35,2.42c1.15.6,1.74-.14,2.44-.69,1.84-1.46,3.68-2.94,5.49-4.46a2.1,2.1,0,0,1,2.34-.47c1,.38.91,1.16.91,2,0,6.5,0,13,0,19.51,0,1.53-.43,1.86-1.86,1.36S287,231.92,285,230.94Z"/><path class="cls-2" d="M200.18,231.23c2.4-.61,2.53-2.19,2.45-4.06-.11-2.42-.07-4.86,0-7.28,0-1.29-.46-1.78-1.76-1.76-2.85.07-5.71.09-8.57,0-1.57-.06-1.93.62-1.89,2,.09,3,0,6,.07,9,0,.81.06,1.4-.94,1.52-.8.09-1.49.6-1.95-.77s-2.34-1.41-3.31,0c-1.83,2.69-1.83,2.69-4.62,1.06-2.16-1.25-4.31-2.53-6.5-3.73a1.59,1.59,0,0,1-.88-2.24,100.43,100.43,0,0,1,9-19.33,18.6,18.6,0,0,1,1.4-1.56c1.06-1.41,1.52-3.75,3.23-4.07a40.47,40.47,0,0,1,8.32-.19c1.29,0,.85,1.1.73,1.8a66.58,66.58,0,0,0-.58,11.11,2.33,2.33,0,0,0,1.23,2.46c1.13.6,1.72,0,2.44-.59,2-1.54,4.09-3.06,6.11-4.62a1.91,1.91,0,0,1,2.16-.38c.9.4,1,1.13,1,2,0,6.5,0,13,0,19.49,0,1.25-.19,1.89-1.7,1.42C203.87,232,202,231.65,200.18,231.23Z"/><path class="cls-2" d="M292.16,249.91c0,4.07,0,8.14,0,12.21,0,1.42-.27,1.94-1.81,1.46a36.63,36.63,0,0,0-17.76-1.21c-.55.1-1.09.13-1.15-.53-.09-1.1-.66-2.61.47-3.19,2.89-1.46,3.22-4.12,3.66-6.77a2.07,2.07,0,0,1,1.1-1.65,3,3,0,0,0,1.47-3.3c-.28-1.49-1.41-2.05-2.78-2.24l-.85-.12c-3.18-.35-3.18-.35-3.18-3.48,0-1.65.07-3.29,0-4.93-.08-1.43.53-2,1.88-2.32,5.05-1.2,9.94-.19,14.8,1,4.17,1,4.15,1.12,4.15,5.4Z"/><path class="cls-2" d="M207.34,249.78c0,4.07-.06,8.14,0,12.2,0,1.6-.45,2-2,1.56a37.58,37.58,0,0,0-17.56-1.18c-.51.1-1.17.2-1.24-.42-.12-1.09-.7-2.64.42-3.18,2.93-1.42,3.25-4.12,3.83-6.74a2.46,2.46,0,0,1,1.16-1.87,3,3,0,0,0,1.27-3.37c-.24-1.38-1.27-1.79-2.44-2-.21-.05-.42-.08-.63-.12-3.73-.58-3.73-.58-3.73-4.49v-2.35c0-3.64,0-3.73,3.67-4.24,5.59-.78,10.89.81,16.21,2.18,1.17.3,1,1.21,1,2.05Z"/><path class="cls-2" d="M295,249.6q0-6,0-12c0-.79-.1-1.63,1-1.87,5.82-1.31,11.56-3.27,17.7-2,1.64.35,2.3,1,2.2,2.73-.13,2.13-.08,4.28,0,6.42,0,1.23-.43,1.65-1.62,1.6a15.28,15.28,0,0,0-2.77.26,2.63,2.63,0,0,0-2.42,2.09,2.86,2.86,0,0,0,1.23,3.18,2.87,2.87,0,0,1,1.32,2.21c.54,2.46.87,5.06,3.63,6.37,1.06.51.66,1.81.54,2.76s-1.08.71-1.72.59c-5.75-1.06-11.38-.24-16.94,1.22-1.66.44-2.15.12-2.11-1.61C295,257.6,295,253.6,295,249.6Z"/><path class="cls-2" d="M210.34,249.56c0-4,0-8,0-12,0-.75-.2-1.6.9-1.88,5.73-1.5,11.43-3.1,17.48-1.95,1.76.34,2.4,1.06,2.27,2.84a55.93,55.93,0,0,0,0,6.21c0,1.24-.24,1.86-1.65,1.74a10.69,10.69,0,0,0-2.75.26,2.54,2.54,0,0,0-2.39,2.1,2.84,2.84,0,0,0,1.23,3.18c1.05.59,1.18,1.43,1.39,2.44.51,2.4.88,4.86,3.58,6.12,1.11.52.6,2,.46,2.95s-1,.5-1.59.41a36.84,36.84,0,0,0-16.92,1.18c-1.76.52-2.07,0-2-1.62C210.4,257.56,210.34,253.56,210.34,249.56Z"/><path class="cls-2" d="M304.9,177.34c-.17,5-.79,9.64-3.58,13.69-.19.29-.52.75-.42.92,1.79,3.09-.38,5.23-2,7.27s-2.87,3.86-4.17,5.89c-.71,1.1-1.23,1.13-1.95,0-1.76-2.78-3.59-5.5-5.38-8.26-.23-.35-.61-.84-.51-1.13.8-2.46-1.28-3.44-2.38-5-2-2.76-2.7-6.08-3.76-9.23a15.52,15.52,0,0,1-.79-6.95c.42-3.34,2.2-4.59,5.49-4,2,.39,4,.82,6.09,1.17a15.09,15.09,0,0,0,7.59-.76,6.11,6.11,0,0,1,3.57.11,2.3,2.3,0,0,1,2,2.42C304.72,174.89,304.84,176.24,304.9,177.34Zm-16.17-1.44c.51-.58,1.63-.18,1.66-1.18a1,1,0,0,0-.62-.75c-2.11-.21-4.26-.55-6.21.62-.46.28-1.29.91.05,1.22.85.2,1.23.5.45,1.22s-.2.8.28,1.07a4.76,4.76,0,0,0,3.44.76c.91-.23,2.27,0,2.57-1.08C290.6,176.84,289.08,176.83,288.73,175.9Zm13.76,1.7c-.76-1-2-.84-2.51-1.8.54-.44,1-.14,1.49-.1s1.24.48,1.42-.33c.15-.63-.5-1-1-1.2a9.84,9.84,0,0,0-4.4-.51c-.92,0-2.06,0-2.26,1.09s1.17.81,1.73,1.19c-.4.95-1.93.85-1.56,2,.31.92,1.44.78,2.24.95A6.27,6.27,0,0,0,302.49,177.6ZM288.6,188.77a6.44,6.44,0,0,0,8.62.06C292.71,187.73,290.68,187.72,288.6,188.77Zm3.12-11.71c-.36,2.67,0,4.84-.94,6.86-.28.57-.25,1.6.49,1.88a5.09,5.09,0,0,0,2.3,0c.49-.06.6-.57.58-1s-.23-1.21-.78-1.06c-1.66.44-1.09-.72-1.11-1.41C292.22,180.74,292.9,179.1,291.72,177.06Z"/><path class="cls-2" d="M350.65,291a14,14,0,0,1,5.28,5.34c.58,1,1.26,1.71,2.49,1.56s1.17-1.26,1.39-2.13c.76-3,2.93-5,5.23-6.83.81-.66,1.44-.33,2,.35,2.22,2.65,4,5.46,3.25,9.14a1.57,1.57,0,0,0,.86,1.94c1,.51,1.42-.06,1.93-.72,2.46-3.19,5.72-5.41,9.08-7.65-.59,5-.84,10-4,14.16-2.13,2.77-5.46,3.72-8.55,5-3.48,1.46-6.55,1.71-9.23-1.73a12.48,12.48,0,0,0-4.1-3,7.36,7.36,0,0,1-3.05-3.24C351.36,299.54,351,295.53,350.65,291Z"/><path class="cls-2" d="M381.73,263.92c-.66,5-.76,10.26-4.41,14.19-2.51,2.71-6.17,3.66-9.58,4.92-2.4.89-4.23.71-6.05-1.31a24.64,24.64,0,0,0-5.57-4.26,7.84,7.84,0,0,1-3.27-4.39,34.51,34.51,0,0,1-1.64-8.6c0-.34-.06-.83.14-1,.4-.36.75.08,1.1.31,2,1.27,3,3.37,4.52,5.05a1.61,1.61,0,0,0,1.79.72c.85-.21,1.05-.84,1.18-1.59.53-3.22,2.87-5.14,5.15-7.11.68-.59,1.25-.43,1.82.24,2.19,2.57,3.92,5.31,3.27,8.9a1.65,1.65,0,0,0,1,2.06c1,.47,1.39-.39,1.86-1A35.26,35.26,0,0,1,381.73,263.92Z"/><path class="cls-2" d="M351.31,235.53a10.84,10.84,0,0,1,4.34,4.47c.52,1,1,1.84,2.32,1.77s1.44-1.14,1.72-2.08c.79-2.69,2.8-4.41,4.9-6,.67-.52,1.18-.28,1.65.29,2,2.43,3.56,5,2.95,8.37-.16.87-.15,1.47.73,2,1.09.59,1.59-.07,2.11-.77,1.85-2.53,4.51-4.1,6.93-5.95.33-.25.7-.65,1.13-.44.63.31.24.88.15,1.33q-.57,2.84-1.21,5.65c-1.45,6.4-6.37,8.79-12,10.51-2.53.78-4.55.75-6.42-1.53a20.9,20.9,0,0,0-4.67-3.66c-3.36-2.25-3.8-6-4.4-9.61A40.62,40.62,0,0,1,351.31,235.53Z"/><path class="cls-2" d="M377.94,211c0,10.11-4,14.58-13.55,16.88a1.64,1.64,0,0,1-1.59-.37,63.57,63.57,0,0,0-7-5.16c-1.66-1.11-2.37-3-2.82-4.91a23.62,23.62,0,0,1-.92-6c1.86.42,2.77,1.8,3.67,3.12.63.92,1.22,1.75,2.47,1.66s1.32-1.25,1.63-2.18a8.15,8.15,0,0,1,1-2.12c1-1.42,2.13-3.67,3.77-3.33,2,.42,2.93,2.76,3.49,4.78a9.8,9.8,0,0,1,.13,3,1.44,1.44,0,0,0,1.11,1.59,1.28,1.28,0,0,0,1.62-.6C372.81,214.87,374.76,212.43,377.94,211Z"/><path class="cls-2" d="M215.74,173.15c-1,0-1.93,0-2.88,0s-2.1.37-2.2,1.56,1.15,1.07,2.14,1.29c-.55.39-1,.65-1.33.94-.78.61-.85,1.15.19,1.5a6.07,6.07,0,0,0,4.4.05c.44-.18,1-.37,1-1s-.54-.78-1-.95a4,4,0,0,1-1.85-1c1.57-.39,2.93.5,4.26.89,1.13.32.7,2.33.67,3.38a21.79,21.79,0,0,1-2.14,7.93,11.49,11.49,0,0,1-5.5,5.73,6.41,6.41,0,0,1-5.77.11c-5.44-2.3-7.75-6.82-8.63-12.28-.23-1.46-.81-2.93-.27-4.44.13-.38.12-1,.66-.94a1.13,1.13,0,0,1,.84.57c1.44,3.06,4.05,2.64,6.51,2,1.82-.49,1.94,0,1.58,1.55-.29,1.29-.57,2.48-1.77,3.26a1.08,1.08,0,0,0-.39,1.51,1.77,1.77,0,0,0,1.43,1.1c1.64.16,3.22-.5,4.89-.08.65.17,1.32-.62,1-1.49-.25-.67-.71-1.06-1.47-.44-.24.2-.67.17-1,.24-2.59.57-2.45.6-1.84-2,.41-1.79,1.47-4-1.4-5-.69-.24-.9-.88-.3-1.55.18-.2.48-.55.42-.68-1.32-2.74,1-2.17,2.18-2.25,2.18-.14,4.31-1.28,6.54-.39C215.12,172.42,215.65,172.38,215.74,173.15Zm-2.87,15.77c-2.35-1-4.29-1.28-7.62-.92-.44,0-1.12-.21-1.2.49s.52.78.93,1C207.76,191.31,209.91,191.17,212.87,188.92Z"/><path class="cls-2" d="M251.16,124.31c0,1.71,0,3.42,0,5.13,0,1.19-.47,1.66-1.66,1.64-3.14-.05-6.27,0-9.41,0a3.51,3.51,0,0,1-1.45-.28c-3.16-1.66-6.27-3.41-8.66-6.13a4.67,4.67,0,0,1-.75-5.57c1-1.93,2.72-2.59,5-2.36,5,.51,10.09.81,15.15,1,1.41.07,1.87.48,1.79,1.85C251.09,121.17,251.17,122.74,251.16,124.31Z"/><path class="cls-2" d="M350.07,186.85a7.72,7.72,0,0,1,3.24,3.06c1,1.47,2.07,1.41,3-.11,1.07-1.73,1.91-3.63,3.52-5,.84-.72,1.39-.74,2.11.13,1.35,1.65,2.37,3.42,2.08,5.65a1.55,1.55,0,0,0,1,1.84c1,.45,1.42-.11,1.95-.76a19.72,19.72,0,0,1,5.24-5c.43,7.87-3.71,13.11-11.16,14.36a1.63,1.63,0,0,1-1.57-.37,27.24,27.24,0,0,0-4.75-3.23C351,195,350.52,191.12,350.07,186.85Z"/><path class="cls-2" d="M370.37,162.66c0,7.85-3.3,12.05-10.34,13.39a2.4,2.4,0,0,1-1,0c-5.25-1.52-9.39-7.24-9.24-13a5.77,5.77,0,0,1,2.72,2.62c.4.68.81,1.14,1.69.93s1.25-.46,1.38-1.35c.34-2.17,2.28-3.15,3.59-4.59.55-.6,1-.17,1.43.29a6.54,6.54,0,0,1,2.05,5,1.76,1.76,0,0,0,1.22,2.16c1.05.37,1.39-.45,1.87-1A24.15,24.15,0,0,1,370.37,162.66Z"/><path class="cls-2" d="M246.33,245.31a2.23,2.23,0,0,1-.7,1.93,17.56,17.56,0,0,1-8.18,5.62c-.87.28-1.2.14-1.18-.77a7.76,7.76,0,0,0-1.18-4.48c-.54-.85-.06-1.27.62-1.7,1.15-.72,2.6-1.28,3.28-2.33.79-1.23-1.06-2.21-1.17-3.53a5.61,5.61,0,0,0-.41-1.66c-.79-1.88-.17-3.1,1.62-4a24.05,24.05,0,0,0,4.05-2.36c1.6-1.19,2.08-.35,2.32,1.07a44.91,44.91,0,0,1,.76,8.11C246.14,242.6,246.27,244,246.33,245.31Z"/><path class="cls-2" d="M261,243.05c2.59.33,4.16,2.23,6.19,3.28a.75.75,0,0,1,.12,1.14c-1.24,1.64-1.18,3.6-1.26,5.77-3.92-1.49-7.37-3.28-9.81-6.64a1.72,1.72,0,0,1-.41-1.38c.82-4.06.12-8.26,1.18-12.32.6-2.28.77-2.49,2.89-1.45a14.21,14.21,0,0,1,2.37,1.43c1.08.83,3,1.09,3,2.71a13.31,13.31,0,0,1-1.71,6.54C263.07,243.05,262,242.51,261,243.05Z"/><path class="cls-2" d="M176.72,242.92c1.85,1,3.41,2.53,5.42,3.31.74.29.81.9.22,1.31-1.54,1.1-1.37,2.74-1.4,4.27,0,1.11-.33,1.41-1.39,1a18.71,18.71,0,0,1-8.1-6.14,1.81,1.81,0,0,1-.42-1.39c.48-4.33.22-8.71,1.3-13,.44-1.74,1.05-1.73,2.29-.9a29.1,29.1,0,0,0,3.64,2.23c2,.92,1.83,2.41,1.53,4.13C179.22,241.13,178.5,242.43,176.72,242.92Z"/><path class="cls-2" d="M325.65,242.85c-2.3-.13-2.21-2-2.67-3.3-1.2-3.33-1-3.6,1.95-5.51,1.14-.73,2.32-1.42,3.41-2.21s1.43-.34,1.72.75c1.13,4.27.52,8.69,1.25,13,.1.62-.38,1.07-.74,1.5a19.62,19.62,0,0,1-7.82,5.79c-1.11.44-1.4.2-1.32-.9a6.63,6.63,0,0,0-1-4.29c-.56-.82-.19-1.26.52-1.7C322.42,245,323.89,244,325.65,242.85Z"/><path class="cls-2" d="M168.28,350.11c.16,1.89-1.29,3.28-3,4.42s-3.56,2.09-5.27,3.23a12.43,12.43,0,0,0-4.94,5.76c-.55,1.42-1.08,1-1.71.15a5,5,0,0,1-.63-5.06c1.05-2.57,2.88-4.56,4.65-6.61,2.22-2.57,4.94-4.72,6.47-7.85.27-.55.67-.79,1.16-.29C166.65,345.49,168.25,347.14,168.28,350.11Z"/><path class="cls-2" d="M352.13,360.87a20.19,20.19,0,0,1-.87,2.09c-.33.6-.6,1.5-1.38,1.47s-.73-.95-1-1.5c-1.35-2.84-3.75-4.61-6.26-6.27a25.23,25.23,0,0,1-5.44-4.1c-1.06-1.2-1.52-3.75-.72-5.07a2.78,2.78,0,0,1,.26-.34c1-1.15,1.95-3.07,3.15-3.28,1.68-.3,1.57,2.21,2.59,3.28,2.31,2.43,4.47,5,6.65,7.53A13.92,13.92,0,0,1,352.13,360.87Z"/><path class="cls-2" d="M326.42,360.87a8.13,8.13,0,0,1,.41-1.59c.33-.78.77-1.76,1.64-1.81s.74,1.07,1.09,1.65c1.68,2.83,4.49,4.31,7.16,5.93A11.74,11.74,0,0,1,342.3,372a2.17,2.17,0,0,1,.06,1.23c-.43,1.19-.63,2.86-1.93,3.12-1.05.22-1-1.46-1.54-2.24-1.8-2.71-4.61-4.15-7.11-6-1.09-.8-2.24-1.51-3.34-2.3C326.92,364.73,326.36,363.18,326.42,360.87Z"/><path class="cls-2" d="M177.76,361.6a4.36,4.36,0,0,1-2,4.24c-1.31,1-2.67,1.9-4.05,2.78-2.81,1.8-5.36,3.84-6.65,7.05-.42,1-.79,1-1.47.23-2.08-2.29-2.07-2.78-.68-5.53s3.86-4.71,6.43-6.44c2.36-1.59,4.9-3,5.82-6,.3-1,.78-.64,1.21-.19A4.46,4.46,0,0,1,177.76,361.6Z"/><path class="cls-2" d="M173,355.63c.13,2.46-1.49,3.85-3.3,5.09-2.16,1.5-4.4,2.86-6.48,4.51a10.1,10.1,0,0,0-3.48,4.43c-.42,1.14-1,.8-1.5.12a4.76,4.76,0,0,1-.65-5.22,12.13,12.13,0,0,1,5-5.33c3.13-1.88,6.69-3.41,8-7.35.29-.9.8-.3,1.1,0A4.61,4.61,0,0,1,173,355.63Z"/><path class="cls-2" d="M331.41,354.69a4.48,4.48,0,0,1,.22-1.25c.26-.74.61-1.64,1.41-1.77s.85.94,1.2,1.49a9.06,9.06,0,0,0,2.94,3c2.88,1.84,6,3.44,8.17,6.17,2.07,2.54,2.4,5,.91,7.2-.62.91-1.13,1.56-1.81-.06C343,365.9,340,363.8,336.79,362,334.13,360.53,331.14,359.21,331.41,354.69Z"/><path class="cls-2" d="M134.83,283.47c-8.22-2.06-13.66-7.92-14.67-15.79-.08-.65-.19-1.19.79-.84C126.91,269,133.78,277.18,134.83,283.47Z"/><path class="cls-2" d="M120.58,284.21c7.35,3.13,12.34,8.09,15,15.29.12.33.36.75,0,1a1.34,1.34,0,0,1-1-.1c-4.16-1.71-8.4-3.36-11-7.37A20.55,20.55,0,0,1,120.58,284.21Z"/><path class="cls-2" d="M148.26,263.39c1.64,9-1.59,15.5-9.3,19.76C137.35,278.43,142.29,267.67,148.26,263.39Z"/><path class="cls-2" d="M150.05,280.37c1.06,8.26-.49,14.8-7.48,19.15a9.44,9.44,0,0,0-1.14,1c-.26.23-.52.55-.91.4s-.28-.58-.27-.92C140.39,292.07,144.91,286.38,150.05,280.37Z"/><path class="cls-2" d="M248.3,405.33c-6.12,4.55-12.56,6.51-19.78,5.81-.55-.06-1.33.08-1.56-.47-.31-.75.54-1.06,1-1.48a15.5,15.5,0,0,1,12.36-4.8A56.12,56.12,0,0,1,248.3,405.33Z"/><path class="cls-2" d="M255.87,405.36c7.77-1.43,14.85-2.07,20.62,3.94.37.39,1.09.7.83,1.35-.2.48-.86.41-1.34.47C268.66,412,262.29,409.59,255.87,405.36Z"/><path class="cls-2" d="M244.79,397.2c-7.29,3.76-20.9,6.62-27.88,4.58C221.72,398,238.3,395.22,244.79,397.2Z"/><path class="cls-2" d="M259.36,397.14c9.87-1.36,19.2-.33,27.87,4.47C282.55,403.69,269.52,402,259.36,397.14Z"/><path class="cls-2" d="M373.82,209.82c0,.66-2.45,3.28-2.85,3.16-.57-.16-.63-.73-.8-1.19a17.14,17.14,0,0,0-4.39-6,1.56,1.56,0,0,0-2.42-.08,18.6,18.6,0,0,0-4.84,5.09c-.63,1.17-1.32,1-2.19.46-2.54-1.63-2.83-2.93-.64-4.76,5.93-5,13-3.81,17.29,1.76A10.09,10.09,0,0,1,373.82,209.82Z"/><path class="cls-2" d="M148.41,247c-.12,4.62-.22,9.29-3.88,12.83a49.44,49.44,0,0,1-5.28,4c-.8.59-1.24.28-1.15-.63a19.5,19.5,0,0,1,4.45-10.94c1.64-1.95,3.51-3.7,5.27-5.54Z"/><path class="cls-2" d="M138.78,246.05c.81-7.8,5.89-12.43,11.37-17.05C151.27,236.39,147,242.7,138.78,246.05Z"/><path class="cls-2" d="M120.87,248.49c5.68,2.32,11.46,8.83,12.09,15C125,260.62,121.4,256.46,120.87,248.49Z"/><path class="cls-2" d="M261.65,394c11.84-4.94,20.4-6,27.16-3.47C284.34,392.86,267.89,395,261.65,394Z"/><path class="cls-2" d="M152.23,212.71c-.09,8.52-3.93,13.86-11.55,16.31C142.12,221.9,146.61,217.21,152.23,212.71Z"/><path class="cls-2" d="M134.18,245.85c-5.35-3-9.43-6.48-9.88-12.78a5.23,5.23,0,0,0-.58-2.46,1,1,0,0,1,.11-1.35c.53-.39.91,0,1.3.33C129.92,233.87,133.45,238.87,134.18,245.85Z"/><path class="cls-2" d="M202.11,194.87c5.07,3.3,9.63,2.74,13.89-.86a1.75,1.75,0,0,1-.23,2.14c-2,3-3.89,6-5.87,9-.33.5-.74,1.63-1.51.49-2.1-3.13-4.11-6.34-6.13-9.53C202.13,195.86,202.18,195.53,202.11,194.87Z"/><path class="cls-2" d="M152.69,195.75c1,6.86-4.35,14.45-11.39,15.95A28.49,28.49,0,0,1,152.69,195.75Z"/><path class="cls-2" d="M135.1,228.65c-7.09-3-11.18-10-9.78-16.69C130.63,216.37,134.34,221.55,135.1,228.65Z"/><path class="cls-2" d="M126.86,193.37c5.21,4.79,8.66,10.14,9.11,17.17C129.94,208.66,125.81,201,126.86,193.37Z"/><path class="cls-2" d="M285.44,224.45v1.28c0,3-2.18,4.62-5.08,3.83-3.12-.85-3.14-.85-3.11-5.42s-.58-4,4-4C285.44,220.11,285.44,220.13,285.44,224.45Z"/><path class="cls-2" d="M200.27,224.51a6.36,6.36,0,0,1,0,1.07c-.2,1.16.66,2.62-1,3.36a6.61,6.61,0,0,1-6.31-.21,1,1,0,0,1-.42-.69c0-2.35,0-4.7,0-7,0-.75.6-.86,1.22-.86,1.42,0,2.85.09,4.27,0,1.73-.15,2.54.44,2.3,2.27A16.81,16.81,0,0,0,200.27,224.51Z"/><path class="cls-2" d="M215.52,390.45c9.92-3.07,18.5.69,27.78,3.54C236,394.92,220.7,393,215.52,390.45Z"/><path class="cls-2" d="M129.8,176.82c4.71,4.38,8,9.34,8.36,16C131.94,190.09,128.14,182.79,129.8,176.82Z"/><path class="cls-2" d="M360.05,179.68a10.85,10.85,0,0,1,8,3.92c1.18,1.39.92,2.49-.46,3.57-.85.67-1.24.7-1.65-.41a14.12,14.12,0,0,0-3.46-4.83c-1-1-1.82-1.21-2.89-.18-1.37,1.32-2.81,2.57-4.22,3.85-.48.43-.61,1.83-1.65.77-.78-.8-2.51-1.31-1.27-3C354.37,180.75,357,179.81,360.05,179.68Z"/><path class="cls-2" d="M199.31,198.15a33.52,33.52,0,0,1,5,6.59c.36.61.61,1.1-.11,1.63-2.21,1.61-4.41,3.24-7,5.15C197.29,206.7,197.18,202.37,199.31,198.15Z"/><path class="cls-2" d="M136.5,146.77a20.9,20.9,0,0,1,4.22,5.39c1.38,2.61,3,5.15,3.13,8.25,0,.47.44,1.07-.1,1.36s-.94-.09-1.37-.37C137.69,158.35,135.4,152.88,136.5,146.77Z"/><path class="cls-2" d="M305.36,211.56c-2.59-1.88-4.81-3.51-7.06-5.12-.53-.38-.61-.66-.11-1.16,1.69-1.66,2.67-3.83,4-5.74.3-.42.48-1.16,1.21-1,.57.12.63.73.78,1.19C305.47,203.43,305.54,207.24,305.36,211.56Z"/><path class="cls-2" d="M373.06,295.76a17.71,17.71,0,0,0-4.92-8.94c-.74-.76-.58-1.09.34-1.49,1.93-.85,3.65-.85,5.18.83,1.27,1.39,3,2.31,3.74,4.25.31.85.41,1.53-.38,2.06A22.91,22.91,0,0,0,373.06,295.76Z"/><path class="cls-2" d="M282.56,211.56c0-4.49,0-8.33,1.27-12,.41-1.17.9-1.66,1.76-.29q1.77,2.81,3.62,5.55c.44.65.44,1.11-.22,1.62C287,208,285,209.6,282.56,211.56Z"/><path class="cls-2" d="M363.27,287.32a3.2,3.2,0,0,0-.63.37,17.92,17.92,0,0,0-4.2,4.81c-.14.24-.36.63-.54.63-1.85-.09-2.48-1.89-3.79-2.77a1.33,1.33,0,0,1-.39-2C355,286.18,357,285,359.1,284,360,283.54,363.37,285.93,363.27,287.32Z"/><path class="cls-2" d="M140.18,176.76c-5.16-2.72-8.13-8.51-7.13-13.85.15-.77.32-1,1.06-.46C137.41,165.05,140.57,172.47,140.18,176.76Z"/><path class="cls-2" d="M372.89,266.92a19.43,19.43,0,0,0-5.33-8.8c-.54-.52-.51-.89.31-1.22a4.16,4.16,0,0,1,4.55.4,34,34,0,0,1,4,3.75c1.39,1.49,1.09,2.67-.68,3.76C374.79,265.4,374.23,266.51,372.89,266.92Z"/><path class="cls-2" d="M359.8,156.22a9.85,9.85,0,0,1,6.69,3.69c1,1.17.89,2.08-.3,3.06-.8.65-1.21.83-1.66-.33a13.6,13.6,0,0,0-3.38-4.63c-.82-.81-1.78-1.09-2.61-.2-1.31,1.39-3.18,2.17-4.12,3.93-.37.69-.87,1.25-1.61.41s-2.07-1.11-1-2.54C353.61,157.29,356,156.17,359.8,156.22Z"/><path class="cls-2" d="M220.29,208.14c-.24,1,.48,2.33-.45,2.83s-1.52-.78-2.26-1.28c-1.06-.71-2-1.66-3.08-2.27-1.76-1-1.58-2-.51-3.36s1.89-2.83,2.84-4.25c.34-.51.52-1.35,1.26-1.28s.75.9,1,1.49C220,202.67,219.91,205.47,220.29,208.14Z"/><path class="cls-2" d="M148.65,163.65c2.07-5.3,5.8-8.4,10.45-10.45,1.26-.55.78.71.6,1.24-1.37,3.95-3.59,7.09-7.93,8.18C150.83,162.86,149.92,163.22,148.65,163.65Z"/><path class="cls-2" d="M364.2,258c-2.11,2.11-4.36,4-5.78,6.59-.06.11-.22.3-.29.28-1.69-.48-2.69-1.92-4-3-.81-.66-.29-1.24,0-1.86,1.06-1.9,3-2.79,4.7-3.86.95-.59,1.62.06,2.19.73A2.82,2.82,0,0,0,364.2,258Z"/><path class="cls-2" d="M154.38,182.8c-.13,5.72-3.87,9.94-10.22,11.54C145.83,188.91,149.47,185.48,154.38,182.8Z"/><path class="cls-2" d="M146,178c2.22-5.28,6.09-8.35,11-10.44C157.2,172.52,152.64,176.91,146,178Z"/><path class="cls-2" d="M372,239.35c-.45-.09-.41-.59-.51-1a16.61,16.61,0,0,0-3.66-6.42c-.47-.55-1.66-1.16-1.11-1.78a2.58,2.58,0,0,1,3.1-.73,13.23,13.23,0,0,1,6,6.34c0,.07.12.11.13.17C376,236.27,372.48,239.4,372,239.35Z"/><path class="cls-2" d="M363.71,231c-2.11,1.88-4.17,3.44-5.48,5.69-.1.17-.35.39-.49.37-1.7-.26-2.44-1.81-3.6-2.79-.74-.62-.1-1.29.27-1.88,1.17-1.85,3.16-2.58,4.94-3.58.7-.4,1.2.07,1.7.5A5.45,5.45,0,0,0,363.71,231Z"/><path class="cls-2" d="M251.17,161.64v7.08c0,4.1.3,3.59-3.52,3.57-1.39,0-3.58.65-4-.31-.5-1.15,1.57-2,2.47-3a25.61,25.61,0,0,0,4.42-7.4Z"/><path class="cls-2" d="M284.21,397.28a119.83,119.83,0,0,1,15.66,1.23C296.19,401.21,292.83,401,284.21,397.28Z"/><path class="cls-2" d="M312.35,247.77c2.74-.81,4.48-.09,5.66,1.61s.57,3.72.14,5.6c-.16.71-.72.81-1.31.86a1.54,1.54,0,0,1-1.54-1,7.46,7.46,0,0,1-1-4.54C314.53,249.05,314.33,248.1,312.35,247.77Z"/><path class="cls-2" d="M204.43,398.6a101.92,101.92,0,0,1,15.78-1.35C210.05,401.2,209.92,401.21,204.43,398.6Z"/><path class="cls-2" d="M227.68,247.7c1.89-.43,3.73-.68,4.95,1.29s.84,4.36.08,6.38c-.42,1.1-1.64.49-2.17-.39a6.47,6.47,0,0,1-.95-4.3C229.82,249.1,229.52,248,227.68,247.7Z"/><path class="cls-2" d="M274.73,247.7c-1.88.42-2.18,1.39-2,2.77a7.16,7.16,0,0,1-.88,4.33,1.6,1.6,0,0,1-1.48,1c-.89,0-1-.71-1.1-1.33a15.56,15.56,0,0,1-.37-3C269,248.49,270.83,247.13,274.73,247.7Z"/><path class="cls-2" d="M189.58,247.71c-1.54.39-1.87,1.29-1.66,2.73a6.88,6.88,0,0,1-.83,4.33c-.38.69-.84,1.17-1.67,1s-.94-.8-1-1.45a23.13,23.13,0,0,1-.2-2.76C184.22,248.42,185.8,247.22,189.58,247.71Z"/><path class="cls-2" d="M219.25,394.57l-13.95,1.19C208.79,392.32,213.22,391.91,219.25,394.57Z"/><path class="cls-2" d="M250.62,144.84a18.53,18.53,0,0,0-5.05-8.66c-.22-.23-.5-.62-.45-.88.09-.55.65-.39,1-.43,5-.47,5-.47,5,4.6C251.13,141.1,251.51,142.79,250.62,144.84Z"/><path class="cls-2" d="M285.64,394.65c4.58-1.66,9.17-3.22,13.45,1.07Z"/><path class="cls-2" d="M253.11,242.25c-2-2.78-2-2.78-4,.3a40.75,40.75,0,0,1-.12-4.68c.1-1.16.38-2.42,2-2.53s2.11,1.11,2.31,2.26A10.46,10.46,0,0,1,253.11,242.25Z"/><path class="cls-2" d="M234.37,238.57c.46,1.33.84,2.29,1.12,3.28.23.81-.37,1.23-1,1.34-1,.18-.67-.68-.67-1.13A6,6,0,0,1,234.37,238.57Z"/><path class="cls-2" d="M267.9,238.38a8.28,8.28,0,0,1,.54,3.64c0,.43.27,1.15-.51,1.16a1,1,0,0,1-1-1.29C267.12,240.79,267.5,239.73,267.9,238.38Z"/><path class="cls-2" d="M218,174.49a1.58,1.58,0,0,1-1.58-1.24c.9,0,1.71,0,1.55,1.28Z"/><path class="cls-2" d="M218,174.53l.24.1s-.1,0-.12,0a.91.91,0,0,1-.09-.17Z"/><path class="cls-3" d="M242.58,313.7a6.63,6.63,0,0,1,.3-2.31c1.17-2.08.15-3-1.6-3.88a8.78,8.78,0,0,1-3.3-2.92c-1-1.4-.67-2.1.79-2.74a12.94,12.94,0,0,1,5.71-1.54c1.65.08,2.1-.61,2.26-2,.25-2.16,1.56-3.76,3-5.32.92-1,1.62-.84,2.43.12,1.48,1.77,2.83,3.62,2.9,6,0,1.28.64,1.55,1.75,1.49a11.38,11.38,0,0,1,6.51,1.76c1.08.64,1.36,1.29.58,2.4-1.08,1.55-2.24,3.09-4,3.68-1.59.51-1.29,1.33-.65,2.16,1.57,2.07,1.37,4.34,1.07,6.69-.15,1.16-.7,1.4-1.73,1.22a9.92,9.92,0,0,1-5.93-3.16c-1-1.09-1.48-1.38-2.49,0a9,9,0,0,1-4.81,3c-1.69.53-2.24-.19-2.41-1.64C242.76,315.71,242.68,314.71,242.58,313.7Zm8.8-6.53c1,2.31,1.55,4.92,3.68,6.59.48.38.89,1.19,1.58.82s.43-1.33.28-1.95c-.53-2.05-2.14-3.31-3.69-4.58-.36-.3-1-.49-.69-1.13.21-.46.74-.35,1.14-.33a8.87,8.87,0,0,0,5.75-1.26c.34-.24.84-.35.82-.86s-.53-.57-.92-.73c-2.2-1-4.18-.18-6.16.72-.44.19-.94.68-1.38.34s-.07-1.07.09-1.58A8.42,8.42,0,0,0,252,298c-.19-.57-.34-1.45-1.09-1.43s-1.11.91-1.25,1.55a8.93,8.93,0,0,0,.39,5.26c.18.46.49,1,0,1.39s-.92-.12-1.36-.3a19.67,19.67,0,0,0-2.71-1.24,5.47,5.47,0,0,0-3.9.49c-.27.14-.23.54,0,.76a4.61,4.61,0,0,0,3.55,1.7c1.46,0,2.92,0,4.49,0-.31,1.32-1.24,1.65-2,2.19a5.91,5.91,0,0,0-2.59,5.54c.11,1.32.64,1.29,1.44.66a9.12,9.12,0,0,0,3.16-5.44C250.28,308.32,250.31,307.52,251.38,307.17Z"/><path class="cls-3" d="M267.72,133.72q0-9.33,0-18.66c0-2,.49-2.43,2.45-1.82C278,115.68,284,120,285.91,128.48c1.71,7.55-1.06,16.93-7.25,21.83a45.06,45.06,0,0,1-6.13,4.26c-3,1.61-4.8.52-4.81-2.84Q267.7,142.72,267.72,133.72Zm3.8,17.17c5.57-3.88,9.85-8,10.85-14.61.15-1-.18-1.45-1.22-1.45q-4.18,0-8.37,0c-.73,0-1.27.12-1.26,1Zm0-26.6h0c0,1.63.06,3.28,0,4.91-.06,1.32.29,2,1.78,1.89,2.49-.11,5-.08,7.48,0,1.41,0,1.69-.48,1.41-1.8-1.15-5.43-4.87-8.62-9.49-11.06-.91-.47-1.15-.13-1.15.72Z"/><path class="cls-3" d="M306.88,220.45h-5.56c-.7,0-1.27-.09-1.31-1s.52-1.18,1.34-1.18H312.9c.7,0,1.28.08,1.31,1s-.51,1.2-1.34,1.19C310.87,220.43,308.88,220.44,306.88,220.45Z"/><path class="cls-3" d="M222.31,220.45h-6c-.77,0-1.44,0-1.45-1.09s.65-1.1,1.43-1.1h11.79c.74,0,1.46,0,1.46,1.07s-.68,1.1-1.44,1.1Z"/><path class="cls-3" d="M288.73,175.9c.35.93,1.87.94,1.62,1.88-.3,1.13-1.66.85-2.57,1.08a4.76,4.76,0,0,1-3.44-.76c-.48-.27-.91-.49-.28-1.07s.4-1-.45-1.22c-1.34-.31-.51-.94-.05-1.22,1.95-1.17,4.1-.83,6.21-.62a1,1,0,0,1,.62.75C290.36,175.72,289.24,175.32,288.73,175.9Zm-2.81.13c-.15-.35-.33-.54-.66-.52a.83.83,0,0,0-.83.54.43.43,0,0,0,.58.41A6.9,6.9,0,0,0,285.92,176Z"/><path class="cls-3" d="M302.49,177.6a6.27,6.27,0,0,1-4.86,1.25c-.8-.17-1.93,0-2.24-.95-.37-1.11,1.16-1,1.56-2-.56-.38-1.93-.14-1.73-1.19s1.34-1.09,2.26-1.09a9.84,9.84,0,0,1,4.4.51c.51.24,1.16.57,1,1.2-.18.81-.91.37-1.42.33s-1-.34-1.49.1C300.47,176.76,301.73,176.62,302.49,177.6Z"/><path class="cls-3" d="M288.6,188.77c2.08-1.05,4.11-1,8.62.06A6.44,6.44,0,0,1,288.6,188.77Z"/><path class="cls-3" d="M291.72,177.06c1.18,2,.5,3.68.54,5.27,0,.69-.55,1.85,1.11,1.41.55-.15.75.53.78,1.06s-.09.95-.58,1a5.09,5.09,0,0,1-2.3,0c-.74-.28-.77-1.31-.49-1.88C291.75,181.9,291.36,179.73,291.72,177.06Z"/><path class="cls-3" d="M212.87,188.92c-3,2.25-5.11,2.39-7.89.61-.41-.26-1-.48-.93-1s.76-.45,1.2-.49C208.58,187.64,210.52,187.87,212.87,188.92Z"/><path class="cls-4" d="M251.38,307.17c-1.07.35-1.1,1.15-1.27,1.92a9.12,9.12,0,0,1-3.16,5.44c-.8.63-1.33.66-1.44-.66a5.91,5.91,0,0,1,2.59-5.54c.71-.54,1.64-.87,2-2.19-1.57,0-3,0-4.49,0a4.61,4.61,0,0,1-3.55-1.7c-.2-.22-.24-.62,0-.76a5.47,5.47,0,0,1,3.9-.49,19.67,19.67,0,0,1,2.71,1.24c.44.18.9.67,1.36.3s.17-.93,0-1.39a8.93,8.93,0,0,1-.39-5.26c.14-.64.44-1.53,1.25-1.55s.9.86,1.09,1.43a8.42,8.42,0,0,1-.07,5.25c-.16.51-.66,1.13-.09,1.58s.94-.15,1.38-.34c2-.9,4-1.68,6.16-.72.39.16.9.18.92.73s-.48.62-.82.86a8.87,8.87,0,0,1-5.75,1.26c-.4,0-.93-.13-1.14.33-.29.64.33.83.69,1.13,1.55,1.27,3.16,2.53,3.69,4.58.15.62.51,1.53-.28,1.95s-1.1-.44-1.58-.82C252.93,312.09,252.38,309.48,251.38,307.17Z"/><path class="cls-2" d="M271.52,150.89v-15c0-.9.53-1,1.26-1q4.19,0,8.37,0c1,0,1.37.41,1.22,1.45C281.37,142.89,277.09,147,271.52,150.89Z"/><path class="cls-2" d="M271.53,124.29v-5.35c0-.85.24-1.19,1.15-.72,4.62,2.44,8.34,5.63,9.49,11.06.28,1.32,0,1.84-1.41,1.8-2.49-.07-5-.1-7.48,0-1.49.07-1.84-.57-1.78-1.89.08-1.63,0-3.28,0-4.91Z"/><path class="cls-2" d="M285.92,176a6.9,6.9,0,0,1-.91.43.43.43,0,0,1-.58-.41.83.83,0,0,1,.83-.54C285.59,175.49,285.77,175.68,285.92,176Z"/></g></g></svg>