<svg xmlns="http://www.w3.org/2000/svg" viewBox="0 0 500 500"><defs><style>.cls-1{fill:none;}.cls-2{fill:#2b211a;}.cls-3{fill:#c81c1d;}.cls-4{fill:#080709;}.cls-5{fill:#f3e501;}.cls-6{fill:#fafafa;}.cls-7{fill:#a73d0d;}</style></defs><title>sma</title><g id="Layer_2" data-name="Layer 2"><g id="Layer_1-2" data-name="Layer 1"><rect class="cls-1" width="500" height="500"/><path class="cls-2" d="M130,238.71c-2-3.18-3.23-6.83-5.84-10,2.26,0,3.37,2,5.24,2,.31.57.86.75,1.23.28.25-.32-.21-.7-.64-.82a30.25,30.25,0,0,1-4.65-7.88c-.31-.67-1-1.35-.41-2.07s1.39,0,2,.25c2.36,1,4.66,2.28,7.22,2.52.62-.67.21-1.1-.11-1.51-2.8-3.55-3.36-7.64-3.3-12,0-3.29,1.21-6.88-1.71-9.74-.87-.85.13-1.24.76-1.66,1.52-1,4-2,3.51-3.76s-3.23-1.19-5-1.38a22.36,22.36,0,0,0-4.9.17c-3,.36-5.46-.83-6-3.72-1-6.16-3.26-12-4.67-18,0-.16.14-.37.3-.73l6.22,3.81c-.16-6.06-.29-11.67.08-17.27A130.4,130.4,0,0,1,237.28,35.62a128.55,128.55,0,0,1,45.83,3.79c1,.27,2.23.21,2.81,1.39-1.12,1.14-2.46.7-3.69.39a129,129,0,0,0-152.61,78.14,124.6,124.6,0,0,0-7.94,33.33c-.64,7.07-1.31,14.15-.26,21.25.32,2.14,5.8,6.44,7.9,6.21a2.9,2.9,0,0,0,2-1.07c2.1-2.53,3.7-5,3.52-8.74A115.22,115.22,0,0,1,241.67,50.17,112.53,112.53,0,0,1,306,64.54c22.37,12.53,38.74,30.84,49.19,54.29a113.47,113.47,0,0,1,8.15,27.22,109,109,0,0,1,1.15,24.79c-.25,4.29,3,6.31,4.83,9.23.48.75,1.48.65,2.41.33,4.88-1.72,6.5-4,6.58-9.27a153.35,153.35,0,0,0-1.18-22.86,125.89,125.89,0,0,0-6.54-26.91,124.26,124.26,0,0,0-22.46-38.57,130.65,130.65,0,0,0-25.4-23,147.63,147.63,0,0,0-26.25-14c-1.06-.45-2.47-.58-2.29-2.28,1.16-.48,2.14.11,3.13.52,38.83,16,64.8,43.92,77.47,84,1.88,5.93,2.71,12.23,3.76,18.43a104.27,104.27,0,0,1,1.62,14.15c.15,4.78,0,9.56,0,14.47,1.79-.22,3-1.61,4.55-2.32.6-.27,1.17-.7,1.79-.12s.25,1,.12,1.53c-1.4,5.49-2.67,11-4.26,16.46-.72,2.44-2.81,4-5.32,3-3.79-1.56-7.25-.45-11.07.16a6.83,6.83,0,0,0,4.31,4.35c2.48,1.08,3.43,3,4,5.5.82,3.37,2.13,6.63,3.2,9.94a18.26,18.26,0,0,1,.9,3.45c.24,2.11,1,4.39.94,6.21,0,3.63.24,7.21.35,10.82,0,1-.5,1.71-1.8,1.88-5.37.74-7.53,4.74-4.94,9.51a9.1,9.1,0,0,1-.28,9.62c-.9,1.54-1,2.21,1,2.46s2,1.36.88,2.89c-3,4-5.74,8.32-11,10.29,2.36,2.28,4.11,4.54,4,7.75a13.29,13.29,0,0,1-3.38,7.76c5.34,2.12,7.42,6.08,7.1,11.46a4.32,4.32,0,0,0,.95,3.32c1.52,1.84,1.57,4.22,1.9,7,2.82-3,4.19-.94,5.45,1.09a50,50,0,0,1,4.37,7.67c1,2.54,2.29,2.23,4.22,1.42a56.83,56.83,0,0,1,11.29-3.36c3-.56,4.84.39,5.39,3.59a25.2,25.2,0,0,1-.5,11.68c-.32,1.09-.67,1.85.43,2.84,3.62,3.25,4.18,7.54,3.38,12a4,4,0,0,0,1.21,4c4.19,4.54,4.43,10.24,4.26,16-.07,2.28-.91,4.51-.49,6.82-1.63,2.75-1.88.1-2.62-.66a26.11,26.11,0,0,0-.33-17.59c-.75-2.09-2.28-2.53-4.18-2a11.82,11.82,0,0,0-3.31,1.4c-6.09,4-12.82,4.63-19.83,4-1.15-.1-2.4-.41-3.37.62,1.69,3,1.82,4.27.65,7.46-.56,1.52-1.23,3-1.85,4.52-1.23.83-2.49,1.5-3.89.32,1.12-1.7.94-2.67-1.36-2.2-2.11.43-4.21,1-6.3,1.51-1,.25-1.9.64-1.51,2-1.88.89-3.6,2.48-5.94,1.33,1.26-1.44.06-1.87-.92-2.62-6.93-5.38-6.12-18.67,2.66-21.18a6.19,6.19,0,0,0,1.37-.83c-5.46-3.54-5.93-4-5.07-7.6.57-2.39-.37-2.76-2.3-2.93-3.2-.3-6.74.06-8.64-3.47-1.79-3.31-4.39-4.34-8.21-4.15-4.4.21-4.86-.63-3.62-4.79.65-2.22.35-3.24-1.89-4.2-4.1-1.77-4.3-3-1.18-6.12,1.28-1.28,1.62-2.21.64-3.84a6.28,6.28,0,0,1-.14-6.61c1.95-3,.2-3.71-2.12-4.36-.85-.23-1.69-.48-2.54-.67-5.29-1.17-5.26-1.15-2.41-6,.76-1.3,2.4-2.49.92-4.34-2.51-3.13-2.1-6.83-2.08-10.5,0-1.83.89-2.27,2.19-1.53,2.54,1.43,2.67-.08,2.85-1.94a6.94,6.94,0,0,0-.5-3.19c-1.07-2.82-.17-5.1,2-7a11.38,11.38,0,0,1,5.39-2.23c2.1-.46,3.09-1.4,1.77-3.67-2.56-4.42-3.36-9.93-8.15-13a3.59,3.59,0,0,1-.87-1.37c-.65-1.22-.92-2.28.94-2.65,1.36-.27,1.56-1,1.25-2.41-.61-2.76-.86-5.61-1.39-8.39-.47-2.44.09-3,2.68-2.43,4.78,1.12,6.07.13,6.71-4.8.57-4.37,2.39-8.59,1-13.2a10.73,10.73,0,0,1,.52-6.47,3.52,3.52,0,0,0-.8-3.78c-3.52-4.44-2.81-9.1,1.78-12a2.78,2.78,0,0,0,1.47-2.92c-.22-4.37-.34-8.74-.48-13.11,0-1.39-.8-3.25.46-4,1.53-.92,1.74,1.88,3.39,2,0-.54.11-1.06.12-1.57.7-31.4-10.82-57.39-34.77-77.7C282.6,66.44,240.08,61.24,206.69,78.7c-34.32,18-52.13,46.76-53.53,85.55,0,1.52-.79,3.74,1,4.37,1.4.5,1.85-1.81,2.94-2.64.13-.1.37,0,.14,0v17.88c0,1-.28,2,1,2.82,5.25,3.63,6,8.51,1.91,13.24a3,3,0,0,0-.6,3.43c1.14,3.84,1.62,8-.09,11.58a19.54,19.54,0,0,0-1.57,10.48,10.35,10.35,0,0,1-3.82,9.51c-4.64,3.89-9.78,7.76-7.38,15.22.3.94-.33,2.57,1.06,2.57s1.22-1.68,1.22-2.66a16.72,16.72,0,0,1,3.67-11c1.76-2.22,3.89-4.17,5.13-6.79.27-.56.64-1.27,1.47-.83s.49,1.12.25,1.73a9.47,9.47,0,0,0-.23,5.19c1.15,6.3-1.53,10.88-6.49,14.31a11.57,11.57,0,0,0-5.46,10.17c0,1.43-.89,3.68.81,4.06s2.88-1.61,3.68-3.21a5.13,5.13,0,0,0,.53-1.88c.22-2.86,1.59-5.15,3.28-7.37,2.26-2.95,5.8-4.71,7.52-8.16a.9.9,0,0,1,1.37-.42c.53.36.4.87.21,1.45a15.37,15.37,0,0,0-1,3.76c-.41,5.6-1.77,10.77-6.09,14.74-10.94,3.45-10.19,7.75-9.58,15.8,2.5-1.66,4.55-3.54,5.09-6.48A17.63,17.63,0,0,1,157.7,266c3-1.93,6.5-3,8.58-6.21.29-.45.72-.83,1.35-.48s.5.8.32,1.37a11.87,11.87,0,0,0-.87,3.47c.12,8.56-5,13-12.15,16.07-4.68,2-8.55,4.82-8.48,10.71a26.25,26.25,0,0,1-.51,3.24c-.06.53-1.05,1.07-.06,1.61.66.37.94-.3,1.32-.61a12.91,12.91,0,0,0,4.13-5.79,14.12,14.12,0,0,1,8.82-8.66c2.22-.85,4.66-1.35,6.1-3.57a.85.85,0,0,1,1.38-.21c.54.46.28.93.05,1.45a46.75,46.75,0,0,0-2.17,5.12c-1.69,5.43-4.75,9.49-10.35,11.4a39,39,0,0,0-5.63,2.65c-.86.46-2.14.6-2.39,3.19,4.4-4.33,9.83-4,14.38-6.19.92-.44,1.6-.57,2.34.1s0,1.37-.3,2c-2.36,4.35-4.44,8.92-9.5,11.72,2.76.32,4.69.18,6.34-1.18.54-.44,1.07-.83,1.66-.14s.06,1-.26,1.43c-2.31,3-4.08,6.49-7.24,8.84-.54.39-2,.43-1.22,1.73a1.72,1.72,0,0,0,2.31.6c3.08-1.29,3.67.31,3.32,2.93-.65,4.74-3.27,8.44-6.2,12.07-2.14,2.66-5.05,2.25-7.78,2.56-2,.23-3.17.46-2.41,3.05.87,2.9-.5,5.08-3.28,6.33-.64.28-1.61.12-1.73,1.32a15.55,15.55,0,0,0,1.69.81c4.41,1.56,6.16,5,6.5,9.35.37,4.67-.37,9.17-4.67,11.84-2.35,1.45-1,1.77.17,2.52-1.25,1.19-2,.37-2.63-.69-3.86-2.72-8.33-3.63-12.87-4.26-.7-.1-1.62.05-1.84.73-.13.37.59,1,.93,1.54-1.82.58-3.69,1.73-5.25-.49.73-.27,2.59.64,1.39-1.56-1.84-3.38-3.28-6.88.08-11.35a38.57,38.57,0,0,1-27-4.76c-2-1.16-3.75.09-4.56,2.33-1.84,5.1-1.61,10.29-.83,15.54.23,1.55,1.16,1.24,2.08,1.29-1,1.79-2.64.72-4,1,.11-4.78-1.15-9.53-.11-14.35.76-3.48,1.7-6.83,4.58-9.17,1-.84.76-1.65.59-2.61-.88-4.88-.39-9.42,3.58-12.92,1.09-1,.37-1.74.11-2.61a24.26,24.26,0,0,1-.52-11c.69-4.11,1.76-4.76,5.81-4.09a39.33,39.33,0,0,1,10,2.95c2.75,1.28,4.37,1.21,5.62-2,1-2.61,2.78-4.93,4.23-7.37s3-2.67,4.91-.55c3.14,3.49,6.29,7,9.44,10.45l1.74,1.89c.66-1.5,1.27-2.73,1.75-4,1.38-3.71.47-5.51-3.36-6.79-11.19-3.73-14.18-7.77-14.11-19.75,2.05,4.78,6.43,6,10.59,7.8a12.54,12.54,0,0,1,7.48,9.75c.12.65-.12,1.76,1,1.66.66-.06.91-.8,1.15-1.44,1.45-3.88-1.53-9.24-5.95-10.65-9.54-3.06-13.68-9.14-13-20.08,2.06,5,5.83,6.49,9.8,8.13a14.16,14.16,0,0,1,9,11.26,6.64,6.64,0,0,0,1.91,3.6c.52-3,1-5.54,1.44-8.1a2.42,2.42,0,0,0-1.24-2.46,14.83,14.83,0,0,0-4.82-2.74,17.12,17.12,0,0,1-12-11.9c-.55-1.72-1.31-3.37-2-5.11,1-.58,1.52.34,2.07.9a11.94,11.94,0,0,0,5.92,3.29c5.83,1.41,9.64,4.87,10.9,10.88a5.84,5.84,0,0,0,.53,1.52c.12.23.48.34.75.51,2.41-6.79,1.19-9.82-5.2-12.12-8.31-3-8.83-4.86-14.53-15.08,2.64.59,4.42,2.66,6.9,3a1,1,0,0,0,1.42,0c.05-.06-.25-.48-.39-.74-2.44-3.93-4.89-7.87-7.44-12a5,5,0,0,1,2.61,1.59,12.49,12.49,0,0,0,7.39,3.8c4.94.81,8.92,2.88,9.49,8.69.85-8.3.89-8.39-6.74-11.08a16.3,16.3,0,0,1-10.26-9.37,58.84,58.84,0,0,0-3-5.4c1.82-.4,2.75,1.38,4.27,1.46.39.44,1,.56,1.31.17S130.26,239,130,238.71Zm11.42,27.21a.77.77,0,0,0-1.22-.34l.78.82c2.31,2.24,3.27,5.29,4.5,8.18C146.13,270.61,144.64,267.68,141.38,265.92Zm12.3-1.24c4.45,0,8.32-7,7.57-13-4.46,3.25-7.33,7.33-7.49,13l-.34.35.27,0Zm-23.59-22.27-.32-.44c0,.1-.11.22-.09.31.1.31.27.32.47.06,1,6,5.75,7.57,10.73,9.24a6.28,6.28,0,0,0-2.74-6.06A17,17,0,0,0,130.09,242.41Zm24.25,35.41c6.08-.59,10.76-6.43,10.59-13.35-6.52,2.16-9.82,6.74-10.51,13.4l-.34.33.27,0Zm-30.54,18c-.06.07-.16.21-.19.19-.29-.14-.36-.08-.21.19l.42-.38c-.86,6,5.42,11.61,13.48,11.88-1.18-5-4.33-8-9-9.52C126.68,297.65,124.83,297.52,123.8,295.84ZM383.49,176c-4.13,1.69-7.64,4.44-11.45,6.67-1.77,1-2.84,1.06-4-.7-1.6-2.35-3.43-4.54-5.1-6.83-.77-1.07-1.34-1.18-2.22-.08-1.49,1.88-3.26,3.55-4.66,5.5-1.67,2.32-2.91,2.81-4.77.09-2-2.92-4.4-5.55-6.74-8.44,0,4.75,0,9.17,0,13.59,0,1.47.79,1.81,2.08,1.81,5.8,0,11.6,0,17.39,0a4,4,0,0,0,2.15-.6c2.66-1.89,5.25-1.64,8-.2,4.2,2.19,7,1,8.13-3.39.61-2.32,1.15-4.66,1.72-7,0-.26.17-.66.06-.76C383.74,175.38,383.58,175.68,383.49,176Zm-237.25,4.13c3.11-3.57,6-6.8,5.13-12.15-.78-4.94-.09-10.05.54-15C159.83,90.09,224,51,283.52,72.62c38.53,14,66.08,51.47,64.47,95.18-.21,5.63,2.43,8.84,5.69,12.46,2.38-2.76,4.38-5.75,7-7.93a5.53,5.53,0,0,0,2.18-4.86c.23-31.83-10.44-59.44-32.89-82-34.79-35-86.14-43.87-130.25-21.75-36.31,18.22-57.12,48.17-62.5,88.61-.84,6.36-.67,12.75-.72,19.1,3-1.2,3.48,1.91,4.92,3.21A56.92,56.92,0,0,1,146.24,180.08ZM350.18,309.85c2.77-2.57,5.72-4.77,8-7.53,2.12-2.58,3.61-2.11,5.57-.15.51.51.95,2,1.91,1.13,1.59-1.52,3.65-2.76,3.82-5.44.26-4.17-1.29-7.58-4.42-9.16s-7-.93-10.09,2.38c-1.81,1.92-3,2.2-5.42.81-6.59-3.76-11.38-1.17-12.33,6.24a3.64,3.64,0,0,0-.05,1.31c.36,1.39-.27,2.08-1.38,2.9a5.79,5.79,0,0,0-1.93,7.54c.43.83.91,2.15,2.09,1.41s3.11.09,3.28-2.05c.18-2.39.45-4.77.6-7.16.05-.69-.74-1.53.32-2,.83-.34,1.45.34,2,.78A27.77,27.77,0,0,1,350.18,309.85Zm11.33-24.2c5.56-4.67,5.66-9.22.25-13.54-1.16-.93-1-1.79-.83-2.83a16.71,16.71,0,0,0-.92-8.69,5.62,5.62,0,0,0-5.09-3.55c-2-.19-3.31,1-4,2.75-.84,2.07-1.9,1.31-3.28.55-4.13-2.28-6-1.8-8.34,2.2a2.74,2.74,0,0,1-2.77,1.64,7.18,7.18,0,0,0-6,2.93c-1.56,2.13-1,4.13,1.45,4.69a16.19,16.19,0,0,1,7.07,3.91c.59.53.94,1.38,2.1,1.26a9.5,9.5,0,0,0,8.2-6.75c.47-1.68,1.21-1.28,2-.53a8.89,8.89,0,0,1,2.66,5.82c.14,1.38.57,1.83,2.06,1.61,4.65-.66,4.91-.41,5.4,4.4C361.62,282.81,361.51,284.12,361.51,285.65ZM133.35,335c-.88-1.54-2.89-2.59-2.51-4.2.87-3.68-1.78-4-4-4.83-1.53-.58-3-1.2-4.6-1.73-7.12-2.46-13.94-5.75-21.35-7.4-2.54-.57-4,.05-4.21,2.85a28.43,28.43,0,0,0,.57,9.77c.41,1.5,1.07,2,2.75,2a77.14,77.14,0,0,1,14.39.88ZM367.71,334c1.8.71,3.4.33,5,.07,7.76-1.22,15.52-2.51,23.39-2.73,6.71-.18,7.1-.47,7.3-7.26a27.42,27.42,0,0,0-.11-3.27c-.43-4.39-1-4.82-5.38-3.73-8.48,2.14-16.39,5.91-24.62,8.75-2.43.84-5.1,1.24-4.28,5C369.21,331.67,368.25,332.76,367.71,334Zm-6.11-91.62c-1.08,3-4.22,3.73-5.07,6.39-.66,2.07-1.57,1.69-2.76.52a10.26,10.26,0,0,0-1.78-1.45c-1.68-1-3.64-2.83-5.29-2s-1.27,3.46-1.06,5.38-.65,2.18-2.29,1.74a41.82,41.82,0,0,0-4.82-.93c-.94-.14-1.72-.06-1.52,1.34.43,3.07,2.5,4.68,5.36,4a7.75,7.75,0,0,1,5.07.76c.86.38,1.45.84,2.46-.26,4-4.33,10.09-2.92,12.09,2.62a18.63,18.63,0,0,1,.95,6.45c0,1.68.74,1.84,2,1.1a16.81,16.81,0,0,0,6.17-6.19c.45-.8,1.84-1.42,1.18-2.43s-1.79-.39-2.73-.14c-.71.2-1.6.7-2.05-.17s.5-1.32,1-1.82c2.58-2.48,4.46-5.2,3.57-9.47a14.27,14.27,0,0,1-6.68,2.38c-1.62.11-2.5-.19-2.22-2.13C363.43,246.28,363,244.58,361.6,242.39Zm3.6,83.71a7.91,7.91,0,0,0,2.25-.14c4.93-1.78,9.81-3.66,14.73-5.46,1.49-.55,1-1.43.48-2.31-1.51-2.65-3.11-5.26-4.55-7.95-1-1.86-1.9-1.63-3.11-.23-3.22,3.72-6.62,7.29-9.7,11.12a4.91,4.91,0,0,1-5.05,2c-5-.63-10-.93-15-1.69-2.64-.4-2.73.6-2.15,2.58a22.65,22.65,0,0,0,4.9,8.79c2.79,3.16,4.51,2.94,6.74-.72C357.13,328.14,360.44,325.81,365.2,326.1Zm9.94,28.47c1.43-.89,2.42-1.54,3.44-2.15,7.09-4.25,14.72-6.58,23-6.06,4.71.29,5.24-.09,4.94-4.87a14.71,14.71,0,0,0-.68-3.52c-1.13-3.54-3.2-4.78-6.87-4.35-4.47.52-8.27,2.58-12,5-4.35,2.83-8.33,6.42-14.58,6.84C376,348,375.08,351.2,375.14,354.57Zm-240-28.67c4.43-.07,7.76,2.32,10.11,6.44,1.17,2.05,2.88,3.83,5.19,1.81a20.34,20.34,0,0,0,6.5-10.77c.4-1.69.07-2.27-1.87-2-5.19.7-10.42,1.11-15.62,1.73a4.57,4.57,0,0,1-4.75-1.88c-2.67-3.44-5.64-6.65-8.56-9.9s-3-3.26-5.23.42c-1.23,2.06-2.29,4.21-3.56,6.25-.91,1.46-.77,2.2,1,2.78,3.31,1.11,6.51,2.51,9.82,3.63C130.26,325.11,132.23,326.58,135.14,325.9Zm-8.32,19.75c-2.87-1-5.74-1.3-8.09-3s-4.69-3.19-7.06-4.74a27.67,27.67,0,0,0-11.19-4.34c-3.19-.48-5,.94-6.17,3.57a13.5,13.5,0,0,0-.76,8c.23,1.34.79,1.84,2.2,1.56a27.67,27.67,0,0,1,7.82-.26c7.79.7,14.67,3.73,21.27,8.3C124.62,351.34,124,348.2,126.82,345.65ZM370.57,243.47c.07-4-1.4-5.94-5.1-6.29-1.71-.17-1.4-1.07-1.53-2.19-.41-3.5-4.33-6.68-6.54-4.83-3.61,3-6.82,1.08-10.24.81-.76-.06-1.53,0-2.29,0-.93,0-1.6.41-1.32,1.35.55,1.81-.66,3.08-1.07,4.61-.65,2.35-1.54,4.88,2.13,5.94,3.32,1,6.77,1.79,9.5,4.18.52.46.86.25,1.3-.26,1.29-1.46,2.65-2.87,4-4.23,1-.95.85-3.33,2.47-3s1.8,2.53,2.46,4a5.3,5.3,0,0,1,.54,2.22c-.11,3.13,1.64,2.53,3.5,1.85C370.54,246.81,370.27,244.87,370.57,243.47ZM133.49,201c4.18,9.46,10,18,10.43,28.59a2.47,2.47,0,0,0,.81-1.58,3.88,3.88,0,0,0,.1-1.61c-2.74-8.11,3.14-14.09,5.13-21,.16-.54.63-1,1.23-.65a1.24,1.24,0,0,1,.55,1c-1,4.63,2.15,8.55,1.88,13.17,4.94-3,6.64-13.43,3.12-17.33-.63-.7-1.36-.58-2.08-.58C147.68,201,140.7,201,133.49,201Zm222.15,3.87c-2,0-3.52.25-4.73,1.35-3.62,3.27-3.88,8.38-6.57,12.18a1.79,1.79,0,0,0-.07,1.28,4.42,4.42,0,0,0,2.53,2.86c1,.49,1.22-.9,1.8-1.42a9,9,0,0,1,9.15-2c.47.14,1.28,1.57,1.63,0,.74-3.21,5.11-2.75,5.86-6,.15-.67,1.28-.25,1.64.27,2.53,3.61,4.49,1.41,6.4-.62s1.49-4.08-.87-6.41c-2.21-2.17-3.8-1.68-5.23.67a1.79,1.79,0,0,1-2.43.89c-2.39-.73-5.32.31-7.11-2.44C357.28,205,356.06,205,355.64,204.9Zm-200.2-33.64c-2.48,3.32-4.85,6.29-7,9.42-1.41,2.07-2.45,2.67-4.13.25-1.43-2.05-3.25-3.82-4.82-5.78-.84-1-1.25-1.72-2.63-.28-1.71,1.8-3.07,3.83-4.6,5.73s-2.69,2.89-5.16,1.07c-3.48-2.58-7.32-4.67-11.48-7.27,1,3.64,1.92,6.75,2.72,9.89.34,1.31,1.25,1.32,2.26,1.32,10.81,0,21.62-.06,32.42,0,1.61,0,2.45-.38,2.43-2.12C155.41,179.56,155.44,175.66,155.44,171.26Zm-22.56,27.16.33.76H155.7c3.37,0,4.93-1.74,5.11-5.65.13-2.8-1.77-5.36-4.54-5.42-7-.16-14-.05-21.34-.05C137,192.28,136.11,195.6,132.88,198.42Zm243.83,20.26c0-1.79.08-3.73-1.21-4.45s-2,1.29-3,2c-1.89,1.24-3.62,2.67-5.46,0-.6-.86-1.2-.77-1.69.14-.37.67-.74,1.5-1.52,1.62-3.58.52-2.56,3.55-3,5.64-.49,2.25-1,4.63,2.08,6,1.59.69,2.35,2.5,2.83,4.24.13.49,5.38,3.49,5.59,3.21a7.5,7.5,0,0,1,6.12-3.21c.26,0,.78-.76.71-.9-1.63-3.09-.94-6.16-.64-9.42C377.6,222.22,376.24,220.3,376.71,218.68Zm-6.65,82.94c-1.2,1.28-2.42,2.51-3.58,3.8s-2.05,1.25-2.8-.22c-1.64-3.23-3.16-2.8-5.32-.31-3.42,3.91-8.26,6.93-6.49,13.43.36,1.32.41,2,1.95,2.24,8.26,1.18,8.25,1.23,13.72-5.11.86-1,1.77-1.94,2.58-3A8.6,8.6,0,0,0,370.06,301.62ZM366.9,199.18c-2.93-2.89-3.56-6-2.64-9.83-7,0-13.78-.07-20.54,0a4.84,4.84,0,0,0-4.58,5.34c.17,3.2,2,5.39,4.58,5.31C351.45,199.8,359.17,199.47,366.9,199.18ZM335.2,300c.08-3.06.56-5.63,2.18-7.53,2.14-2.51,2.24-5.31,2.05-8.25-.25-3.91-.49-7.89-5.07-9.52-1.08-.38-2.24-1.6-3.27-.67-.88.8-.75,2.27-.63,3.54.15,1.69.46,3.44-.77,4.9-1.81-.46-1.81-3-3.91-3.26,0,2.31-.86,4.9.67,6.48,3.55,3.68,1.85,6.59-.62,9.68-.29.36-.78.79-.35,1.44A27.51,27.51,0,0,1,335.2,300Zm6.56,3.52c.28,5.37-.73,9.64-6.8,10.55-.38.06-.71.48-1.06.75-3.07,2.39-3,3.35.61,4.51,2.58.82,3.42,1.71,2.39,4.48-1.49,4-1,4.42,3.24,4.2a16.79,16.79,0,0,0,2.05-.36c-.16-.58-.29-1.1-.44-1.6-1.94-6.53-1.6-6.94,5.12-6.24a4.78,4.78,0,0,1,.65.07c2.05.46,2.65-.41,2.6-2.43C350,311.36,346.65,307.19,341.76,303.51Zm48.78,29.87-29.12,4.27c-2,.29-2.09,2-2.42,3.48-.41,1.77.72,2.71,2.07,3.67,3.67,2.62,7.11-.05,10.48-.58C378.93,343.05,384.41,337.79,390.54,333.38Zm-282,.15c7.41,5,14.13,10,22.75,11.34,2.48.4,4.71,1.19,7.18.06,1.88-.86,2.69-2.15,2.37-4.15s-1.06-3.18-3.31-3.34c-2.61-.18-5.19-.73-7.79-1.09C122.85,335.38,116,334,108.52,333.53Zm242.65-60.64c-2.24,3.18-4.76,5.21-8.25,5.77a1.73,1.73,0,0,0-1.63,1.75c0,2.29-.5,4.77.22,6.81.59,1.67,3.2.44,4.76,1.17.1,0,.24,0,.32.07,3.62,2.51,6.37.92,9.73-1.15,3.08-1.9,3.16-4,2.77-6.78-.16-1.14-.77-1.9-2-1.39-4.1,1.71-5.38-.15-5.25-4A9.92,9.92,0,0,0,351.17,272.89ZM355.91,359c0,3.88,1,6.83,2.57,8.48,2.07,2.21,3.88,2.3,5.68-.1s3.44-5.28,5.19-7.9a.88.88,0,0,0-.19-1.37c-2.11-1.67-3.15-4.14-4.68-6.24a2.79,2.79,0,0,0-3.94-1C356.72,352.68,356,356.09,355.91,359ZM144,359.36c-.22-2.72-.58-5.65-3.2-7.65s-4-1.74-5.92.84c-1.35,1.84-2.32,4-4.12,5.46-.59.49-.62.93-.15,1.62,1.65,2.44,3.1,5,4.82,7.39,2.07,2.86,4.13,2.8,6.26,0A12.27,12.27,0,0,0,144,359.36ZM330.4,243.62c1,1,1.2,3.25,3,2.4,2.45-1.14,5.68-1.87,6.51-4.73.67-2.33.61-4.85,1.61-7.23.68-1.63,0-3.35-1.42-4.68-1.7-1.65-1.74.79-2.67,1a10.26,10.26,0,0,1-1.57.24c-4.89.33-4.91.32-4,5.32a9.93,9.93,0,0,0,.91,3.45C334.4,242.07,333.31,243.08,330.4,243.62Zm10.79-23.48c-1.44,8.45-1.43,8.45,6.38,9a5.91,5.91,0,0,1,1.94.25c2.27,1,4.08.2,6.31-.65,3.41-1.31,3.22-3.49,2.49-5.92-.93-3.08-3.55-2.31-5.75-1.83a5.13,5.13,0,0,0-3.71,3.41c-.65,1.82-1.5,1.51-2.58.5Zm65,128.73c-10-2.09-19.08.43-27.56,5.82C388.65,356.41,397.87,354.73,406.16,348.87Zm-312.25-.06c8.16,6.3,17.44,7.37,27.49,5.92C112.74,349.3,103.71,346.8,93.91,348.81Zm45.51-52.43c-1.93-7.75-8.07-10.13-14.56-12.22C126.13,292.36,132.71,294.31,139.42,296.38Zm18.21,14.16c-5.88-.77-10.89.57-14.8,5.33-1.19,1.45-1,1.56.68,1.89C149.61,319,154.44,316.57,157.63,310.54Zm208.5-108.77c-6.73,0-13.38.13-20-.05-3.16-.09-4.24,1.36-4.33,4.25,1.21-.18,2.47-.73,3.49-.44,2.24.61,3.68-.34,5.53-1.4a7.71,7.71,0,0,1,9.17.62c1.73,1.39,3.44,1.83,4.77-.58C365.25,203.24,365.81,202.33,366.13,201.77ZM151,294.41c8.84-3,11.57-5.82,12.55-12.54C157.47,283.11,156.74,283.84,151,294.41Zm-26.4,64.09c-3.19-.1-4.52,1.39-3.51,4.5.37,1.15-.19,4.06,2,3.26,2.91-1.07,5.19.16,7.72.63.73.13,1.59.47,1.68-.62C132.72,363.82,127.34,358.58,124.63,358.5Zm242.58,8.16c3.37-.3,6.51-1.67,9.75-.5.54.19.75-.29.91-.68.9-2.08,2.34-4.5.12-6.22-2-1.54-4.51-1.21-6.45.74A20.57,20.57,0,0,0,367.21,366.66ZM140.64,224.23a22.22,22.22,0,0,0-7.58-15.9C131.73,215.4,133.73,219.72,140.64,224.23Zm214.69,111c4.06,1.25,7.28,0,10.18-2.39,1.22-1,2.41-2.19,1.5-3.88-.79-1.48-2.41-1.38-3.81-1.1C359.18,328.68,356.93,331.47,355.33,335.26Zm-210.8-.06c-1.57-3.69-3.79-6.54-7.92-7.32-1.39-.26-3-.36-3.75,1.17s.2,2.67,1.32,3.64C137.11,335.24,140.34,336.59,144.53,335.2Zm-3.43-49.8c0-5.5-3.92-8.83-12.34-10.58C130.44,281.28,135.43,283.67,141.1,285.4Zm18.44,12.78c-5.63.93-10.64,2.49-13,8.35C152,307.88,156.7,304.92,159.54,298.18Zm204.8,50.22c1.79,2.54,3.42,5.09,5.3,7.45,1.4,1.76,2.72,1.66,3.18-.83s1.58-5.33-.69-7.41c-2.11-1.93-4.54-.5-6.78.24A6.74,6.74,0,0,0,364.34,348.4Zm-238,2.84a24,24,0,0,0,.6,3.45c.27.85.1,2.25,1.38,2.32a3,3,0,0,0,2.34-1.6q2.06-2.94,4.18-5.85c.33-.44.83-1,.19-1.33-1.92-1.1-4-2-6.24-1.29C126.75,347.53,126.54,349.36,126.37,351.24ZM151,251.36c5.84-3.39,7.78-8,5.89-14.22C152.83,241.07,150.14,245.43,151,251.36ZM147,226.54c5.13-4.61,6-9.67,2.7-14.91C146.65,216.16,145.05,220.91,147,226.54Zm8.55-4.46c-5.13,4.87-6.67,8.65-5.88,14.33C154.78,233,157.34,228.53,155.55,222.08Zm-25.67,42.06c2.39,5.87,7.21,7.79,12.79,9.28C140.87,266.68,135.79,265.13,129.88,264.14Zm-.41-30.72c1.58,5.57,6.14,7.36,10.92,9C140.26,237.54,137.47,235.25,129.47,233.42Zm214.6,13c.2-2.18-1.37-3.2-3.37-2.23-1.46.7-2.71,1.9-4.21,2.48-2.58,1-1.47,2.36-.1,2.87,2.09.76,4.54,1.44,6.61,1C344.5,250.32,343.2,247.66,344.07,246.45Zm-205-14c.23-4.65-4.28-8.28-10.84-8.78C129.78,228.9,134.19,230.73,139.07,232.44Zm3.23,31.38c.4-4.5-3.92-7.46-10-6.75C134,261.73,138.13,262.86,142.3,263.82ZM134,191.76c-.3-2.58-1.54-4.11-3.93-4.25s-4.11.93-5.11,3.61A29.87,29.87,0,0,1,134,191.76Zm231.84.29c3.15-1.17,6.06-1,9.11-1.12-1.23-2.57-3-3.72-5.38-3.4C367.4,187.82,366.14,189.23,365.86,192.05ZM119,188.11c.53,1.69,1.21,3,2.62,2.92s1.82-1.55,2.32-2.92Zm27.28,43.82c-.45,1.9-.82,3.33-1.11,4.78a1.35,1.35,0,0,0,.72,1.33c.56.41.88-.17.93-.43C147.17,235.86,148.46,234.05,146.29,231.93ZM145,252.64c-.79-2.72.59-5.82-3.44-6.11C143.52,247.91,141.91,251,145,252.64Zm-5.74,68.25c2.66.36,4.73-.36,7.14-.57C141.6,319.16,141.6,319.16,139.26,320.89Zm1.94-83.81c.69,2.21,1.37,4.41,2.05,6.62C143.4,241.17,144.32,238.41,141.2,237.08Zm231.13-33.65c-.17-1.36-.62-2.71-1.9-2.81s-1.86,1.15-2.47,2.31ZM347,207.86c-1.19-.59-2.55-1.07-3.33,0s.35,2,1,3C345.52,209.68,346.23,208.79,347,207.86Zm33.9-18.43c-1.52-.07-2.73-.3-4,.3C379.07,192.09,379.07,192.09,380.88,189.43Zm-242,45.88a2.14,2.14,0,0,0,2.2,1.38,1.29,1.29,0,0,0,.13-.85C140.74,234.81,139.85,235.32,138.91,235.31Zm-3.71-12.37-.22-.25-.22.24.35.22Z"/><path class="cls-3" d="M294.19,43.52c-.18,1.7,1.23,1.83,2.29,2.28a147.63,147.63,0,0,1,26.25,14,130.65,130.65,0,0,1,25.4,23,124.26,124.26,0,0,1,22.46,38.57,125.89,125.89,0,0,1,6.54,26.91,153.35,153.35,0,0,1,1.18,22.86c-.08,5.31-1.7,7.55-6.58,9.27-.93.32-1.93.42-2.41-.33-1.87-2.92-5.08-4.94-4.83-9.23a109,109,0,0,0-1.15-24.79,113.47,113.47,0,0,0-8.15-27.22C344.74,95.38,328.37,77.07,306,64.54A115,115,0,0,0,174.49,78a114.27,114.27,0,0,0-39.68,92.32c.18,3.7-1.42,6.21-3.52,8.74a2.9,2.9,0,0,1-2,1.07c-2.1.23-7.58-4.07-7.9-6.21-1-7.1-.38-14.18.26-21.25a124.6,124.6,0,0,1,7.94-33.33A128.54,128.54,0,0,1,282.23,41.19c1.23.31,2.57.75,3.69-.39Z"/><path class="cls-4" d="M374.42,369.8c1.4,1.18,2.66.51,3.89-.32a101.65,101.65,0,0,1,32.22,1.62c.74.76,1,3.41,2.62.66l1.29.35c.86,1.59.69,3.64,2.19,4.95.12.43.25.87.38,1.31-.79.7-.46,1.07.37,1.31.09.44.19.88.28,1.32-.82.69-.45,1.05.35,1.31l.31,1.31c-.75.63-.51,1,.29,1.32l.33,1.32c-.75.83-.77,1.51.4,1.95l.28,1.33c-.74,1.07-1,2,.56,2.6,0,.44.06.89.1,1.34-.75,1-1,2,.52,2.61l.13,1.33c-.74.53-.52.94.16,1.3a6.55,6.55,0,0,1,.48,3.3c-.7,1.17-1.05,2.3.31,3.27a15.51,15.51,0,0,1,.38,5.26,15.69,15.69,0,0,0,0,9.13,13.71,13.71,0,0,1-.5,5.25c-.73.36-.89.78-.15,1.31a4.16,4.16,0,0,1-.38,2.62c-.83.29-1.05.71-.27,1.33l-.22,1.31a8.71,8.71,0,0,0-2.21,6.86l-.36,1c-1.26.24-1.12,1.17-1,2.08a1.35,1.35,0,0,1-.72,1.23c-1.36.11-1.34,1.06-1.25,2.06-7.72,12.49-19.33,16.2-33.22,14.67a83.22,83.22,0,0,1-9-1.47c-7-1.58-14.1-1.29-21.19-.59-2.07.21-4.14.33-6.21.49-2.38-2.64-4,0-5.94.83l-1.93.29c-.68-2.26-2.84-.77-4.19-1.62-1.73-1.09-4.35.65-5,2.92l-2.62.2c-.24-.69-1.34-.83-.69-2.14a7.25,7.25,0,0,1,7.76-4c1.32.2,2.15-.18,2.47-1.46.17-.72-.37-1-1-1-4.47.33-9-.07-13.4.31-6.32.54-12.68.6-19,1.5s-12.83-.14-19.22.71a2.74,2.74,0,0,1-2.91-1.06c6-.28,12-.65,18-.8a257.59,257.59,0,0,0,30.55-2.9,140.27,140.27,0,0,0,43.45-13.85c9.78-5,18.68-11.16,24.23-21.12,4.26-7.64,5.8-15.89,6.15-24.53.09-2.08-.61-2.88-2.25-3.2-5.67-1.12-11.32-2.38-17.11-2.74a105.76,105.76,0,0,0-34.49,3.64c-8.51,2.31-17.07,4.59-25.88,5.58-.22-1-1.62-.29-1.93-1.41,2.43.27,4.54-.72,6.74-1.1,3.42-.59,5.65-4.39,9.64-3-4.56-2.09-10.54,1.57-13.81-4.17.69-.5,1.71-.14,2.66-.24,1.32,1.08,8.66,1.92,9.84,1.08a1.21,1.21,0,0,0,.46-.76.68.68,0,0,0-.76-.82c-3.16.88-6.5-1.91-9.55.51a3.39,3.39,0,0,1,.68-3.66l2-.3c.75.94,1.11.53,1.31-.38l1.34-.19c.79.88,1.11.41,1.29-.44l1.34-.22c.64.85,1,.52,1.3-.28l1.34-.32c2.05.82,4,1,5.22-1.3l3.28-.8c1.39.86,2.4.24,3.3-.84a28.45,28.45,0,0,1,7.23-1.72c.9.88,1.57.78,1.94-.48l2-.24c2.34,1.15,4.06-.44,5.94-1.33l6.53-.72c.65.95,1.05.66,1.33-.26Zm-49,82,.5-.25c-.16-.1-.31-.26-.47-.27s-.32.14-.49.23Z"/><path class="cls-4" d="M119.6,369.29c1.56,2.22,3.43,1.07,5.25.49l9.85,1.47a2,2,0,0,0,2.2.4l1.73.12c.66,1.06,1.38,1.88,2.63.69l2,.37c.27.81.64,1.17,1.31.32a14.34,14.34,0,0,1,4.61,1c.26.8.65,1.11,1.3.31l6.68,1.73.24.17h.3a13.23,13.23,0,0,1,4.58,1.09c.15.79-2.12,1.44-.29,2.25,3.59,1.58,1.9,3-.2,4.38a8.65,8.65,0,0,0,2.69,2.08c2.62,1.38,3.55,5.43,7.44,4.73.15,0,.39.4.58.62l-1.58,1c-.7,0-1.48.44-2-.36s-1.22-.68-1.94-.67c-2.05-1-4.11-2.3-6.45-1.88a12.09,12.09,0,0,1-5.64-.51c-10.59-2.91-21.31-4.94-32.36-4.95-6.5,0-12.82,1.07-19.17,2.16-5.64,1-5.65.92-5.41,6.66,0,.44,0,.88.06,1.31,1.32,17.91,10.37,30.79,25.7,39.62,4.12,2.37,8.56,4,12.84,5.95,15.12,7,31.43,8.87,47.45,12.11a1.3,1.3,0,0,1-1.57,1.25c-2.39-.13-4.76.2-7.17-.33-2.23-.5-4.64-.92-6.79.83.91,1.26,3.62.69,2.81,2.67-.55,1.33-2.16,2.07-4.09,1.58-1.1-.27-2.94-1-3.5,1.16l-3.24-.39c-.31-.8-.75-1-1.36-.26l-2.62-.22c-2.65-2.41-3.16-2.48-4-.53l-1.3-.08c-.89-1.53-2.07-1.09-3.28-.48l-2-.09c-.05-.43-.12-.91-.64-.93s-.63.44-.68.87l-2.6-.15c-2.14-1.45-6.55-1.43-8.58,0l-2,.18c-1.07-.78-2-1-2.61.53l-1.32.16c-.91-.89-1.59-.83-2,.47l-2,.24c-.86-.92-1.54-.91-2,.38l-2,.25c-1-.81-2-1.11-2.63.38a34.05,34.05,0,0,1-8.5,0c-.62-1.68-1.6-1.17-2.62-.43l-1.33-.15a43.39,43.39,0,0,0-10.08-4.31,1.17,1.17,0,0,1-1.13-.7c0-1-.58-1.39-1.54-1.25-8.21-6.44-12-15.29-13.42-25.28-2.39-17.15.26-33.86,5-50.34.77-.27,1.1-.65.33-1.31l.76-2.65a1,1,0,0,0,1.11-.91l1.23-.46c1.36-.23,3,.84,4-1l2-.28c.58.81,1,.58,1.32-.21a7.73,7.73,0,0,1,3.92-.49c.79.9,1.47.89,2-.26a32.51,32.51,0,0,1,8.53-.35,9.18,9.18,0,0,0,7.18,0Zm38.27,17.39a5.58,5.58,0,0,1,.63-.8c1.52-1.28.47-3,.82-4.49-.4-.07-.89-.33-1.17-.18-1.64.85-1,2.44-1.08,3.77A1.54,1.54,0,0,0,157.87,386.68Zm8.43,69.48c-.84-1.08-1.43-1.51-2.6-1.3C164.27,456,164.89,456.25,166.3,456.16Z"/><path class="cls-2" d="M163.61,459.1c.56-2.16,2.4-1.43,3.5-1.16,1.93.49,3.54-.25,4.09-1.58.81-2-1.9-1.41-2.81-2.67,2.15-1.75,4.56-1.33,6.79-.83,2.41.53,4.78.2,7.17.33a1.3,1.3,0,0,0,1.57-1.25c1.24-1,2.69-.74,4.09-.63,10,.79,20,2.12,30.11,2,11.65-.15,23.31.46,35,.05,4.88-.17,9.81.78,14.7.31a77.27,77.27,0,0,1,12.07-.24,2.74,2.74,0,0,0,2.91,1.06c6.39-.85,12.88.21,19.22-.71s12.67-1,19-1.5c4.39-.38,8.93,0,13.4-.31.59,0,1.13.24,1,1-.32,1.28-1.15,1.66-2.47,1.46a7.25,7.25,0,0,0-7.76,4c-.65,1.31.45,1.45.69,2.14-7.17,1.51-14.5,1.77-21.76,2.54-2.7.29-5.61,1.19-8.1.55-5.05-1.32-9.62,1.31-14.54.92a119.86,119.86,0,0,0-15.39.19c-9.84.49-19.68.29-29.51.17-10.16-.12-20.31-.62-30.45-1.15-13.69-.73-27.31-2.25-40.89-4.14A12.61,12.61,0,0,1,163.61,459.1Z"/><path class="cls-2" d="M328.43,460.28c.67-2.27,3.29-4,5-2.92,1.35.85,3.51-.64,4.19,1.62Z"/><path class="cls-2" d="M94.42,454.63a43.39,43.39,0,0,1,10.08,4.31C100.8,458.31,97.31,457.18,94.42,454.63Z"/><path class="cls-2" d="M422.27,419.68a15.69,15.69,0,0,1,0-9.13A34.88,34.88,0,0,1,422.27,419.68Z"/><path class="cls-2" d="M133.37,456.88c2-1.47,6.44-1.49,8.58,0Z"/><path class="cls-2" d="M339.57,458.69c1.91-.8,3.56-3.47,5.94-.83C343.61,458.7,341.56,458.5,339.57,458.69Z"/><path class="cls-2" d="M418.54,438.36a8.71,8.71,0,0,1,2.21-6.86A18.25,18.25,0,0,1,418.54,438.36Z"/><path class="cls-2" d="M152.43,457.7c.8-1.95,1.31-1.88,4,.53Z"/><path class="cls-2" d="M416.63,377.06c-1.5-1.31-1.33-3.36-2.19-4.95C416.61,373.12,416.17,375.29,416.63,377.06Z"/><path class="cls-2" d="M421.88,405.29c-1.36-1-1-2.1-.31-3.27A6.73,6.73,0,0,1,421.88,405.29Z"/><path class="cls-2" d="M147.85,457.14c1.21-.61,2.39-1.05,3.28.48A5.55,5.55,0,0,1,147.85,457.14Z"/><path class="cls-2" d="M117,459.47c.68-1.49,1.62-1.19,2.63-.38A4.41,4.41,0,0,1,117,459.47Z"/><path class="cls-2" d="M105.83,459.09c1-.74,2-1.25,2.62.43A3.45,3.45,0,0,1,105.83,459.09Z"/><path class="cls-2" d="M128.78,457.59c.59-1.54,1.54-1.31,2.61-.53A4.05,4.05,0,0,1,128.78,457.59Z"/><path class="cls-2" d="M420.8,396.09c-1.52-.6-1.27-1.56-.52-2.61A3.9,3.9,0,0,1,420.8,396.09Z"/><path class="cls-2" d="M420.18,392.14c-1.58-.57-1.3-1.53-.56-2.6C419.8,390.41,420,391.27,420.18,392.14Z"/><path class="cls-2" d="M121.55,458.84c.44-1.29,1.12-1.3,2-.38A2.09,2.09,0,0,1,121.55,458.84Z"/><path class="cls-2" d="M125.5,458.22c.37-1.3,1-1.36,2-.47A2.36,2.36,0,0,1,125.5,458.22Z"/><path class="cls-2" d="M419.34,388.21c-1.17-.44-1.15-1.12-.4-1.95C419.07,386.91,419.2,387.56,419.34,388.21Z"/><path class="cls-2" d="M415.18,444.76c-.09-1-.11-1.95,1.25-2.06A2.49,2.49,0,0,1,415.18,444.76Z"/><path class="cls-2" d="M417.15,441.47c-.09-.91-.23-1.84,1-2.08A3,3,0,0,1,417.15,441.47Z"/><path class="cls-2" d="M85.48,372.19a1,1,0,0,1-1.11.91A.87.87,0,0,1,85.48,372.19Z"/><path class="cls-2" d="M83.61,375.75c.77.66.44,1-.33,1.31Z"/><path class="cls-2" d="M421.09,398.72c-.68-.36-.9-.77-.16-1.3C421,397.85,421,398.29,421.09,398.72Z"/><path class="cls-2" d="M159,458.45c.61-.74,1.05-.54,1.36.26A1.06,1.06,0,0,1,159,458.45Z"/><path class="cls-2" d="M417.38,379.68c-.83-.24-1.16-.61-.37-1.31Z"/><path class="cls-2" d="M421.62,426.24c-.74-.53-.58-.95.15-1.31Z"/><path class="cls-2" d="M421,430.19c-.78-.62-.56-1,.27-1.33Z"/><path class="cls-2" d="M418.61,384.94c-.8-.28-1-.69-.29-1.32C418.42,384.06,418.51,384.5,418.61,384.94Z"/><path class="cls-2" d="M144.55,457c0-.43.15-.89.68-.87s.59.5.64.93Z"/><path class="cls-2" d="M418,382.31c-.8-.26-1.17-.62-.35-1.31C417.78,381.43,417.89,381.87,418,382.31Z"/><path class="cls-2" d="M91.75,452.68c1-.14,1.51.23,1.54,1.25A2.19,2.19,0,0,1,91.75,452.68Z"/><polygon class="cls-2" points="124.1 258.54 124.39 258.5 124.11 258.42 124.1 258.54"/><path class="cls-5" d="M143.21,372.83l-2-.37c-1.21-.75-2.52-1.07-.17-2.52,4.3-2.67,5-7.17,4.67-11.84-.34-4.32-2.09-7.79-6.5-9.35a15.55,15.55,0,0,1-1.69-.81c.12-1.2,1.09-1,1.73-1.32,2.78-1.25,4.15-3.43,3.28-6.33-.76-2.59.39-2.82,2.41-3.05,2.73-.31,5.64.1,7.78-2.56,2.93-3.63,5.55-7.33,6.2-12.07.35-2.62-.24-4.22-3.32-2.93a1.72,1.72,0,0,1-2.31-.6c-.81-1.3.68-1.34,1.22-1.73,3.16-2.35,4.93-5.81,7.24-8.84.32-.43.73-.88.26-1.43s-1.12-.3-1.66.14c-1.65,1.36-3.58,1.5-6.34,1.18,5.06-2.8,7.14-7.37,9.5-11.72.34-.61,1.17-1.19.3-2s-1.42-.54-2.34-.1c-4.55,2.16-10,1.86-14.38,6.19.25-2.59,1.53-2.73,2.39-3.19a39,39,0,0,1,5.63-2.65c5.6-1.91,8.66-6,10.35-11.4a46.75,46.75,0,0,1,2.17-5.12c.23-.52.49-1-.05-1.45a.85.85,0,0,0-1.38.21c-1.44,2.22-3.88,2.72-6.1,3.57a14.12,14.12,0,0,0-8.82,8.66,12.91,12.91,0,0,1-4.13,5.79c-.38.31-.66,1-1.32.61-1-.54,0-1.08.06-1.61a26.25,26.25,0,0,0,.51-3.24c-.07-5.89,3.8-8.72,8.48-10.71,7.18-3.06,12.27-7.51,12.15-16.07a11.87,11.87,0,0,1,.87-3.47c.18-.57.31-1-.32-1.37s-1.06,0-1.35.48c-2.08,3.17-5.63,4.28-8.58,6.21l-.15-.23c4.32-4,5.68-9.14,6.09-14.74a15.37,15.37,0,0,1,1-3.76c.19-.58.32-1.09-.21-1.45a.9.9,0,0,0-1.37.42c-1.72,3.45-5.26,5.21-7.52,8.16-1.69,2.22-3.06,4.51-3.28,7.37a5.13,5.13,0,0,1-.53,1.88c-.8,1.6-2,3.6-3.68,3.21s-.8-2.63-.81-4.06a11.57,11.57,0,0,1,5.46-10.17c5-3.43,7.64-8,6.49-14.31a9.47,9.47,0,0,1,.23-5.19c.24-.61.51-1.31-.25-1.73s-1.2.27-1.47.83c-1.24,2.62-3.37,4.57-5.13,6.79a16.72,16.72,0,0,0-3.67,11c0,1,0,2.66-1.22,2.66s-.76-1.63-1.06-2.57c-2.4-7.46,2.74-11.33,7.38-15.22a10.35,10.35,0,0,0,3.82-9.51,19.54,19.54,0,0,1,1.57-10.48c1.71-3.63,1.23-7.74.09-11.58a3,3,0,0,1,.6-3.43c4.07-4.73,3.34-9.61-1.91-13.24-1.23-.85-1-1.78-1-2.82V166c.23,0,0-.07-.14,0-1.09.83-1.54,3.14-2.94,2.64-1.81-.63-1.07-2.85-1-4.37,1.4-38.79,19.21-67.6,53.53-85.55,33.39-17.46,75.91-12.26,104.68,12.11,23.95,20.31,35.47,46.3,34.77,77.7,0,.51-.08,1-.12,1.57-1.65-.11-1.86-2.91-3.39-2-1.26.76-.5,2.62-.46,4,.14,4.37.26,8.74.48,13.11a2.78,2.78,0,0,1-1.47,2.92c-4.59,2.93-5.3,7.59-1.78,12a3.52,3.52,0,0,1,.8,3.78,10.73,10.73,0,0,0-.52,6.47c1.4,4.61-.42,8.83-1,13.2-.64,4.93-1.93,5.92-6.71,4.8-2.59-.61-3.15,0-2.68,2.43.53,2.78.78,5.63,1.39,8.39.31,1.38.11,2.14-1.25,2.41-1.86.37-1.59,1.43-.94,2.65a3.59,3.59,0,0,0,.87,1.37c4.79,3,5.59,8.55,8.15,13,1.32,2.27.33,3.21-1.77,3.67a11.38,11.38,0,0,0-5.39,2.23c-2.21,1.91-3.11,4.19-2,7a6.94,6.94,0,0,1,.5,3.19c-.18,1.86-.31,3.37-2.85,1.94-1.3-.74-2.18-.3-2.19,1.53,0,3.67-.43,7.37,2.08,10.5,1.48,1.85-.16,3-.92,4.34-2.85,4.86-2.88,4.84,2.41,6,.85.19,1.69.44,2.54.67,2.32.65,4.07,1.34,2.12,4.36a6.28,6.28,0,0,0,.14,6.61c1,1.63.64,2.56-.64,3.84-3.12,3.14-2.92,4.35,1.18,6.12,2.24,1,2.54,2,1.89,4.2-1.24,4.16-.78,5,3.62,4.79,3.82-.19,6.42.84,8.21,4.15,1.9,3.53,5.44,3.17,8.64,3.47,1.93.17,2.87.54,2.3,2.93-.86,3.63-.39,4.06,5.07,7.6a6.19,6.19,0,0,1-1.37.83c-8.78,2.51-9.59,15.8-2.66,21.18,1,.75,2.18,1.18.92,2.62l-2,.24a2.17,2.17,0,0,0-1.94.48,28.45,28.45,0,0,0-7.23,1.72,4.84,4.84,0,0,0-3.3.84l-3.28.8a12.31,12.31,0,0,0-5.22,1.3l-1.34.32a1.16,1.16,0,0,0-1.3.28l-1.34.22a1.1,1.1,0,0,0-1.29.44l-1.34.19a1.13,1.13,0,0,0-1.31.38l-2,.3c-.54.08-1.08.12-1.6.23a284.94,284.94,0,0,1-42.11,6.13c-16.61,1-33.22,1-49.84.69a262.27,262.27,0,0,1-42.42-3.93c-9.45-1.72-18.86-3.72-28.28-5.59a13.23,13.23,0,0,0-4.58-1.09c-.11-.27-.27-.41-.54-.16l-6.68-1.73a1.14,1.14,0,0,0-1.3-.31,14.34,14.34,0,0,0-4.61-1A1.18,1.18,0,0,0,143.21,372.83ZM259.09,298.3c10.49-.77,20.6-1.56,30.73-2.24,2.35-.16,3.27-.54,2.32-3.27-2.6-7.42-4.73-15-7.29-22.44-.89-2.62-.68-3.89,2.11-5.08,9.25-3.94,18.31-8.33,27.55-12.3,2.54-1.09,3.65-2.41,3.84-5.18.81-11.57,1.84-23.11,2.78-34.66.48-6,.92-12,1.42-18.35-5.14,1.71-9.68,3.86-14.29,5.88a5.36,5.36,0,0,0-3.42,4.25c-1.49,6.84-3.19,13.63-4.64,20.47a5.48,5.48,0,0,1-3.49,4.22c-12.61,5.81-25.17,11.73-37.74,17.62-4.66,2.18-4.67,2.17-5.05-3.13a37.44,37.44,0,0,0-.31-4.24c-.54-3,.44-4.66,3.31-6,12.7-6.13,22.22-15.07,24.84-29.69.43-2.39,2-2.52,3.9-2.24a31,31,0,0,0,12.68-.63c8.94-2.42,15.65-8.39,22.8-13.79,4.44-3.35,5.77-6.83,4.75-12.44-2.57-14.06-7.46-26.32-20.9-33.41-2-1.07-2.14-2.45-1.18-4.32a31.38,31.38,0,0,0,3-9c1.54-8.8-1.07-16.91-4.1-24.92-4.54-12-4.63-11.85-17.42-13.25-12.36-1.36-23.52,1-32.77,9.82-1.69,1.62-3,1.52-4.67-.1a30.61,30.61,0,0,0-14.67-8.27c-7.35-1.74-14.77-1.06-22.2-1-5.91,0-10,1.73-11.75,7.77a54.2,54.2,0,0,1-2.92,6.59c-4.68,10.58-5,21.19,0,31.73,1.18,2.49.48,3.73-1.8,4.88a29.31,29.31,0,0,0-12.29,11.5c-4,6.78-5.76,14.33-7.94,21.79-1.42,4.84-.31,7.93,3.26,11.42,10.45,10.25,21.9,17.44,37.32,15.32,2-.28,2.92.8,3.23,2.76a30,30,0,0,0,6.75,15.06c3.79,4.46,8.09,8.59,13.29,11.06,7,3.31,9.42,7.89,7.74,15.43-.62,2.8-.77,3.51-3.53,2.19q-20-9.54-40.08-18.79a4.49,4.49,0,0,1-2.78-3.6c-1.53-7.15-3.37-14.25-4.92-21.4A4.07,4.07,0,0,0,192,201c-3.84-1.6-7.62-3.32-11.42-5-3.41-1.5-3.47-1.49-3.19,2.12,1.32,16.64,2.73,33.26,3.94,49.9.18,2.39.94,3.67,3.16,4.63,9.51,4.15,18.93,8.53,28.42,12.72,2.14.95,2.91,1.82,2,4.38-2.65,7.63-4.87,15.41-7.35,23.1-.58,1.79-.69,2.75,1.54,3.53s4.27-.11,6.37,0c8.39.57,16.77,1.22,25.2,1.84-2.31,7.36-2.91,6.11-.35,13.53a9.14,9.14,0,0,1-3.57-.16c-13.24-1.44-26.4-1.36-39.47,1.7a7.6,7.6,0,0,0-5.74,4.58C184.85,332,178.76,346.43,173,361c-.66,1.66-1.66,3.26-1.71,5.41,1.16-.31,2.08-.57,3-.81,14.22-3.79,28.6-6.52,43.41-5.59,7.61.48,15.82,1.35,20.37,8,3.41,5,7.19,5.26,12,5,2.08-.11,4.16-.05,6.24,0a2.49,2.49,0,0,0,2.64-1.43c3.13-6.22,8.7-9,15.12-10.4,9.44-2.13,18.92-1.48,28.39-.28a202.73,202.73,0,0,1,26.16,5.49,11.53,11.53,0,0,0-.3-1.49c-6.34-16.19-13-32.23-20.52-47.91a5.6,5.6,0,0,0-4-3.34A105.53,105.53,0,0,0,270.9,311c-3.94.3-7.88.62-12.14,1C262.37,307.33,261.55,303,259.09,298.3Z"/><path class="cls-6" d="M146.24,180.08a56.92,56.92,0,0,0-4.78-5.46c-1.44-1.3-1.88-4.41-4.92-3.21.05-6.35-.12-12.74.72-19.1,5.38-40.44,26.19-70.39,62.5-88.61C243.87,41.58,295.22,50.43,330,85.45c22.45,22.58,33.12,50.19,32.89,82a5.53,5.53,0,0,1-2.18,4.86c-2.66,2.18-4.66,5.17-7,7.93-3.26-3.62-5.9-6.83-5.69-12.46,1.61-43.71-25.94-81.18-64.47-95.18C224,51,159.83,90.09,151.91,152.89c-.63,5-1.32,10.1-.54,15C152.21,173.28,149.35,176.51,146.24,180.08Z"/><path class="cls-6" d="M350.18,309.85a27.77,27.77,0,0,0-8-9c-.59-.44-1.21-1.12-2-.78-1.06.44-.27,1.28-.32,2-.15,2.39-.42,4.77-.6,7.16-.17,2.14-2.19,1.38-3.28,2.05s-1.66-.58-2.09-1.41a5.79,5.79,0,0,1,1.93-7.54c1.11-.82,1.74-1.51,1.38-2.9a3.64,3.64,0,0,1,.05-1.31c.95-7.41,5.74-10,12.33-6.24,2.44,1.39,3.61,1.11,5.42-.81,3.12-3.31,6.87-4,10.09-2.38s4.68,5,4.42,9.16c-.17,2.68-2.23,3.92-3.82,5.44-1,.91-1.4-.62-1.91-1.13-2-2-3.45-2.43-5.57.15C355.9,305.08,353,307.28,350.18,309.85Z"/><path class="cls-6" d="M361.51,285.65c0-1.53.11-2.84,0-4.13-.49-4.81-.75-5.06-5.4-4.4-1.49.22-1.92-.23-2.06-1.61a8.89,8.89,0,0,0-2.66-5.82c-.8-.75-1.54-1.15-2,.53a9.5,9.5,0,0,1-8.2,6.75c-1.16.12-1.51-.73-2.1-1.26A16.19,16.19,0,0,0,332,271.8c-2.43-.56-3-2.56-1.45-4.69a7.18,7.18,0,0,1,6-2.93,2.74,2.74,0,0,0,2.77-1.64c2.35-4,4.21-4.48,8.34-2.2,1.38.76,2.44,1.52,3.28-.55.72-1.76,2.05-2.94,4-2.75a5.62,5.62,0,0,1,5.09,3.55,16.71,16.71,0,0,1,.92,8.69c-.15,1-.33,1.9.83,2.83C367.17,276.43,367.07,281,361.51,285.65Z"/><path class="cls-6" d="M410.53,371.1a101.65,101.65,0,0,0-32.22-1.62c.62-1.51,1.29-3,1.85-4.52,1.17-3.19,1-4.44-.65-7.46,1-1,2.22-.72,3.37-.62,7,.65,13.74,0,19.83-4a11.82,11.82,0,0,1,3.31-1.4c1.9-.52,3.43-.08,4.18,2A26.11,26.11,0,0,1,410.53,371.1Z"/><path class="cls-6" d="M108.46,369.19a32.51,32.51,0,0,0-8.53.35,2,2,0,0,0-2,.26,7.73,7.73,0,0,0-3.92.49,1.17,1.17,0,0,0-1.32.21l-2,.28c-.92,0-1.85.26-2.08-1.29-.78-5.25-1-10.44.83-15.54.81-2.24,2.51-3.49,4.56-2.33a38.57,38.57,0,0,0,27.05,4.76c-3.36,4.47-1.92,8-.08,11.35,1.2,2.2-.66,1.29-1.39,1.56l-4-.1A13.46,13.46,0,0,0,108.46,369.19Z"/><path class="cls-6" d="M133.35,335l-19-2.7a77.14,77.14,0,0,0-14.39-.88c-1.68.08-2.34-.46-2.75-2a28.43,28.43,0,0,1-.57-9.77c.21-2.8,1.67-3.42,4.21-2.85,7.41,1.65,14.23,4.94,21.35,7.4,1.55.53,3.07,1.15,4.6,1.73,2.23.85,4.88,1.15,4,4.83C130.46,332.37,132.47,333.42,133.35,335Z"/><path class="cls-6" d="M367.71,334c.54-1.25,1.5-2.34,1.31-3.18-.82-3.75,1.85-4.15,4.28-5,8.23-2.84,16.14-6.61,24.62-8.75,4.35-1.09,4.95-.66,5.38,3.73a27.42,27.42,0,0,1,.11,3.27c-.2,6.79-.59,7.08-7.3,7.26-7.87.22-15.63,1.51-23.39,2.73C371.11,334.34,369.51,334.72,367.71,334Z"/><path class="cls-6" d="M361.6,242.39c1.36,2.19,1.83,3.89,1.58,5.64-.28,1.94.6,2.24,2.22,2.13a14.27,14.27,0,0,0,6.68-2.38c.89,4.27-1,7-3.57,9.47-.52.5-1.48.94-1,1.82s1.34.37,2.05.17c.94-.25,2.15-.75,2.73.14s-.73,1.63-1.18,2.43a16.81,16.81,0,0,1-6.17,6.19c-1.24.74-2,.58-2-1.1a18.63,18.63,0,0,0-.95-6.45c-2-5.54-8.14-6.95-12.09-2.62-1,1.1-1.6.64-2.46.26a7.75,7.75,0,0,0-5.07-.76c-2.86.68-4.93-.93-5.36-4-.2-1.4.58-1.48,1.52-1.34a41.82,41.82,0,0,1,4.82.93c1.64.44,2.52.28,2.29-1.74s-.72-4.54,1.06-5.38,3.61,1,5.29,2a10.26,10.26,0,0,1,1.78,1.45c1.19,1.17,2.1,1.55,2.76-.52C357.38,246.12,360.52,245.42,361.6,242.39Z"/><path class="cls-6" d="M365.2,326.1c-4.76-.29-8.07,2-10.45,5.95-2.23,3.66-3.95,3.88-6.74.72a22.65,22.65,0,0,1-4.9-8.79c-.58-2-.49-3,2.15-2.58,5,.76,10,1.06,15,1.69a4.91,4.91,0,0,0,5.05-2c3.08-3.83,6.48-7.4,9.7-11.12,1.21-1.4,2.11-1.63,3.11.23,1.44,2.69,3,5.3,4.55,7.95.5.88,1,1.76-.48,2.31-4.92,1.8-9.8,3.68-14.73,5.46A7.91,7.91,0,0,1,365.2,326.1Z"/><path class="cls-6" d="M375.14,354.57c-.06-3.37.88-6.57-2.67-9.13,6.25-.42,10.23-4,14.58-6.84,3.69-2.4,7.49-4.46,12-5,3.67-.43,5.74.81,6.87,4.35a14.71,14.71,0,0,1,.68,3.52c.3,4.78-.23,5.16-4.94,4.87-8.32-.52-15.95,1.81-23,6.06C377.56,353,376.57,353.68,375.14,354.57Z"/><path class="cls-6" d="M135.14,325.9c-2.91.68-4.88-.79-7-1.5-3.31-1.12-6.51-2.52-9.82-3.63-1.75-.58-1.89-1.32-1-2.78,1.27-2,2.33-4.19,3.56-6.25,2.21-3.68,2.27-3.7,5.23-.42s5.89,6.46,8.56,9.9a4.57,4.57,0,0,0,4.75,1.88c5.2-.62,10.43-1,15.62-1.73,1.94-.26,2.27.32,1.87,2a20.34,20.34,0,0,1-6.5,10.77c-2.31,2-4,.24-5.19-1.81C142.9,328.22,139.57,325.83,135.14,325.9Z"/><path class="cls-6" d="M126.82,345.65c-2.83,2.55-2.2,5.69-2,9.07-6.6-4.57-13.48-7.6-21.27-8.3a27.67,27.67,0,0,0-7.82.26c-1.41.28-2-.22-2.2-1.56a13.5,13.5,0,0,1,.76-8c1.17-2.63,3-4.05,6.17-3.57a27.67,27.67,0,0,1,11.19,4.34c2.37,1.55,4.78,3.05,7.06,4.74S124,344.64,126.82,345.65Z"/><path class="cls-6" d="M370.57,243.47c-.3,1.4,0,3.34-2.15,4.11-1.86.68-3.61,1.28-3.5-1.85a5.3,5.3,0,0,0-.54-2.22c-.66-1.45-.83-3.65-2.46-4s-1.49,2.05-2.47,3c-1.39,1.36-2.75,2.77-4,4.23-.44.51-.78.72-1.3.26-2.73-2.39-6.18-3.22-9.5-4.18-3.67-1.06-2.78-3.59-2.13-5.94.41-1.53,1.62-2.8,1.07-4.61-.28-.94.39-1.37,1.32-1.35.76,0,1.53,0,2.29,0,3.42.27,6.63,2.21,10.24-.81,2.21-1.85,6.13,1.33,6.54,4.83.13,1.12-.18,2,1.53,2.19C369.17,237.53,370.64,239.43,370.57,243.47Z"/><path class="cls-6" d="M384,176.39c-.58,2.33-1.12,4.67-1.73,7-1.14,4.38-3.93,5.58-8.13,3.39-2.75-1.44-5.34-1.69-8,.2a4,4,0,0,1-2.15.6c-5.79,0-11.59,0-17.39,0-1.29,0-2.09-.34-2.08-1.81,0-4.42,0-8.84,0-13.59,2.34,2.89,4.75,5.52,6.74,8.44,1.86,2.72,3.1,2.23,4.77-.09,1.4-1.95,3.17-3.62,4.66-5.5.88-1.1,1.45-1,2.22.08,1.67,2.29,3.5,4.48,5.1,6.83,1.19,1.76,2.26,1.74,4,.7,3.81-2.23,7.32-5,11.45-6.67Z"/><path class="cls-6" d="M133.49,201c7.21,0,14.19,0,21.17,0,.72,0,1.45-.12,2.08.58,3.52,3.9,1.82,14.3-3.12,17.33.27-4.62-2.88-8.54-1.88-13.17a1.24,1.24,0,0,0-.55-1c-.6-.33-1.07.11-1.23.65-2,6.94-7.87,12.92-5.13,21a3.88,3.88,0,0,1-.1,1.61,2.47,2.47,0,0,1-.81,1.58C143.46,219,137.67,210.49,133.49,201Z"/><path class="cls-6" d="M355.64,204.9c.42.12,1.64.1,2,.65,1.79,2.75,4.72,1.71,7.11,2.44a1.79,1.79,0,0,0,2.43-.89c1.43-2.35,3-2.84,5.23-.67,2.36,2.33,2.82,4.33.87,6.41s-3.87,4.23-6.4.62c-.36-.52-1.49-.94-1.64-.27-.75,3.24-5.12,2.78-5.86,6-.35,1.56-1.16.13-1.63,0a9,9,0,0,0-9.15,2c-.58.52-.76,1.91-1.8,1.42a4.42,4.42,0,0,1-2.53-2.86,1.79,1.79,0,0,1,.07-1.28c2.69-3.8,3-8.91,6.57-12.18C352.12,205.15,353.63,204.94,355.64,204.9Z"/><path class="cls-6" d="M155.44,171.26c0,4.4,0,8.3,0,12.21,0,1.74-.82,2.13-2.43,2.12-10.8,0-21.61,0-32.42,0-1,0-1.92,0-2.26-1.32-.8-3.14-1.71-6.25-2.72-9.89,4.16,2.6,8,4.69,11.48,7.27,2.47,1.82,3.66.79,5.16-1.07s2.89-3.93,4.6-5.73c1.38-1.44,1.79-.75,2.63.28,1.57,2,3.39,3.73,4.82,5.78,1.68,2.42,2.72,1.82,4.13-.25C150.59,177.55,153,174.58,155.44,171.26Z"/><path class="cls-6" d="M132.88,198.42c3.23-2.82,4.07-6.14,2.05-10.36,7.32,0,14.33-.11,21.34.05,2.77.06,4.67,2.62,4.54,5.42-.18,3.91-1.74,5.64-5.11,5.65H133.21Z"/><path class="cls-6" d="M376.71,218.68c-.47,1.62.89,3.54.76,4.82-.3,3.26-1,6.33.64,9.42.07.14-.45.89-.71.9a7.5,7.5,0,0,0-6.12,3.21c-.21.28-5.46-2.72-5.59-3.21-.48-1.74-1.24-3.55-2.83-4.24-3-1.34-2.57-3.72-2.08-6,.45-2.09-.57-5.12,3-5.64.78-.12,1.15-.95,1.52-1.62.49-.91,1.09-1,1.69-.14,1.84,2.67,3.57,1.24,5.46,0,1.05-.69,1.79-2.68,3-2S376.7,216.89,376.71,218.68Z"/><path class="cls-6" d="M370.06,301.62a8.6,8.6,0,0,1,.06,10.86c-.81,1-1.72,2-2.58,3-5.47,6.34-5.46,6.29-13.72,5.11-1.54-.22-1.59-.92-1.95-2.24-1.77-6.5,3.07-9.52,6.49-13.43,2.16-2.49,3.68-2.92,5.32.31.75,1.47,1.74,1.39,2.8.22S368.86,302.9,370.06,301.62Z"/><path class="cls-6" d="M366.9,199.18c-7.73.29-15.45.62-23.18.86-2.61.08-4.41-2.11-4.58-5.31a4.84,4.84,0,0,1,4.58-5.34c6.76-.11,13.53,0,20.54,0C363.34,193.15,364,196.29,366.9,199.18Z"/><path class="cls-6" d="M335.2,300a27.51,27.51,0,0,0-9.72-3.19c-.43-.65.06-1.08.35-1.44,2.47-3.09,4.17-6,.62-9.68-1.53-1.58-.7-4.17-.67-6.48,2.1.25,2.1,2.8,3.91,3.26,1.23-1.46.92-3.21.77-4.9-.12-1.27-.25-2.74.63-3.54,1-.93,2.19.29,3.27.67,4.58,1.63,4.82,5.61,5.07,9.52.19,2.94.09,5.74-2.05,8.25C335.76,294.36,335.28,296.93,335.2,300Z"/><path class="cls-6" d="M341.76,303.51c4.89,3.68,8.21,7.85,8.36,13.93.05,2-.55,2.89-2.6,2.43a4.78,4.78,0,0,0-.65-.07c-6.72-.7-7.06-.29-5.12,6.24.15.5.28,1,.44,1.6a16.79,16.79,0,0,1-2.05.36c-4.29.22-4.73-.16-3.24-4.2,1-2.77.19-3.66-2.39-4.48-3.65-1.16-3.68-2.12-.61-4.51.35-.27.68-.69,1.06-.75C341,313.15,342,308.88,341.76,303.51Z"/><path class="cls-6" d="M390.54,333.38c-6.13,4.41-11.61,9.67-19,10.84-3.37.53-6.81,3.2-10.48.58-1.35-1-2.48-1.9-2.07-3.67.33-1.44.44-3.19,2.42-3.48Z"/><path class="cls-6" d="M108.52,333.53c7.49.5,14.33,1.85,21.2,2.82,2.6.36,5.18.91,7.79,1.09,2.25.16,3,1.48,3.31,3.34s-.49,3.29-2.37,4.15c-2.47,1.13-4.7.34-7.18-.06C122.65,343.5,115.93,338.55,108.52,333.53Z"/><path class="cls-6" d="M351.17,272.89a9.92,9.92,0,0,1,.68,2.26c-.13,3.84,1.15,5.7,5.25,4,1.22-.51,1.83.25,2,1.39.39,2.78.31,4.88-2.77,6.78-3.36,2.07-6.11,3.66-9.73,1.15-.08-.06-.22,0-.32-.07-1.56-.73-4.17.5-4.76-1.17-.72-2-.19-4.52-.22-6.81a1.73,1.73,0,0,1,1.63-1.75C346.41,278.1,348.93,276.07,351.17,272.89Z"/><path class="cls-6" d="M355.91,359c.06-2.86.81-6.27,4.63-8.11a2.79,2.79,0,0,1,3.94,1c1.53,2.1,2.57,4.57,4.68,6.24a.88.88,0,0,1,.19,1.37c-1.75,2.62-3.3,5.39-5.19,7.9s-3.61,2.31-5.68.1C356.93,365.78,355.93,362.83,355.91,359Z"/><path class="cls-6" d="M144,359.36a12.27,12.27,0,0,1-2.31,7.61c-2.13,2.85-4.19,2.91-6.26,0-1.72-2.38-3.17-4.95-4.82-7.39-.47-.69-.44-1.13.15-1.62,1.8-1.5,2.77-3.62,4.12-5.46,1.9-2.58,3.33-2.8,5.92-.84S143.8,356.64,144,359.36Z"/><path class="cls-6" d="M330.4,243.62c2.91-.54,4-1.55,2.36-4.23a9.93,9.93,0,0,1-.91-3.45c-.87-5-.85-5,4-5.32a10.26,10.26,0,0,0,1.57-.24c.93-.21,1-2.65,2.67-1,1.38,1.33,2.1,3.05,1.42,4.68-1,2.38-.94,4.9-1.61,7.23-.83,2.86-4.06,3.59-6.51,4.73C331.6,246.87,331.44,244.64,330.4,243.62Z"/><path class="cls-6" d="M341.19,220.14l5.08,4.73c1.08,1,1.93,1.32,2.58-.5a5.13,5.13,0,0,1,3.71-3.41c2.2-.48,4.82-1.25,5.75,1.83.73,2.43.92,4.61-2.49,5.92-2.23.85-4,1.64-6.31.65a5.91,5.91,0,0,0-1.94-.25C339.76,228.59,339.75,228.59,341.19,220.14Z"/><path class="cls-6" d="M406.16,348.87c-8.29,5.86-17.51,7.54-27.56,5.82C387.08,349.3,396.12,346.78,406.16,348.87Z"/><path class="cls-6" d="M93.91,348.81c9.8-2,18.83.49,27.49,5.92C111.35,356.18,102.07,355.11,93.91,348.81Z"/><path class="cls-6" d="M123.8,295.84c1,1.68,2.88,1.81,4.5,2.36,4.67,1.57,7.82,4.55,9,9.52-8.06-.27-14.34-5.88-13.48-11.88Z"/><path class="cls-6" d="M139.42,296.38c-6.71-2.07-13.29-4-14.56-12.22C131.35,286.25,137.49,288.63,139.42,296.38Z"/><path class="cls-6" d="M157.63,310.54c-3.19,6-8,8.42-14.12,7.22-1.63-.33-1.87-.44-.68-1.89C146.74,311.11,151.75,309.77,157.63,310.54Z"/><path class="cls-6" d="M366.13,201.77c-.32.56-.88,1.47-1.38,2.4-1.33,2.41-3,2-4.77.58a7.71,7.71,0,0,0-9.17-.62c-1.85,1.06-3.29,2-5.53,1.4-1-.29-2.28.26-3.49.44.09-2.89,1.17-4.34,4.33-4.25C352.75,201.9,359.4,201.77,366.13,201.77Z"/><path class="cls-6" d="M154.42,277.87c.69-6.66,4-11.24,10.51-13.4.17,6.92-4.51,12.76-10.59,13.35Z"/><path class="cls-6" d="M151,294.41c5.71-10.57,6.44-11.3,12.55-12.54C162.6,288.59,159.87,291.39,151,294.41Z"/><path class="cls-6" d="M124.63,358.5c2.71.08,8.09,5.32,7.87,7.77-.09,1.09-.95.75-1.68.62-2.53-.47-4.81-1.7-7.72-.63-2.17.8-1.61-2.11-2-3.26C120.11,359.89,121.44,358.4,124.63,358.5Z"/><path class="cls-6" d="M367.21,366.66a20.57,20.57,0,0,1,4.33-6.66c1.94-1.95,4.48-2.28,6.45-.74,2.22,1.72.78,4.14-.12,6.22-.16.39-.37.87-.91.68C373.72,365,370.58,366.36,367.21,366.66Z"/><path class="cls-5" d="M157.7,266a17.63,17.63,0,0,0-4.64,9.09c-.54,2.94-2.59,4.82-5.09,6.48-.61-8.05-1.36-12.35,9.58-15.8Z"/><path class="cls-6" d="M140.64,224.23c-6.91-4.51-8.91-8.83-7.58-15.9A22.22,22.22,0,0,1,140.64,224.23Z"/><path class="cls-6" d="M355.33,335.26c1.6-3.79,3.85-6.58,7.87-7.37,1.4-.28,3-.38,3.81,1.1.91,1.69-.28,2.89-1.5,3.88C362.61,335.25,359.39,336.51,355.33,335.26Z"/><path class="cls-6" d="M144.53,335.2c-4.19,1.39-7.42,0-10.35-2.51-1.12-1-2.1-2.1-1.32-3.64s2.36-1.43,3.75-1.17C140.74,328.66,143,331.51,144.53,335.2Z"/><path class="cls-6" d="M141.1,285.4c-5.67-1.73-10.66-4.12-12.34-10.58C137.18,276.57,141.08,279.9,141.1,285.4Z"/><path class="cls-6" d="M159.54,298.18c-2.84,6.74-7.51,9.7-13,8.35C148.9,300.67,153.91,299.11,159.54,298.18Z"/><path class="cls-6" d="M364.34,348.4a6.74,6.74,0,0,1,1-.55c2.24-.74,4.67-2.17,6.78-.24,2.27,2.08,1.15,4.87.69,7.41s-1.78,2.59-3.18.83C367.76,353.49,366.13,350.94,364.34,348.4Z"/><path class="cls-6" d="M126.37,351.24c.17-1.88.38-3.71,2.45-4.3,2.26-.66,4.32.19,6.24,1.29.64.36.14.89-.19,1.33q-2.13,2.91-4.18,5.85a3,3,0,0,1-2.34,1.6c-1.28-.07-1.11-1.47-1.38-2.32A24,24,0,0,1,126.37,351.24Z"/><path class="cls-6" d="M151,251.36c-.81-5.93,1.88-10.29,5.89-14.22C158.73,243.39,156.79,248,151,251.36Z"/><path class="cls-6" d="M147,226.54c-1.95-5.63-.35-10.38,2.7-14.91C153,216.87,152.13,221.93,147,226.54Z"/><path class="cls-6" d="M155.55,222.08c1.79,6.45-.77,10.89-5.88,14.33C148.88,230.73,150.42,227,155.55,222.08Z"/><path class="cls-6" d="M129.88,264.14c5.91,1,11,2.54,12.79,9.28C137.09,271.93,132.27,270,129.88,264.14Z"/><path class="cls-6" d="M130.09,242.41a17,17,0,0,1,8,3.11,6.28,6.28,0,0,1,2.74,6.06c-5-1.67-9.73-3.25-10.73-9.24Z"/><path class="cls-6" d="M153.76,264.73c.16-5.67,3-9.75,7.49-13,.75,5.91-3.12,12.94-7.57,13Z"/><path class="cls-6" d="M129.47,233.42c8,1.83,10.79,4.12,10.92,9C135.61,240.78,131.05,239,129.47,233.42Z"/><path class="cls-6" d="M344.07,246.45c-.87,1.21.43,3.87-1.07,4.16-2.07.4-4.52-.28-6.61-1-1.37-.51-2.48-1.86.1-2.87,1.5-.58,2.75-1.78,4.21-2.48C342.7,243.25,344.27,244.27,344.07,246.45Z"/><path class="cls-6" d="M139.07,232.44c-4.88-1.71-9.29-3.54-10.84-8.78C134.79,224.16,139.3,227.79,139.07,232.44Z"/><path class="cls-6" d="M142.3,263.82c-4.17-1-8.27-2.09-10-6.75C138.38,256.36,142.7,259.32,142.3,263.82Z"/><path class="cls-5" d="M138.63,371.77l-1.73-.12c-.63-.72-1.42-.54-2.2-.4l-9.85-1.47c-.34-.52-1.06-1.17-.93-1.54.22-.68,1.14-.83,1.84-.73C130.3,368.14,134.77,369.05,138.63,371.77Z"/><path class="cls-6" d="M134,191.76a29.87,29.87,0,0,0-9-.64c1-2.68,2.77-3.74,5.11-3.61S133.72,189.18,134,191.76Z"/><path class="cls-6" d="M365.86,192.05c.28-2.82,1.54-4.23,3.73-4.52,2.41-.32,4.15.83,5.38,3.4C371.92,191.07,369,190.88,365.86,192.05Z"/><path class="cls-5" d="M374.42,369.8l-1.31.31a1,1,0,0,0-1.33.26l-6.53.72c-.39-1.34.48-1.73,1.51-2,2.09-.52,4.19-1.08,6.3-1.51C375.36,367.13,375.54,368.1,374.42,369.8Z"/><path class="cls-6" d="M141.38,265.92c3.26,1.76,4.75,4.69,4.06,8.66-1.23-2.89-2.19-5.94-4.5-8.18C141.09,266.25,141.23,266.08,141.38,265.92Z"/><path class="cls-6" d="M119,188.11H124c-.5,1.37-.89,2.84-2.32,2.92S119.54,189.8,119,188.11Z"/><path class="cls-5" d="M146.29,231.93c2.17,2.12.88,3.93.54,5.68-.05.26-.37.84-.93.43a1.35,1.35,0,0,1-.72-1.33C145.47,235.26,145.84,233.83,146.29,231.93Z"/><path class="cls-6" d="M145,252.64c-3.09-1.69-1.48-4.73-3.44-6.11C145.59,246.82,144.21,249.92,145,252.64Z"/><path class="cls-5" d="M139.26,320.89c2.34-1.73,2.34-1.73,7.14-.57C144,320.53,141.92,321.25,139.26,320.89Z"/><path class="cls-6" d="M141.2,237.08c3.12,1.33,2.2,4.09,2.05,6.62C142.57,241.49,141.89,239.29,141.2,237.08Z"/><path class="cls-6" d="M372.33,203.43l-4.37-.5c.61-1.16,1.3-2.4,2.47-2.31S372.16,202.07,372.33,203.43Z"/><path class="cls-6" d="M347,207.86c-.75.93-1.46,1.82-2.36,3-.62-1-1.74-1.92-1-3S345.79,207.27,347,207.86Z"/><path class="cls-6" d="M380.88,189.43c-1.81,2.66-1.81,2.66-4,.3C378.15,189.13,379.36,189.36,380.88,189.43Z"/><path class="cls-6" d="M138.91,235.31c.94,0,1.83-.5,2.33.53a1.29,1.29,0,0,1-.13.85A2.14,2.14,0,0,1,138.91,235.31Z"/><path class="cls-6" d="M130,230.13c.43.12.89.5.64.82-.37.47-.92.29-1.23-.28Z"/><path class="cls-6" d="M130,238.71c.3.24.84.52.53.87s-.92.27-1.31-.17Z"/><path class="cls-6" d="M132.81,261.71c.14.26.44.68.39.74a1,1,0,0,1-1.42,0Z"/><path class="cls-6" d="M140.94,266.4l-.78-.82a.77.77,0,0,1,1.22.34C141.23,266.08,141.09,266.25,140.94,266.4Z"/><path class="cls-6" d="M383.49,176c.09-.27.25-.57.55-.32.11.1,0,.5-.06.76Z"/><path class="cls-6" d="M123.82,295.84l-.42.38c-.15-.27-.08-.33.21-.19,0,0,.13-.12.19-.19Z"/><path class="cls-6" d="M154.34,277.82v.42l-.27,0,.34-.33Z"/><path class="cls-6" d="M135.2,222.94l-.09.21-.35-.22.22-.24Z"/><path class="cls-6" d="M130.15,242.34c-.2.26-.37.25-.47-.06,0-.09.06-.21.09-.31l.32.44Z"/><path class="cls-6" d="M153.68,264.68v.43l-.27,0c.11-.12.22-.24.34-.35Z"/><path class="cls-7" d="M279.87,453.42a77.27,77.27,0,0,0-12.07.24c-4.89.47-9.82-.48-14.7-.31-11.67.41-23.33-.2-35-.05-10.12.13-20.08-1.2-30.11-2-1.4-.11-2.85-.35-4.09.63-16-3.24-32.33-5.15-47.45-12.11-4.28-2-8.72-3.58-12.84-5.95-15.33-8.83-24.38-21.71-25.7-39.62,0-.43-.05-.87-.06-1.31-.24-5.74-.23-5.69,5.41-6.66,6.35-1.09,12.67-2.17,19.17-2.16,11,0,21.77,2,32.36,4.95a12.09,12.09,0,0,0,5.64.51c2.34-.42,4.4.88,6.45,1.88.46.77,1.23.62,1.94.67.55.8,1.33.37,2,.36.86.32,1.59,1.14,2.65.68h1.17a179.76,179.76,0,0,0,22.43,4.1c7.77,1.07,15.61,1.51,23.4,2.32,11,1.15,22,1.27,33,1.33,17.13.09,34.15-1.83,51.09-4.22,6-.84,12.1-1.18,17.89-3.2,8.81-1,17.37-3.27,25.88-5.58a105.76,105.76,0,0,1,34.49-3.64c5.79.36,11.44,1.62,17.11,2.74,1.64.32,2.34,1.12,2.25,3.2-.35,8.64-1.89,16.89-6.15,24.53-5.55,10-14.45,16.16-24.23,21.12a140.27,140.27,0,0,1-43.45,13.85,257.59,257.59,0,0,1-30.55,2.9C291.86,452.77,285.87,453.14,279.87,453.42ZM174.69,441.37c5.28.06,10-.46,14.48-2.56,6.38-3,9.89-8.1,10.28-15.1.37-6.77-1.2-12.78-7.49-16.65-9.6-5.9-19.79-5.69-29.9-2.18-8.28,2.88-12.14,9.57-11.68,18.1s5.25,14.6,13.73,17A35.45,35.45,0,0,0,174.69,441.37ZM306.4,427.91c-1.85.11-3.71.28-5.56.29-1.58,0-1.74.66-1.39,2,1,3.83,3,7,6.62,8.47,9.84,3.93,19.86,4.43,29.61-.27,4.06-2,6.58-5.48,6.37-10.27s-3.29-7.43-7.37-9.08a42.6,42.6,0,0,0-6.25-1.93c-3.83-.9-7.69-1.6-11.53-2.46-1.08-.24-2.12-.8-2.22-2.1a2.33,2.33,0,0,1,1.33-2.1c2.23-1.39,7.92-1,9.1,1.3,1.6,3.11,3.93,2.74,6.49,2.58,1.75-.1,3.5-.11,5.24-.18,3.82-.16,4.32-1.05,2.4-4.46a13.08,13.08,0,0,0-2-2.59c-2.32-2.38-5.35-3.33-8.51-3.81-7.32-1.13-14.62-1.32-21.58,1.74-3.61,1.59-6.14,4.29-6.27,8.46s2.33,6.61,5.79,8.36c4.05,2.05,8.44,2.92,12.84,3.74,2.25.43,4.56.71,6.52,2,2.24,1.49,2.25,3.43.14,5-3.45,2.6-10.47,1.39-12.08-2.49-1-2.43-2.35-2.72-4.45-2.48C308.58,427.81,307.49,427.84,306.4,427.91Zm-87.72,3.57v.17c-1.53,0-3.06.08-4.58,0-2.57-.17-3,.94-2.24,3.18,1.74,5,5.39,7.78,10.37,9.05A40.64,40.64,0,0,0,233.28,445c5.77-.17,11.61-.52,16.48-4.38,6.57-5.21,5.91-13.46-1.47-17.42a32.34,32.34,0,0,0-8.7-2.82c-3.53-.75-7.07-1.4-10.58-2.2-1.06-.24-2.2-.83-2.2-2.11s.91-1.88,2-2.35c3.07-1.31,7.78-.21,9.28,2.65.89,1.68,2,1.77,3.44,1.69a22.71,22.71,0,0,1,6.1.1c1.44.31,3.82-.26,4.59-1.31s-.4-3.07-1.3-4.47a9.79,9.79,0,0,0-5-4.06,37.37,37.37,0,0,0-26.57.25c-3.77,1.48-6.37,4.42-6.31,8.75s3,6.82,6.66,8.52c4.32,2,9,2.67,13.58,3.64a12.56,12.56,0,0,1,4.92,1.67c2.19,1.56,2.19,3.53.05,5-3.74,2.63-10.35,1.19-12.21-2.91-.85-1.88-1.92-2.39-3.77-2.11C221.08,431.39,219.87,431.4,218.68,431.48ZM271,425.77h0c0,5.47.09,10.93,0,16.39-.06,2.2.75,2.8,2.82,2.71,3.27-.14,6.56-.15,9.84,0,2.23.11,2.76-.78,2.74-2.86q-.12-16.06,0-32.13c0-2.08-.74-2.65-2.67-2.57a62.49,62.49,0,0,1-9.18,0c-3.18-.35-3.6,1.12-3.53,3.74C271.07,415.93,271,420.85,271,425.77Zm-127.6-12.39a9.83,9.83,0,0,0-10-10.24A10,10,0,0,0,123,413.06a10.18,10.18,0,1,0,20.36.32Zm223.16-10.25a10.14,10.14,0,0,0-10.16,10.25,10.28,10.28,0,0,0,20.55-.21A10.17,10.17,0,0,0,366.53,403.13Z"/><path class="cls-2" d="M322.51,393.5c-5.79,2-11.9,2.36-17.89,3.2-16.94,2.39-34,4.31-51.09,4.22-11-.06-22-.18-33-1.33-7.79-.81-15.63-1.25-23.4-2.32a179.76,179.76,0,0,1-22.43-4.1c-.14-.27-.23-.72-.43-.77-.6-.16-.67.34-.74.78-1.06.46-1.79-.36-2.65-.68l1.58-1c-.19-.22-.43-.64-.58-.62-3.89.7-4.82-3.35-7.44-4.73a8.65,8.65,0,0,1-2.69-2.08c2.1-1.35,3.79-2.8.2-4.38-1.83-.81.44-1.46.29-2.25,9.42,1.87,18.83,3.87,28.28,5.59A262.27,262.27,0,0,0,232.93,387c16.62.31,33.23.29,49.84-.69a284.94,284.94,0,0,0,42.11-6.13c.52-.11,1.06-.15,1.6-.23a3.39,3.39,0,0,0-.68,3.66h0c-.95.1-2-.26-2.66.24,3.27,5.74,9.25,2.08,13.81,4.17-4-1.39-6.22,2.41-9.64,3-2.2.38-4.31,1.37-6.74,1.1C320.89,393.21,322.29,392.51,322.51,393.5Zm-6.15-10.45c-.49,0-.85.16-.92.66s0,1,.56.88c.31-.06.59-.54.77-.89S316.71,383.13,316.36,383.05Z"/><path class="cls-2" d="M325.8,383.59c3.05-2.42,6.39.37,9.55-.51a.68.68,0,0,1,.76.82,1.21,1.21,0,0,1-.46.76c-1.18.84-8.52,0-9.84-1.08Z"/><path class="cls-2" d="M336.37,377.8a12.31,12.31,0,0,1,5.22-1.3C340.33,378.83,338.42,378.62,336.37,377.8Z"/><path class="cls-2" d="M344.87,375.7a4.84,4.84,0,0,1,3.3-.84C347.27,375.94,346.26,376.56,344.87,375.7Z"/><path class="cls-2" d="M355.4,373.14a2.17,2.17,0,0,1,1.94-.48C357,373.92,356.3,374,355.4,373.14Z"/><path class="cls-2" d="M333.73,378.4a1.16,1.16,0,0,1,1.3-.28C334.75,378.92,334.37,379.25,333.73,378.4Z"/><path class="cls-2" d="M331.1,379.06a1.1,1.1,0,0,1,1.29-.44C332.21,379.47,331.89,379.94,331.1,379.06Z"/><path class="cls-2" d="M328.45,379.63a1.13,1.13,0,0,1,1.31-.38C329.56,380.16,329.2,380.57,328.45,379.63Z"/><path class="cls-2" d="M371.78,370.37a1,1,0,0,1,1.33-.26C372.83,371,372.43,371.32,371.78,370.37Z"/><path class="cls-2" d="M325.46,451.83l-.46-.29c.17-.09.33-.23.49-.23s.31.17.47.27Z"/><path class="cls-2" d="M157.87,386.68a1.54,1.54,0,0,1-.8-1.7c.11-1.33-.56-2.92,1.08-3.77.28-.15.77.11,1.17.18-.35,1.48.7,3.21-.82,4.49A5.58,5.58,0,0,0,157.87,386.68Z"/><path class="cls-2" d="M108.46,369.19a13.46,13.46,0,0,1,7.18,0A9.18,9.18,0,0,1,108.46,369.19Z"/><path class="cls-2" d="M166.3,456.16c-1.41.09-2-.2-2.6-1.3C164.87,454.65,165.46,455.08,166.3,456.16Z"/><path class="cls-2" d="M97.94,369.8a2,2,0,0,1,2-.26C99.41,370.69,98.73,370.7,97.94,369.8Z"/><path class="cls-2" d="M149.13,374.17a1.14,1.14,0,0,1,1.3.31C149.78,375.28,149.39,375,149.13,374.17Z"/><path class="cls-2" d="M92.7,370.5a1.17,1.17,0,0,1,1.32-.21C93.7,371.08,93.28,371.31,92.7,370.5Z"/><path class="cls-2" d="M143.21,372.83a1.18,1.18,0,0,1,1.31.32C143.85,374,143.48,373.64,143.21,372.83Z"/><path class="cls-2" d="M168.84,392.14c-.71-.05-1.48.1-1.94-.67C167.62,391.46,168.39,391.34,168.84,392.14Z"/><path class="cls-2" d="M134.7,371.25c.78-.14,1.57-.32,2.2.4A2,2,0,0,1,134.7,371.25Z"/><path class="cls-2" d="M157.11,376.21c.27-.25.43-.11.54.16h-.3Z"/><path class="cls-2" d="M259.09,298.3c2.46,4.69,3.28,9-.33,13.66,4.26-.34,8.2-.66,12.14-1a105.53,105.53,0,0,1,32.89,2.62,5.6,5.6,0,0,1,4,3.34c7.53,15.68,14.18,31.72,20.52,47.91a11.53,11.53,0,0,1,.3,1.49,202.73,202.73,0,0,0-26.16-5.49c-9.47-1.2-18.95-1.85-28.39.28-6.42,1.44-12,4.18-15.12,10.4a2.49,2.49,0,0,1-2.64,1.43c-2.08,0-4.16-.1-6.24,0-4.82.27-8.6,0-12-5-4.55-6.67-12.76-7.54-20.37-8-14.81-.93-29.19,1.8-43.41,5.59-.93.24-1.85.5-3,.81.05-2.15,1.05-3.75,1.71-5.41,5.74-14.54,11.83-28.93,18.5-43.08a7.6,7.6,0,0,1,5.74-4.58c13.07-3.06,26.23-3.14,39.47-1.7a9.14,9.14,0,0,0,3.57.16c-2.56-7.42-2-6.17.35-13.53-8.43-.62-16.81-1.27-25.2-1.84-2.1-.14-4.11.77-6.37,0s-2.12-1.74-1.54-3.53c2.48-7.69,4.7-15.47,7.35-23.1.89-2.56.12-3.43-2-4.38-9.49-4.19-18.91-8.57-28.42-12.72-2.22-1-3-2.24-3.16-4.63-1.21-16.64-2.62-33.26-3.94-49.9-.28-3.61-.22-3.62,3.19-2.12,3.8,1.67,7.58,3.39,11.42,5a4.07,4.07,0,0,1,2.65,3.33c1.55,7.15,3.39,14.25,4.92,21.4a4.49,4.49,0,0,0,2.78,3.6q20.08,9.28,40.08,18.79c2.76,1.32,2.91.61,3.53-2.19,1.68-7.54-.76-12.12-7.74-15.43-5.2-2.47-9.5-6.6-13.29-11.06a30,30,0,0,1-6.75-15.06c-.31-2-1.21-3-3.23-2.76-15.42,2.12-26.87-5.07-37.32-15.32-3.57-3.49-4.68-6.58-3.26-11.42,2.18-7.46,3.95-15,7.94-21.79a29.31,29.31,0,0,1,12.29-11.5c2.28-1.15,3-2.39,1.8-4.88-5-10.54-4.69-21.15,0-31.73a54.2,54.2,0,0,0,2.92-6.59c1.74-6,5.84-7.73,11.75-7.77,7.43-.06,14.85-.74,22.2,1a30.61,30.61,0,0,1,14.67,8.27c1.64,1.62,3,1.72,4.67.1,9.25-8.8,20.41-11.18,32.77-9.82,12.79,1.4,12.88,1.25,17.42,13.25,3,8,5.64,16.12,4.1,24.92a31.38,31.38,0,0,1-3,9c-1,1.87-.84,3.25,1.18,4.32,13.44,7.09,18.33,19.35,20.9,33.41,1,5.61-.31,9.09-4.75,12.44-7.15,5.4-13.86,11.37-22.8,13.79a31,31,0,0,1-12.68.63c-1.92-.28-3.47-.15-3.9,2.24-2.62,14.62-12.14,23.56-24.84,29.69-2.87,1.38-3.85,3.07-3.31,6a37.44,37.44,0,0,1,.31,4.24c.38,5.3.39,5.31,5.05,3.13,12.57-5.89,25.13-11.81,37.74-17.62a5.48,5.48,0,0,0,3.49-4.22c1.45-6.84,3.15-13.63,4.64-20.47a5.36,5.36,0,0,1,3.42-4.25c4.61-2,9.15-4.17,14.29-5.88-.5,6.38-.94,12.37-1.42,18.35-.94,11.55-2,23.09-2.78,34.66-.19,2.77-1.3,4.09-3.84,5.18-9.24,4-18.3,8.36-27.55,12.3-2.79,1.19-3,2.46-2.11,5.08,2.56,7.43,4.69,15,7.29,22.44.95,2.73,0,3.11-2.32,3.27C279.69,296.74,269.58,297.53,259.09,298.3ZM221.77,196.39l25.79-18.46a2.64,2.64,0,0,0,1.44-2.34c-.07-5.65,0-11.29,0-17.22-5.78,1.85-11.25,3.62-16.73,5.36a2.48,2.48,0,0,0-1.61,1.89q-4.75,14.94-9.53,29.87c-.36.41-.65,1-.25,1.36S221.53,196.7,221.77,196.39Zm17.11,99.85c4.27,0,4.15.89,4.34-4.49.1-3.16.4-6.32.56-9.48.47-9.15.79-18.32,1.48-27.46.17-2.38-.25-3.47-2.46-4.48C228.9,244,215.09,237.41,201.2,231a5.64,5.64,0,0,1-3.47-4.29c-1.19-5.43-3.18-10.76-3.72-16.24-.62-6.27-4-9.1-9.5-10.55-1.64-.44-3.41-2.64-4.66-1.58-1.4,1.19-.55,3.75-.32,5.63,1.73,14.29,2.29,28.67,3.61,43,.22,2.37,1,3.49,3,4.37,9.59,4.22,19.11,8.59,28.73,12.75,2.6,1.12,3.3,2.26,2.29,5.13-2.55,7.3-4.7,14.74-7,22.14-.41,1.34-1,2.79,1.48,2.95C220.64,294.88,229.56,295.57,238.88,296.24ZM320,203.63c0-.63,0-1.07,0-1.5.08-4.3,0-4.35-3.8-2.61a39.74,39.74,0,0,1-5.71,2.45,5,5,0,0,0-3.82,4.3c-1.43,6.71-3.08,13.37-4.51,20.08-.41,1.89-.9,3.36-2.9,4.25-5.08,2.24-10,4.77-15.08,7.11q-13.66,6.33-27.38,12.55a3.85,3.85,0,0,0-2.37,4.2c.38,7,.75,13.94,1.15,20.9.34,6,.77,12,1,17.95.1,2.34.94,3.19,3.39,3,8.79-.76,17.6-1.37,26.41-2,3.43-.22,3.83-.63,2.79-3.95-2.3-7.4-4.57-14.81-7-22.17-.67-2.05,0-3,1.77-3.82,8.38-3.73,16.71-7.57,25.09-11.28s7.42-1.83,7.64-10.92c0-.33.05-.66.08-1C317.83,228.63,318.91,216,320,203.63Zm-29.43-3.15c1.52-.16,3-.23,4.55-.49,8.76-1.46,15.55-6.6,22.21-12,7.86-6.34,7.71-6.3,5.9-16.28-2.28-12.64-8.07-22.71-19.73-28.93-1.68-.9-2.83-1-4.38.15q-13.33,9.78-26.8,19.4c-1.43,1-1.62,1.86-1.09,3.46,3,9,5.89,18.05,8.84,27.08C282.48,200.33,282.5,200.33,290.54,200.48Zm-9.12-60.9h16.73c1.31,0,2.45,0,3.22-1.56,2.36-4.64,4.1-9.41,4.06-14.69-.06-7.24-2.35-14-4.95-20.57-3.61-9.2-3.64-9.14-13.4-10.56-12.93-1.88-24.53.59-34.21,10-1.24,1.2-1.78,2.14-1.19,3.91,3.49,10.34,6.93,20.69,10.2,31.1.63,2,1.54,2.5,3.47,2.46C270.7,139.51,276.06,139.58,281.42,139.58ZM219.67,202a29.81,29.81,0,0,0,6.9,16.44c4.4,5.13,9.88,8.9,15.54,12.43,7.59,4.73,7.58,4.59,15.6.4,11.63-6.09,20-14.62,22.34-28.12.31-1.79.11-2.77-1.35-3.81q-13.6-9.72-27.08-19.59c-1.23-.91-2-1.06-3.36-.09-9.06,6.67-18.19,13.25-27.3,19.86C220.19,200.11,219.14,200.5,219.67,202Zm-1.42-62.46c5.57,0,11.15,0,16.73,0a2.44,2.44,0,0,0,2.82-2q5.14-16,10.48-32a3,3,0,0,0-.79-3.51c-3.81-3.71-8-6.72-13.2-8.22-8.72-2.52-17.54-1.61-26.38-1.07-2.81.17-4.56,1.18-5.62,3.89-1.31,3.35-3.09,6.5-4.52,9.8-4.57,10.48-4,20.81.91,31,.72,1.5,1.47,2.11,3.17,2.07C207.31,139.49,212.78,139.56,218.25,139.57ZM209.72,200c1.85-.11,3.7-.27,5.56-.33a2.81,2.81,0,0,0,3-2.25c3.35-10.6,6.83-21.17,10.36-31.71.51-1.5.37-2.28-.95-3.23-9.15-6.52-18.24-13.13-27.32-19.75a3,3,0,0,0-3.56-.3c-5.89,3-10.65,7.14-13.79,13.07a69.88,69.88,0,0,0-5.73,15.62c-2.55,10-2.53,10,5.22,17.08S198.75,200.47,209.72,200ZM249,352.91c0-12.18,0-24,0-35.73,0-1.41-.53-1.83-1.82-2.07-16.84-3.11-33.65-3.79-50.44.3a4.23,4.23,0,0,0-3,2.56c-4.66,9.52-8.85,19.23-12.9,29-.37.9-2.05,1.51-1,2.72s2,0,3-.28c14.54-3.6,29.2-5.33,44.17-3.38A67.5,67.5,0,0,1,249,352.91ZM320,350.08a5.25,5.25,0,0,0-.16-1c-4.22-10.78-8.95-21.33-14-31.73a3.69,3.69,0,0,0-2.81-2c-16.89-4.15-33.8-3.42-50.72-.22-1.06.2-1.49.51-1.49,1.62,0,11.89,0,23.78,0,36C273.66,341.75,296.71,344.44,320,350.08ZM174.18,363.15a8.8,8.8,0,0,0,1.88,0,161.47,161.47,0,0,1,21.2-4.18c9.91-1.27,19.84-1.86,29.68.49,4.84,1.16,10,2.75,12.57,7.05,2.73,4.55,6.22,5,10.59,4.61a38.46,38.46,0,0,1,4.92,0,2.71,2.71,0,0,0,2.89-1.52c2.78-4.93,7.23-7.76,12.52-9.42,8.19-2.57,16.59-2.54,25-1.93a165.5,165.5,0,0,1,27.41,4.68c.71.18,1.53.76,2.14.07s.05-1.44-.23-2.13a47.47,47.47,0,0,1-2.07-5.16c-.65-2.42-2.15-3.45-4.5-4a143.41,143.41,0,0,0-20.93-3.92c-15.9-1.62-31.45-.77-45.85,7.21a2.91,2.91,0,0,1-3.28-.17,50.38,50.38,0,0,0-12.09-5c-19-5.06-37.71-2.6-56.29,2.43a2.53,2.53,0,0,0-1.87,1.64C176.74,356.94,175.48,359.94,174.18,363.15ZM298,141.42c-11.67,0-22.26,0-32.86,0a4.29,4.29,0,0,0-4.09,2c-2.65,3.87-5.45,7.64-8.29,11.38-1,1.34-1,1.88.76,2.37a64.55,64.55,0,0,1,10.56,3.45c3.93,1.87,6.77.87,10-1.62C281.65,153.09,289.49,147.6,298,141.42Zm-95.06,0c.13.55.11.84.23.92q13.08,9.53,26.2,19a2.06,2.06,0,0,0,2.07.51q7.6-2.51,15.25-4.88c1.12-.35,1.43-.86.7-1.84-3.3-4.47-5.92-9.83-10.15-13.09-3-2.33-8.23-.44-12.46-.63-.55,0-1.09,0-1.64,0Zm47-34.89c-3.71,11.33-7.12,21.8-10.55,32.27a2.14,2.14,0,0,0,.09,2.16c3.45,4.7,6.87,9.42,10.43,14.32,3.5-4.77,6.72-9.18,10-13.56a2.88,2.88,0,0,0,.56-3C257,128.28,253.59,117.8,249.93,106.53Zm28.78,89.65a2.28,2.28,0,0,0,.08-.89q-4.8-14.94-9.63-29.89a2.73,2.73,0,0,0-2.1-1.81c-4.67-1.49-9.36-3-14-4.59-1.92-.68-2.18,0-2.15,1.7.08,4.81.1,9.62,0,14.43a3.38,3.38,0,0,0,1.82,3.12c7.8,5.6,15.56,11.27,23.35,16.89C276.83,195.68,277.49,196.55,278.71,196.18Zm-24.13,98.67a2.52,2.52,0,0,0,.21-.7q-1.54-27.76-3.13-55.54c0-.72.4-2-1.2-1.49-.85.3-2.41-.5-2.33,1.4,0,.54-.09,1.09-.12,1.63q-1.06,18.66-2.11,37.32c-.31,5.76-.57,11.53-.88,17.61A12.55,12.55,0,0,1,254.58,294.85Zm.47,15.45a5.26,5.26,0,0,0-5-5.44,5.55,5.55,0,0,0-5.35,4.81c-.21,2.61,1.34,3.87,5,4.08C253,313.93,254.93,312.69,255.05,310.3Zm23.8-113.88c-.07.08-.21.17-.2.22a2.14,2.14,0,0,0,.2.44c.08-.07.22-.16.21-.22A1.76,1.76,0,0,0,278.85,196.42Z"/><path class="cls-6" d="M174.69,441.37A35.45,35.45,0,0,1,164.11,440c-8.48-2.45-13.27-8.43-13.73-17s3.4-15.22,11.68-18.1c10.11-3.51,20.3-3.72,29.9,2.18,6.29,3.87,7.86,9.88,7.49,16.65-.39,7-3.9,12.1-10.28,15.1C184.73,440.91,180,441.43,174.69,441.37Zm10-19.58c.07-6.56-3.65-10.41-10-10.36-6,.05-9.54,3.88-9.69,10.45-.14,6.77,3.57,10.81,9.95,10.82S184.65,429.12,184.71,421.79Z"/><path class="cls-6" d="M306.4,427.91c1.09-.07,2.18-.1,3.26-.23,2.1-.24,3.44.05,4.45,2.48,1.61,3.88,8.63,5.09,12.08,2.49,2.11-1.59,2.1-3.53-.14-5-2-1.3-4.27-1.58-6.52-2-4.4-.82-8.79-1.69-12.84-3.74-3.46-1.75-5.92-4.26-5.79-8.36s2.66-6.87,6.27-8.46c7-3.06,14.26-2.87,21.58-1.74,3.16.48,6.19,1.43,8.51,3.81a13.08,13.08,0,0,1,2,2.59c1.92,3.41,1.42,4.3-2.4,4.46-1.74.07-3.49.08-5.24.18-2.56.16-4.89.53-6.49-2.58-1.18-2.28-6.87-2.69-9.1-1.3a2.33,2.33,0,0,0-1.33,2.1c.1,1.3,1.14,1.86,2.22,2.1,3.84.86,7.7,1.56,11.53,2.46a42.6,42.6,0,0,1,6.25,1.93c4.08,1.65,7.16,4.31,7.37,9.08s-2.31,8.31-6.37,10.27c-9.75,4.7-19.77,4.2-29.61.27-3.62-1.45-5.66-4.64-6.62-8.47-.35-1.36-.19-2,1.39-2C302.69,428.19,304.55,428,306.4,427.91Z"/><path class="cls-6" d="M218.68,431.48c1.19-.08,2.4-.09,3.58-.27,1.85-.28,2.92.23,3.77,2.11,1.86,4.1,8.47,5.54,12.21,2.91,2.14-1.51,2.14-3.48-.05-5a12.56,12.56,0,0,0-4.92-1.67c-4.59-1-9.26-1.65-13.58-3.64-3.69-1.7-6.6-4.14-6.66-8.52s2.54-7.27,6.31-8.75a37.37,37.37,0,0,1,26.57-.25,9.79,9.79,0,0,1,5,4.06c.9,1.4,2.12,3.35,1.3,4.47s-3.15,1.62-4.59,1.31a22.71,22.71,0,0,0-6.1-.1c-1.43.08-2.55,0-3.44-1.69-1.5-2.86-6.21-4-9.28-2.65-1.09.47-2,1.17-2,2.35S228,418,229,418.22c3.51.8,7.05,1.45,10.58,2.2a32.34,32.34,0,0,1,8.7,2.82c7.38,4,8,12.21,1.47,17.42-4.87,3.86-10.71,4.21-16.48,4.38a40.64,40.64,0,0,1-11.06-1.18c-5-1.27-8.63-4-10.37-9.05-.78-2.24-.33-3.35,2.24-3.18,1.52.1,3,0,4.58,0Z"/><path class="cls-6" d="M271,425.77c0-4.92.1-9.84,0-14.75-.07-2.62.35-4.09,3.53-3.74a62.49,62.49,0,0,0,9.18,0c1.93-.08,2.69.49,2.67,2.57q-.13,16.07,0,32.13c0,2.08-.51,3-2.74,2.86-3.28-.16-6.57-.15-9.84,0-2.07.09-2.88-.51-2.82-2.71.13-5.46,0-10.92,0-16.39Z"/><path class="cls-6" d="M143.37,413.38a10.18,10.18,0,1,1-20.36-.32,10,10,0,0,1,10.37-9.92A9.83,9.83,0,0,1,143.37,413.38Z"/><path class="cls-6" d="M366.53,403.13a10.17,10.17,0,0,1,10.39,10,10.28,10.28,0,0,1-20.55.21A10.14,10.14,0,0,1,366.53,403.13Z"/><path class="cls-4" d="M173.52,393.18c.07-.44.14-.94.74-.78.2.05.29.5.43.77Z"/><path class="cls-4" d="M316.36,383.05c.35.08.59.32.41.65s-.46.83-.77.89c-.59.11-.62-.45-.56-.88S315.87,383,316.36,383.05Z"/><path class="cls-7" d="M238.88,296.24c-9.32-.67-18.24-1.36-27.17-1.94-2.44-.16-1.89-1.61-1.48-2.95,2.26-7.4,4.41-14.84,7-22.14,1-2.87.31-4-2.29-5.13-9.62-4.16-19.14-8.53-28.73-12.75-2-.88-2.81-2-3-4.37-1.32-14.32-1.88-28.7-3.61-43-.23-1.88-1.08-4.44.32-5.63,1.25-1.06,3,1.14,4.66,1.58,5.48,1.45,8.88,4.28,9.5,10.55.54,5.48,2.53,10.81,3.72,16.24A5.64,5.64,0,0,0,201.2,231c13.89,6.41,27.7,13,41.6,19.33,2.21,1,2.63,2.1,2.46,4.48-.69,9.14-1,18.31-1.48,27.46-.16,3.16-.46,6.32-.56,9.48C243,297.13,243.15,296.21,238.88,296.24Z"/><path class="cls-7" d="M320,203.63c-1.06,12.4-2.14,25-3.21,37.59,0,.32-.07.65-.08,1-.22,9.09.88,7.16-7.64,10.92S292.33,260.67,284,264.4c-1.81.8-2.44,1.77-1.77,3.82,2.42,7.36,4.69,14.77,7,22.17,1,3.32.64,3.73-2.79,3.95-8.81.58-17.62,1.19-26.41,2-2.45.21-3.29-.64-3.39-3-.26-6-.69-12-1-17.95-.4-7-.77-13.93-1.15-20.9a3.85,3.85,0,0,1,2.37-4.2q13.73-6.21,27.38-12.55c5-2.34,10-4.87,15.08-7.11,2-.89,2.49-2.36,2.9-4.25,1.43-6.71,3.08-13.37,4.51-20.08a5,5,0,0,1,3.82-4.3,39.74,39.74,0,0,0,5.71-2.45c3.79-1.74,3.88-1.69,3.8,2.61C320,202.56,320,203,320,203.63Z"/><path class="cls-6" d="M290.54,200.48c-8-.15-8.06-.15-10.5-7.58-3-9-5.82-18.08-8.84-27.08-.53-1.6-.34-2.44,1.09-3.46q13.48-9.59,26.8-19.4c1.55-1.13,2.7-1.05,4.38-.15,11.66,6.22,17.45,16.29,19.73,28.93,1.81,10,2,9.94-5.9,16.28-6.66,5.37-13.45,10.51-22.21,12C293.59,200.25,292.06,200.32,290.54,200.48Z"/><path class="cls-6" d="M281.42,139.58c-5.36,0-10.72-.07-16.07,0-1.93,0-2.84-.47-3.47-2.46-3.27-10.41-6.71-20.76-10.2-31.1-.59-1.77-.05-2.71,1.19-3.91,9.68-9.36,21.28-11.83,34.21-10,9.76,1.42,9.79,1.36,13.4,10.56,2.6,6.62,4.89,13.33,4.95,20.57,0,5.28-1.7,10-4.06,14.69-.77,1.52-1.91,1.56-3.22,1.56Z"/><path class="cls-6" d="M219.67,202c-.53-1.53.52-1.92,1.29-2.48,9.11-6.61,18.24-13.19,27.3-19.86,1.32-1,2.13-.82,3.36.09q13.49,9.87,27.08,19.59c1.46,1,1.66,2,1.35,3.81-2.32,13.5-10.71,22-22.34,28.12-8,4.19-8,4.33-15.6-.4-5.66-3.53-11.14-7.3-15.54-12.43A29.81,29.81,0,0,1,219.67,202Z"/><path class="cls-6" d="M218.25,139.57c-5.47,0-10.94-.08-16.4,0-1.7,0-2.45-.57-3.17-2.07-4.9-10.23-5.48-20.56-.91-31,1.43-3.3,3.21-6.45,4.52-9.8,1.06-2.71,2.81-3.72,5.62-3.89,8.84-.54,17.66-1.45,26.38,1.07,5.2,1.5,9.39,4.51,13.2,8.22a3,3,0,0,1,.79,3.51q-5.31,16-10.48,32a2.44,2.44,0,0,1-2.82,2C229.4,139.52,223.82,139.57,218.25,139.57Z"/><path class="cls-6" d="M209.72,200c-11,.47-19.45-4.79-27.18-11.8s-7.77-7-5.22-17.08a69.88,69.88,0,0,1,5.73-15.62c3.14-5.93,7.9-10,13.79-13.07a3,3,0,0,1,3.56.3c9.08,6.62,18.17,13.23,27.32,19.75,1.32,1,1.46,1.73.95,3.23-3.53,10.54-7,21.11-10.36,31.71a2.81,2.81,0,0,1-3,2.25C213.42,199.73,211.57,199.89,209.72,200Z"/><path class="cls-6" d="M249,352.91A67.5,67.5,0,0,0,227,346c-15-2-29.63-.22-44.17,3.38-1,.24-2.09,1.34-3,.28s.63-1.82,1-2.72c4.05-9.78,8.24-19.49,12.9-29a4.23,4.23,0,0,1,3-2.56c16.79-4.09,33.6-3.41,50.44-.3,1.29.24,1.83.66,1.82,2.07C248.93,329,249,340.73,249,352.91Z"/><path class="cls-6" d="M320,350.08c-23.33-5.64-46.38-8.33-69.19,2.73,0-12.21,0-24.1,0-36,0-1.11.43-1.42,1.49-1.62,16.92-3.2,33.83-3.93,50.72.22a3.69,3.69,0,0,1,2.81,2c5.08,10.4,9.81,20.95,14,31.73A5.25,5.25,0,0,1,320,350.08Z"/><path class="cls-6" d="M174.18,363.15c1.3-3.21,2.56-6.21,3.71-9.26a2.53,2.53,0,0,1,1.87-1.64c18.58-5,37.27-7.49,56.29-2.43a50.38,50.38,0,0,1,12.09,5,2.91,2.91,0,0,0,3.28.17c14.4-8,30-8.83,45.85-7.21a143.41,143.41,0,0,1,20.93,3.92c2.35.59,3.85,1.62,4.5,4a47.47,47.47,0,0,0,2.07,5.16c.28.69.8,1.47.23,2.13s-1.43.11-2.14-.07a165.5,165.5,0,0,0-27.41-4.68c-8.43-.61-16.83-.64-25,1.93-5.29,1.66-9.74,4.49-12.52,9.42a2.71,2.71,0,0,1-2.89,1.52,38.46,38.46,0,0,0-4.92,0c-4.37.36-7.86-.06-10.59-4.61-2.58-4.3-7.73-5.89-12.57-7.05-9.84-2.35-19.77-1.76-29.68-.49a161.47,161.47,0,0,0-21.2,4.18A8.8,8.8,0,0,1,174.18,363.15Z"/><path class="cls-6" d="M298,141.42c-8.5,6.18-16.34,11.67-23.92,17.5-3.23,2.49-6.07,3.49-10,1.62a64.55,64.55,0,0,0-10.56-3.45c-1.78-.49-1.78-1-.76-2.37,2.84-3.74,5.64-7.51,8.29-11.38a4.29,4.29,0,0,1,4.09-2C275.73,141.45,286.32,141.42,298,141.42Z"/><path class="cls-6" d="M202.93,141.42h20.2c.55,0,1.09,0,1.64,0,4.23.19,9.45-1.7,12.46.63,4.23,3.26,6.85,8.62,10.15,13.09.73,1,.42,1.49-.7,1.84q-7.63,2.39-15.25,4.88a2.06,2.06,0,0,1-2.07-.51q-13.11-9.49-26.2-19C203,142.26,203.06,142,202.93,141.42Z"/><path class="cls-6" d="M249.93,106.53c3.66,11.27,7,21.75,10.5,32.21a2.88,2.88,0,0,1-.56,3c-3.25,4.38-6.47,8.79-10,13.56-3.56-4.9-7-9.62-10.43-14.32a2.14,2.14,0,0,1-.09-2.16C242.81,128.33,246.22,117.86,249.93,106.53Z"/><path class="cls-6" d="M221.1,195.49q4.77-14.93,9.53-29.87a2.48,2.48,0,0,1,1.61-1.89c5.48-1.74,10.95-3.51,16.73-5.36,0,5.93,0,11.57,0,17.22a2.64,2.64,0,0,1-1.44,2.34l-25.79,18.46Z"/><path class="cls-6" d="M278.71,196.18c-1.22.37-1.88-.5-2.63-1-7.79-5.62-15.55-11.29-23.35-16.89a3.38,3.38,0,0,1-1.82-3.12c.12-4.81.1-9.62,0-14.43,0-1.71.23-2.38,2.15-1.7,4.62,1.64,9.31,3.1,14,4.59a2.73,2.73,0,0,1,2.1,1.81q4.81,15,9.63,29.89A2.28,2.28,0,0,1,278.71,196.18Z"/><path class="cls-6" d="M254.58,294.85a12.55,12.55,0,0,0-9.56.23c.31-6.08.57-11.85.88-17.61q1-18.66,2.11-37.32c0-.54.14-1.09.12-1.63-.08-1.9,1.48-1.1,2.33-1.4,1.6-.54,1.16.77,1.2,1.49q1.59,27.76,3.13,55.54A2.52,2.52,0,0,1,254.58,294.85Z"/><path class="cls-5" d="M255.05,310.3c-.12,2.39-2,3.63-5.28,3.45-3.69-.21-5.24-1.47-5-4.08a5.55,5.55,0,0,1,5.35-4.81A5.26,5.26,0,0,1,255.05,310.3Z"/><path class="cls-6" d="M221.77,196.39c-.24.31-.59.79-.92.46s-.11-.95.25-1.36Z"/><path class="cls-6" d="M278.86,196.42a2.14,2.14,0,0,1,.2.44c0,.06-.13.15-.21.22a2.14,2.14,0,0,1-.2-.44S278.78,196.5,278.86,196.42Z"/><path class="cls-7" d="M184.71,421.79c-.06,7.33-3.27,10.92-9.74,10.91s-10.09-4.05-9.95-10.82c.15-6.57,3.7-10.4,9.69-10.45C181.06,411.38,184.78,415.23,184.71,421.79Z"/></g></g></svg>