<?xml version="1.0" encoding="utf-8"?>
<!-- Generator: Adobe Illustrator 24.3.0, SVG Export Plug-In . SVG Version: 6.00 Build 0)  -->
<svg version="1.1" id="Layer_1" xmlns="http://www.w3.org/2000/svg" xmlns:xlink="http://www.w3.org/1999/xlink" x="0px" y="0px"
	 viewBox="0 0 500 500" style="enable-background:new 0 0 500 500;" xml:space="preserve">
<style type="text/css">
	.st0{fill:none;}
	.st1{fill:#FFFFFF;}
	.st2{fill:#272324;}
	.st3{fill:#1E7DBF;}
	.st4{fill:#242123;}
	.st5{fill:#FEFEFC;}
	.st6{fill:#F4A21F;}
</style>
<g>
	<rect class="st0" width="500" height="500"/>
	<g>
		<g>
			<path class="st1" d="M461.7,464.5c-139.1,0-278.2,0-417.2,0c0-140.9,0-281.8,0-422.6c139.1,0,278.2,0,417.2,0
				C461.7,182.7,461.7,323.6,461.7,464.5z M253.4,52.4c-0.7-1.5-0.7-1.5-2-1.1c-16.3,4.4-32.5,9.3-48.3,15.4
				c-18.7,7.1-36.6,15.8-53.3,26.7c-18.4,12-34.7,26.3-49.5,42.4c-8.5,9.3-16.5,19-24.1,29c-7.2,9.5-14,19.3-20.6,29.2
				c-0.4,0.6-0.9,1.2-0.9,2.1c0,2.2-0.2,4.3-0.3,6.5c-0.3,5.3-0.4,10.5-0.5,15.8c-0.1,10.8-0.1,21.7,0.6,32.5
				c0.3,4.5,0.7,9.1,1.1,13.6c0.7,7.1,1.7,14.1,2.9,21.1c2,11.2,4.7,22.2,8.2,33c6.6,20.5,16,39.8,27.2,58.2
				c10.8,17.8,23.1,34.7,36,51c0.5,0.6,1.1,1,1.9,1.3c5.9,2.2,11.7,4.4,17.7,6.5c21.7,7.6,43.8,13.8,66.6,17.2
				c9.9,1.4,19.8,2.3,29.8,2.6c7.4,0.2,14.8,0,22.3-0.5c5.5-0.4,11-0.9,16.4-1.6c12.6-1.6,25-4.1,37.3-7.3
				c18-4.6,35.7-10.4,53.1-16.9c0.9-0.3,1.5-0.8,2.1-1.6c6.7-8.2,13.2-16.6,19.4-25.2c12.3-17,23.3-34.7,32-53.7
				c7.4-16,13-32.7,16.8-49.9c3-13.3,4.8-26.7,6-40.2c0.5-6,0.8-11.9,1.1-17.9c0.2-5,0.1-9.9,0.3-14.9c0.1-3.2,0-6.3-0.1-9.5
				c-0.2-5.4-0.2-10.9-0.3-16.3c-0.1-3.1-0.7-5.7-2.5-8.3c-12.4-18.8-25.6-37-40.7-53.8c-8.1-9-16.8-17.4-26.1-25.2
				c-17.7-14.9-37.3-26.8-58.2-36.5c-22.4-10.3-45.8-18-69.5-24.8C254.2,51,253.6,51.1,253.4,52.4z"/>
			<path class="st2" d="M253.4,52.4c0.2-1.4,0.9-1.4,1.7-1.2c23.7,6.7,47.1,14.4,69.5,24.8c21,9.7,40.5,21.6,58.2,36.5
				c9.3,7.8,17.9,16.2,26.1,25.2c15.2,16.7,28.3,34.9,40.7,53.8c1.7,2.6,2.4,5.2,2.5,8.3c0.1,5.4,0.2,10.9,0.3,16.3
				c0.1,3.2,0.2,6.4,0.1,9.5c-0.2,5,0,9.9-0.3,14.9c-0.3,6-0.6,11.9-1.1,17.9c-1.2,13.5-3,26.9-6,40.2c-3.8,17.2-9.4,33.9-16.8,49.9
				c-8.8,19-19.8,36.8-32,53.7c-6.2,8.6-12.7,17-19.4,25.2c-0.6,0.7-1.2,1.2-2.1,1.6c-17.4,6.4-35.1,12.3-53.1,16.9
				c-12.3,3.1-24.7,5.6-37.3,7.3c-5.5,0.7-10.9,1.2-16.4,1.6c-7.4,0.5-14.8,0.7-22.3,0.5c-10-0.2-19.9-1.1-29.8-2.6
				c-22.8-3.3-44.9-9.6-66.6-17.2c-5.9-2.1-11.8-4.3-17.7-6.5c-0.7-0.3-1.4-0.7-1.9-1.3c-12.9-16.4-25.2-33.2-36-51
				c-11.2-18.4-20.6-37.7-27.2-58.2c-3.5-10.8-6.2-21.8-8.2-33c-1.2-7-2.2-14-2.9-21.1c-0.4-4.5-0.8-9-1.1-13.6
				c-0.7-10.8-0.8-21.7-0.6-32.5c0.1-5.3,0.2-10.5,0.5-15.8c0.1-2.1,0.3-4.3,0.3-6.5c0-0.9,0.4-1.5,0.9-2.1
				c6.6-9.9,13.4-19.7,20.6-29.2c7.6-10,15.6-19.7,24.1-29c14.8-16.1,31.2-30.4,49.5-42.4c16.8-10.9,34.7-19.5,53.3-26.7
				c15.8-6.1,32-11,48.3-15.4C252.7,51,252.7,51,253.4,52.4z M57.5,226.1c0,5.9-0.1,11.7,0.2,17.6c0.3,4.2,0.4,8.5,0.7,12.7
				c0.3,3.8,0.7,7.6,1.1,11.4c0.7,6.6,1.7,13.1,2.9,19.7c2,10.7,4.7,21.2,8.1,31.6c2.1,6.4,4.5,12.6,7.1,18.8
				c4.5,10.6,9.8,20.9,15.6,30.9c5.3,9.2,11,18.1,17.1,26.8c6.8,9.8,13.9,19.3,21.3,28.7c0.9,1.1,1.9,1.7,3.1,2.2
				c9.9,3.7,19.8,7.3,29.8,10.4c9.4,3,18.8,5.6,28.4,7.8c10.5,2.4,21.1,4.3,31.8,5.5c5.1,0.6,10.1,1.1,15.2,1.3
				c5.4,0.2,10.8,0.4,16.2,0.2c7.7-0.2,15.4-0.7,23.1-1.5c7-0.8,13.9-1.8,20.7-3.1c16.3-3.1,32.3-7.4,48.1-12.5
				c8.1-2.6,16.1-5.4,24.1-8.3c1.1-0.4,2.2-0.9,3-1.9c3.6-4.7,7.3-9.3,10.9-14c7.3-9.5,14.2-19.3,20.6-29.4
				c7-11.1,13.4-22.5,18.9-34.5c4.8-10.6,8.9-21.4,12.2-32.6c3.2-10.8,5.5-21.9,7.3-33c1.4-9,2.3-18,3.1-27
				c0.4-4.2,0.6-8.5,0.7-12.7c0.2-5.2,0.1-10.4,0.3-15.6c0.2-3.2,0-6.5-0.1-9.7c-0.3-6-0.1-12-0.4-18c-0.1-1.2-0.3-2.3-1-3.3
				c-4.2-6.4-8.5-12.8-12.9-19c-9.4-13.3-19.5-26.1-30.6-38c-6.2-6.6-12.6-13-19.4-18.9c-7.2-6.3-14.8-12.2-22.7-17.6
				c-14.4-9.8-29.7-18-45.6-24.9c-12.2-5.3-24.8-9.9-37.5-14c-7.8-2.5-15.7-4.9-23.7-7.2c-1.3-0.4-2.4-0.4-3.7,0
				c-2.6,0.8-5.3,1.5-8,2.2c-16.5,4.7-32.8,10-48.7,16.6c-17.4,7.2-33.9,16-49.3,26.7c-11.8,8.2-22.8,17.5-33.1,27.6
				c-5.2,5.1-10.1,10.4-14.9,15.9c-6,6.8-11.7,13.9-17.2,21.1c-7.5,9.8-14.6,19.9-21.4,30.1c-0.4,0.6-0.7,1.2-0.7,2
				c-0.2,4.8-0.5,9.5-0.7,14.3C57.4,216.4,57.5,221.2,57.5,226.1z"/>
			<path class="st3" d="M57.5,226.1c0-4.9-0.1-9.7,0-14.6c0.1-4.8,0.4-9.6,0.7-14.3c0-0.8,0.3-1.4,0.7-2
				c6.9-10.2,13.9-20.3,21.4-30.1c5.5-7.2,11.2-14.3,17.2-21.1c4.8-5.5,9.7-10.8,14.9-15.9c10.3-10.1,21.2-19.4,33.1-27.6
				c15.5-10.7,32-19.5,49.3-26.7c15.9-6.6,32.2-11.9,48.7-16.6c2.6-0.7,5.3-1.4,8-2.2c1.3-0.4,2.4-0.3,3.7,0
				c7.9,2.3,15.8,4.6,23.7,7.2c12.7,4.1,25.2,8.7,37.5,14c16,6.9,31.3,15.1,45.6,24.9c7.9,5.4,15.5,11.3,22.7,17.6
				c6.8,6,13.3,12.3,19.4,18.9c11.1,11.9,21.1,24.7,30.6,38c4.4,6.3,8.7,12.6,12.9,19c0.7,1.1,0.9,2.1,1,3.3c0.3,6,0.2,12,0.4,18
				c0.1,3.2,0.3,6.5,0.1,9.7c-0.3,5.2-0.1,10.4-0.3,15.6c-0.2,4.2-0.4,8.5-0.7,12.7c-0.8,9-1.7,18.1-3.1,27
				c-1.8,11.2-4.1,22.2-7.3,33c-3.3,11.2-7.4,22-12.2,32.6c-5.5,11.9-11.9,23.4-18.9,34.5c-6.4,10.1-13.3,19.9-20.6,29.4
				c-3.6,4.7-7.3,9.3-10.9,14c-0.8,1-1.8,1.5-3,1.9c-8,2.9-16,5.7-24.1,8.3c-15.8,5.1-31.8,9.4-48.1,12.5
				c-6.9,1.3-13.8,2.3-20.7,3.1c-7.7,0.8-15.4,1.3-23.1,1.5c-5.4,0.1-10.8,0-16.2-0.2c-5.1-0.2-10.1-0.7-15.2-1.3
				c-10.7-1.2-21.3-3.1-31.8-5.5c-9.6-2.2-19-4.9-28.4-7.8c-10-3.2-19.9-6.7-29.8-10.4c-1.3-0.5-2.3-1.1-3.1-2.2
				c-7.4-9.4-14.5-18.9-21.3-28.7c-6-8.7-11.8-17.6-17.1-26.8c-5.8-10-11-20.3-15.6-30.9c-2.6-6.2-5-12.4-7.1-18.8
				c-3.4-10.3-6.1-20.9-8.1-31.6c-1.2-6.5-2.2-13.1-2.9-19.7c-0.4-3.8-0.8-7.6-1.1-11.4c-0.3-4.2-0.5-8.5-0.7-12.7
				C57.3,237.8,57.5,231.9,57.5,226.1z M163.6,112.2c0.5,0,0.7,0.4,1,0.7c3.8,3.4,7.4,7,11,10.6c0.7,0.7,1.3,1.8,2.2,2
				c0.9,0.1,1.8-0.9,2.7-1.3c1.2-0.6,1.3-0.4,0.8-2.1c-2-6.1-3.7-12.2-5.4-18.4c-0.5-1.9-1-3.7-1.5-5.8c-1.2,0.6-2.2,1.1-3.2,1.7
				c-1.3,0.7-1.3,0.7-0.8,2.1c1.6,4.8,3.1,9.5,4.7,14.3c0.2,0.5,0.5,0.9,0.1,1.4c-0.6,0-0.8-0.4-1-0.7c-3.5-3.9-7.3-7.5-11-11.1
				c-0.6-0.6-1-0.7-1.7-0.2c-1,0.7-2.1,1.4-3.2,2c-0.8,0.5-1,1-0.7,2.1c1.7,4.8,3.5,9.7,5.4,14.4c0.1,0.3,0.5,0.7-0.1,1.2
				c-1.1-1-2.2-1.9-3.3-2.9c-3.1-2.7-6.2-5.5-9.3-8.2c-0.3-0.3-0.6-0.6-1.1-0.2c-1.1,0.9-2.4,1.7-3.5,2.9c1.9,1.5,3.7,2.8,5.4,4.3
				c4.8,3.8,9.5,7.8,14.1,11.9c0.5,0.5,1,0.6,1.6,0.1c0.8-0.6,1.5-1.1,2.3-1.7c0.6-0.4,0.6-0.9,0.3-1.5c-1.3-3.3-2.6-6.6-3.8-9.9
				c-0.9-2.5-1.9-4.9-2.4-7.5L163.6,112.2z M214.2,141.9c-0.7-0.4-1.3-0.8-1.9-1.1c-3-1.7-6.1-2.3-9.5-1.3c-2.6,0.8-4.9,1.9-7.1,3.3
				c-5,3.1-9.7,6.6-14.8,9.5c-0.4,0.2-0.7,0.5-1,0.8c-0.7,0.8-0.5,1.4,0.6,1.7c0.7,0.2,1.3,0,2-0.1c2.1-0.3,4.3-0.7,6.4-0.5
				c4.4,0.3,6.8,1.4,8.8,6.1c0.5,1.1,0.9,2.4,1.2,3.6c2.1,8.4,3.6,16.8,5.4,25.2c2,9.6,3.9,19.3,5.9,29c2.8,13.6,5.6,27.1,8.4,40.7
				c0.2,1.1,0.1,2.1-0.5,3.1c-1.8,3.1-3.1,6.3-4.1,9.7c-1,3.3-1.6,6.7-1.9,10.2c-0.3,3.5-0.4,7,0,10.6c0.1,0.8,0.2,1.5-0.2,2.3
				c-0.2,0.5-0.5,0.7-1,0.3c-0.7-0.5-1.3-1-2-1.5c-4.4-3.7-6.7-8.4-6.9-14.2c-0.1-4.6,1.1-9,1.7-13.5c0.6-4.4,1.6-8.8,1-13.3
				c-0.9-5.9-4-10.1-10-11.6c-4.6-1.1-9.3-0.8-13.9,0c-7.6,1.3-14.9,3.7-22.1,6.3c-6.9,2.5-13.7,5.4-20.5,8.1
				c-4.4,1.8-8.9,3.1-13.8,2.9c-4.6-0.2-7.6-2.6-8.8-7c-0.8-3.1-0.7-6.2-0.1-9.2c0.5-2.7,1.1-5.4,1.6-8.1c1.1-5.6,2.1-11.3,2.6-17
				c0.4-3.6,0.6-7.1,0.6-10.7c0-1-0.1-1.9-0.7-2.7c-0.5-0.7-1-0.8-1.6-0.1c-0.7,0.7-1.1,1.7-1.4,2.7c-1.1,3.2-2.5,6.4-4,9.4
				c-2.3,4.4-4.7,8.7-7.2,13c-3.4,5.8-6.8,11.6-9.7,17.6c-2.4,5-4,10.3-4.1,15.8c-0.2,6.3,1.7,11.9,6,16.6c0.8,0.9,1.1,1.7,1.1,2.9
				c-0.1,4.7,0.8,9.3,2.7,13.6c1.3,2.9,3.1,5.6,5.1,8c0.6,0.7,0.7,1.3,0.5,2.1c-0.7,3-0.4,5.9,0.8,8.8c1.6,4,4.1,7.3,7,10.3
				c0.6,0.6,1,1.2,1,2.2c0.1,2.6,0.8,5.1,1.9,7.4c2.4,5.1,6.1,9,10.6,12.2c0.8,0.6,1.3,1.3,1.5,2.3c2.2,8.5,7.4,14.4,15.5,17.9
				c5.8,2.5,11.9,3.5,18.2,3.7c3.6,0.2,7.3,0,10.9-0.3c6.5-0.6,12.9-1.6,19.3-3c9.6-2.2,19.1-5,28.3-8.7c1.3-0.5,2.1-0.2,3,0.6
				c7.9,7,16.9,11.9,27,14.9c1,0.3,1.8,0.3,2.8,0c10.2-3.1,19.3-8.1,27.2-15.2c0.8-0.7,1.4-0.8,2.4-0.4c10.4,4.1,21.1,7.3,32.1,9.5
				c9.7,1.9,19.5,3.2,29.4,2.4c5.3-0.4,10.5-1.4,15.5-3.6c8.1-3.5,13.3-9.3,15.4-17.9c0.2-1,0.7-1.7,1.6-2.3c2.9-2,5.5-4.4,7.6-7.3
				c2.8-3.7,4.6-7.8,4.8-12.5c0-0.8,0.4-1.3,0.9-1.8c2.6-2.8,5-5.8,6.6-9.3c1.4-3.1,2.2-6.3,1.3-9.7c-0.3-1.1,0-1.8,0.6-2.6
				c5.1-6.3,7.8-13.5,7.5-21.7c0-1.1,0.3-1.8,1.1-2.5c3.7-3.8,5.6-8.4,6.1-13.7c0.6-6.9-1.3-13.3-4.3-19.4c-2.9-6-6.4-11.8-9.7-17.6
				c-4.2-7.2-8.4-14.4-11.1-22.3c-0.3-0.8-0.6-1.6-1.2-2.2c-0.6-0.7-1.2-0.7-1.7,0.2c-0.4,0.8-0.6,1.7-0.6,2.6
				c-0.1,4.1,0.3,8.2,0.8,12.3c0.8,7.1,2.2,14.2,3.7,21.2c0.7,3.5,1.1,6.9,0.6,10.5c-0.8,5-4.1,8-9.1,8.2c-4.7,0.2-9-1.1-13.2-2.8
				c-5.3-2.1-10.5-4.3-15.8-6.4c-8.9-3.5-17.9-6.7-27.4-8.3c-4.2-0.7-8.5-1-12.7-0.1c-5.6,1.1-9.3,4.4-10.6,10.1
				c-0.6,2.8-0.6,5.7-0.3,8.5c0.5,4.3,1.4,8.6,2,12.9c0.6,4.1,1,8.2-0.2,12.3c-1.3,4.5-4.3,7.8-8,10.5c-0.5,0.3-0.9,0.3-1.1-0.3
				c-0.2-0.5-0.3-0.9-0.2-1.4c0.5-4.1,0.4-8.2,0-12.3c-0.7-6.9-2.7-13.3-6.1-19.4c-0.5-0.8-0.6-1.5-0.4-2.4
				c1.3-6.3,2.6-12.6,3.9-18.9c2.5-12.3,5-24.7,7.6-37c2.5-12.2,5-24.5,7.6-36.7c0.6-2.6,1.3-5.2,2.6-7.6c1.1-2.1,2.6-3.6,4.9-4.1
				c2.2-0.5,4.4-0.7,6.6-0.4c1.5,0.2,3.1,0.4,4.6,0.6c0.5,0.1,1-0.1,1.2-0.6c0.3-0.5-0.2-0.9-0.5-1.2c-0.3-0.3-0.6-0.5-1-0.8
				c-3.5-2-6.9-4.3-10.3-6.5c-2.9-1.9-5.9-3.9-9.1-5.3c-4.4-1.9-8.6-1.7-12.6,0.9c-0.3,0.2-0.6,0.6-1.2,0.4c-0.1-0.3-0.3-0.6-0.3-1
				c-0.5-2.2-1.5-4-2.9-5.7c-1.5-1.9-3.5-3.3-5.4-4.7c-3.6-2.7-7.8-4.8-10.3-8.8c-0.4-0.7-1.2-1.3-2.1-1c-0.9,0.3-0.8,1.2-1,2
				c-0.3,1.2-0.1,2.5-0.8,3.6c-0.3-0.1-0.4-0.1-0.6-0.3c-1.9-1.9-4.1-3.3-6.3-4.8c-1.8-1.3-3.6-2.5-5.2-4.1c-1-1-1.6-2.2-2.4-3.3
				c-1-1.5-2.2-1.5-3.3-0.1c-0.2,0.3-0.4,0.6-0.6,0.9c-0.8,1.4-1.8,2.5-3,3.6c-2.2,1.9-4.7,3.3-7,5.1c-1.3,1-2.6,2-3.9,3
				c-0.5-0.2-0.4-0.6-0.5-0.8c-0.1-0.5-0.2-0.9-0.3-1.4c-0.1-0.7-0.2-1.4-0.4-2.1c-0.4-1.4-1.1-1.6-2.2-0.7
				c-0.6,0.5-1.2,1.2-1.7,1.8c-0.9,1.2-1.9,2.3-3.2,3.1c-1.9,1.4-3.9,2.7-5.9,4.2c-2.7,1.9-5.3,3.9-7,6.8
				C215.3,138.3,214.8,140,214.2,141.9z M344.6,414.8c1-0.2,2.3,0.1,3.6-0.2c0.7-0.2,1.1-0.5,1.2-1.1c0.3-1.2,0.7-2.4,1.1-3.6
				c0.3-0.8,0.2-1.3-0.5-1.9c-2.5-2-4-4.6-5.1-7.5c-0.6-1.6-1.1-3.2-1.5-4.8c-1.1-4.4-2.2-8.8-3.2-13.2c-0.4-1.8-0.5-1.7-2.3-1.8
				c-1.5-0.1-3-0.2-4.5-0.4c-8.4-1.4-16.3-4.3-24-7.8c-7.5-3.4-15.2-4.8-23.4-3.8c-6.2,0.7-12.2,2.3-18.2,3.9
				c-3,0.8-5.7,2.2-8.5,3.5c-4.4,2.1-8.5,2.2-12.4-1.1c-0.4-0.3-0.9-0.6-1.4-0.9c-1-0.6-2-1.1-3.1-1.4c-6.2-1.7-12.5-3.2-19-3.7
				c-6.4-0.4-12.7,0.5-18.6,3c-3.7,1.6-7.3,3.5-11.2,4.9c-6.7,2.3-13.5,4.1-20.7,3.8c-0.6,0-1.2,0-1.8,0.1c-0.7,0-1.3,0.3-1.4,1.1
				c0,0.4-0.2,0.8-0.3,1.2c-1.1,4.5-2.1,9-3.2,13.4c-1.2,4.5-2.9,8.8-6.6,11.8c-0.5,0.4-0.5,0.7-0.3,1.2c0.4,1.1,0.7,2.3,1,3.4
				c0.5,1.5,0.6,1.7,2.2,1.7c4.5,0.2,8.9-0.2,13.4-1.2c6.4-1.4,12.4-3.9,18.4-6.5c4.8-2,9.5-4.2,14.6-5.4c4-1,8-1.5,12.1-1.5
				c4.6,0,9.1,1,13.5,2.6c3.6,1.3,7.3,2.7,11,4c5.9,2.2,11.7,2.5,17.7,0.3c3.3-1.2,6.5-2.3,9.8-3.5c6-2.3,12.2-3.8,18.7-3.2
				c5.7,0.5,11.1,1.6,16.4,3.7c5.2,2.1,10.3,4.3,15.4,6.3C330.3,413,337.2,414.7,344.6,414.8z M394.3,164c0.1,0.8-0.2,1.2-0.3,1.5
				c-2,4.6-4.3,9.1-7,13.3c-1.4,2.1-1.6,3.9-0.1,6c0.9,1.2,0.5,1.4,2.1,0.6c6.2-3.1,12.4-6.2,18.6-9.3c1-0.5,2.5-0.7,2.8-1.7
				c0.3-1-0.8-2-1.3-3c-0.7-1.4-0.8-1.4-2.2-0.7c-3.9,2.1-7.8,4.2-11.7,6.3c-0.6,0.3-1.2,0.8-2,0.7c-0.1-0.7,0.3-1.1,0.5-1.5
				c2.6-4.4,4.9-8.9,7-13.5c1.6-3.5,1.6-3.5-0.7-6.6c-0.9-1.2-0.9-1.2-2.1-0.3c-5,3.4-10,6.8-15,10.2c-1.7,1.1-3.3,2.3-5,3.4
				c0.3,1,0.9,1.7,1.3,2.5c0.8,1.2,0.8,1.2,1.9,0.5c1.9-1.2,3.8-2.5,5.7-3.7C389.4,167.1,391.8,165.6,394.3,164z M218.4,97.2
				c1.1-0.8,1.8-1.4,2.6-1.9c1.2-0.8,2-1.9,2.2-3.4c0.3-2,0.1-3.9-1-5.7c-1.4-2.4-3.8-3.5-6.5-3.1c-4.4,0.6-8.6,1.9-12.8,3.2
				c-1.3,0.4-1.3,0.5-0.9,1.8c2.2,6.9,4.4,13.8,6.7,20.6c1,3,0.4,2.8,3.6,1.9c1.2-0.4,1.2-0.4,0.9-1.6c-0.8-2.7-1.6-5.4-2.3-8.1
				c-0.3-1.1-0.2-1.2,0.8-1.5c2-0.6,3.7-0.2,5.2,1.4c1.9,2,4,4,5.8,6.1c0.4,0.5,0.8,0.9,1.5,0.8c1.3-0.3,2.7-0.4,4.1-1
				C225.3,103.2,223,99.2,218.4,97.2z M300.8,93.8c0.3,0.6,0.4,0.9,0.5,1.2c1.2,4.8,2.2,9.7,2.9,14.6c0.5,3.3,0.4,3.3,3.6,4.3
				c0.1,0,0.1,0,0.2,0.1c0.5,0.2,0.8,0.1,1-0.4c0.1-0.4,0.3-0.8,0.5-1.2c2.6-6.6,5.1-13.1,7.7-19.7c1.1-2.7,1.1-2.7-1.7-3.6
				c-1.6-0.5-1.6-0.6-2.2,1.1c-1.5,4.3-3.1,8.6-4.6,12.8c-0.2,0.5-0.2,1.1-1,1.4c-0.9-5.5-1.9-10.8-3.3-16c-0.9-3.3-0.9-3.3-4.2-4.1
				c-1.3-0.3-1.3-0.3-1.7,1c-1.9,7.2-3.8,14.4-5.6,21.7c-0.6,2.6-0.9,2,1.7,2.7c1.3,0.4,1.5,0.2,1.9-1.1c0.8-2.9,1.6-5.8,2.5-8.6
				C299.4,98,299.8,96,300.8,93.8z M323.5,92.3c-0.5,0.5-0.6,1.2-0.9,1.8c-2.9,6.8-5.8,13.6-8.8,20.5c-0.6,1.5-0.6,1.5,0.8,2.1
				c2.2,1,4.5,1.9,6.7,3.1c3.5,1.8,6.8,1.5,9.9-0.9c3.8-2.9,6.2-6.8,7.2-11.5c0.9-4-0.1-7.6-4.2-10c-1.9-1.1-3.8-2-5.8-2.9
				C326.9,93.7,325.3,92.8,323.5,92.3z M136.9,161.1c0-2.3-0.9-4.2-3-6.2c-3.6-3.4-7.6-6.4-11.5-9.5c-0.9-0.8-1.9-2.2-3-2
				c-1.1,0.3-1.7,1.9-2.5,2.9c-0.5,0.6-0.5,1.1,0.2,1.6c2.5,1.8,4.9,3.6,7.3,5.5c2.2,1.7,4.5,3.2,6.4,5.2c0.9,0.8,1.3,1.8,1.3,3
				c0,2.4-2.2,5-4.6,5.3c-1.4,0.2-2.6-0.2-3.7-1c-2.1-1.3-4.1-2.7-6.2-4c-2.3-1.5-4.6-3.1-6.9-4.6c-1.1-0.7-1.1-0.7-1.8,0.3
				c-0.5,0.7-0.9,1.4-1.3,2.1c-0.9,1.4-0.9,1.5,0.5,2.3c3.7,2.3,7.3,4.5,11,6.8c1.5,0.9,3.1,1.8,4.8,2.5c1.9,0.8,3.7,0.9,5.6,0
				c3.7-1.7,5.6-4.9,7-8.5C136.8,162.3,137,161.7,136.9,161.1z M252.1,83.7C252,83.7,252,83.7,252.1,83.7c-0.1-1.4-0.1-2.8-0.1-4.1
				c0-0.8-0.3-1.1-1-1.1c-0.8,0.1-1.6,0.1-2.3,0.1c-1.8-0.1-1.7,0.3-1.6,1.9c0.1,2.6,0.3,5.2,0.4,7.9c0,0.9-0.1,1.8,0,2.7
				c0.4,3.7,0.3,7.4,0.6,11.1c0.2,2.5,0.1,2.5,2.5,2.5c1.8,0,1.9,0,1.8-1.8c0-2.8,0.2-5.6-0.2-8.4c-0.2-1.1,0.1-1.3,1.1-1.3
				c2.4,0,4.8,0,7.2,0c1.2,0,1.3,0.1,1.3,1.4c-0.1,2.5-0.2,5-0.3,7.5c-0.1,2.9-0.3,2.7,2.7,2.7c1.5,0,1.5-0.1,1.6-1.7
				c0.1-2.7,0.3-5.5,0.5-8.2c0.3-4.6,0.7-9.2,1-13.7c0.1-2.1,0.1-2.1-1.9-2.3c-0.3,0-0.6-0.1-0.9-0.1c-1.8-0.3-2-0.1-2.2,1.8
				c0,0.5,0,1,0,1.4c0,1.9,0,3.7-0.1,5.6c0,1.2-0.2,1.4-1.3,1.4c-2.5,0-5-0.1-7.5-0.1c-0.9,0-1.1-0.4-1.1-1.2
				C252.1,86.3,252.1,85,252.1,83.7z M376.3,166.7c0.8-1.2,1.6-2.3,2.4-3.4c4.2-6.1,7.9-12.4,11.4-18.9c0.5-1,0.6-1.7-0.2-2.5
				c-0.7-0.8-1.4-1.6-2.1-2.5c-0.5-0.6-0.9-0.8-1.7-0.5c-6.6,2.3-13.2,4.7-19.5,7.6c-1.7,0.8-3.3,1.6-5.1,2.4c0.9,1,1.7,1.9,2.5,2.8
				c0.4,0.5,0.8,0.6,1.4,0.3c1.1-0.6,2.3-1,3.4-1.5c1.5-0.6,1.7-0.6,2.6,0.6c1.3,1.5,2.5,3.1,3.7,4.6c1.9,2.3,1.4,1.8,0.3,4
				c-0.7,1.2-2.1,2.2-1.8,3.5c0.3,1.2,1.5,2.3,2.3,3.4C375.9,166.5,376,166.5,376.3,166.7z M349.7,137.7c2.8-7.4,5.3-14.7,7.1-22.3
				c0.3-1.3,1.3-2.8,0.8-3.9c-0.5-1.2-2.1-1.7-3.2-2.5c-0.7-0.6-1.3-0.5-2,0c-3.9,2.7-7.7,5.4-11.5,8.4c-3.2,2.5-6.2,5-9.2,7.7
				c0.9,0.9,2.1,1.3,3,2c0.5,0.4,0.9,0.1,1.3-0.2c1.1-0.9,2.2-1.7,3.2-2.6c0.7-0.6,1.3-0.7,2.1-0.1c1.8,1.3,3.6,2.5,5.4,3.8
				c1.3,0.9,1.3,1,0.8,2.5c-0.1,0.3-0.2,0.6-0.3,0.9c-1.3,3.8-1.3,3.8,2,6.2C349.2,137.6,349.4,137.6,349.7,137.7z M289.3,108.3
				c0.4-0.9,0.2-1.8,0.1-2.6c-0.6-5.3-1.2-10.7-2.1-15.9c-0.5-2.5-1-5-1.4-7.6c-0.1-0.8-0.5-1.3-1.4-1.3c-0.8-0.1-1.7-0.2-2.5-0.4
				c-1.6-0.3-1.6-0.3-2.3,1.1c-3.8,6.7-7.2,13.5-10.2,20.6c-0.4,0.9-0.9,1.8-1.1,2.8c1.1,0.1,2.1,0.2,3.1,0.4
				c0.8,0.1,1.2-0.2,1.5-0.9c0.5-1.1,1-2.2,1.5-3.3c0.6-1.3,0.7-1.4,2.2-1.2c2.3,0.2,4.6,0.7,6.9,1.1c0.7,0.1,0.9,0.4,1,1
				c0.2,1.5,0.4,2.9,0.6,4.4c0.1,0.5,0.1,0.9,0.8,1C287,107.9,288.1,108.1,289.3,108.3z M202.7,109.2c0.1-1-0.2-2-0.5-3
				c-1.4-4.9-3.3-9.7-5.1-14.6c-0.4-1-0.3-2.4-1.3-2.8c-0.9-0.4-2,0.5-3,0.9c-1.4,0.4-1.4,0.6-0.9,1.9c1,2.5,2,4.9,2.9,7.3
				c1,2.7,2.3,5.4,3.1,8.2c0.6,2.3,0.2,3.8-1.6,4.9c-2.8,1.7-5.7,1.2-7.2-1.7c-0.1-0.3-0.3-0.5-0.4-0.8c-1.9-4-3.7-8-5.6-12
				c-0.5-1-0.5-2.5-1.7-2.8c-1.1-0.3-2.1,0.8-3.1,1.2c-1.1,0.5-1.1,0.6-0.5,1.7c2.2,4.4,4.4,8.8,6.6,13.2c0.6,1.2,1.4,2.4,2.2,3.5
				c1.9,2.7,5.3,3.8,8.4,2.8c1.5-0.5,2.9-1,4.3-1.9C201.5,113.9,202.6,111.9,202.7,109.2z M94.6,185.9c0.9,0.4,1.7,0.6,2.5,1.1
				c0.8,0.4,1.3,0.2,1.6-0.6c0.8-1.9,1.6-3.7,2.5-5.6c0.6-1.3,0.6-1.3,2-0.7c5.3,2.5,10.6,5,15.9,7.6c2.5,1.2,2.4,1.2,3.6-1.3
				c0.1-0.2,0.2-0.4,0.3-0.6c0.5-1.1,0.5-1.2-0.6-1.7c-2.4-1.3-4.8-2.5-7.2-3.7c-3.2-1.6-6.4-3.3-9.5-5c-1.4-0.7-1.4-0.8-0.8-2.2
				c0.6-1.3,1.3-2.5,2-3.8c1.3-2.4,1.3-2.4-1.1-3.7c-1.1-0.6-1.2-0.6-1.8,0.4c-2.5,4.4-4.9,8.9-6.9,13.6
				C96.2,181.6,95.2,183.6,94.6,185.9z M364,116.1c-0.6,5.4-1.2,10.4-2.2,15.4c-0.2,1-0.3,2.1-1.1,3c-1.6,1.7-3.2,3.4-4.7,5.2
				c-2.1,2.5-2.4,1.7,0.2,4c1.1,1,1.2,1,2.3-0.2c1.8-1.9,3.6-3.8,5.4-5.8c0.6-0.7,1.3-1,2.1-1.3c3.6-1,7.3-1.9,11-2.6
				c1.6-0.3,3.3-0.4,4.9-1c-1-1.4-2.3-2.3-3.3-3.5c-0.6-0.6-1.1-0.7-1.9-0.5c-1.4,0.4-2.9,0.8-4.3,1.2c-1.7,0.5-3.3,1-5,1.5
				c-0.8,0.2-1,0.1-0.9-0.7c0-0.2,0.1-0.5,0.2-0.7c0.6-3,1.3-6.1,1.8-9.1c0.1-0.7,0-1.2-0.5-1.6C366.7,118.4,365.5,117.4,364,116.1z
				 M125.2,142.1c0.5-0.2,0.8-0.7,1.2-1.1c1.1-1.2,2.1-2.4,3.2-3.6c0.8-0.9,1-0.9,2-0.2c0.2,0.2,0.5,0.4,0.7,0.6c3,2.8,6,5.7,9,8.5
				c1.7,1.6,3.5,3.2,5.3,4.8c1.1-1,2-2,2.9-3.1c-0.5-0.5-0.9-0.9-1.3-1.3c-4.2-4.1-8.3-8.3-12.5-12.4c-0.3-0.3-0.6-0.6-0.9-0.9
				c-0.5-0.5-0.5-1,0-1.5c1-1,2.1-2,3.1-3c1.8-1.7,1.8-1.7,0.1-3.5c-1-1.1-1.1-1.1-2.3-0.1c-1.2,1.1-2.4,2.3-3.6,3.5
				c-3.2,3.1-6.2,6.5-9.1,9.9c-0.5,0.6-0.7,1.2,0.1,1.8C123.9,141,124.5,141.7,125.2,142.1z M391.8,195.7c2.3-1,4.6-1.9,6.8-2.8
				c5.4-2.2,10.7-4.5,16.1-6.6c0.8-0.3,1-0.6,0.6-1.4c-0.5-1-0.9-2-1.3-2.9c-0.6-1.4-0.6-1.4-2-0.8c-5.4,2.5-10.9,5-16.3,7.4
				c-1.9,0.9-3.9,1.8-5.9,2.7C390.6,192.8,391.2,194.2,391.8,195.7z M231.9,106.3c0.8-0.1,1.4-0.1,1.9-0.2c1.4-0.3,1.5-0.4,1.3-1.7
				c-0.3-2.1-0.6-4.2-0.9-6.4c-0.8-5.6-1.5-11.2-2.2-16.8c-0.1-0.7-0.3-1.1-1.1-1c-0.9,0.2-1.9,0.4-2.8,0.4c-1,0.1-1.1,0.6-1,1.4
				c1.3,7.7,2.6,15.4,3.8,23.1C230.9,106,231.2,106.5,231.9,106.3z"/>
			<path class="st2" d="M214.2,141.9c0.6-1.9,1.1-3.5,2-5c1.8-2.9,4.4-4.9,7-6.8c1.9-1.4,3.9-2.8,5.9-4.2c1.2-0.9,2.3-2,3.2-3.1
				c0.5-0.7,1.1-1.3,1.7-1.8c1.1-0.9,1.8-0.6,2.2,0.7c0.2,0.7,0.2,1.4,0.4,2.1c0.1,0.5,0.2,0.9,0.3,1.4c0.1,0.3,0,0.6,0.5,0.8
				c1.3-1,2.5-2,3.9-3c2.3-1.7,4.8-3.1,7-5.1c1.2-1,2.2-2.2,3-3.6c0.2-0.3,0.4-0.6,0.6-0.9c1.1-1.4,2.3-1.4,3.3,0.1
				c0.8,1.1,1.4,2.3,2.4,3.3c1.6,1.6,3.4,2.9,5.2,4.1c2.2,1.5,4.4,2.9,6.3,4.8c0.1,0.1,0.3,0.1,0.6,0.3c0.7-1.1,0.6-2.4,0.8-3.6
				c0.2-0.8,0.1-1.7,1-2c0.9-0.3,1.7,0.4,2.1,1c2.6,4,6.7,6.1,10.3,8.8c1.9,1.4,3.8,2.9,5.4,4.7c1.4,1.7,2.5,3.5,2.9,5.7
				c0.1,0.3,0.2,0.7,0.3,1c0.6,0.2,0.8-0.2,1.2-0.4c4-2.7,8.2-2.9,12.6-0.9c3.3,1.4,6.2,3.4,9.1,5.3c3.4,2.2,6.8,4.5,10.3,6.5
				c0.4,0.2,0.7,0.5,1,0.8c0.3,0.3,0.8,0.7,0.5,1.2c-0.2,0.5-0.7,0.6-1.2,0.6c-1.5-0.2-3.1-0.4-4.6-0.6c-2.2-0.3-4.4-0.1-6.6,0.4
				c-2.3,0.5-3.9,2.1-4.9,4.1c-1.3,2.4-2,5-2.6,7.6c-2.6,12.2-5.1,24.4-7.6,36.7c-2.5,12.3-5,24.7-7.6,37
				c-1.3,6.3-2.6,12.6-3.9,18.9c-0.2,0.8-0.1,1.6,0.4,2.4c3.4,6,5.4,12.5,6.1,19.4c0.4,4.1,0.5,8.2,0,12.3c-0.1,0.5,0.1,0.9,0.2,1.4
				c0.2,0.7,0.6,0.7,1.1,0.3c3.7-2.7,6.7-6,8-10.5c1.2-4.1,0.8-8.2,0.2-12.3c-0.6-4.3-1.6-8.6-2-12.9c-0.3-2.9-0.3-5.7,0.3-8.5
				c1.3-5.8,5-9,10.6-10.1c4.2-0.8,8.5-0.6,12.7,0.1c9.5,1.6,18.5,4.8,27.4,8.3c5.3,2.1,10.5,4.3,15.8,6.4c4.2,1.7,8.6,2.9,13.2,2.8
				c5-0.2,8.4-3.1,9.1-8.2c0.6-3.6,0.2-7-0.6-10.5c-1.5-7-2.9-14-3.7-21.2c-0.5-4.1-0.8-8.2-0.8-12.3c0-0.9,0.2-1.8,0.6-2.6
				c0.5-0.8,1.1-0.9,1.7-0.2c0.6,0.6,0.9,1.4,1.2,2.2c2.8,7.9,7,15.1,11.1,22.3c3.4,5.8,6.8,11.6,9.7,17.6c3,6.1,4.9,12.5,4.3,19.4
				c-0.4,5.2-2.3,9.9-6.1,13.7c-0.7,0.7-1.1,1.5-1.1,2.5c0.3,8.2-2.4,15.4-7.5,21.7c-0.7,0.8-0.9,1.5-0.6,2.6
				c0.8,3.4,0.1,6.6-1.3,9.7c-1.6,3.5-4,6.5-6.6,9.3c-0.5,0.5-0.9,1-0.9,1.8c-0.2,4.7-2,8.8-4.8,12.5c-2.1,2.9-4.7,5.3-7.6,7.3
				c-0.8,0.6-1.3,1.3-1.6,2.3c-2.1,8.6-7.4,14.4-15.4,17.9c-4.9,2.1-10.1,3.1-15.5,3.6c-9.9,0.8-19.7-0.4-29.4-2.4
				c-11-2.2-21.7-5.4-32.1-9.5c-1-0.4-1.6-0.3-2.4,0.4c-7.9,7.1-17,12.1-27.2,15.2c-1,0.3-1.8,0.3-2.8,0c-10.1-3-19.1-8-27-14.9
				c-1-0.8-1.8-1.1-3-0.6c-9.2,3.7-18.6,6.5-28.3,8.7c-6.4,1.4-12.8,2.5-19.3,3c-3.6,0.3-7.3,0.5-10.9,0.3
				c-6.2-0.3-12.4-1.2-18.2-3.7c-8.1-3.5-13.3-9.4-15.5-17.9c-0.3-1-0.7-1.7-1.5-2.3c-4.5-3.2-8.2-7.1-10.6-12.2
				c-1.1-2.4-1.8-4.8-1.9-7.4c0-0.9-0.4-1.5-1-2.2c-2.9-3-5.4-6.4-7-10.3c-1.1-2.9-1.5-5.8-0.8-8.8c0.2-0.8,0-1.5-0.5-2.1
				c-2-2.5-3.8-5.1-5.1-8c-1.9-4.3-2.8-8.9-2.7-13.6c0-1.2-0.3-2-1.1-2.9c-4.4-4.6-6.2-10.3-6-16.6c0.1-5.6,1.7-10.8,4.1-15.8
				c2.9-6,6.3-11.8,9.7-17.6c2.5-4.3,5-8.6,7.2-13c1.6-3,3-6.1,4-9.4c0.3-1,0.7-1.9,1.4-2.7c0.6-0.6,1.1-0.6,1.6,0.1
				c0.6,0.8,0.7,1.8,0.7,2.7c0,3.6-0.3,7.2-0.6,10.7c-0.6,5.7-1.5,11.4-2.6,17c-0.5,2.7-1.1,5.4-1.6,8.1c-0.5,3.1-0.7,6.2,0.1,9.2
				c1.1,4.5,4.2,6.9,8.8,7c4.9,0.2,9.4-1.2,13.8-2.9c6.8-2.8,13.6-5.6,20.5-8.1c7.2-2.6,14.5-5.1,22.1-6.3c4.6-0.8,9.3-1.1,13.9,0
				c6,1.5,9.1,5.7,10,11.6c0.7,4.5-0.3,8.9-1,13.3c-0.6,4.5-1.8,8.9-1.7,13.5c0.1,5.8,2.5,10.5,6.9,14.2c0.6,0.5,1.3,1.1,2,1.5
				c0.4,0.3,0.7,0.1,1-0.3c0.4-0.7,0.3-1.5,0.2-2.3c-0.4-3.5-0.3-7,0-10.6c0.3-3.5,0.9-6.9,1.9-10.2c1-3.4,2.3-6.7,4.1-9.7
				c0.6-1,0.7-2,0.5-3.1c-2.8-13.6-5.6-27.1-8.4-40.7c-2-9.7-3.9-19.3-5.9-29c-1.8-8.4-3.3-16.9-5.4-25.2c-0.3-1.2-0.7-2.4-1.2-3.6
				c-2-4.7-4.5-5.7-8.8-6.1c-2.2-0.2-4.3,0.2-6.4,0.5c-0.6,0.1-1.3,0.3-2,0.1c-1.1-0.2-1.3-0.9-0.6-1.7c0.3-0.3,0.6-0.6,1-0.8
				c5.1-2.9,9.9-6.4,14.8-9.5c2.2-1.4,4.6-2.6,7.1-3.3c3.4-1,6.5-0.5,9.5,1.3C212.9,141.1,213.4,141.4,214.2,141.9z M182.2,245
				c0.5,0.3,0.7,0.5,0.9,0.6c5.6,2.9,8,7.8,8.1,13.9c0.1,4.6-0.8,9.2-2,13.6c-1.7,6.5-3.7,12.9-5.4,19.3c-2.3,8.5-3.8,17-2.7,25.9
				c0.5,4.5,1.8,8.8,4,12.8c3.7,6.5,9.2,11,15.8,14.1c6.6,3.2,13.6,4.9,20.8,5.9c1.3,0.2,2.4,0.6,3.3,1.6c2.5,2.7,5.4,4.9,8.3,7.1
				c4.2,3.1,8.5,6,13.2,8.3c3.7,1.8,7.4,2.1,11.2,0.3c1.8-0.9,3.7-1.7,5.5-2.7c6.8-3.7,13.3-7.8,18.8-13.4c0.8-0.8,1.7-1.1,2.7-1.2
				c1.5-0.3,3.1-0.5,4.6-0.8c6.8-1.3,13.5-3.3,19.5-6.9c6.5-3.8,11.5-8.9,14.3-16c2.4-6,2.9-12.3,2.5-18.7
				c-0.3-5.8-1.6-11.5-3.1-17.1c-1.8-6.8-4.1-13.5-5.7-20.4c-1-4.7-2-9.3-1.4-14.2c0.7-5.1,3.1-8.9,7.6-11.5
				c0.3-0.2,0.8-0.2,0.9-0.8c-3.1-0.6-6.1-0.7-9.1-0.2c-5.2,0.9-8.1,4.1-8.6,9.1c-0.2,2.1-0.2,4.3,0.1,6.5c0.7,4.7,1.5,9.3,2.2,14
				c0.5,3.4,0.5,6.8-0.4,10.2c-1.5,6.1-5.2,10.7-10.3,14.2c-1.7,1.2-3.6,2.4-5.5,3.3c-0.4-0.7-0.5-1.4-0.6-2c-0.5-2.1-1.1-4.2-2-6.1
				c-1.9-4.1-4.5-7.7-7.4-11.2c-3.4-4.1-7.1-8.1-10.4-12.3c-5.9-7.5-9.2-16-9.5-25.6c-0.1-4-0.1-8-0.2-12c0-0.4,0.3-0.8-0.4-1.1
				c-2.6,3.3-5.1,6.6-6.1,10.8c-0.2,0.9-0.5,1.9-0.9,2.7c-0.4,0.7-0.8,1.4-1.7,1.3c-0.9,0-1.3-0.8-1.6-1.5c-0.5-1-0.7-2-0.9-3.1
				c-1.1-3.9-3.3-7.1-6.2-10.4c0,3.6-0.2,6.8-0.3,10c0,5-0.5,10-2,14.9c-2,6.3-5.6,11.6-9.7,16.7c-3.3,4.1-7,7.9-10.2,12
				c-3.7,4.7-6.6,9.8-7.7,15.8c-0.1,0.4-0.1,0.8-0.5,1.1c-2.6-1.4-5.1-2.9-7.4-4.8c-6.4-5.3-9.5-12.1-8.9-20.5
				c0.3-4.5,1.3-8.8,2-13.3c0.5-3.1,0.9-6.2,0.6-9.4c-0.4-4.4-3.2-7.8-7.4-8.9C189.5,244.2,186,244.5,182.2,245z M232.9,128.9
				c-3.5,2.8-7.2,4.8-10.3,7.8c-2.7,2.6-4.4,5.7-3.9,9.6c0.2,2,0.6,3.9,1,5.8c2.8,15.3,5.5,30.5,8.3,45.8c0.2,0.9,0.4,1.9,0.1,2.8
				c-0.2,0.8-0.7,1.3-1.4,1.5c-0.8,0.2-1.4-0.1-1.9-0.7c-0.6-0.6-0.8-1.4-0.9-2.1c-1.5-8.1-2.9-16.2-4.4-24.3
				c-1.5-8.1-2.9-16.2-4.4-24.3c-0.3-1.6-1.1-2.8-2.4-3.9c-3.5-2.8-7.3-3.1-11.3-1.4c-2.6,1.1-4.9,2.7-7.3,4.3
				c-0.5,0.4-1.2,0.6-1.5,1.2c4.4,1.3,6.9,3,9.2,8.5c0.8,1.9,1.4,3.8,1.8,5.8c2,9.4,3.9,18.8,5.8,28.2c3.8,18.7,7.7,37.3,11.5,56
				c0.4,2,0.8,3.9,1.3,5.9c0.4,0,0.6-0.2,0.7-0.4c4.5-5.6,9.9-10.2,16-14c0.8-0.5,1.1-1.1,1.1-2c0-4.4,0-8.8,0-13.1
				c0-0.7-0.1-1.3-0.3-1.9c-2.1-5.6-1.5-11,1.3-16.3c1.6-2.9,3.5-5.6,5.5-8.2c2.9-3.7,5-7.7,5.7-12.4c0.1-0.8,0.3-1.8,1.2-1.7
				c0.9,0,1.1,1.1,1.2,1.8c0.6,4.5,2.9,8.3,5.5,11.9c2.1,2.8,4.2,5.7,5.9,8.8c2.8,5.2,3.3,10.5,1.3,16.1c-0.3,0.8-0.4,1.5-0.4,2.3
				c0,4,0.1,8,0,12c0,1.5,0.4,2.3,1.7,3.1c5.1,3.2,9.7,7,13.7,11.5c0.8,0.9,1.3,1.9,2.5,2.6c0.1-0.4,0.1-0.6,0.2-0.8
				c2.5-12.5,5.1-24.9,7.6-37.4c3.2-15.6,6.4-31.1,9.6-46.7c0.8-4,1.6-8,3.2-11.7c1.4-3.2,3.5-5.9,6.8-7.2c0.7-0.3,1.4-0.5,2.1-0.7
				c-2.1-1.9-6.8-4.7-9.2-5.6c-1.9-0.7-3.8-1-5.8-0.8c-4,0.5-6.9,3.4-7.6,7.4c-0.3,1.7-0.7,3.4-1,5.1c-2.5,14-5.1,28.1-7.6,42.1
				c-0.1,0.7-0.3,1.4-0.7,2c-0.5,0.7-1.2,1.2-2.1,1c-0.9-0.1-1.5-0.9-1.6-1.9c0-0.7,0-1.3,0.1-2c0.2-1.4,0.5-2.7,0.7-4.1
				c2.8-15.4,5.6-30.8,8.4-46.2c0.8-4.3-0.2-8-3.4-11.1c-3.2-3.1-7.1-5.2-10.6-8.1c-0.1,0.4-0.1,0.7-0.1,0.9
				c-0.8,5.5-1.2,11-1.7,16.6c-0.4,4.3-0.8,8.7-1.2,13c-0.8,8.3-1.6,16.6-2.5,24.9c-0.2,1.5-0.1,3.1-0.6,4.6
				c-0.4,1.2-1.2,1.8-2.2,1.7c-1-0.1-1.7-1-1.8-2.1c0-0.4,0-0.8,0-1.3c0.1-1.2,0.2-2.4,0.3-3.6c0.4-4.3,0.8-8.7,1.2-13
				c0.7-6.6,1.4-13.2,2-19.8c0.4-4.5,0.7-8.9,1.3-13.4c0.5-3.5-0.6-6.2-3-8.5c-1.8-1.7-3.8-3.3-5.8-4.8c-2.2-1.7-4.5-3.2-6.1-5.6
				c-1.6,2.2-3.6,3.8-5.7,5.3c-2.1,1.5-4.1,3.1-6,4.8c-2.3,2-3.6,4.4-3.4,7.6c0.1,1.8,0.2,3.6,0.4,5.4c0.4,4.3,0.8,8.7,1.2,13
				c0.7,6.6,1.3,13.2,2,19.8c0.3,3.4,0.7,6.8,1,10.2c0.1,1.3,0.3,2.6,0.2,3.9c-0.1,1.2-1,2.2-2,2.2c-0.9,0-1.8-0.7-2.1-1.9
				c-0.1-0.3-0.2-0.6-0.2-0.9c-0.5-5.1-1-10.2-1.5-15.3c-0.4-4.3-0.8-8.7-1.2-13c-0.7-6.8-1.3-13.5-2-20.3
				C233.7,135.8,233.6,132.5,232.9,128.9z M372.1,349.2c-0.2-0.1-0.3-0.1-0.4-0.1c-4.3,1.3-8.6,1.8-13.1,2c-2.3,0.1-4.7,0-7-0.1
				c-1.5-0.1-2.2-1-2.1-2.4c0.1-1.3,0.7-1.9,2.3-1.9c0.4,0,0.8,0,1.3,0c4.1,0.1,8.1,0.1,12.2-0.6c5.4-0.9,10.5-2.4,14.5-6.5
				c2.8-2.9,5.2-6,6.4-9.8c0.2-0.5,0.4-1,0.1-1.6c-2.3,0.8-4.6,1.4-6.9,1.8c-3.7,0.6-7.4,0.7-11.1,0.8c-1.4,0-2.9,0.2-4.3-0.1
				c-1.1-0.2-1.9-1.1-2-2.1c0-1,0.7-1.7,1.9-2.1c0.5-0.1,0.9-0.1,1.4-0.1c5.3,0.4,10.5,0.3,15.6-1.2c5.6-1.7,10.3-4.8,13.3-10
				c1.5-2.5,2.1-5.1,1.6-8.2c-1.1,0.5-2,0.9-2.9,1.2c-5.7,2.2-11.6,3.2-17.7,3.7c-1,0.1-1.9,0.1-2.9-0.1c-0.9-0.2-1.7-0.7-1.8-1.6
				c-0.1-0.8,0.6-1.4,1.3-1.8c1-0.5,2-0.7,3.1-0.8c3.4-0.3,6.8-0.7,10.1-1.5c4.6-1,8.8-2.8,12-6.3c2.9-3.2,4.7-6.9,5.7-11
				c0.5-1.8,0.8-3.7,0.7-5.7c-0.2,0-0.4,0-0.6,0.1c-7.1,3.8-14.9,5.3-22.8,6.7c-0.6,0.1-1.2,0.1-1.8,0c-1.3-0.2-2.2-0.9-2.2-1.8
				c0-1.2,0.8-1.7,1.7-2.1c0.5-0.2,1.1-0.3,1.7-0.4c2.2-0.4,4.4-0.7,6.5-1.1c4.6-0.9,9.2-2.1,13.4-4.4c8.6-4.6,12.2-11.8,10.6-21.8
				c-0.8-5-2.8-9.5-4.9-14c-3.3-6.8-7.3-13.2-10.9-19.8c-0.9-1.7-1.8-3.3-2.7-5c-0.4,0.4-0.2,0.8-0.1,1.1c0.4,2.1,0.8,4.2,1.2,6.3
				c1,5.6,2.6,11.2,3.2,16.9c0.4,3.6,0.1,7.2-1.3,10.6c-1.8,4.4-5.2,7-9.9,7.9c-3.9,0.7-7.6,0.1-11.3-0.9c-4.9-1.3-9.4-3.5-14.1-5.4
				c-7.9-3.2-15.8-6.3-24-8.6c-0.9-0.3-1.7-0.4-2.6-0.2c-1.7,0.4-3.4,0.8-5,1.5c-5.2,2.1-8.1,7-7.7,12.5c0.3,4.8,1.4,9.4,2.7,14.1
				c2,7.4,4.4,14.6,6.1,22.1c1.6,7.2,2.2,14.5,1.3,21.9c-1.5,12.3-7.8,21.5-18.4,27.8c-5.6,3.3-11.7,5.4-18,6.9
				c-1.3,0.3-2.7,0.6-4.1,0.9c0.4,0.6,0.9,0.6,1.3,0.8c4.8,1.7,9.7,3.3,14.7,4.6c12.8,3.4,25.7,5.9,39.1,5.2c4.4-0.2,8.8-0.9,13-2.3
				c4.5-1.5,8.4-4,11.4-7.8C370.3,353.6,371.4,351.5,372.1,349.2z M217.3,354.9c-0.8-0.2-1.6-0.3-2.4-0.5
				c-6.9-1.5-13.5-3.6-19.6-7.2c-6.3-3.7-11.4-8.7-14.7-15.3c-3.9-7.9-4.7-16.2-3.9-24.8c0.5-5.4,1.6-10.6,3-15.8
				c1.7-6.2,3.6-12.4,5.2-18.6c1.1-4,2-8.1,1.9-12.4c-0.1-3.5-1-6.8-3.8-9.2c-2.8-2.4-6.2-3.5-9.8-4c-0.6-0.1-1.2,0.2-1.7,0.3
				c-5.9,1.7-11.7,3.8-17.4,6c-5.6,2.2-11.1,4.5-16.6,6.7c-4.4,1.7-8.9,2.8-13.7,2.4c-6.1-0.5-10.3-3.9-12.1-9.8
				c-1.3-4.4-0.9-8.8-0.1-13.1c1.2-6,2.5-12,3.7-18.1c0.1-0.6,0.4-1.2-0.1-1.9c-2,3.9-4.1,7.5-6.2,11.1c-3.3,5.7-6.6,11.4-9.2,17.5
				c-2.2,5.1-3.9,10.3-3.6,16c0.3,5.1,2.3,9.3,6.1,12.8c2.9,2.7,6.4,4.3,10.1,5.6c4.7,1.6,9.6,2.5,14.5,3.2c1.1,0.2,2.1,0.4,3,1.1
				c1.1,0.9,0.8,2.3-0.5,2.9c-0.6,0.3-1.3,0.4-1.9,0.4c-0.9-0.1-1.8-0.2-2.7-0.4c-7.2-1.3-14.3-2.8-20.9-6.3
				c-0.2-0.1-0.4-0.2-0.8-0.1c-0.2,1.2,0.1,2.4,0.3,3.6c1.9,9.8,7.2,16.6,16.9,19c3.7,0.9,7.5,1.4,11.3,1.7c1.1,0.1,2.2,0.4,3.2,0.9
				c0.6,0.4,1.2,0.9,1.1,1.7c0,0.8-0.7,1.2-1.4,1.5c-0.7,0.3-1.5,0.3-2.3,0.3c-5.5-0.4-10.9-1.2-16.2-2.9c-1.7-0.6-3.4-1.4-5.1-2
				c-0.3,0.8-0.5,1.5-0.4,2.2c0.3,2.7,1.1,5.2,2.8,7.5c3.5,4.7,8.2,7.4,13.8,8.8c4.7,1.1,9.5,1.3,14.3,0.8c0.7-0.1,1.3,0,1.9,0.3
				c1.5,0.7,1.7,2.2,0.5,3.4c-0.6,0.6-1.4,0.7-2.2,0.7c-4.6,0-9.1,0-13.6-0.7c-2.6-0.4-5.2-1.1-7.8-1.9c0,0.2-0.1,0.3-0.1,0.4
				c0,0.2,0,0.4,0.1,0.5c1.3,4.7,4.2,8.4,7.8,11.6c1.3,1.1,2.5,2.2,4.1,2.9c4.9,2,10.1,3.1,15.4,3.1c2.4,0,4.8,0,7.2,0
				c1.4,0,1.8,0.4,2.1,1.5c0.4,1.4-0.4,2.6-1.9,2.8c-0.8,0.1-1.7,0.1-2.5,0.1c-4.9,0.1-9.8-0.1-14.6-1.2c-1.1-0.3-2.3-0.6-3.6-0.9
				c1.3,4,3.4,7.1,6.4,9.7c4.2,3.5,9.2,5.2,14.5,6.1c4.8,0.8,9.6,1.1,14.5,0.8c3.6-0.2,7.2-0.5,10.7-1c8.2-1.1,16.3-3,24.3-5.3
				C209.1,358.1,213.3,356.8,217.3,354.9z M253.3,236.6c1.9-3.7,4.4-6.5,6.6-9.5c0.6-0.9,1.3-1.8,1.8-2.7c2.6-4.3,2.9-8.7,1-13.4
				c-0.8-1.9-1.9-3.6-3-5.3c-1.9-2.8-4-5.5-5.7-8.5c-0.2-0.4-0.3-0.9-0.9-1c-1.6,2.9-3.5,5.5-5.4,8.2c-1.3,1.8-2.5,3.6-3.5,5.6
				c-2.1,4.5-2.3,9,0.1,13.4c0.7,1.3,1.5,2.6,2.5,3.7C249.1,230.2,251.5,233,253.3,236.6z M267.2,245.6c-0.2,0.1-0.2,0.3-0.2,0.4
				c0,0.5,0,1,0,1.4c0.3,3.7,1.2,7.2,2.6,10.6c2.2,5.1,5.4,9.5,9,13.8c3.4,4.1,7.1,7.9,10.3,12.2c0.4,0.6,0.7,1.3,1.4,1.8
				C290.7,269.8,281.8,254.5,267.2,245.6z M216.1,285.6c0.4,0.1,0.5,0,0.6-0.2c2.3-3.3,4.8-6.2,7.4-9.2c3-3.5,6.1-6.9,8.7-10.7
				c4.2-6,6.6-12.6,6.8-20.2c-7.1,4.7-13,10.3-17.3,17.6C218.2,269.8,216.3,277.5,216.1,285.6z"/>
			<path class="st2" d="M344.6,414.8c-7.4,0-14.3-1.8-21-4.4c-5.2-2-10.3-4.3-15.4-6.3c-5.3-2.1-10.7-3.3-16.4-3.7
				c-6.6-0.5-12.7,1-18.7,3.2c-3.3,1.2-6.5,2.4-9.8,3.5c-6,2.2-11.8,1.8-17.7-0.3c-3.6-1.3-7.3-2.7-11-4c-4.4-1.6-8.9-2.6-13.5-2.6
				c-4.1,0-8.1,0.6-12.1,1.5c-5.1,1.2-9.8,3.4-14.6,5.4c-6,2.5-12,5.1-18.4,6.5c-4.4,1-8.9,1.4-13.4,1.2c-1.6-0.1-1.8-0.2-2.2-1.7
				c-0.3-1.1-0.6-2.3-1-3.4c-0.2-0.5-0.2-0.9,0.3-1.2c3.8-3.1,5.5-7.3,6.6-11.8c1.2-4.5,2.2-8.9,3.2-13.4c0.1-0.4,0.3-0.8,0.3-1.2
				c0.1-0.8,0.6-1.1,1.4-1.1c0.6,0,1.2-0.1,1.8-0.1c7.2,0.3,14-1.5,20.7-3.8c3.9-1.3,7.4-3.3,11.2-4.9c6-2.5,12.2-3.4,18.6-3
				c6.5,0.4,12.7,2,19,3.7c1.1,0.3,2.1,0.8,3.1,1.4c0.5,0.3,1,0.5,1.4,0.9c3.9,3.3,8,3.2,12.4,1.1c2.8-1.3,5.5-2.7,8.5-3.5
				c6-1.6,12-3.2,18.2-3.9c8.2-1,15.9,0.4,23.4,3.8c7.7,3.5,15.6,6.4,24,7.8c1.5,0.2,3,0.3,4.5,0.4c1.8,0.2,1.8,0,2.3,1.8
				c1,4.4,2.1,8.8,3.2,13.2c0.4,1.6,0.9,3.2,1.5,4.8c1.1,2.9,2.6,5.5,5.1,7.5c0.7,0.6,0.8,1.1,0.5,1.9c-0.4,1.2-0.7,2.4-1.1,3.6
				c-0.2,0.6-0.6,0.9-1.2,1.1C346.9,414.9,345.7,414.6,344.6,414.8z M343.7,411.9c0.7,0,1.4,0,2.2,0c0.5,0,1.1,0.1,1.3-0.7
				c0.2-0.7,0.5-1.3-0.1-2c-1.6-1.6-2.9-3.5-3.8-5.6c-0.3-0.6-0.6-0.8-1.2-0.8c-1,0.1-1.9,0.1-2.9,0.1c-4.4-0.2-8.6-1.2-12.8-2.6
				c-5.3-1.8-10.3-4.3-15.4-6.4c-4.3-1.8-8.7-3.5-13.4-4c-5.6-0.6-11.1-0.2-16.6,0.6c-9.1,1.3-17.7,4.4-26,8.5
				c-1.2,0.6-2.1,0.6-3.3,0c-12.4-6.2-25.5-9.7-39.6-9.3c-2.7,0.1-5.4,0.5-8,1.2c-4.4,1.3-8.6,3.4-12.7,5.4c-3,1.5-6,2.9-9.2,4
				c-4.5,1.6-9.1,2.6-13.9,2.1c-0.7-0.1-1,0.2-1.2,0.7c-1,2.3-2.3,4.4-4.1,6.1c-0.7,0.7-0.3,1.3-0.2,2c0.2,0.7,0.7,0.7,1.3,0.7
				c0.8,0,1.7,0,2.5,0c5.7-0.1,11.2-1.5,16.6-3.4c5.3-1.9,10.4-4.2,15.6-6.4c6.6-2.8,13.5-4.5,20.7-4.8c5.4-0.2,10.6,0.8,15.6,2.6
				c3.9,1.4,7.9,2.9,11.8,4.3c5.3,1.9,10.6,1.9,16,0c3.3-1.2,6.5-2.3,9.8-3.6c6.3-2.4,12.8-3.8,19.6-3.2c5.4,0.5,10.7,1.5,15.7,3.5
				c5,2,9.9,4.1,14.9,6.2C329.6,409.8,336.4,411.7,343.7,411.9z M341.7,400.4c-0.5-2-1.1-3.9-1.6-5.8c-0.8-3.1-1.4-6.3-2.2-9.4
				c-0.4-1.6-0.4-1.6-2.1-1.8c-1.8-0.2-3.7-0.4-5.5-0.8c-7.7-1.7-15-4.4-22.2-7.6c-6.1-2.7-12.3-4.1-19-3.7c-5,0.3-9.9,1.3-14.8,2.5
				c-4.6,1.1-9,2.3-13.2,4.5c-1.8,0.9-3.6,1.6-5.6,1.9c-1.2,0.2-1.3,0.7-1.3,1.6c0,4.4,0,8.8,0,13.1c0,0.4-0.2,0.9,0.3,1.4
				c0.4-0.2,0.8-0.4,1.3-0.6c5.3-2.5,10.8-4.6,16.5-6.1c5.2-1.4,10.5-2.1,15.9-2.4c4.9-0.3,9.8-0.1,14.6,1.1
				c5.2,1.4,10,3.6,14.8,5.8c4.1,1.9,8.3,3.7,12.7,4.9C334.1,400.2,337.8,400.9,341.7,400.4z M252,396.4c0-5.3,0-10.3,0-15.4
				c0-0.5-0.2-0.8-0.7-0.9c-2.1-0.5-3.8-1.7-5.6-2.8c-1.3-0.9-2.6-1.6-4.2-2c-4.9-1.2-9.7-2.5-14.7-3.1c-8.1-1-15.8-0.2-23.2,3.5
				c-9.5,4.7-19.4,8.2-30.2,7.9c-0.8,0-1,0.3-1.2,1c-1.3,4.8-2,9.7-3.6,14.4c-0.3,0.9-0.1,1.1,0.9,1.1c3.6,0.2,7.1-0.5,10.6-1.6
				c4.2-1.4,8.1-3.4,12.1-5.4c3.8-1.9,7.5-3.6,11.6-4.7c4.9-1.3,9.8-1.3,14.8-1.1c8.5,0.4,16.7,2.3,24.6,5.3
				C246.1,393.7,248.9,394.9,252,396.4z"/>
			<path class="st4" d="M163.5,112.4c0.5,2.6,1.5,5,2.4,7.5c1.2,3.3,2.5,6.6,3.8,9.9c0.3,0.7,0.3,1.1-0.3,1.5
				c-0.8,0.5-1.6,1.1-2.3,1.7c-0.6,0.4-1.1,0.3-1.6-0.1c-4.6-4.1-9.3-8.1-14.1-11.9c-1.8-1.4-3.6-2.8-5.4-4.3c1.1-1.2,2.4-2,3.5-2.9
				c0.5-0.4,0.8-0.1,1.1,0.2c3.1,2.7,6.2,5.5,9.3,8.2c1.1,1,2.2,2,3.3,2.9c0.6-0.5,0.2-0.9,0.1-1.2c-1.9-4.8-3.7-9.6-5.4-14.4
				c-0.4-1-0.2-1.6,0.7-2.1c1.1-0.7,2.1-1.3,3.2-2c0.7-0.5,1.1-0.4,1.7,0.2c3.7,3.7,7.5,7.3,11,11.1c0.3,0.3,0.5,0.7,1,0.7
				c0.4-0.5,0.1-1-0.1-1.4c-1.6-4.8-3.1-9.5-4.7-14.3c-0.4-1.3-0.4-1.4,0.8-2.1c1-0.5,2-1,3.2-1.7c0.5,2,1,3.9,1.5,5.8
				c1.6,6.2,3.4,12.3,5.4,18.4c0.5,1.7,0.4,1.5-0.8,2.1c-0.9,0.5-1.7,1.5-2.7,1.3c-1-0.1-1.5-1.2-2.2-2c-3.6-3.6-7.2-7.2-11-10.6
				c-0.3-0.3-0.5-0.7-1-0.7c-0.1-0.1-0.2-0.2-0.3-0.1C163.3,112.2,163.4,112.3,163.5,112.4z"/>
			<path class="st4" d="M394.3,164c-2.5,1.6-4.9,3.1-7.3,4.6c-1.9,1.2-3.8,2.5-5.7,3.7c-1.1,0.7-1.2,0.7-1.9-0.5
				c-0.5-0.8-1-1.5-1.3-2.5c1.6-1.1,3.3-2.3,5-3.4c5-3.4,10-6.8,15-10.2c1.2-0.8,1.2-0.8,2.1,0.3c2.2,3.1,2.2,3.1,0.7,6.6
				c-2.1,4.6-4.4,9.2-7,13.5c-0.3,0.5-0.6,0.9-0.5,1.5c0.8,0.1,1.4-0.4,2-0.7c3.9-2.1,7.8-4.2,11.7-6.3c1.3-0.7,1.4-0.7,2.2,0.7
				c0.5,1,1.6,2.1,1.3,3c-0.3,1-1.8,1.2-2.8,1.7c-6.2,3.1-12.4,6.2-18.6,9.3c-1.6,0.8-1.3,0.6-2.1-0.6c-1.5-2.1-1.2-3.8,0.1-6
				c2.7-4.2,5-8.7,7-13.3C394.1,165.2,394.4,164.9,394.3,164z"/>
			<path class="st4" d="M218.4,97.2c4.6,2,6.9,5.9,9.9,9.5c-1.4,0.6-2.8,0.7-4.1,1c-0.7,0.1-1.1-0.3-1.5-0.8
				c-1.8-2.1-3.8-4.1-5.8-6.1c-1.5-1.6-3.2-1.9-5.2-1.4c-1,0.3-1.1,0.4-0.8,1.5c0.8,2.7,1.6,5.4,2.3,8.1c0.3,1.2,0.3,1.2-0.9,1.6
				c-3.2,1-2.6,1.2-3.6-1.9c-2.3-6.9-4.5-13.8-6.7-20.6c-0.4-1.3-0.4-1.4,0.9-1.8c4.2-1.3,8.4-2.6,12.8-3.2c2.7-0.4,5.1,0.8,6.5,3.1
				c1.1,1.8,1.2,3.7,1,5.7c-0.2,1.4-1,2.5-2.2,3.4C220.3,95.8,219.5,96.4,218.4,97.2z M214.7,87.5c-1.8,0.2-4.1,0.9-6.4,1.6
				c-0.8,0.2-0.7,0.9-0.5,1.5c0.4,1.5,0.9,3,1.3,4.4c0.2,0.8,0.7,0.9,1.3,0.7c2-0.5,4-1.1,6-1.7c1.8-0.6,2.4-1.9,2-3.8
				C218.2,88.3,217.2,87.5,214.7,87.5z"/>
			<path class="st4" d="M300.8,93.8c-0.9,2.2-1.3,4.2-1.9,6.1c-0.9,2.9-1.7,5.7-2.5,8.6c-0.4,1.4-0.6,1.5-1.9,1.1
				c-2.6-0.8-2.4-0.2-1.7-2.7c1.8-7.2,3.7-14.5,5.6-21.7c0.3-1.3,0.3-1.3,1.7-1c3.3,0.7,3.3,0.8,4.2,4.1c1.4,5.2,2.5,10.6,3.3,16
				c0.8-0.3,0.8-0.9,1-1.4c1.5-4.3,3-8.6,4.6-12.8c0.6-1.7,0.6-1.7,2.2-1.1c2.7,0.9,2.7,0.9,1.7,3.6c-2.6,6.6-5.1,13.1-7.7,19.7
				c-0.2,0.4-0.3,0.8-0.5,1.2c-0.2,0.5-0.5,0.7-1,0.4c-0.1,0-0.1-0.1-0.2-0.1c-3.2-1-3.1-1-3.6-4.3c-0.7-4.9-1.8-9.7-2.9-14.6
				C301.2,94.7,301,94.4,300.8,93.8z"/>
			<path class="st4" d="M323.5,92.3c1.8,0.5,3.4,1.4,5.1,2.1c2,0.9,3.9,1.8,5.8,2.9c4.1,2.4,5,6,4.2,10c-1,4.6-3.5,8.5-7.2,11.5
				c-3.1,2.4-6.4,2.8-9.9,0.9c-2.2-1.1-4.4-2.1-6.7-3.1c-1.4-0.6-1.4-0.6-0.8-2.1c2.9-6.8,5.8-13.6,8.8-20.5
				C322.9,93.5,323,92.8,323.5,92.3z M334,105c0.2-2-0.7-3.4-2.3-4.4c-1.3-0.8-2.6-1.5-4-2c-1.4-0.6-1.4-0.5-2.1,0.7
				c-0.8,1.6-1.5,3.1-2.2,4.7c-1.4,3-2.7,6-4.1,8.9c-0.4,0.8-0.2,1.2,0.6,1.5c1.4,0.6,2.7,1.3,4.1,1.8c1.9,0.8,3.5,0.3,4.9-1.1
				c2.3-2.3,3.8-5.1,4.8-8.1C333.9,106.4,334.1,105.7,334,105z"/>
			<path class="st4" d="M136.9,161.1c0.1,0.6-0.1,1.2-0.3,1.9c-1.4,3.6-3.3,6.8-7,8.5c-1.9,0.9-3.7,0.8-5.6,0
				c-1.7-0.7-3.2-1.5-4.8-2.5c-3.7-2.2-7.4-4.5-11-6.8c-1.4-0.9-1.4-0.9-0.5-2.3c0.4-0.7,0.9-1.4,1.3-2.1c0.7-1,0.7-1,1.8-0.3
				c2.3,1.5,4.6,3,6.9,4.6c2.1,1.3,4.1,2.7,6.2,4c1.1,0.7,2.4,1.2,3.7,1c2.3-0.4,4.5-3,4.6-5.3c0-1.2-0.4-2.2-1.3-3
				c-2-1.9-4.3-3.5-6.4-5.2c-2.4-1.9-4.9-3.7-7.3-5.5c-0.7-0.5-0.8-0.9-0.2-1.6c0.8-1,1.4-2.6,2.5-2.9c1.1-0.3,2.1,1.2,3,2
				c3.8,3.2,7.8,6.1,11.5,9.5C136,156.9,136.9,158.8,136.9,161.1z"/>
			<path class="st4" d="M252.1,83.7c0,1.3,0,2.6,0,3.9c0,0.8,0.2,1.2,1.1,1.2c2.5,0,5,0.1,7.5,0.1c1.2,0,1.3-0.2,1.3-1.4
				c0.1-1.9,0.1-3.7,0.1-5.6c0-0.5,0-1,0-1.4c0.1-1.9,0.3-2.1,2.2-1.8c0.3,0,0.6,0.1,0.9,0.1c2,0.2,2.1,0.2,1.9,2.3
				c-0.3,4.6-0.7,9.2-1,13.7c-0.2,2.7-0.3,5.5-0.5,8.2c-0.1,1.6-0.1,1.7-1.6,1.7c-3,0-2.7,0.2-2.7-2.7c0.1-2.5,0.2-5,0.3-7.5
				c0-1.2-0.1-1.4-1.3-1.4c-2.4,0-4.8,0-7.2,0c-1.1,0-1.3,0.2-1.1,1.3c0.4,2.8,0.2,5.6,0.2,8.4c0,1.8,0,1.8-1.8,1.8
				c-2.4,0-2.3,0-2.5-2.5c-0.3-3.7-0.1-7.4-0.6-11.1c-0.1-0.9,0-1.8,0-2.7c-0.1-2.6-0.3-5.2-0.4-7.9c-0.1-1.6-0.2-2,1.6-1.9
				c0.8,0,1.6,0,2.3-0.1c0.8-0.1,1.1,0.3,1,1.1C252,81,252,82.3,252.1,83.7C252,83.7,252,83.7,252.1,83.7z"/>
			<path class="st4" d="M376.3,166.7c-0.3-0.2-0.4-0.2-0.4-0.3c-0.8-1.1-2-2.1-2.3-3.4c-0.3-1.3,1.2-2.3,1.8-3.5
				c1.2-2.1,1.7-1.6-0.3-4c-1.3-1.5-2.5-3.1-3.7-4.6c-0.9-1.1-1.1-1.2-2.6-0.6c-1.2,0.5-2.3,0.9-3.4,1.5c-0.6,0.3-1,0.2-1.4-0.3
				c-0.8-0.9-1.6-1.8-2.5-2.8c1.8-0.8,3.4-1.6,5.1-2.4c6.4-2.9,12.9-5.4,19.5-7.6c0.8-0.3,1.2-0.1,1.7,0.5c0.7,0.9,1.3,1.7,2.1,2.5
				c0.8,0.8,0.7,1.6,0.2,2.5c-3.5,6.5-7.2,12.8-11.4,18.9C377.8,164.4,377.1,165.5,376.3,166.7z M374.8,148
				c-0.1,0.5,0.2,0.8,0.4,1.1c1,1.2,2,2.5,3.1,3.7c0.7,0.8,0.9,0.8,1.5-0.1c1-1.6,1.9-3.1,2.9-4.7c0.6-1.1,1.2-2.1,1.8-3.2
				C380.9,145.5,377.8,146.7,374.8,148z"/>
			<path class="st4" d="M349.7,137.7c-0.3-0.1-0.4-0.1-0.5-0.1c-3.2-2.3-3.2-2.3-2-6.2c0.1-0.3,0.2-0.6,0.3-0.9
				c0.5-1.6,0.5-1.6-0.8-2.5c-1.8-1.3-3.6-2.5-5.4-3.8c-0.8-0.6-1.4-0.5-2.1,0.1c-1,0.9-2.1,1.7-3.2,2.6c-0.4,0.3-0.8,0.5-1.3,0.2
				c-1-0.7-2.1-1.1-3-2c3-2.7,6.1-5.3,9.2-7.7c3.7-2.9,7.6-5.6,11.5-8.4c0.8-0.5,1.3-0.6,2,0c1.1,0.8,2.7,1.3,3.2,2.5
				c0.5,1.2-0.4,2.6-0.8,3.9C354.9,123,352.4,130.3,349.7,137.7z M351.8,114.9c-1,0.2-1.6,1-2.4,1.5c-1.7,1.2-3.4,2.5-5,3.8
				c-0.6,0.5-0.7,0.9,0.1,1.4c1.3,0.8,2.4,1.7,3.7,2.6c1,0.7,1.2,0.7,1.6-0.6c0.8-2.5,1.5-5,2.2-7.6
				C352,115.6,352.1,115.2,351.8,114.9z"/>
			<path class="st4" d="M289.3,108.3c-1.2-0.2-2.3-0.5-3.5-0.7c-0.6-0.1-0.7-0.6-0.8-1c-0.2-1.5-0.4-2.9-0.6-4.4
				c-0.1-0.6-0.3-0.9-1-1c-2.3-0.4-4.6-0.9-6.9-1.1c-1.6-0.1-1.6-0.1-2.2,1.2c-0.5,1.1-1,2.2-1.5,3.3c-0.3,0.7-0.7,1-1.5,0.9
				c-1-0.2-2-0.3-3.1-0.4c0.2-1.1,0.7-1.9,1.1-2.8c3-7,6.4-13.9,10.2-20.6c0.8-1.4,0.8-1.4,2.3-1.1c0.8,0.1,1.6,0.3,2.5,0.4
				c0.9,0.1,1.2,0.5,1.4,1.3c0.5,2.5,1,5,1.4,7.6c1,5.3,1.5,10.6,2.1,15.9C289.5,106.6,289.6,107.4,289.3,108.3z M282,86.9
				c-0.2,0-0.4,0-0.4,0.1c-1.6,2.6-2.9,5.5-4.3,8.3c-0.3,0.5,0.1,0.7,0.6,0.8c1.1,0.1,2.1,0.3,3.2,0.4c2.6,0.4,2.6,0.4,2.2-2.1
				C283,91.9,282.6,89.4,282,86.9z"/>
			<path class="st4" d="M202.7,109.2c-0.1,2.6-1.2,4.7-3.5,6.1c-1.3,0.8-2.8,1.4-4.3,1.9c-3.1,1-6.5-0.1-8.4-2.8
				c-0.8-1.1-1.5-2.3-2.2-3.5c-2.2-4.4-4.4-8.8-6.6-13.2c-0.6-1.1-0.6-1.2,0.5-1.7c1-0.5,2-1.5,3.1-1.2c1.2,0.3,1.2,1.8,1.7,2.8
				c1.9,4,3.8,8,5.6,12c0.1,0.3,0.3,0.5,0.4,0.8c1.5,2.9,4.4,3.4,7.2,1.7c1.7-1,2.2-2.6,1.6-4.9c-0.8-2.8-2-5.5-3.1-8.2
				c-0.9-2.5-2-4.9-2.9-7.3c-0.5-1.3-0.5-1.5,0.9-1.9c1-0.3,2.1-1.2,3-0.9c0.9,0.4,0.9,1.8,1.3,2.8c1.8,4.8,3.7,9.6,5.1,14.6
				C202.5,107.2,202.8,108.2,202.7,109.2z"/>
			<path class="st4" d="M94.6,185.9c0.6-2.3,1.7-4.3,2.6-6.3c2.1-4.6,4.4-9.2,6.9-13.6c0.6-1.1,0.6-1,1.8-0.4
				c2.4,1.3,2.4,1.3,1.1,3.7c-0.7,1.3-1.4,2.5-2,3.8c-0.7,1.3-0.6,1.5,0.8,2.2c3.2,1.7,6.4,3.3,9.5,5c2.4,1.2,4.8,2.5,7.2,3.7
				c1.1,0.6,1.1,0.6,0.6,1.7c-0.1,0.2-0.2,0.4-0.3,0.6c-1.2,2.5-1.2,2.5-3.6,1.3c-5.3-2.5-10.6-5-15.9-7.6c-1.4-0.6-1.4-0.6-2,0.7
				c-0.8,1.8-1.7,3.7-2.5,5.6c-0.4,0.9-0.8,1.1-1.6,0.6C96.3,186.5,95.5,186.2,94.6,185.9z"/>
			<path class="st4" d="M364,116.1c1.5,1.3,2.7,2.3,4,3.3c0.5,0.4,0.6,0.9,0.5,1.6c-0.5,3.1-1.2,6.1-1.8,9.1c0,0.2-0.1,0.5-0.2,0.7
				c-0.1,0.8,0.1,1,0.9,0.7c1.7-0.5,3.3-1,5-1.5c1.4-0.4,2.9-0.8,4.3-1.2c0.8-0.2,1.4-0.2,1.9,0.5c1,1.2,2.3,2.1,3.3,3.5
				c-1.6,0.6-3.3,0.7-4.9,1c-3.7,0.7-7.4,1.6-11,2.6c-0.8,0.2-1.5,0.6-2.1,1.3c-1.8,1.9-3.6,3.8-5.4,5.8c-1.1,1.2-1.2,1.2-2.3,0.2
				c-2.6-2.3-2.3-1.4-0.2-4c1.5-1.8,3.1-3.5,4.7-5.2c0.8-0.9,0.9-1.9,1.1-3C362.7,126.6,363.3,121.5,364,116.1z"/>
			<path class="st4" d="M125.2,142.1c-0.8-0.5-1.4-1.1-2.1-1.6c-0.8-0.6-0.6-1.1-0.1-1.8c2.9-3.4,5.9-6.8,9.1-9.9
				c1.2-1.2,2.4-2.4,3.6-3.5c1.2-1.1,1.3-1,2.3,0.1c1.7,1.8,1.7,1.8-0.1,3.5c-1,1-2.1,2-3.1,3c-0.5,0.5-0.6,1,0,1.5
				c0.3,0.3,0.6,0.6,0.9,0.9c4.2,4.1,8.3,8.3,12.5,12.4c0.4,0.4,0.8,0.9,1.3,1.3c-0.9,1.1-1.8,2.1-2.9,3.1c-1.8-1.6-3.5-3.2-5.3-4.8
				c-3-2.8-6-5.7-9-8.5c-0.2-0.2-0.4-0.4-0.7-0.6c-0.9-0.7-1.1-0.7-2,0.2c-1.1,1.2-2.2,2.4-3.2,3.6
				C126.1,141.4,125.8,141.9,125.2,142.1z"/>
			<path class="st4" d="M391.8,195.7c-0.7-1.5-1.3-3-1.9-4.5c2-0.9,3.9-1.8,5.9-2.7c5.4-2.5,10.9-5,16.3-7.4c1.3-0.6,1.3-0.6,2,0.8
				c0.4,1,0.8,2,1.3,2.9c0.4,0.8,0.2,1.1-0.6,1.4c-5.4,2.2-10.7,4.4-16.1,6.6C396.4,193.8,394.2,194.8,391.8,195.7z"/>
			<path class="st4" d="M231.9,106.3c-0.7,0.2-0.9-0.3-1.1-1.2c-1.2-7.7-2.5-15.4-3.8-23.1c-0.1-0.9-0.1-1.4,1-1.4
				c0.9-0.1,1.9-0.3,2.8-0.4c0.8-0.2,1,0.2,1.1,1c0.7,5.6,1.5,11.2,2.2,16.8c0.3,2.1,0.6,4.2,0.9,6.4c0.2,1.3,0.1,1.5-1.3,1.7
				C233.2,106.2,232.7,106.2,231.9,106.3z"/>
			<path class="st5" d="M182.2,245c3.9-0.6,7.3-0.8,10.7,0.1c4.2,1.1,6.9,4.5,7.4,8.9c0.3,3.2-0.1,6.3-0.6,9.4
				c-0.7,4.4-1.6,8.8-2,13.3c-0.6,8.4,2.5,15.2,8.9,20.5c2.3,1.9,4.8,3.4,7.4,4.8c0.4-0.3,0.5-0.7,0.5-1.1c1.1-6,4-11.1,7.7-15.8
				c3.2-4.2,6.9-8,10.2-12c4.1-5,7.7-10.4,9.7-16.7c1.6-4.8,2-9.8,2-14.9c0-3.2,0.2-6.4,0.3-10c2.9,3.2,5.1,6.4,6.2,10.4
				c0.3,1,0.4,2.1,0.9,3.1c0.4,0.7,0.7,1.4,1.6,1.5c0.9,0,1.3-0.7,1.7-1.3c0.5-0.8,0.7-1.8,0.9-2.7c1-4.2,3.5-7.5,6.1-10.8
				c0.7,0.3,0.4,0.8,0.4,1.1c0.1,4,0,8,0.2,12c0.3,9.6,3.6,18.1,9.5,25.6c3.3,4.3,7,8.2,10.4,12.3c2.9,3.5,5.5,7.1,7.4,11.2
				c0.9,2,1.5,4,2,6.1c0.1,0.6,0.3,1.3,0.6,2c1.9-0.9,3.7-2.1,5.5-3.3c5.1-3.6,8.8-8.1,10.3-14.2c0.8-3.4,0.9-6.8,0.4-10.2
				c-0.7-4.7-1.5-9.3-2.2-14c-0.3-2.1-0.3-4.3-0.1-6.5c0.5-5.1,3.4-8.2,8.6-9.1c3-0.5,6.1-0.4,9.1,0.2c-0.1,0.6-0.6,0.6-0.9,0.8
				c-4.5,2.5-7,6.3-7.6,11.5c-0.6,4.9,0.3,9.5,1.4,14.2c1.5,6.9,3.8,13.6,5.7,20.4c1.5,5.6,2.8,11.3,3.1,17.1
				c0.4,6.4-0.1,12.7-2.5,18.7c-2.8,7.1-7.8,12.2-14.3,16c-6.1,3.5-12.7,5.5-19.5,6.9c-1.5,0.3-3.1,0.5-4.6,0.8
				c-1,0.2-2,0.5-2.7,1.2c-5.5,5.6-12,9.6-18.8,13.4c-1.8,1-3.7,1.8-5.5,2.7c-3.8,1.8-7.5,1.5-11.2-0.3c-4.7-2.3-9-5.2-13.2-8.3
				c-3-2.1-5.8-4.4-8.3-7.1c-0.9-1-2.1-1.4-3.3-1.6c-7.2-1-14.2-2.8-20.8-5.9c-6.6-3.2-12.1-7.6-15.8-14.1c-2.2-4-3.4-8.3-4-12.8
				c-1.1-8.8,0.4-17.4,2.7-25.9c1.7-6.5,3.7-12.9,5.4-19.3c1.2-4.4,2-9,2-13.6c-0.1-6.2-2.5-11-8.1-13.9
				C182.9,245.5,182.7,245.4,182.2,245z M246.5,267.6c-0.4,0.2-0.5-0.1-0.7-0.2c-1.8-1.1-3.1-0.6-3.8,1.3c-0.3,0.9-0.5,1.8-0.7,2.8
				c-0.4,3-1.4,5.8-2.8,8.5c-1.5,2.9-3.3,5.7-4.9,8.5c-4,6.9-6.3,14.3-5.7,22.4c0.3,4,1.4,7.8,3.5,11.2c2.7,4.3,6.6,7.2,11.1,9.4
				c1.6,0.8,2.7,0.8,4.1-0.5c3.2-3.1,9.4-3.2,12.7-0.1c1.5,1.4,2.6,1.4,4.4,0.6c8.7-4.1,13.7-10.8,14.5-20.4
				c0.5-6.5-0.9-12.7-3.7-18.6c-2.6-5.6-6.1-10.8-9.4-16.1c-3.4-5.5-6.2-11.3-7.4-17.8c-0.5-2.3-0.8-4.7-1.1-7.1
				c-0.2-1.2-0.5-2.6-2.1-2.8c-1.5-0.2-2.2,1-2.8,2.1c-0.9,1.8-1.5,3.6-2.1,5.5C248.3,260.1,247.2,263.8,246.5,267.6z M261,343.5
				c0-2.3-0.1-4.1-0.4-5.9c-0.1-0.5-0.2-0.9-0.3-1.4c-0.4-1.6-1.3-2.6-3-3c-2.1-0.6-4.3-0.6-6.4-0.4c-3.1,0.4-4,1.2-4.8,4.2
				c-0.6,2.3-0.8,4.6-0.9,6.9c-0.1,1.1-0.2,2.1-1,3c-1,1.3-1.9,2.8-2.7,4.2c-0.9,1.7-0.9,3.3,0,4.9c2.2,3.8,5.2,6.8,9.3,8.7
				c1.4,0.6,2.8,0.7,4.2,0c4.1-1.8,7.2-4.8,9.4-8.7c0.8-1.4,0.8-2.9,0-4.3c-0.5-1-1-1.9-1.6-2.8C261.5,347.2,260.5,345.3,261,343.5z
				"/>
			<path class="st5" d="M232.9,128.9c0.7,3.6,0.9,6.9,1.2,10.2c0.7,6.8,1.4,13.5,2,20.3c0.4,4.3,0.8,8.7,1.2,13
				c0.5,5.1,1,10.2,1.5,15.3c0,0.3,0.1,0.6,0.2,0.9c0.4,1.2,1.2,1.9,2.1,1.9c1,0,1.8-1,2-2.2c0.2-1.3-0.1-2.6-0.2-3.9
				c-0.3-3.4-0.7-6.8-1-10.2c-0.7-6.6-1.4-13.2-2-19.8c-0.4-4.3-0.8-8.7-1.2-13c-0.2-1.8-0.3-3.6-0.4-5.4c-0.2-3.2,1.1-5.6,3.4-7.6
				c1.9-1.7,3.9-3.3,6-4.8c2.1-1.5,4.1-3.1,5.7-5.3c1.6,2.5,3.9,4,6.1,5.6c2,1.5,4,3,5.8,4.8c2.5,2.3,3.5,5.1,3,8.5
				c-0.6,4.4-0.8,8.9-1.3,13.4c-0.6,6.6-1.3,13.2-2,19.8c-0.4,4.3-0.8,8.7-1.2,13c-0.1,1.2-0.2,2.4-0.3,3.6c0,0.4,0,0.8,0,1.3
				c0.1,1.2,0.9,2,1.8,2.1c1,0.1,1.8-0.5,2.2-1.7c0.5-1.5,0.4-3.1,0.6-4.6c0.9-8.3,1.7-16.6,2.5-24.9c0.4-4.3,0.8-8.7,1.2-13
				c0.6-5.5,1-11.1,1.7-16.6c0-0.2,0.1-0.4,0.1-0.9c3.5,2.9,7.4,5,10.6,8.1c3.2,3.1,4.2,6.8,3.4,11.1c-2.8,15.4-5.6,30.8-8.4,46.2
				c-0.2,1.3-0.5,2.7-0.7,4.1c-0.1,0.6-0.1,1.3-0.1,2c0.1,1,0.7,1.8,1.6,1.9c0.9,0.2,1.6-0.3,2.1-1c0.4-0.6,0.6-1.3,0.7-2
				c2.5-14,5-28.1,7.6-42.1c0.3-1.7,0.7-3.4,1-5.1c0.7-4,3.6-6.8,7.6-7.4c2-0.3,3.9,0,5.8,0.8c2.4,0.9,7.1,3.7,9.2,5.6
				c-0.7,0.3-1.5,0.5-2.1,0.7c-3.4,1.4-5.4,4-6.8,7.2c-1.6,3.8-2.4,7.8-3.2,11.7c-3.2,15.6-6.4,31.1-9.6,46.7
				c-2.6,12.5-5.1,24.9-7.6,37.4c0,0.2-0.1,0.4-0.2,0.8c-1.1-0.7-1.7-1.8-2.5-2.6c-4-4.5-8.6-8.3-13.7-11.5
				c-1.3-0.8-1.7-1.7-1.7-3.1c0.1-4,0-8,0-12c0-0.8,0.1-1.5,0.4-2.3c2-5.6,1.5-10.9-1.3-16.1c-1.7-3.1-3.8-6-5.9-8.8
				c-2.6-3.6-4.9-7.4-5.5-11.9c-0.1-0.7-0.3-1.8-1.2-1.8c-0.9,0-1.1,1-1.2,1.7c-0.6,4.7-2.8,8.7-5.7,12.4c-2,2.6-3.9,5.3-5.5,8.2
				c-2.8,5.2-3.5,10.6-1.3,16.3c0.2,0.6,0.3,1.3,0.3,1.9c0,4.4,0,8.8,0,13.1c0,0.9-0.2,1.5-1.1,2c-6.1,3.8-11.5,8.3-16,14
				c-0.1,0.2-0.3,0.4-0.7,0.4c-0.4-1.9-0.8-3.9-1.3-5.9c-3.8-18.7-7.7-37.3-11.5-56c-1.9-9.4-3.9-18.8-5.8-28.2
				c-0.4-2-1-3.9-1.8-5.8c-2.3-5.5-4.8-7.3-9.2-8.5c0.3-0.7,1-0.9,1.5-1.2c2.3-1.6,4.6-3.2,7.3-4.3c4-1.7,7.8-1.4,11.3,1.4
				c1.3,1,2.1,2.3,2.4,3.9c1.5,8.1,2.9,16.2,4.4,24.3c1.5,8.1,2.9,16.2,4.4,24.3c0.1,0.8,0.3,1.5,0.9,2.1c0.5,0.5,1.2,0.9,1.9,0.7
				c0.8-0.2,1.2-0.7,1.4-1.5c0.3-1,0.1-1.9-0.1-2.8c-2.7-15.3-5.5-30.5-8.3-45.8c-0.4-1.9-0.8-3.9-1-5.8c-0.4-3.9,1.2-7,3.9-9.6
				C225.6,133.8,229.4,131.7,232.9,128.9z"/>
			<path class="st5" d="M372.1,349.2c-0.7,2.3-1.8,4.4-3.3,6.3c-3,3.8-6.9,6.2-11.4,7.8c-4.2,1.4-8.6,2.1-13,2.3
				c-13.4,0.7-26.3-1.9-39.1-5.2c-5-1.3-9.9-2.9-14.7-4.6c-0.4-0.2-1-0.2-1.3-0.8c1.4-0.3,2.7-0.6,4.1-0.9c6.3-1.5,12.4-3.6,18-6.9
				c10.6-6.3,16.9-15.5,18.4-27.8c0.9-7.4,0.3-14.7-1.3-21.9c-1.6-7.5-4-14.8-6.1-22.1c-1.3-4.6-2.3-9.3-2.7-14.1
				c-0.4-5.6,2.5-10.4,7.7-12.5c1.6-0.7,3.3-1.1,5-1.5c0.9-0.2,1.8-0.1,2.6,0.2c8.2,2.4,16.1,5.5,24,8.6c4.7,1.9,9.2,4.1,14.1,5.4
				c3.7,1,7.5,1.6,11.3,0.9c4.7-0.8,8.1-3.4,9.9-7.9c1.4-3.4,1.7-6.9,1.3-10.6c-0.6-5.7-2.2-11.2-3.2-16.9c-0.4-2.1-0.8-4.2-1.2-6.3
				c-0.1-0.3-0.2-0.7,0.1-1.1c0.9,1.7,1.8,3.4,2.7,5c3.6,6.6,7.6,13,10.9,19.8c2.2,4.5,4.1,9,4.9,14c1.7,10-1.9,17.2-10.6,21.8
				c-4.2,2.2-8.8,3.5-13.4,4.4c-2.2,0.4-4.4,0.7-6.5,1.1c-0.6,0.1-1.2,0.2-1.7,0.4c-0.9,0.4-1.7,0.9-1.7,2.1c0,0.9,0.9,1.5,2.2,1.8
				c0.6,0.1,1.2,0.1,1.8,0c7.9-1.3,15.7-2.9,22.8-6.7c0.1-0.1,0.3,0,0.6-0.1c0.1,2-0.2,3.8-0.7,5.7c-1,4.1-2.8,7.9-5.7,11
				c-3.3,3.5-7.5,5.3-12,6.3c-3.3,0.7-6.7,1.1-10.1,1.5c-1.1,0.1-2.1,0.3-3.1,0.8c-0.7,0.4-1.4,1-1.3,1.8c0.1,0.9,0.9,1.4,1.8,1.6
				c0.9,0.2,1.9,0.2,2.9,0.1c6-0.5,12-1.5,17.7-3.7c0.9-0.4,1.8-0.8,2.9-1.2c0.5,3.1-0.1,5.7-1.6,8.2c-3,5.2-7.7,8.3-13.3,10
				c-5.1,1.5-10.4,1.7-15.6,1.2c-0.5,0-0.9-0.1-1.4,0.1c-1.2,0.3-1.9,1.1-1.9,2.1c0,0.9,0.8,1.9,2,2.1c1.4,0.3,2.9,0.2,4.3,0.1
				c3.7-0.1,7.4-0.2,11.1-0.8c2.4-0.4,4.7-1,6.9-1.8c0.3,0.6,0,1.1-0.1,1.6c-1.2,3.9-3.6,7-6.4,9.8c-4,4.1-9.1,5.6-14.5,6.5
				c-4,0.7-8.1,0.7-12.2,0.6c-0.4,0-0.8,0-1.3,0c-1.6,0-2.2,0.6-2.3,1.9c-0.1,1.4,0.6,2.3,2.1,2.4c2.3,0.1,4.7,0.2,7,0.1
				c4.4-0.2,8.8-0.7,13.1-2C371.7,349.1,371.9,349.1,372.1,349.2z"/>
			<path class="st5" d="M217.3,354.9c-4.1,1.9-8.2,3.2-12.4,4.4c-8,2.3-16.1,4.2-24.3,5.3c-3.6,0.5-7.1,0.7-10.7,1
				c-4.9,0.3-9.7,0-14.5-0.8c-5.3-0.9-10.3-2.6-14.5-6.1c-3.1-2.5-5.2-5.7-6.4-9.7c1.3,0.3,2.5,0.6,3.6,0.9
				c4.8,1.1,9.7,1.4,14.6,1.2c0.8,0,1.7,0,2.5-0.1c1.6-0.2,2.3-1.4,1.9-2.8c-0.3-1.1-0.8-1.4-2.1-1.5c-2.4,0-4.8,0-7.2,0
				c-5.3-0.1-10.4-1.1-15.4-3.1c-1.6-0.6-2.8-1.8-4.1-2.9c-3.7-3.1-6.5-6.8-7.8-11.6c0-0.2-0.1-0.3-0.1-0.5c0-0.1,0-0.2,0.1-0.4
				c2.5,0.9,5.1,1.6,7.8,1.9c4.5,0.6,9.1,0.7,13.6,0.7c0.8,0,1.5-0.1,2.2-0.7c1.2-1.1,0.9-2.7-0.5-3.4c-0.6-0.3-1.2-0.4-1.9-0.3
				c-4.8,0.5-9.6,0.3-14.3-0.8c-5.6-1.4-10.3-4.1-13.8-8.8c-1.7-2.2-2.5-4.7-2.8-7.5c-0.1-0.7,0.1-1.4,0.4-2.2
				c1.7,0.6,3.4,1.4,5.1,2c5.3,1.7,10.7,2.5,16.2,2.9c0.8,0.1,1.5,0,2.3-0.3c0.7-0.3,1.3-0.6,1.4-1.5c0-0.8-0.5-1.3-1.1-1.7
				c-1-0.6-2.1-0.8-3.2-0.9c-3.8-0.4-7.6-0.8-11.3-1.7c-9.8-2.4-15.1-9.1-16.9-19c-0.2-1.2-0.5-2.4-0.3-3.6c0.3-0.1,0.5,0,0.8,0.1
				c6.6,3.4,13.7,5,20.9,6.3c0.9,0.2,1.8,0.3,2.7,0.4c0.7,0.1,1.3-0.1,1.9-0.4c1.3-0.6,1.6-1.9,0.5-2.9c-0.8-0.7-1.9-1-3-1.1
				c-4.9-0.7-9.8-1.6-14.5-3.2c-3.7-1.3-7.2-3-10.1-5.6c-3.8-3.4-5.8-7.7-6.1-12.8c-0.3-5.7,1.4-10.9,3.6-16
				c2.6-6.1,5.9-11.7,9.2-17.5c2.1-3.6,4.2-7.2,6.2-11.1c0.4,0.7,0.2,1.4,0.1,1.9c-1.2,6-2.5,12-3.7,18.1c-0.9,4.4-1.2,8.8,0.1,13.1
				c1.7,5.9,6,9.4,12.1,9.8c4.8,0.4,9.3-0.7,13.7-2.4c5.6-2.1,11.1-4.5,16.6-6.7c5.7-2.3,11.5-4.3,17.4-6c0.6-0.2,1.1-0.4,1.7-0.3
				c3.6,0.5,7,1.5,9.8,4c2.8,2.4,3.7,5.7,3.8,9.2c0.1,4.2-0.8,8.3-1.9,12.4c-1.7,6.2-3.5,12.4-5.2,18.6c-1.4,5.2-2.6,10.4-3,15.8
				c-0.7,8.6,0,17,3.9,24.8c3.3,6.6,8.4,11.6,14.7,15.3c6.1,3.6,12.7,5.7,19.6,7.2C215.8,354.6,216.6,354.7,217.3,354.9z"/>
			<path class="st5" d="M253.3,236.6c-1.8-3.6-4.2-6.4-6.5-9.3c-0.9-1.2-1.7-2.4-2.5-3.7c-2.4-4.5-2.2-8.9-0.1-13.4
				c1-2,2.2-3.8,3.5-5.6c1.9-2.7,3.9-5.3,5.4-8.2c0.6,0.1,0.7,0.7,0.9,1c1.7,3,3.8,5.6,5.7,8.5c1.1,1.7,2.2,3.4,3,5.3
				c1.9,4.6,1.6,9.1-1,13.4c-0.6,0.9-1.2,1.8-1.8,2.7C257.7,230,255.2,232.9,253.3,236.6z"/>
			<path class="st5" d="M267.2,245.6c14.5,8.9,23.5,24.2,23.2,40.3c-0.7-0.5-1-1.2-1.4-1.8c-3.2-4.3-6.8-8.2-10.3-12.2
				c-3.6-4.2-6.8-8.6-9-13.8c-1.4-3.4-2.3-6.9-2.6-10.6c0-0.5,0-1,0-1.4C267.1,245.9,267,245.7,267.2,245.6z"/>
			<path class="st5" d="M216.1,285.6c0.2-8.1,2.1-15.8,6.2-22.8c4.3-7.2,10.2-12.9,17.3-17.6c-0.2,7.6-2.7,14.2-6.8,20.2
				c-2.6,3.8-5.7,7.3-8.7,10.7c-2.6,3-5.2,6-7.4,9.2C216.6,285.6,216.5,285.7,216.1,285.6z"/>
			<path class="st5" d="M343.7,411.9c-7.2-0.1-14-2.1-20.7-4.8c-5-2-9.9-4.2-14.9-6.2c-5-2-10.3-3-15.7-3.5
				c-6.8-0.6-13.3,0.9-19.6,3.2c-3.2,1.2-6.5,2.4-9.8,3.6c-5.3,1.9-10.6,1.9-16,0c-3.9-1.4-7.9-2.8-11.8-4.3
				c-5.1-1.8-10.3-2.9-15.6-2.6c-7.2,0.3-14.1,2-20.7,4.8c-5.2,2.2-10.3,4.5-15.6,6.4c-5.4,1.9-10.9,3.2-16.6,3.4
				c-0.8,0-1.7,0-2.5,0c-0.5,0-1.1,0-1.3-0.7c-0.1-0.7-0.5-1.3,0.2-2c1.8-1.7,3.1-3.8,4.1-6.1c0.2-0.6,0.5-0.8,1.2-0.7
				c4.8,0.5,9.4-0.5,13.9-2.1c3.2-1.1,6.2-2.5,9.2-4c4.1-2.1,8.2-4.1,12.7-5.4c2.6-0.8,5.3-1.1,8-1.2c14-0.4,27.1,3.1,39.6,9.3
				c1.2,0.6,2.1,0.6,3.3,0c8.2-4.1,16.8-7.2,26-8.5c5.5-0.8,11.1-1.2,16.6-0.6c4.7,0.5,9.1,2.2,13.4,4c5.1,2.2,10.1,4.7,15.4,6.4
				c4.1,1.4,8.4,2.4,12.8,2.6c1,0,1.9,0,2.9-0.1c0.6,0,1,0.2,1.2,0.8c0.9,2.1,2.2,4,3.8,5.6c0.7,0.7,0.3,1.3,0.1,2
				c-0.2,0.7-0.8,0.6-1.3,0.7C345.1,411.9,344.4,411.9,343.7,411.9z"/>
			<path class="st5" d="M341.7,400.4c-3.9,0.5-7.6-0.2-11.2-1.2c-4.4-1.3-8.5-3.1-12.7-4.9c-4.9-2.2-9.7-4.4-14.8-5.8
				c-4.8-1.3-9.7-1.4-14.6-1.1c-5.4,0.3-10.7,1.1-15.9,2.4c-5.7,1.5-11.2,3.5-16.5,6.1c-0.4,0.2-0.9,0.4-1.3,0.6
				c-0.4-0.5-0.3-1-0.3-1.4c0-4.4,0-8.8,0-13.1c0-1,0.1-1.5,1.3-1.6c2-0.3,3.8-1,5.6-1.9c4.2-2.1,8.7-3.4,13.2-4.5
				c4.9-1.1,9.8-2.2,14.8-2.5c6.7-0.4,12.9,1,19,3.7c7.1,3.2,14.5,5.9,22.2,7.6c1.8,0.4,3.6,0.6,5.5,0.8c1.7,0.2,1.7,0.2,2.1,1.8
				c0.7,3.1,1.4,6.3,2.2,9.4C340.6,396.5,341.2,398.4,341.7,400.4z"/>
			<path class="st5" d="M252,396.4c-3.1-1.4-5.9-2.7-8.7-3.7c-7.9-3-16.1-4.9-24.6-5.3c-5-0.3-9.9-0.2-14.8,1.1
				c-4.1,1.1-7.9,2.9-11.6,4.7c-4,2-7.9,4-12.1,5.4c-3.4,1.2-6.9,1.8-10.6,1.6c-1.1-0.1-1.2-0.2-0.9-1.1c1.6-4.7,2.3-9.6,3.6-14.4
				c0.2-0.7,0.4-1,1.2-1c10.8,0.3,20.7-3.2,30.2-7.9c7.4-3.6,15.2-4.4,23.2-3.5c5,0.6,9.9,1.9,14.7,3.1c1.5,0.4,2.9,1.2,4.2,2
				c1.7,1.2,3.5,2.4,5.6,2.8c0.5,0.1,0.7,0.4,0.7,0.9C252,386,252,391,252,396.4z"/>
			<path class="st3" d="M163.5,112.4c-0.1,0-0.2-0.1-0.1-0.2c0.1-0.1,0.2,0,0.3,0.1C163.6,112.2,163.5,112.4,163.5,112.4z"/>
			<path class="st3" d="M214.7,87.5c2.5,0,3.5,0.8,3.8,2.6c0.3,1.9-0.3,3.2-2,3.8c-2,0.7-4,1.2-6,1.7c-0.6,0.2-1.1,0.1-1.3-0.7
				c-0.4-1.5-0.9-3-1.3-4.4c-0.2-0.6-0.3-1.3,0.5-1.5C210.6,88.4,212.9,87.8,214.7,87.5z"/>
			<path class="st3" d="M334,105c0.1,0.7-0.1,1.4-0.3,2.1c-1,3-2.4,5.8-4.8,8.1c-1.4,1.4-3.1,1.8-4.9,1.1c-1.4-0.6-2.7-1.2-4.1-1.8
				c-0.8-0.3-0.9-0.7-0.6-1.5c1.4-3,2.8-6,4.1-8.9c0.7-1.6,1.4-3.2,2.2-4.7c0.6-1.3,0.7-1.3,2.1-0.7c1.4,0.6,2.7,1.2,4,2
				C333.3,101.6,334.2,103,334,105z"/>
			<path class="st3" d="M374.8,148c3-1.3,6.1-2.5,9.5-3.2c-0.6,1.1-1.2,2.2-1.8,3.2c-0.9,1.6-1.9,3.2-2.9,4.7
				c-0.5,0.9-0.8,0.9-1.5,0.1c-1-1.2-2.1-2.5-3.1-3.7C374.9,148.8,374.7,148.5,374.8,148z"/>
			<path class="st3" d="M351.8,114.9c0.4,0.3,0.2,0.7,0.1,1c-0.7,2.5-1.5,5-2.2,7.6c-0.4,1.3-0.5,1.3-1.6,0.6
				c-1.2-0.8-2.4-1.7-3.7-2.6c-0.7-0.5-0.7-0.9-0.1-1.4c1.7-1.3,3.3-2.5,5-3.8C350.2,115.9,350.8,115.1,351.8,114.9z"/>
			<path class="st3" d="M282,86.9c0.6,2.5,0.9,5,1.3,7.5c0.4,2.5,0.3,2.5-2.2,2.1c-1.1-0.2-2.1-0.3-3.2-0.4
				c-0.5-0.1-0.9-0.3-0.6-0.8c1.4-2.8,2.6-5.6,4.3-8.3C281.6,86.9,281.8,86.9,282,86.9z"/>
			<path class="st2" d="M246.5,267.6c0.7-3.8,1.7-7.6,3-11.3c0.6-1.9,1.3-3.7,2.1-5.5c0.6-1.1,1.2-2.3,2.8-2.1
				c1.6,0.2,1.9,1.6,2.1,2.8c0.3,2.4,0.7,4.7,1.1,7.1c1.3,6.4,4,12.2,7.4,17.8c3.3,5.3,6.7,10.5,9.4,16.1c2.8,5.9,4.2,12.1,3.7,18.6
				c-0.8,9.6-5.8,16.3-14.5,20.4c-1.7,0.8-2.9,0.8-4.4-0.6c-3.3-3-9.5-3-12.7,0.1c-1.4,1.3-2.5,1.3-4.1,0.5c-4.5-2.2-8.4-5-11.1-9.4
				c-2.1-3.4-3.2-7.2-3.5-11.2c-0.6-8.1,1.7-15.5,5.7-22.4c1.7-2.8,3.5-5.6,4.9-8.5c1.3-2.7,2.3-5.5,2.8-8.5
				c0.1-0.9,0.4-1.9,0.7-2.8c0.7-2,2-2.4,3.8-1.3C246,267.5,246.1,267.8,246.5,267.6z M244.6,270.9c-0.4,0.5-0.4,0.9-0.5,1.3
				c-0.5,3-1.4,5.8-2.8,8.5c-1.4,2.9-3.1,5.6-4.7,8.3c-3.5,5.8-5.8,11.9-6,18.8c-0.2,9.4,3.6,16.4,12.2,20.6
				c0.8,0.4,1.5,0.6,2.3-0.1c4.5-3.5,10.9-3.5,15.5-0.1c0.9,0.7,1.6,0.6,2.5,0.1c7.8-4,11.9-10.3,12.2-19.1c0.2-6-1.4-11.6-4.1-16.9
				c-2.3-4.6-5.1-9-7.8-13.3c-4-6.3-7.2-13-8.7-20.3c-0.3-1.6-0.4-3.2-0.9-4.7c-0.4,0.1-0.5,0.4-0.6,0.7c-1.6,4.3-2.9,8.6-3.8,13.1
				c-0.5,2.5-0.2,4.7,0.9,7.1c2.4,5.1,4.5,10.4,5.8,16c0.5,2.1,0.7,4.1,0.3,6.2c-0.5,2.7-1.3,5.3-2.3,7.9c-1.1,2.9-2.3,5.8-3.8,8.5
				c0.3-1.9,0.7-3.8,1.1-5.6c0.7-3.3,1.2-6.6,1.5-9.9c0.4-4-0.6-7.8-1.8-11.6c-1.5-4.6-3.5-9-5.3-13.5
				C245.6,272.3,245.3,271.6,244.6,270.9z"/>
			<path class="st2" d="M261,343.5c-0.6,1.8,0.4,3.7,1.9,5.5c0.7,0.8,1.1,1.8,1.6,2.8c0.7,1.4,0.7,2.9,0,4.3
				c-2.2,3.9-5.3,6.9-9.4,8.7c-1.4,0.6-2.8,0.6-4.2,0c-4-1.9-7.1-4.8-9.3-8.7c-0.9-1.6-1-3.3,0-4.9c0.8-1.5,1.7-2.9,2.7-4.2
				c0.7-0.9,0.9-1.9,1-3c0.1-2.3,0.3-4.6,0.9-6.9c0.8-3,1.7-3.9,4.8-4.2c2.1-0.2,4.3-0.2,6.4,0.4c1.6,0.4,2.6,1.4,3,3
				c0.1,0.5,0.2,0.9,0.3,1.4C260.9,339.4,261.1,341.1,261,343.5z M258.6,343.4C258.6,343.4,258.6,343.4,258.6,343.4
				c0-0.9,0-1.8-0.1-2.7c-0.3-4.3-1.7-5.5-6.1-5.1c-0.1,0-0.1,0-0.2,0c-2.3,0.2-3.2,0.9-3.7,3.2c-0.4,1.9-0.7,3.8-0.7,5.7
				c0,1.1-0.2,2.1-0.8,3.1c-0.8,1.1-1.4,2.4-1.9,3.7c-0.4,1.1-0.4,2.1,0,3.1c1.2,3.2,3.3,5.6,6.2,7.5c1.2,0.8,2.5,0.8,3.7,0
				c2.7-1.7,4.6-4,6-6.8c0.6-1.3,0.7-2.7,0-4c-0.5-1-0.9-2-1.5-2.9c-0.6-1-1-2-0.9-3.2C258.6,344.5,258.6,343.9,258.6,343.4z"/>
			<path class="st6" d="M244.6,270.9c0.6,0.6,0.9,1.3,1.2,2c1.8,4.5,3.8,8.9,5.3,13.5c1.2,3.8,2.2,7.6,1.8,11.6
				c-0.3,3.3-0.8,6.6-1.5,9.9c-0.4,1.9-0.8,3.7-1.1,5.6c1.5-2.7,2.7-5.6,3.8-8.5c0.9-2.6,1.8-5.2,2.3-7.9c0.4-2.1,0.2-4.2-0.3-6.2
				c-1.3-5.6-3.4-10.9-5.8-16c-1.1-2.4-1.4-4.6-0.9-7.1c0.9-4.5,2.2-8.8,3.8-13.1c0.1-0.3,0.2-0.6,0.6-0.7c0.5,1.5,0.6,3.1,0.9,4.7
				c1.5,7.4,4.7,14,8.7,20.3c2.8,4.3,5.5,8.7,7.8,13.3c2.6,5.3,4.3,10.9,4.1,16.9c-0.3,8.7-4.4,15.1-12.2,19.1
				c-0.9,0.4-1.6,0.5-2.5-0.1c-4.6-3.5-11-3.4-15.5,0.1c-0.8,0.7-1.5,0.5-2.3,0.1c-8.5-4.2-12.4-11.2-12.2-20.6
				c0.1-6.9,2.5-13,6-18.8c1.6-2.7,3.3-5.4,4.7-8.3c1.3-2.7,2.3-5.5,2.8-8.5C244.2,271.9,244.2,271.5,244.6,270.9z"/>
			<path class="st5" d="M258.6,343.4c0,0.5,0,1.1,0,1.6c-0.1,1.2,0.2,2.2,0.9,3.2c0.6,0.9,1,1.9,1.5,2.9c0.6,1.3,0.6,2.7,0,4
				c-1.4,2.8-3.3,5.1-6,6.8c-1.2,0.8-2.5,0.8-3.7,0c-2.8-1.8-4.9-4.3-6.2-7.5c-0.4-1.1-0.4-2.1,0-3.1c0.5-1.3,1.1-2.5,1.9-3.7
				c0.6-1,0.8-2,0.8-3.1c0-1.9,0.3-3.8,0.7-5.7c0.5-2.3,1.3-3,3.7-3.2c0.1,0,0.1,0,0.2,0c4.4-0.4,5.8,0.8,6.1,5.1
				C258.5,341.6,258.6,342.5,258.6,343.4C258.6,343.4,258.6,343.4,258.6,343.4z"/>
		</g>
	</g>
</g>
</svg>
