<svg xmlns="http://www.w3.org/2000/svg" viewBox="0 0 500 500"><defs><style>.cls-1{fill:none;}.cls-2{fill:#60474f;}.cls-3{fill:#3f303a;}.cls-4{fill:#c47e4e;}.cls-5{fill:#9b5e34;}.cls-6{fill:#fd697f;}.cls-7{fill:#e6455d;}.cls-8{fill:#ffea80;}.cls-9{fill:#ffc34d;}</style></defs><title>tidak bekerja</title><g id="Layer_2" data-name="Layer 2"><g id="Layer_1-2" data-name="Layer 1"><rect class="cls-1" width="500" height="500"/><path class="cls-2" d="M282.13,40.53H168.77L140.83,96.41l22,11L184,65.08h83l21.15,42.31,22-11Z"/><path class="cls-3" d="M288.11,107.39l22-11L282.13,40.53H225.45V65.08H267Z"/><path class="cls-2" d="M225.45,146.11H40.53v189.8h369V146.11Z"/><path class="cls-3" d="M225.45,146.11h184.1v189.8H225.45Z"/><path class="cls-4" d="M225.45,89.63H40.53v56.48l83,54.77H225.45l101.91,0,82.19-54.8V89.63Z"/><path class="cls-5" d="M409.55,146.11V89.63H225.45V200.89l101.91,0Z"/><path class="cls-6" d="M348.19,237.73A110.45,110.45,0,0,0,237.73,348.19c0,61,49.45,111.28,110.46,111.28s111.28-50.28,111.28-111.28S409.19,237.73,348.19,237.73Z"/><path class="cls-7" d="M459.47,348.19c0-61-50.28-110.46-111.28-110.46V459.47C409.19,459.47,459.47,409.19,459.47,348.19Z"/><path class="cls-2" d="M400.24,313.49l-17.35-17.36-34.7,34.7-34.7-34.7-17.36,17.36,34.7,34.7-34.7,34.7,17.36,17.35,34.7-34.7,34.7,34.7,17.35-17.35-34.7-34.7Z"/><path class="cls-3" d="M400.24,382.89l-34.7-34.7,34.7-34.7-17.35-17.36-34.7,34.7v34.71l34.7,34.7Z"/><path class="cls-8" d="M151.81,237.73A36.87,36.87,0,0,1,115,200.91V164.09h73.64v36.82A36.86,36.86,0,0,1,151.81,237.73Z"/><path class="cls-9" d="M299.09,237.73a36.87,36.87,0,0,1-36.82-36.82V164.09h73.64v36.82A36.86,36.86,0,0,1,299.09,237.73Z"/></g></g></svg>