<svg xmlns="http://www.w3.org/2000/svg" viewBox="0 0 500 500"><defs><style>.cls-1{fill:none;}.cls-2{fill:#525252;}.cls-3{fill:#fac7b7;}.cls-4{fill:#ffe7de;}.cls-5{fill:#29abe2;}.cls-6{fill:#ffdaaa;}.cls-7{fill:#f7931e;}</style></defs><title>tota_laki_perempuan</title><g id="Layer_2" data-name="Layer 2"><g id="Layer_1-2" data-name="Layer 1"><rect class="cls-1" width="500" height="500"/><g id="User_Male" data-name="User Male"><g id="Filled"><path class="cls-2" d="M97.15,166.27l12.13,8.08a34.28,34.28,0,0,0,38,0l12.12-8.08s15,2.49,19.49,13.83a50.84,50.84,0,0,0-50.63-55.36h0A50.83,50.83,0,0,0,77.67,180.1C82.19,168.76,97.15,166.27,97.15,166.27Z"/><path class="cls-3" d="M128.3,297.77h0a31.14,31.14,0,0,0,31.11-29.89l-1.2-.22a6.92,6.92,0,0,1-5.69-6.81V238.94H104.07v21.91a6.92,6.92,0,0,1-5.68,6.81l-1.21.22A31.14,31.14,0,0,0,128.3,297.77Z"/><path class="cls-4" d="M176.41,194l1.68-8.19a54,54,0,0,0,.84-5.66c-4.53-11.34-19.49-13.83-19.49-13.83l-12.12,8.08a34.28,34.28,0,0,1-38,0l-12.13-8.08s-15,2.49-19.48,13.83a49.2,49.2,0,0,0,.84,5.66L80.18,194a8.36,8.36,0,0,0-8.36,8.37,8.18,8.18,0,0,0,.25,2l2,7.89a12.41,12.41,0,0,0,12,9.4,44.19,44.19,0,0,0,42.22,31.14h0a44.19,44.19,0,0,0,42.22-31.14,12.42,12.42,0,0,0,12-9.4l2-7.89a8.37,8.37,0,0,0-6.09-10.15A8.61,8.61,0,0,0,176.41,194Z"/><path class="cls-5" d="M203.08,275.82l-43.67-7.94a31.14,31.14,0,0,1-31.11,29.89h0a31.15,31.15,0,0,1-31.12-29.89l-43.67,7.94a31.14,31.14,0,0,0-25.57,30.64v36.3H228.66v-36.3A31.15,31.15,0,0,0,203.08,275.82Z"/></g><g id="Outline"><path d="M203.7,272.41l-44.87-8.15a3.47,3.47,0,0,1-2.85-3.41V247.37a47.66,47.66,0,0,0,17.1-22.48,15.85,15.85,0,0,0,12.83-11.81l2-7.89a12.71,12.71,0,0,0,.36-2.89,11.86,11.86,0,0,0-7.74-11.08l1-4.76a56.89,56.89,0,0,0,.88-6v0c.16-1.68.24-3.36.24-5a53.41,53.41,0,0,0-4.19-20.8,54.36,54.36,0,0,0-70.59-29.4,3.46,3.46,0,0,0,2.61,6.41,47.46,47.46,0,0,1,64.91,38.1A36.4,36.4,0,0,0,160,162.85l-1.35-.22-13.26,8.84a30.84,30.84,0,0,1-34.2,0l-13.27-8.84-1.35.22a36.54,36.54,0,0,0-15.33,6.93,47,47,0,0,1,9-22.49A3.46,3.46,0,0,0,84.86,143l-.11.16A54,54,0,0,0,74,175.46a55,55,0,0,0,1.13,11l1,4.76a11.86,11.86,0,0,0-7.74,11.08,11.68,11.68,0,0,0,.36,2.89l2,7.89a15.83,15.83,0,0,0,12.84,11.81,47.57,47.57,0,0,0,17.09,22.48v13.48a3.46,3.46,0,0,1-2.84,3.41l-44.88,8.15a34.6,34.6,0,0,0-28.41,34V339.3a3.46,3.46,0,0,0,6.92,0V306.46a27.68,27.68,0,0,1,22.73-27.24l40-7.26a34.54,34.54,0,0,0,4.37,12.24,3.44,3.44,0,0,0,4.72,1.23h0a3.46,3.46,0,0,0,1.22-4.74h0a27.77,27.77,0,0,1-3.55-10.15,10.36,10.36,0,0,0,6.64-9.68v-9.37a47.52,47.52,0,0,0,41.53,0v9.37a10.39,10.39,0,0,0,6.65,9.69,27.58,27.58,0,0,1-27.4,23.77h0a28.59,28.59,0,0,1-4.13-.3,3.46,3.46,0,1,0-1,6.84,34,34,0,0,0,5.15.38A34.55,34.55,0,0,0,162.49,272l40,7.26a27.68,27.68,0,0,1,22.74,27.24V339.3a3.46,3.46,0,1,0,6.92,0V306.46A34.61,34.61,0,0,0,203.7,272.41Zm-75.39-23.09h0a40.52,40.52,0,0,1-38.91-28.7l-.75-2.43H86.07a8.93,8.93,0,0,1-8.67-6.78l-2-7.89a4.91,4.91,0,0,1,4.76-6.1h4.25L81.9,185.07c-.3-1.46-.53-2.94-.7-4.42,3.31-7.07,12-9.87,15.26-10.68l10.9,7.26a37.73,37.73,0,0,0,41.88,0l10.9-7.26c3.27.82,11.94,3.61,15.25,10.68-.16,1.48-.39,3-.69,4.42l-2.53,12.32v0h4.24a4.87,4.87,0,0,1,3.5,1.45,5,5,0,0,1,1.41,3.43,4.89,4.89,0,0,1-.15,1.21l-2,7.89a8.93,8.93,0,0,1-8.68,6.78H168l-.77,2.44A40.51,40.51,0,0,1,128.31,249.32Z"/><path d="M55.62,311.62a3.45,3.45,0,0,0-3.46,3.46V339.3a3.47,3.47,0,0,0,6.93,0V315.08A3.46,3.46,0,0,0,55.62,311.62Z"/><path d="M201,311.62a3.45,3.45,0,0,0-3.46,3.46V339.3a3.46,3.46,0,0,0,6.92,0V315.08A3.45,3.45,0,0,0,201,311.62Z"/><path d="M112.81,289.58a3.46,3.46,0,0,0-3.93,5.69h0l.06,0a3.46,3.46,0,1,0,4-5.64l-.14-.09Z"/><path d="M97.18,138.82a3.35,3.35,0,0,0,2.09-.7l0,0a3.47,3.47,0,1,0-2.12.72Z"/></g></g><path class="cls-2" d="M421.06,280.68V189.77a61.19,61.19,0,0,0-16.38-42,54.16,54.16,0,0,0-39.56-17.41c-30.89,0-55.94,26.61-55.94,59.44v90.91Z"/><path class="cls-6" d="M410.58,193.27v28c0,16.14-11.57,30.32-24.48,38.38-7.16,4.48-14.74,7.07-21,7.07s-13.81-2.59-21-7.07c-.86-.54-1.73-1.11-2.58-1.71a59.55,59.55,0,0,1-5.72-4.53c-9.18-8.23-16.17-19.59-16.17-32.14v-28s35-14,45.45-24.48C365.12,168.79,386.1,186.27,410.58,193.27Z"/><path class="cls-7" d="M470,340.11H260.23l8.2-32.18a35,35,0,0,1,26.41-24.61l14.34-2.8.31-.06,13.68-2.67v9.88a42,42,0,1,0,83.91,0v-9.88l14,2.73,14.34,2.8a35,35,0,0,1,26.42,24.61Z"/><circle class="cls-6" cx="344.14" cy="207.25" r="6.99"/><circle class="cls-6" cx="386.1" cy="207.25" r="6.99"/><path class="cls-6" d="M415.82,228.24h-5.24v-28h5.25a8.74,8.74,0,0,1,8.74,8.74V219.5A8.74,8.74,0,0,1,415.82,228.24Z"/><path class="cls-6" d="M407.08,277.79v9.88a42,42,0,1,1-83.91,0v-9.88l21-4.11V259.62c7.17,4.48,14.74,7.07,21,7.07s13.82-2.59,21-7.07v14.06Z"/><path d="M473.4,339.25l-8.19-32.18,0-.1a38.39,38.39,0,0,0-29.05-27.07h-.05l-11.52-2.25V228.06a12.16,12.16,0,0,0,3.5-8.55V209a12.16,12.16,0,0,0-3.5-8.57V189.77a64.47,64.47,0,0,0-17.34-44.43,57.43,57.43,0,0,0-42.1-18.5c-32.77,0-59.44,28.23-59.44,62.93v87.87l-11.51,2.25h-.05A38.39,38.39,0,0,0,265.07,307l0,.1-8.2,32.18a3.5,3.5,0,0,0,2.52,4.25,3.7,3.7,0,0,0,.87.11H470a3.5,3.5,0,0,0,3.5-3.49A3.7,3.7,0,0,0,473.4,339.25ZM421.07,209V219.5a5.26,5.26,0,0,1-5.25,5.25h-1.75v-21h1.75A5.25,5.25,0,0,1,421.07,209Zm-73.43,64.68v-8.14c6.05,3,12.16,4.64,17.48,4.64s11.43-1.67,17.48-4.64v8.14a3.5,3.5,0,0,0,2.83,3.42l18.15,3.55v7a38.46,38.46,0,0,1-76.92,0v-7l18.16-3.55A3.49,3.49,0,0,0,347.64,273.69Zm-9.47-22.92c-13.05-11.7-15-23.52-15-29.53V195.41c11.15-3,33-13.08,42-21.34,9,8.25,30.78,18.29,41.94,21.33v25.84c0,6-1.95,17.83-15,29.53-8.42,7.55-19,12.42-26.95,12.42S346.59,258.32,338.17,250.77Zm51.43,20v-9.31c10.33-6.93,19.5-17.48,23-29.75h3.24a11.36,11.36,0,0,0,1.75-.13v44.67Zm-76.92-81c0-30.85,23.52-55.94,52.44-55.94a50.53,50.53,0,0,1,37,16.3,57.49,57.49,0,0,1,15.44,39.64v7.13a12.72,12.72,0,0,0-1.74-.12h-1.76v-3.51c0-.11,0-.22,0-.32a3.49,3.49,0,0,0-2.84-3.76c-4.83-.88-14.5-4.63-23.54-9.12-10-5-17.5-10-19.62-13.12a3.53,3.53,0,0,0-4.9-.93,3.39,3.39,0,0,0-.92.93c-2.12,3.13-9.64,8.16-19.63,13.12-9,4.49-18.71,8.24-23.53,9.12a4.51,4.51,0,0,0-2.9,4.08v28c0,16.68,11.29,31.41,24.48,40.25v9.31l-28,5.47ZM428.06,336.62v-14a3.5,3.5,0,0,0-7,0v14H309.18v-14a3.5,3.5,0,0,0-7,0v14H264.73l7.07-27.77a31.39,31.39,0,0,1,23.74-22.1L319.67,282v5.64a45.46,45.46,0,0,0,90.91,0V282l24.13,4.72a31.42,31.42,0,0,1,23.74,22.1l7.07,27.77Z"/></g></g></svg>