<svg xmlns="http://www.w3.org/2000/svg" viewBox="0 0 500 500"><defs><style>.cls-1{fill:none;}.cls-2{fill:#525252;}.cls-3{fill:#ffdaaa;}.cls-4{fill:#ed1e79;}</style></defs><title>Perempuan</title><g id="Layer_2" data-name="Layer 2"><g id="Layer_1-2" data-name="Layer 1"><rect class="cls-1" width="500" height="500"/><path class="cls-2" d="M348.51,326.94v-161a108.35,108.35,0,0,0-29-74.45c-17.93-19-42.71-30.84-70.07-30.84-54.73,0-99.1,47.14-99.1,105.29v161Z"/><path class="cls-3" d="M329.93,172.1v49.55c0,28.59-20.5,53.71-43.36,68-12.69,7.93-26.1,12.52-37.16,12.52s-24.47-4.59-37.16-12.52q-2.31-1.44-4.58-3a105.93,105.93,0,0,1-10.13-8c-16.26-14.57-28.65-34.7-28.65-56.93V172.1s61.94-24.78,80.52-43.36C249.41,128.74,286.57,159.71,329.93,172.1Z"/><path class="cls-4" d="M435.22,432.23H63.6l14.52-57a61.94,61.94,0,0,1,46.79-43.59l25.4-5,.55-.1,24.23-4.74v17.5a74.32,74.32,0,1,0,148.64,0v-17.5l24.78,4.84,25.4,5a61.94,61.94,0,0,1,46.79,43.59Z"/><circle class="cls-3" cx="212.25" cy="196.87" r="12.39"/><circle class="cls-3" cx="286.57" cy="196.87" r="12.39"/><path class="cls-3" d="M339.22,234.05h-9.29V184.5h9.29A15.49,15.49,0,0,1,354.71,200v18.58A15.49,15.49,0,0,1,339.22,234.05Z"/><path class="cls-3" d="M323.73,321.82v17.5a74.32,74.32,0,1,1-148.64,0v-17.5l37.16-7.27V289.64c12.69,7.93,26.11,12.52,37.16,12.52s24.47-4.59,37.16-12.52v24.91Z"/><path d="M441.22,430.7l-14.52-57a1.21,1.21,0,0,0-.05-.18,68,68,0,0,0-51.46-47.95l-.09,0-20.4-4V233.72a21.53,21.53,0,0,0,6.2-15.14V200a21.6,21.6,0,0,0-6.2-15.18V165.9c0-29.7-10.91-57.65-30.71-78.69S277.6,54.42,249.41,54.42c-58.06,0-105.29,50-105.29,111.48V321.56l-20.4,4-.09,0a68,68,0,0,0-51.46,47.95c0,.06,0,.12,0,.18l-14.52,57a6.18,6.18,0,0,0,6,7.72H435.22a6.2,6.2,0,0,0,6-7.72ZM348.52,200v18.58a9.3,9.3,0,0,1-9.29,9.29h-3.11l0-37.16h3.09A9.29,9.29,0,0,1,348.52,200ZM218.44,314.56V300.13c10.73,5.28,21.54,8.23,31,8.23s20.25-2.95,31-8.23v14.43a6.21,6.21,0,0,0,5,6.07l32.16,6.28v12.41a68.13,68.13,0,0,1-136.26,0V326.91l32.16-6.28A6.21,6.21,0,0,0,218.44,314.56ZM201.67,274c-23.13-20.74-26.58-41.68-26.58-52.32V175.89c19.76-5.37,58.39-23.17,74.34-37.8,16,14.62,54.53,32.4,74.3,37.79v45.77c0,10.64-3.45,31.58-26.58,52.32-14.91,13.36-33.66,22-47.74,22S216.58,287.33,201.67,274Zm91.1,35.48V293c18.31-12.28,34.54-31,40.71-52.71h5.75a21.18,21.18,0,0,0,3.08-.23v79.12ZM156.51,165.9c0-54.64,41.67-99.09,92.9-99.09,24.74,0,48,10.25,65.56,28.88s27.34,43.67,27.34,70.21v12.64a21.18,21.18,0,0,0-3.08-.23h-3.11V172.1a5.3,5.3,0,0,0,0-.57,6.2,6.2,0,0,0-5-6.65c-8.55-1.57-25.69-8.21-41.69-16.16-17.69-8.78-31-17.69-34.76-23.25a6.26,6.26,0,0,0-10.32,0c-3.76,5.56-17.07,14.47-34.76,23.25-16,7.95-33.15,14.59-41.69,16.16a7.94,7.94,0,0,0-5.13,7.22v49.55c0,29.55,20,55.64,43.36,71.31v16.49l-49.55,9.69ZM360.89,426V401.26a6.19,6.19,0,1,0-12.38,0V426H150.31V401.26a6.19,6.19,0,0,0-12.38,0V426H71.57L84.1,376.84a55.61,55.61,0,0,1,42.05-39.14l42.74-8.36v10a80.52,80.52,0,0,0,161,0v-10l42.74,8.36a55.61,55.61,0,0,1,42.05,39.14L427.25,426Z"/></g></g></svg>